<?xml version="1.0" encoding="UTF-8" standalone="no"?>
<!-- Created with Inkscape (http://www.inkscape.org/) -->

<svg
   width="578.1875"
   height="767.59375"
   id="svg2"
   version="1.1"
   inkscape:version="1.2.2 (1:1.2.2+202212051550+b0a8486541)"
   sodipodi:docname="trace-FEM.svg"
   inkscape:export-filename="trace-FEM.png"
   inkscape:export-xdpi="261.027"
   inkscape:export-ydpi="261.027"
   xmlns:inkscape="http://www.inkscape.org/namespaces/inkscape"
   xmlns:sodipodi="http://sodipodi.sourceforge.net/DTD/sodipodi-0.dtd"
   xmlns="http://www.w3.org/2000/svg"
   xmlns:svg="http://www.w3.org/2000/svg"
   xmlns:rdf="http://www.w3.org/1999/02/22-rdf-syntax-ns#"
   xmlns:cc="http://creativecommons.org/ns#"
   xmlns:dc="http://purl.org/dc/elements/1.1/"
   xmlns:ns4="http://www.iki.fi/pav/software/textext/">
  <defs
     id="defs4" />
  <sodipodi:namedview
     id="base"
     pagecolor="#ffffff"
     bordercolor="#666666"
     borderopacity="1.0"
     inkscape:pageopacity="0.0"
     inkscape:pageshadow="2"
     inkscape:zoom="0.7"
     inkscape:cx="270.71429"
     inkscape:cy="407.85714"
     inkscape:document-units="px"
     inkscape:current-layer="id-01ed3ac0-f439-4489-aae5-3d0961565001"
     showgrid="false"
     inkscape:object-nodes="true"
     inkscape:snap-global="false"
     inkscape:window-width="1848"
     inkscape:window-height="1016"
     inkscape:window-x="72"
     inkscape:window-y="27"
     inkscape:window-maximized="1"
     inkscape:snap-object-midpoints="true"
     inkscape:object-paths="true"
     inkscape:snap-center="true"
     inkscape:snap-bbox="true"
     fit-margin-top="12"
     fit-margin-left="12"
     fit-margin-bottom="12"
     fit-margin-right="12"
     inkscape:showpageshadow="0"
     inkscape:pagecheckerboard="1"
     inkscape:deskcolor="#d1d1d1" />
  <metadata
     id="metadata7">
    <rdf:RDF>
      <cc:Work
         rdf:about="">
        <dc:format>image/svg+xml</dc:format>
        <dc:type
           rdf:resource="http://purl.org/dc/dcmitype/StillImage" />
      </cc:Work>
    </rdf:RDF>
  </metadata>
  <g
     inkscape:label="Layer 1"
     inkscape:groupmode="layer"
     id="layer1"
     transform="translate(-3573.28, 816.812)">
    <rect
       y="-803.31299"
       x="3586.793"
       height="92.573425"
       width="91.863159"
       id="rect5357"
       style="fill:none;stroke:#000000;stroke-width:5.66929134;stroke-linecap:butt;stroke-linejoin:miter;stroke-miterlimit:4;stroke-opacity:1;stroke-dasharray:none;stroke-dashoffset:0" />
    <rect
       style="fill:none;stroke:#000000;stroke-width:5.66929134;stroke-linecap:butt;stroke-linejoin:miter;stroke-miterlimit:4;stroke-opacity:1;stroke-dasharray:none;stroke-dashoffset:0"
       id="rect5359"
       width="91.863159"
       height="92.573425"
       x="4046.1089"
       y="-803.31299" />
    <rect
       y="-710.73956"
       x="4046.1089"
       height="92.573425"
       width="91.863159"
       id="rect5361"
       style="fill:none;stroke:#000000;stroke-width:5.66929134;stroke-linecap:butt;stroke-linejoin:miter;stroke-miterlimit:4;stroke-opacity:1;stroke-dasharray:none;stroke-dashoffset:0" />
    <rect
       style="fill:none;stroke:#000000;stroke-width:5.66929134;stroke-linecap:butt;stroke-linejoin:miter;stroke-miterlimit:4;stroke-opacity:1;stroke-dasharray:none;stroke-dashoffset:0"
       id="rect5403"
       width="91.863159"
       height="92.573425"
       x="3586.793"
       y="-155.29904" />
    <rect
       style="fill:#ffe680;fill-opacity:1;stroke:#000000;stroke-width:5.66929134;stroke-linecap:butt;stroke-linejoin:miter;stroke-miterlimit:4;stroke-opacity:1;stroke-dasharray:none;stroke-dashoffset:0"
       id="rect5407"
       width="91.863159"
       height="92.573425"
       x="3678.656"
       y="-803.31299" />
    <rect
       y="-803.31299"
       x="3770.519"
       height="92.573425"
       width="91.863159"
       id="rect5409"
       style="fill:#ffe680;fill-opacity:1;stroke:#000000;stroke-width:5.66929134;stroke-linecap:butt;stroke-linejoin:miter;stroke-miterlimit:4;stroke-opacity:1;stroke-dasharray:none;stroke-dashoffset:0" />
    <rect
       style="fill:#ffe680;fill-opacity:1;stroke:#000000;stroke-width:5.66929134;stroke-linecap:butt;stroke-linejoin:miter;stroke-miterlimit:4;stroke-opacity:1;stroke-dasharray:none;stroke-dashoffset:0"
       id="rect5411"
       width="91.863159"
       height="92.573425"
       x="3862.3823"
       y="-803.31299" />
    <rect
       y="-803.31299"
       x="3954.2454"
       height="92.573425"
       width="91.863159"
       id="rect5413"
       style="fill:#ffe680;fill-opacity:1;stroke:#000000;stroke-width:5.66929134;stroke-linecap:butt;stroke-linejoin:miter;stroke-miterlimit:4;stroke-opacity:1;stroke-dasharray:none;stroke-dashoffset:0" />
    <rect
       style="fill:#ffe680;fill-opacity:1;stroke:#000000;stroke-width:5.66929134;stroke-linecap:butt;stroke-linejoin:miter;stroke-miterlimit:4;stroke-opacity:1;stroke-dasharray:none;stroke-dashoffset:0"
       id="rect5415"
       width="91.863159"
       height="92.573425"
       x="3586.7927"
       y="-710.73956" />
    <rect
       y="-710.73956"
       x="3678.656"
       height="92.573425"
       width="91.863159"
       id="rect5417"
       style="fill:#ffe680;fill-opacity:1;stroke:#000000;stroke-width:5.66929134;stroke-linecap:butt;stroke-linejoin:miter;stroke-miterlimit:4;stroke-opacity:1;stroke-dasharray:none;stroke-dashoffset:0" />
    <rect
       style="fill:#ffe680;fill-opacity:1;stroke:#000000;stroke-width:5.66929134;stroke-linecap:butt;stroke-linejoin:miter;stroke-miterlimit:4;stroke-opacity:1;stroke-dasharray:none;stroke-dashoffset:0"
       id="rect5419"
       width="91.863159"
       height="92.573425"
       x="3954.2454"
       y="-710.73956" />
    <rect
       style="fill:#ffe680;fill-opacity:1;stroke:#000000;stroke-width:5.66929134;stroke-linecap:butt;stroke-linejoin:miter;stroke-miterlimit:4;stroke-opacity:1;stroke-dasharray:none;stroke-dashoffset:0"
       id="rect5421"
       width="91.863159"
       height="92.573425"
       x="3586.7927"
       y="-618.16614" />
    <rect
       style="fill:#ffe680;fill-opacity:1;stroke:#000000;stroke-width:5.66929134;stroke-linecap:butt;stroke-linejoin:miter;stroke-miterlimit:4;stroke-opacity:1;stroke-dasharray:none;stroke-dashoffset:0"
       id="rect5423"
       width="91.863159"
       height="92.573425"
       x="3954.2454"
       y="-618.16614" />
    <rect
       y="-618.16614"
       x="4046.1086"
       height="92.573425"
       width="91.863159"
       id="rect5425"
       style="fill:#ffe680;fill-opacity:1;stroke:#000000;stroke-width:5.66929134;stroke-linecap:butt;stroke-linejoin:miter;stroke-miterlimit:4;stroke-opacity:1;stroke-dasharray:none;stroke-dashoffset:0" />
    <rect
       y="-525.59271"
       x="3586.7927"
       height="92.573425"
       width="91.863159"
       id="rect5427"
       style="fill:#ffe680;fill-opacity:1;stroke:#000000;stroke-width:5.66929134;stroke-linecap:butt;stroke-linejoin:miter;stroke-miterlimit:4;stroke-opacity:1;stroke-dasharray:none;stroke-dashoffset:0" />
    <rect
       style="fill:#ffe680;fill-opacity:1;stroke:#000000;stroke-width:5.66929134;stroke-linecap:butt;stroke-linejoin:miter;stroke-miterlimit:4;stroke-opacity:1;stroke-dasharray:none;stroke-dashoffset:0"
       id="rect5429"
       width="91.863159"
       height="92.573425"
       x="4046.1086"
       y="-525.59271" />
    <rect
       style="fill:#ffe680;fill-opacity:1;stroke:#000000;stroke-width:5.66929134;stroke-linecap:butt;stroke-linejoin:miter;stroke-miterlimit:4;stroke-opacity:1;stroke-dasharray:none;stroke-dashoffset:0"
       id="rect5431"
       width="91.863159"
       height="92.573425"
       x="3586.7927"
       y="-433.01932" />
    <rect
       y="-433.01932"
       x="4046.1086"
       height="92.573425"
       width="91.863159"
       id="rect5433"
       style="fill:#ffe680;fill-opacity:1;stroke:#000000;stroke-width:5.66929134;stroke-linecap:butt;stroke-linejoin:miter;stroke-miterlimit:4;stroke-opacity:1;stroke-dasharray:none;stroke-dashoffset:0" />
    <rect
       y="-340.44589"
       x="3586.7927"
       height="92.573425"
       width="91.863159"
       id="rect5435"
       style="fill:#ffe680;fill-opacity:1;stroke:#000000;stroke-width:5.66929134;stroke-linecap:butt;stroke-linejoin:miter;stroke-miterlimit:4;stroke-opacity:1;stroke-dasharray:none;stroke-dashoffset:0" />
    <rect
       style="fill:#ffe680;fill-opacity:1;stroke:#000000;stroke-width:5.66929134;stroke-linecap:butt;stroke-linejoin:miter;stroke-miterlimit:4;stroke-opacity:1;stroke-dasharray:none;stroke-dashoffset:0"
       id="rect5437"
       width="91.863159"
       height="92.573425"
       x="4046.1086"
       y="-340.44589" />
    <rect
       y="-247.87247"
       x="3586.7927"
       height="92.573425"
       width="91.863159"
       id="rect5439"
       style="fill:#ffe680;fill-opacity:1;stroke:#000000;stroke-width:5.66929134;stroke-linecap:butt;stroke-linejoin:miter;stroke-miterlimit:4;stroke-opacity:1;stroke-dasharray:none;stroke-dashoffset:0" />
    <rect
       style="fill:#ffe680;fill-opacity:1;stroke:#000000;stroke-width:5.66929134;stroke-linecap:butt;stroke-linejoin:miter;stroke-miterlimit:4;stroke-opacity:1;stroke-dasharray:none;stroke-dashoffset:0"
       id="rect5441"
       width="91.863159"
       height="92.573425"
       x="3678.656"
       y="-247.87247" />
    <rect
       y="-247.87247"
       x="3954.2454"
       height="92.573425"
       width="91.863159"
       id="rect5443"
       style="fill:#ffe680;fill-opacity:1;stroke:#000000;stroke-width:5.66929134;stroke-linecap:butt;stroke-linejoin:miter;stroke-miterlimit:4;stroke-opacity:1;stroke-dasharray:none;stroke-dashoffset:0" />
    <rect
       style="fill:#ffe680;fill-opacity:1;stroke:#000000;stroke-width:5.66929134;stroke-linecap:butt;stroke-linejoin:miter;stroke-miterlimit:4;stroke-opacity:1;stroke-dasharray:none;stroke-dashoffset:0"
       id="rect5445"
       width="91.863159"
       height="92.573425"
       x="4046.1086"
       y="-247.87247" />
    <rect
       y="-155.29904"
       x="3678.656"
       height="92.573425"
       width="91.863159"
       id="rect5447"
       style="fill:#ffe680;fill-opacity:1;stroke:#000000;stroke-width:5.66929134;stroke-linecap:butt;stroke-linejoin:miter;stroke-miterlimit:4;stroke-opacity:1;stroke-dasharray:none;stroke-dashoffset:0" />
    <rect
       style="fill:#ffe680;fill-opacity:1;stroke:#000000;stroke-width:5.66929134;stroke-linecap:butt;stroke-linejoin:miter;stroke-miterlimit:4;stroke-opacity:1;stroke-dasharray:none;stroke-dashoffset:0"
       id="rect5449"
       width="91.863159"
       height="92.573425"
       x="3770.519"
       y="-155.29904" />
    <rect
       y="-155.29904"
       x="3862.3823"
       height="92.573425"
       width="91.863159"
       id="rect5451"
       style="fill:#ffe680;fill-opacity:1;stroke:#000000;stroke-width:5.66929134;stroke-linecap:butt;stroke-linejoin:miter;stroke-miterlimit:4;stroke-opacity:1;stroke-dasharray:none;stroke-dashoffset:0" />
    <rect
       style="fill:#ffe680;fill-opacity:1;stroke:#000000;stroke-width:5.66929134;stroke-linecap:butt;stroke-linejoin:miter;stroke-miterlimit:4;stroke-opacity:1;stroke-dasharray:none;stroke-dashoffset:0"
       id="rect5453"
       width="91.863159"
       height="92.573425"
       x="3954.2454"
       y="-155.29904" />
    <rect
       y="-155.29904"
       x="4046.1089"
       height="92.573425"
       width="91.863159"
       id="rect5455"
       style="fill:none;stroke:#000000;stroke-width:5.66929134;stroke-linecap:butt;stroke-linejoin:miter;stroke-miterlimit:4;stroke-opacity:1;stroke-dasharray:none;stroke-dashoffset:0" />
    <path
       sodipodi:nodetypes="czzcssc"
       inkscape:connector-curvature="0"
       id="path5457"
       d="m 3661.2928,-450.01746 c 9.3706,-60.81901 -32.5867,-161.35519 2.0415,-223.63091 34.6283,-62.27571 164.2346,-78.89184 228.5757,-75.13741 64.3411,3.75444 96.1089,40.51815 124.4144,91.43292 57.0922,120.82298 81.8272,307.39088 34.3768,450.81146 -28.7598,86.9276 -112.5722,76.86444 -175.9384,77.17875 -273.4969,1.35662 -243.4403,-126.42282 -213.47,-320.65481 z"
       style="fill:none;stroke:#ff2a2a;stroke-width:9.4488189;stroke-linecap:butt;stroke-linejoin:miter;stroke-miterlimit:4;stroke-opacity:1;stroke-dasharray:none" />
    <g
       transform="matrix(11.5045 0 0 11.5045 3762.02 -449.171)"
       ns4:version="1.8.1"
       ns4:texconverter="pdflatex"
       ns4:pdfconverter="inkscape"
       ns4:text="$\\Omega_{\\rm cut}$"
       ns4:preamble="/home/eric-neiva/.config/inkscape/extensions/textext/default_packages.tex"
       ns4:scale="4.32639052686912"
       ns4:alignment="middle center"
       ns4:stroke-to-path="0"
       ns4:inkscapeversion="1.2.2"
       ns4:jacobian_sqrt="5.76851"
       id="g859"
       style="fill:#ffe680;fill-opacity:1;stroke-width:0.49278727;stroke-dasharray:none">
      <defs
         id="id-7c0f1656-5bae-484d-bfd5-68551f4ed32b">
        <g
           id="id-61cc5be3-e3bc-43e9-8bcd-eef899435f41">
          <symbol
             overflow="visible"
             id="id-33a200f5-9168-4b58-8804-a7b798ce8c8b">
            <path
               style="stroke:none;stroke-width:0"
               d=""
               id="id-d860805c-45de-4670-ab74-6bb90432bb1f" />
          </symbol>
          <symbol
             overflow="visible"
             id="id-63ec9244-a236-4167-b0a6-bb7f2cd9863b">
            <path
               style="stroke:none;stroke-width:0"
               d="M 6.75,-1.609375 H 6.5 c -0.046875,0.25 -0.09375,0.484375 -0.1875,0.71875 -0.046875,0.15625 -0.078125,0.25 -0.65625,0.25 H 4.859375 C 5,-1.203125 5.296875,-1.6875 5.75,-2.34375 c 0.46875,-0.703125 0.875,-1.390625 0.875,-2.1875 0,-1.375 -1.34375,-2.5 -3.03125,-2.5 -1.703125,0 -3.03125,1.140625 -3.03125,2.5 0,0.796875 0.40625,1.484375 0.875,2.1875 0.4375,0.65625 0.75,1.140625 0.890625,1.703125 H 1.53125 C 0.953125,-0.640625 0.921875,-0.734375 0.875,-0.875 0.78125,-1.109375 0.734375,-1.359375 0.6875,-1.609375 h -0.25 L 0.765625,0 h 1.59375 c 0.21875,0 0.25,0 0.25,-0.203125 0,-0.703125 -0.3125,-1.578125 -0.53125,-2.21875 -0.21875,-0.578125 -0.5,-1.359375 -0.5,-2.109375 0,-1.59375 1.109375,-2.28125 2.015625,-2.28125 0.953125,0 2.015625,0.71875 2.015625,2.28125 0,0.75 -0.28125,1.5 -0.5625,2.3125 -0.15625,0.421875 -0.46875,1.328125 -0.46875,2.015625 C 4.578125,0 4.609375,0 4.828125,0 h 1.59375 z m 0,0"
               id="id-9378e4ad-eadd-4ab8-a1ca-dbf37b06c4a3" />
          </symbol>
          <symbol
             overflow="visible"
             id="id-0f62e7fa-3cec-4c43-bd04-3ac26c6a835a">
            <path
               style="stroke:none;stroke-width:0"
               d=""
               id="id-9c8f248e-d339-4eba-8701-6b6e9d60bcf8" />
          </symbol>
          <symbol
             overflow="visible"
             id="id-9335b4db-49b7-4bde-9e1c-a2e9498ac531">
            <path
               style="stroke:none;stroke-width:0"
               d="m 2.703125,-2.78125 c -0.125,0.0625 -0.1875,0.171875 -0.1875,0.3125 0,0.1875 0.125,0.328125 0.328125,0.328125 0.1875,0 0.328125,-0.125 0.328125,-0.34375 0,-0.625 -0.96875,-0.625 -1.15625,-0.625 -1.046875,0 -1.6875,0.796875 -1.6875,1.609375 0,0.875 0.734375,1.5625 1.65625,1.5625 1.03125,0 1.28125,-0.8125 1.28125,-0.90625 0,-0.078125 -0.09375,-0.078125 -0.125,-0.078125 -0.09375,0 -0.09375,0.015625 -0.125,0.125 C 2.859375,-0.375 2.484375,-0.15625 2.0625,-0.15625 c -0.484375,0 -1.109375,-0.359375 -1.109375,-1.359375 0,-0.875 0.4375,-1.375 1.078125,-1.375 0.09375,0 0.421875,0 0.671875,0.109375 z m 0,0"
               id="id-1a87c786-8d9b-4937-a87c-cb30c5d014a1" />
          </symbol>
          <symbol
             overflow="visible"
             id="id-b45fe7a8-0a4d-4156-acbb-0688c0b52b59">
            <path
               style="stroke:none;stroke-width:0"
               d="m 2.515625,-3 v 0.25 c 0.46875,0 0.515625,0.046875 0.515625,0.390625 v 1.203125 c 0,0.609375 -0.390625,1.03125 -0.921875,1.03125 -0.625,0 -0.65625,-0.296875 -0.65625,-0.65625 V -3.078125 L 0.375,-3 v 0.25 c 0.53125,0 0.53125,0.03125 0.53125,0.640625 V -1.0625 c 0,0.484375 0,1.125 1.15625,1.125 0.15625,0 0.65625,0 1,-0.578125 V 0.0625 L 4.109375,0 v -0.25 c -0.46875,0 -0.515625,-0.046875 -0.515625,-0.390625 v -2.4375 z m 0,0"
               id="id-df2a1d31-83d0-4fff-893e-d855513c8253" />
          </symbol>
          <symbol
             overflow="visible"
             id="id-e356ba8d-c630-467c-b4ab-305b7e79274b">
            <path
               style="stroke:none;stroke-width:0"
               d="M 1.40625,-2.75 H 2.484375 V -3 H 1.40625 v -1.28125 h -0.25 c 0,0.625 -0.28125,1.3125 -0.953125,1.328125 V -2.75 H 0.84375 v 1.875 c 0,0.78125 0.59375,0.9375 0.984375,0.9375 0.46875,0 0.78125,-0.390625 0.78125,-0.9375 V -1.265625 H 2.375 v 0.375 c 0,0.484375 -0.21875,0.734375 -0.5,0.734375 -0.46875,0 -0.46875,-0.578125 -0.46875,-0.703125 z m 0,0"
               id="id-2fc938ef-8417-4c8a-b317-133a4c79906a" />
          </symbol>
        </g>
      </defs>
      <g
         id="id-01ed3ac0-f439-4489-aae5-3d0961565001"
         transform="translate(-149.15, -127.734)"
         style="fill:#ffe680;fill-opacity:1;stroke-width:0.49278727;stroke-dasharray:none">
        <g
           transform="matrix(1.1633058,0,0,1.1633058,147.83393,131.93199)"
           ns4:version="1.8.1"
           ns4:texconverter="pdflatex"
           ns4:pdfconverter="inkscape"
           ns4:text="$\\Omega_{\\rm cut}$"
           ns4:preamble="/home/eric-neiva/.config/inkscape/extensions/textext/default_packages.tex"
           ns4:scale="4.32639052686912"
           ns4:alignment="middle center"
           ns4:stroke-to-path="0"
           ns4:inkscapeversion="1.2.2"
           ns4:jacobian_sqrt="0.501413"
           id="g11966"
           style="fill:#ffe680;fill-opacity:1">
          <defs
             id="id-0ec647d3-0a5c-4002-86df-d1ece0d9b5ce">
            <g
               id="id-24c1ffc8-f0a5-4d6e-853b-b5c7d050e57a">
              <symbol
                 overflow="visible"
                 id="id-bc978167-a5cf-4ea6-94b3-4150e4e1b0c7">
                <path
                   style="stroke:none;stroke-width:0"
                   d=""
                   id="id-bcfb9b50-102c-4f95-96ae-2befe17de7ff" />
              </symbol>
              <symbol
                 overflow="visible"
                 id="id-1dafc40a-376e-4afe-b8e3-f252fad65c1d">
                <path
                   style="stroke:none;stroke-width:0"
                   d="M 6.75,-1.609375 H 6.5 c -0.046875,0.25 -0.09375,0.484375 -0.1875,0.71875 -0.046875,0.15625 -0.078125,0.25 -0.65625,0.25 H 4.859375 C 5,-1.203125 5.296875,-1.6875 5.75,-2.34375 c 0.46875,-0.703125 0.875,-1.390625 0.875,-2.1875 0,-1.375 -1.34375,-2.5 -3.03125,-2.5 -1.703125,0 -3.03125,1.140625 -3.03125,2.5 0,0.796875 0.40625,1.484375 0.875,2.1875 0.4375,0.65625 0.75,1.140625 0.890625,1.703125 H 1.53125 C 0.953125,-0.640625 0.921875,-0.734375 0.875,-0.875 0.78125,-1.109375 0.734375,-1.359375 0.6875,-1.609375 h -0.25 L 0.765625,0 h 1.59375 c 0.21875,0 0.25,0 0.25,-0.203125 0,-0.703125 -0.3125,-1.578125 -0.53125,-2.21875 -0.21875,-0.578125 -0.5,-1.359375 -0.5,-2.109375 0,-1.59375 1.109375,-2.28125 2.015625,-2.28125 0.953125,0 2.015625,0.71875 2.015625,2.28125 0,0.75 -0.28125,1.5 -0.5625,2.3125 -0.15625,0.421875 -0.46875,1.328125 -0.46875,2.015625 C 4.578125,0 4.609375,0 4.828125,0 h 1.59375 z m 0,0"
                   id="id-60ba32dc-6ccd-4480-ad50-897cb76adeef" />
              </symbol>
              <symbol
                 overflow="visible"
                 id="id-df7f3c15-af3f-460c-aa53-d9084c9cb842">
                <path
                   style="stroke:none;stroke-width:0"
                   d=""
                   id="id-76dd9a0f-a9c4-4b78-9d38-c32c27935a79" />
              </symbol>
              <symbol
                 overflow="visible"
                 id="id-b0bc5280-7233-4d9d-8378-80de046cbb18">
                <path
                   style="stroke:none;stroke-width:0"
                   d="m 2.703125,-2.78125 c -0.125,0.0625 -0.1875,0.171875 -0.1875,0.3125 0,0.1875 0.125,0.328125 0.328125,0.328125 0.1875,0 0.328125,-0.125 0.328125,-0.34375 0,-0.625 -0.96875,-0.625 -1.15625,-0.625 -1.046875,0 -1.6875,0.796875 -1.6875,1.609375 0,0.875 0.734375,1.5625 1.65625,1.5625 1.03125,0 1.28125,-0.8125 1.28125,-0.90625 0,-0.078125 -0.09375,-0.078125 -0.125,-0.078125 -0.09375,0 -0.09375,0.015625 -0.125,0.125 C 2.859375,-0.375 2.484375,-0.15625 2.0625,-0.15625 c -0.484375,0 -1.109375,-0.359375 -1.109375,-1.359375 0,-0.875 0.4375,-1.375 1.078125,-1.375 0.09375,0 0.421875,0 0.671875,0.109375 z m 0,0"
                   id="id-3e9cb8cf-53ab-474c-812a-50efced6c214" />
              </symbol>
              <symbol
                 overflow="visible"
                 id="id-0ea1a591-0c47-4697-8541-8eb7b278e6fa">
                <path
                   style="stroke:none;stroke-width:0"
                   d="m 2.515625,-3 v 0.25 c 0.46875,0 0.515625,0.046875 0.515625,0.390625 v 1.203125 c 0,0.609375 -0.390625,1.03125 -0.921875,1.03125 -0.625,0 -0.65625,-0.296875 -0.65625,-0.65625 V -3.078125 L 0.375,-3 v 0.25 c 0.53125,0 0.53125,0.03125 0.53125,0.640625 V -1.0625 c 0,0.484375 0,1.125 1.15625,1.125 0.15625,0 0.65625,0 1,-0.578125 V 0.0625 L 4.109375,0 v -0.25 c -0.46875,0 -0.515625,-0.046875 -0.515625,-0.390625 v -2.4375 z m 0,0"
                   id="id-26b4e6d9-f638-4e4f-8a5e-e592e4e2abe7" />
              </symbol>
              <symbol
                 overflow="visible"
                 id="id-936f4afc-bd6c-4d07-b454-21090f45c3cd">
                <path
                   style="stroke:none;stroke-width:0"
                   d="M 1.40625,-2.75 H 2.484375 V -3 H 1.40625 v -1.28125 h -0.25 c 0,0.625 -0.28125,1.3125 -0.953125,1.328125 V -2.75 H 0.84375 v 1.875 c 0,0.78125 0.59375,0.9375 0.984375,0.9375 0.46875,0 0.78125,-0.390625 0.78125,-0.9375 V -1.265625 H 2.375 v 0.375 c 0,0.484375 -0.21875,0.734375 -0.5,0.734375 -0.46875,0 -0.46875,-0.578125 -0.46875,-0.703125 z m 0,0"
                   id="id-8125a62d-c9cc-47c2-80a3-f90b26875344" />
              </symbol>
            </g>
          </defs>
          <g
             id="id-0f4ca527-e3a9-4051-b72a-ab9bebca1688"
             transform="translate(-149.15,-127.734)"
             style="fill:#ffe680;fill-opacity:1">
            <g
               style="fill:#ffe680;fill-opacity:1"
               id="id-105eae3f-8856-46bb-ba04-f72f0a835e45">
              <g
                 transform="translate(148.712,134.765)"
                 id="g11952"
                 style="fill:#ffe680;fill-opacity:1">
                <path
                   style="fill:#ffe680;fill-opacity:1;stroke:none;stroke-width:0"
                   d="M 6.75,-1.609375 H 6.5 c -0.046875,0.25 -0.09375,0.484375 -0.1875,0.71875 -0.046875,0.15625 -0.078125,0.25 -0.65625,0.25 H 4.859375 C 5,-1.203125 5.296875,-1.6875 5.75,-2.34375 c 0.46875,-0.703125 0.875,-1.390625 0.875,-2.1875 0,-1.375 -1.34375,-2.5 -3.03125,-2.5 -1.703125,0 -3.03125,1.140625 -3.03125,2.5 0,0.796875 0.40625,1.484375 0.875,2.1875 0.4375,0.65625 0.75,1.140625 0.890625,1.703125 H 1.53125 C 0.953125,-0.640625 0.921875,-0.734375 0.875,-0.875 0.78125,-1.109375 0.734375,-1.359375 0.6875,-1.609375 h -0.25 L 0.765625,0 h 1.59375 c 0.21875,0 0.25,0 0.25,-0.203125 0,-0.703125 -0.3125,-1.578125 -0.53125,-2.21875 -0.21875,-0.578125 -0.5,-1.359375 -0.5,-2.109375 0,-1.59375 1.109375,-2.28125 2.015625,-2.28125 0.953125,0 2.015625,0.71875 2.015625,2.28125 0,0.75 -0.28125,1.5 -0.5625,2.3125 -0.15625,0.421875 -0.46875,1.328125 -0.46875,2.015625 C 4.578125,0 4.609375,0 4.828125,0 h 1.59375 z m 0,0"
                   id="id-137be507-3bf4-4b9b-b732-5e82881b6ff5" />
              </g>
            </g>
            <g
               style="fill:#ffe680;fill-opacity:1"
               id="id-d5c95c2e-3c20-4555-8d9e-1f67467e9bda">
              <g
                 transform="translate(155.908,136.259)"
                 id="g11956"
                 style="fill:#ffe680;fill-opacity:1">
                <path
                   style="fill:#ffe680;fill-opacity:1;stroke:none;stroke-width:0"
                   d="m 2.703125,-2.78125 c -0.125,0.0625 -0.1875,0.171875 -0.1875,0.3125 0,0.1875 0.125,0.328125 0.328125,0.328125 0.1875,0 0.328125,-0.125 0.328125,-0.34375 0,-0.625 -0.96875,-0.625 -1.15625,-0.625 -1.046875,0 -1.6875,0.796875 -1.6875,1.609375 0,0.875 0.734375,1.5625 1.65625,1.5625 1.03125,0 1.28125,-0.8125 1.28125,-0.90625 0,-0.078125 -0.09375,-0.078125 -0.125,-0.078125 -0.09375,0 -0.09375,0.015625 -0.125,0.125 C 2.859375,-0.375 2.484375,-0.15625 2.0625,-0.15625 c -0.484375,0 -1.109375,-0.359375 -1.109375,-1.359375 0,-0.875 0.4375,-1.375 1.078125,-1.375 0.09375,0 0.421875,0 0.671875,0.109375 z m 0,0"
                   id="id-cc09390f-595c-42ee-8b02-4dfc51a9640d" />
              </g>
              <g
                 transform="translate(159.45,136.259)"
                 id="g11959"
                 style="fill:#ffe680;fill-opacity:1">
                <path
                   style="fill:#ffe680;fill-opacity:1;stroke:none;stroke-width:0"
                   d="m 2.515625,-3 v 0.25 c 0.46875,0 0.515625,0.046875 0.515625,0.390625 v 1.203125 c 0,0.609375 -0.390625,1.03125 -0.921875,1.03125 -0.625,0 -0.65625,-0.296875 -0.65625,-0.65625 V -3.078125 L 0.375,-3 v 0.25 c 0.53125,0 0.53125,0.03125 0.53125,0.640625 V -1.0625 c 0,0.484375 0,1.125 1.15625,1.125 0.15625,0 0.65625,0 1,-0.578125 V 0.0625 L 4.109375,0 v -0.25 c -0.46875,0 -0.515625,-0.046875 -0.515625,-0.390625 v -2.4375 z m 0,0"
                   id="id-0d862f5e-beb0-4fd8-b05c-dc15f8e8930c" />
              </g>
              <g
                 transform="translate(163.85,136.259)"
                 id="g11962"
                 style="fill:#ffe680;fill-opacity:1">
                <path
                   style="fill:#ffe680;fill-opacity:1;stroke:none;stroke-width:0"
                   d="M 1.40625,-2.75 H 2.484375 V -3 H 1.40625 v -1.28125 h -0.25 c 0,0.625 -0.28125,1.3125 -0.953125,1.328125 V -2.75 H 0.84375 v 1.875 c 0,0.78125 0.59375,0.9375 0.984375,0.9375 0.46875,0 0.78125,-0.390625 0.78125,-0.9375 V -1.265625 H 2.375 v 0.375 c 0,0.484375 -0.21875,0.734375 -0.5,0.734375 -0.46875,0 -0.46875,-0.578125 -0.46875,-0.703125 z m 0,0"
                   id="id-e7771524-3bd9-4f18-9f78-f9b7449b77da" />
              </g>
            </g>
          </g>
        </g>
      </g>
    </g>
    <g
       transform="matrix(12.60718,0,0,12.60718,3829.1243,-687.85649)"
       ns4:version="1.8.1"
       ns4:texconverter="pdflatex"
       ns4:pdfconverter="inkscape"
       ns4:text="$\\Gamma$"
       ns4:preamble="/home/eric-neiva/.config/inkscape/extensions/textext/default_packages.tex"
       ns4:scale="4.32639052686912"
       ns4:alignment="middle center"
       ns4:stroke-to-path="0"
       ns4:inkscapeversion="1.2.2"
       ns4:jacobian_sqrt="5.76851"
       id="g1396"
       style="fill:#ff2a2a;fill-opacity:1;stroke-width:0.44968751;stroke-dasharray:none">
      <defs
         id="id-203bc706-73b8-414e-955c-0eb9333d80b7">
        <g
           id="id-9f2c7483-ee10-4e71-8042-5a883bc83597">
          <symbol
             overflow="visible"
             id="id-cfb51155-5c88-4262-9fc3-22bff4da63db">
            <path
               style="stroke:none;stroke-width:0"
               d=""
               id="id-db89cf51-7e7a-4f41-a4dd-7d3e4039f135" />
          </symbol>
          <symbol
             overflow="visible"
             id="id-abd18956-d4ac-45b2-97a2-ac4436102d6a">
            <path
               style="stroke:none;stroke-width:0"
               d="m 5.515625,-6.78125 h -5.1875 v 0.3125 H 0.5625 c 0.765625,0 0.796875,0.109375 0.796875,0.46875 v 5.21875 c 0,0.359375 -0.03125,0.46875 -0.796875,0.46875 H 0.328125 V 0 c 0.34375,-0.03125 1.125,-0.03125 1.515625,-0.03125 0.40625,0 1.3125,0 1.671875,0.03125 V -0.3125 H 3.1875 C 2.25,-0.3125 2.25,-0.4375 2.25,-0.78125 v -5.296875 c 0,-0.328125 0.015625,-0.390625 0.484375,-0.390625 h 1.03125 c 1.421875,0 1.625,0.59375 1.78125,1.9375 h 0.25 z m 0,0"
               id="id-2a1c8134-1caa-4611-80e6-541464b7083b" />
          </symbol>
        </g>
      </defs>
      <g
         id="id-3932fe74-0d63-48be-bb25-23334a8b7383"
         transform="translate(-149.04,-127.984)"
         style="fill:#ff2a2a;fill-opacity:1;stroke-width:0.44968751;stroke-dasharray:none">
        <g
           style="fill:#ff2a2a;fill-opacity:1;stroke-width:0.44968751;stroke-dasharray:none"
           id="id-34f40c86-b915-4472-ad47-d2feaeab5570">
          <g
             transform="translate(148.712,134.765)"
             id="g1392"
             style="fill:#ff2a2a;fill-opacity:1;stroke-width:0.44968751;stroke-dasharray:none">
            <path
               style="fill:#ff2a2a;fill-opacity:1;stroke:none;stroke-width:0.44968751;stroke-dasharray:none"
               d="m 5.515625,-6.78125 h -5.1875 v 0.3125 H 0.5625 c 0.765625,0 0.796875,0.109375 0.796875,0.46875 v 5.21875 c 0,0.359375 -0.03125,0.46875 -0.796875,0.46875 H 0.328125 V 0 c 0.34375,-0.03125 1.125,-0.03125 1.515625,-0.03125 0.40625,0 1.3125,0 1.671875,0.03125 V -0.3125 H 3.1875 C 2.25,-0.3125 2.25,-0.4375 2.25,-0.78125 v -5.296875 c 0,-0.328125 0.015625,-0.390625 0.484375,-0.390625 h 1.03125 c 1.421875,0 1.625,0.59375 1.78125,1.9375 h 0.25 z m 0,0"
               id="id-43992230-8317-4d11-9170-8483e6028e1a" />
          </g>
        </g>
      </g>
    </g>
  </g>
</svg>
