<?xml version="1.0" encoding="UTF-8" standalone="no"?>
<!-- Created with Inkscape (http://www.inkscape.org/) -->

<svg
   width="590.43024mm"
   height="660.38971mm"
   viewBox="0 0 590.43024 660.38971"
   version="1.1"
   id="svg5"
   sodipodi:docname="reverse-fountain-flow.svg"
   inkscape:version="1.2.2 (1:1.2.2+202212051550+b0a8486541)"
   inkscape:export-filename="reverse-fountain-flow.png"
   inkscape:export-xdpi="35.209923"
   inkscape:export-ydpi="35.209923"
   xml:space="preserve"
   xmlns:inkscape="http://www.inkscape.org/namespaces/inkscape"
   xmlns:sodipodi="http://sodipodi.sourceforge.net/DTD/sodipodi-0.dtd"
   xmlns="http://www.w3.org/2000/svg"
   xmlns:svg="http://www.w3.org/2000/svg"
   xmlns:ns16="http://www.iki.fi/pav/software/textext/"><sodipodi:namedview
     id="namedview7"
     pagecolor="#505050"
     bordercolor="#ffffff"
     borderopacity="1"
     inkscape:showpageshadow="0"
     inkscape:pageopacity="0"
     inkscape:pagecheckerboard="1"
     inkscape:deskcolor="#505050"
     inkscape:document-units="mm"
     showgrid="false"
     inkscape:zoom="0.2973261"
     inkscape:cx="909.7755"
     inkscape:cy="1199.0202"
     inkscape:window-width="1884"
     inkscape:window-height="1536"
     inkscape:window-x="72"
     inkscape:window-y="27"
     inkscape:window-maximized="0"
     inkscape:current-layer="g1659" /><defs
     id="defs2"><rect
   x="879.82342"
   y="2839.1588"
   width="1853.2423"
   height="430.59014"
   id="rect1129" /><rect
   x="-495.12781"
   y="2483.3485"
   width="1296.8628"
   height="525.91983"
   id="rect889" /><inkscape:path-effect
   effect="spiro"
   id="path-effect504"
   is_visible="true"
   lpeversion="1" /><inkscape:path-effect
   effect="spiro"
   id="path-effect486"
   is_visible="true"
   lpeversion="1" /><inkscape:path-effect
   effect="bspline"
   id="path-effect4172"
   is_visible="true"
   lpeversion="1"
   weight="33.333333"
   steps="2"
   helper_size="0"
   apply_no_weight="true"
   apply_with_weight="true"
   only_selected="false" /><inkscape:path-effect
   effect="bspline"
   id="path-effect4168"
   is_visible="true"
   lpeversion="1"
   weight="33.333333"
   steps="2"
   helper_size="0"
   apply_no_weight="true"
   apply_with_weight="true"
   only_selected="false" /><inkscape:path-effect
   effect="bspline"
   id="path-effect4164"
   is_visible="true"
   lpeversion="1"
   weight="33.333333"
   steps="2"
   helper_size="0"
   apply_no_weight="true"
   apply_with_weight="true"
   only_selected="false" /><inkscape:path-effect
   effect="spiro"
   id="path-effect2652"
   is_visible="true"
   lpeversion="1" /><inkscape:path-effect
   effect="spiro"
   id="path-effect2634"
   is_visible="true"
   lpeversion="1" /><inkscape:path-effect
   effect="spiro"
   id="path-effect2612"
   is_visible="true"
   lpeversion="1" /><inkscape:path-effect
   effect="spiro"
   id="path-effect2566"
   is_visible="true"
   lpeversion="1" /><inkscape:path-effect
   effect="spiro"
   id="path-effect2562"
   is_visible="true"
   lpeversion="1" /><inkscape:path-effect
   effect="spiro"
   id="path-effect2558"
   is_visible="true"
   lpeversion="1" /><inkscape:path-effect
   effect="spiro"
   id="path-effect2439"
   is_visible="true"
   lpeversion="1" /><inkscape:path-effect
   effect="spiro"
   id="path-effect2423"
   is_visible="true"
   lpeversion="1" /><inkscape:path-effect
   effect="spiro"
   id="path-effect1839"
   is_visible="true"
   lpeversion="1" /><inkscape:path-effect
   effect="spiro"
   id="path-effect1827"
   is_visible="true"
   lpeversion="1" /><inkscape:path-effect
   effect="spiro"
   id="path-effect1813"
   is_visible="true"
   lpeversion="1" /><inkscape:path-effect
   effect="spiro"
   id="path-effect1743"
   is_visible="true"
   lpeversion="1" /><inkscape:path-effect
   effect="spiro"
   id="path-effect1727"
   is_visible="true"
   lpeversion="1" /><inkscape:path-effect
   effect="spiro"
   id="path-effect1723"
   is_visible="true"
   lpeversion="1" /><inkscape:path-effect
   effect="spiro"
   id="path-effect1719"
   is_visible="true"
   lpeversion="1" /><inkscape:path-effect
   effect="spiro"
   id="path-effect1715"
   is_visible="true"
   lpeversion="1" /><inkscape:path-effect
   effect="spiro"
   id="path-effect1711"
   is_visible="true"
   lpeversion="1" /><marker
   style="overflow:visible"
   id="TriangleStart"
   refX="0"
   refY="0"
   orient="auto-start-reverse"
   inkscape:stockid="TriangleStart"
   markerWidth="5.3244081"
   markerHeight="6.155385"
   viewBox="0 0 5.3244081 6.1553851"
   inkscape:isstock="true"
   inkscape:collect="always"
   preserveAspectRatio="xMidYMid"><path
     transform="scale(0.5)"
     style="fill:context-stroke;fill-rule:evenodd;stroke:context-stroke;stroke-width:1pt"
     d="M 5.77,0 -2.88,5 V -5 Z"
     id="path135" /></marker><inkscape:path-effect
   effect="spiro"
   id="path-effect1627"
   is_visible="true"
   lpeversion="1" /><inkscape:path-effect
   effect="spiro"
   id="path-effect1623"
   is_visible="true"
   lpeversion="1" /><inkscape:path-effect
   effect="spiro"
   id="path-effect1619"
   is_visible="true"
   lpeversion="1" /><inkscape:path-effect
   effect="spiro"
   id="path-effect1615"
   is_visible="true"
   lpeversion="1" /><inkscape:path-effect
   effect="spiro"
   id="path-effect1611"
   is_visible="true"
   lpeversion="1" /><inkscape:path-effect
   effect="bspline"
   id="path-effect756"
   is_visible="true"
   lpeversion="1"
   weight="33.333333"
   steps="2"
   helper_size="0"
   apply_no_weight="true"
   apply_with_weight="true"
   only_selected="false" /><inkscape:path-effect
   effect="bspline"
   id="path-effect656"
   is_visible="true"
   lpeversion="1"
   weight="33.333333"
   steps="2"
   helper_size="0"
   apply_no_weight="true"
   apply_with_weight="true"
   only_selected="false" /><inkscape:path-effect
   effect="bspline"
   id="path-effect11596"
   is_visible="true"
   lpeversion="1"
   weight="33.333333"
   steps="2"
   helper_size="0"
   apply_no_weight="true"
   apply_with_weight="true"
   only_selected="false" /><inkscape:path-effect
   effect="bspline"
   id="path-effect11556"
   is_visible="true"
   lpeversion="1"
   weight="33.333333"
   steps="2"
   helper_size="0"
   apply_no_weight="true"
   apply_with_weight="true"
   only_selected="false" /><inkscape:path-effect
   effect="bspline"
   id="path-effect11514"
   is_visible="true"
   lpeversion="1"
   weight="33.333333"
   steps="2"
   helper_size="0"
   apply_no_weight="true"
   apply_with_weight="true"
   only_selected="false" /><inkscape:path-effect
   effect="bspline"
   id="path-effect11474"
   is_visible="true"
   lpeversion="1"
   weight="33.333333"
   steps="2"
   helper_size="0"
   apply_no_weight="true"
   apply_with_weight="true"
   only_selected="false" /><inkscape:path-effect
   effect="bspline"
   id="path-effect11432"
   is_visible="true"
   lpeversion="1"
   weight="33.333333"
   steps="2"
   helper_size="0"
   apply_no_weight="true"
   apply_with_weight="true"
   only_selected="false" /><inkscape:path-effect
   effect="bspline"
   id="path-effect11390"
   is_visible="true"
   lpeversion="1"
   weight="33.333333"
   steps="2"
   helper_size="0"
   apply_no_weight="true"
   apply_with_weight="true"
   only_selected="false" /><inkscape:path-effect
   effect="bspline"
   id="path-effect11350"
   is_visible="true"
   lpeversion="1"
   weight="33.333333"
   steps="2"
   helper_size="0"
   apply_no_weight="true"
   apply_with_weight="true"
   only_selected="false" /><inkscape:path-effect
   effect="bspline"
   id="path-effect11310"
   is_visible="true"
   lpeversion="1"
   weight="33.333333"
   steps="2"
   helper_size="0"
   apply_no_weight="true"
   apply_with_weight="true"
   only_selected="false" /><inkscape:path-effect
   effect="bspline"
   id="path-effect11268"
   is_visible="true"
   lpeversion="1"
   weight="33.333333"
   steps="2"
   helper_size="0"
   apply_no_weight="true"
   apply_with_weight="true"
   only_selected="false" /><inkscape:path-effect
   effect="bspline"
   id="path-effect11226"
   is_visible="true"
   lpeversion="1"
   weight="33.333333"
   steps="2"
   helper_size="0"
   apply_no_weight="true"
   apply_with_weight="true"
   only_selected="false" /><inkscape:path-effect
   effect="bspline"
   id="path-effect11184"
   is_visible="true"
   lpeversion="1"
   weight="33.333333"
   steps="2"
   helper_size="0"
   apply_no_weight="true"
   apply_with_weight="true"
   only_selected="false" /><inkscape:path-effect
   effect="bspline"
   id="path-effect11144"
   is_visible="true"
   lpeversion="1"
   weight="33.333333"
   steps="2"
   helper_size="0"
   apply_no_weight="true"
   apply_with_weight="true"
   only_selected="false" /><inkscape:path-effect
   effect="bspline"
   id="path-effect11104"
   is_visible="true"
   lpeversion="1"
   weight="33.333333"
   steps="2"
   helper_size="0"
   apply_no_weight="true"
   apply_with_weight="true"
   only_selected="false" /><inkscape:path-effect
   effect="bspline"
   id="path-effect6477"
   is_visible="true"
   lpeversion="1"
   weight="33.333333"
   steps="2"
   helper_size="0"
   apply_no_weight="true"
   apply_with_weight="true"
   only_selected="false" /><inkscape:path-effect
   effect="bspline"
   id="path-effect6443"
   is_visible="true"
   lpeversion="1"
   weight="33.333333"
   steps="2"
   helper_size="0"
   apply_no_weight="true"
   apply_with_weight="true"
   only_selected="false" /><inkscape:path-effect
   effect="bspline"
   id="path-effect35594"
   is_visible="true"
   lpeversion="1"
   weight="33.333333"
   steps="2"
   helper_size="0"
   apply_no_weight="true"
   apply_with_weight="true"
   only_selected="false" /><inkscape:path-effect
   effect="bspline"
   id="path-effect35646"
   is_visible="true"
   lpeversion="1"
   weight="33.333333"
   steps="2"
   helper_size="0"
   apply_no_weight="true"
   apply_with_weight="true"
   only_selected="false" /><inkscape:path-effect
   effect="bspline"
   id="path-effect35698"
   is_visible="true"
   lpeversion="1"
   weight="33.333333"
   steps="2"
   helper_size="0"
   apply_no_weight="true"
   apply_with_weight="true"
   only_selected="false" /><inkscape:path-effect
   effect="bspline"
   id="path-effect35054"
   is_visible="true"
   lpeversion="1"
   weight="33.333333"
   steps="2"
   helper_size="0"
   apply_no_weight="true"
   apply_with_weight="true"
   only_selected="false" /><inkscape:path-effect
   effect="bspline"
   id="path-effect35106"
   is_visible="true"
   lpeversion="1"
   weight="33.333333"
   steps="2"
   helper_size="0"
   apply_no_weight="true"
   apply_with_weight="true"
   only_selected="false" /><marker
   style="overflow:visible"
   id="Arrow3"
   refX="0"
   refY="0"
   orient="auto-start-reverse"
   inkscape:stockid="Arrow3"
   markerWidth="4.2071066"
   markerHeight="6.9999995"
   viewBox="0 0 4.2071068 7"
   inkscape:isstock="true"
   inkscape:collect="always"
   preserveAspectRatio="xMidYMid"><path
     style="fill:none;stroke:context-stroke;stroke-width:1;stroke-linecap:round"
     d="M 3,-3 0,0 3,3"
     id="arrow3"
     transform="rotate(180,0.125,0)"
     sodipodi:nodetypes="ccc" /></marker><inkscape:path-effect
   effect="bspline"
   id="path-effect35698-3"
   is_visible="true"
   lpeversion="1"
   weight="33.333333"
   steps="2"
   helper_size="0"
   apply_no_weight="true"
   apply_with_weight="true"
   only_selected="false" /><inkscape:path-effect
   effect="bspline"
   id="path-effect35594-6"
   is_visible="true"
   lpeversion="1"
   weight="33.333333"
   steps="2"
   helper_size="0"
   apply_no_weight="true"
   apply_with_weight="true"
   only_selected="false" /><inkscape:path-effect
   effect="bspline"
   id="path-effect35646-7"
   is_visible="true"
   lpeversion="1"
   weight="33.333333"
   steps="2"
   helper_size="0"
   apply_no_weight="true"
   apply_with_weight="true"
   only_selected="false" />
	
	
	
	
	
	
	
	
	
	
	
<rect
   x="879.82342"
   y="2839.1588"
   width="1853.2423"
   height="430.59014"
   id="rect1665" /></defs><g
     inkscape:label="Layer 1"
     inkscape:groupmode="layer"
     id="layer1"
     transform="translate(64.465012,151.01109)"><circle
       style="fill:#ffeeaa;stroke:#d4aa00;stroke-width:30;stroke-linecap:round;stroke-dasharray:none;stroke-dashoffset:6.12283"
       id="path234"
       cx="230.75011"
       cy="144.20403"
       r="280.21512" /><path
       style="fill:none;stroke:#d45500;stroke-width:5;stroke-linecap:butt;stroke-linejoin:miter;stroke-dasharray:none;stroke-opacity:1;marker-end:url(#TriangleStart)"
       d="m 358.2176,-104.16469 -45.43536,-19.53722"
       id="path1609"
       inkscape:path-effect="#path-effect1611"
       inkscape:original-d="m 358.2176,-104.16469 c -14.94213,-6.51214 -30.28998,-13.02455 -45.43536,-19.53722" /><path
       style="fill:none;stroke:#d45500;stroke-width:5;stroke-linecap:butt;stroke-linejoin:miter;stroke-dasharray:none;stroke-opacity:1;marker-end:url(#TriangleStart)"
       d="m 281.368,-130.60625 -63.58091,-2.60258"
       id="path1613"
       inkscape:path-effect="#path-effect1615"
       inkscape:original-d="m 281.368,-130.60625 c -21.05168,-0.86726 -42.38702,-1.73479 -63.58091,-2.60258" /><path
       style="fill:none;stroke:#d45500;stroke-width:5;stroke-linecap:butt;stroke-linejoin:miter;stroke-dasharray:none;stroke-opacity:1;marker-end:url(#TriangleStart)"
       d="m 174.41964,-128.88662 -57.57276,18.48524"
       id="path1617"
       inkscape:path-effect="#path-effect1619"
       inkscape:original-d="m 174.41964,-128.88662 c -19.19066,6.31017 -38.38157,12.32376 -57.57276,18.48524" /><path
       style="fill:none;stroke:#d45500;stroke-width:5;stroke-linecap:butt;stroke-linejoin:miter;stroke-dasharray:none;stroke-opacity:1;marker-end:url(#TriangleStart)"
       d="m 86.913716,-95.720397 -40.851571,29.86592"
       id="path1621"
       inkscape:path-effect="#path-effect1623"
       inkscape:original-d="M 86.913716,-95.720397 C 73.296792,-85.764825 59.6796,-75.80952 46.062145,-65.854477" /><path
       style="fill:none;stroke:#d45500;stroke-width:5;stroke-linecap:butt;stroke-linejoin:miter;stroke-dasharray:none;stroke-opacity:1;marker-end:url(#TriangleStart)"
       d="M 23.846506,-43.513905 -5.337755,-2.9267926"
       id="path1625"
       inkscape:path-effect="#path-effect1627"
       inkscape:original-d="M 23.846506,-43.513905 C 14.118684,-29.984603 4.3905983,-16.455565 -5.337755,-2.9267926" /><path
       style="fill:none;stroke:#d45500;stroke-width:5;stroke-linecap:butt;stroke-linejoin:miter;stroke-dasharray:none;stroke-opacity:1;marker-end:url(#TriangleStart)"
       d="m 358.2176,395.38771 -45.43536,19.53722"
       id="path1699"
       inkscape:path-effect="#path-effect1711"
       inkscape:original-d="m 358.2176,395.38771 c -14.94213,6.51214 -30.28998,13.02455 -45.43536,19.53722" /><path
       style="fill:none;stroke:#d45500;stroke-width:5;stroke-linecap:butt;stroke-linejoin:miter;stroke-dasharray:none;stroke-opacity:1;marker-end:url(#TriangleStart)"
       d="m 281.368,421.82927 -63.58091,2.60258"
       id="path1701"
       inkscape:path-effect="#path-effect1715"
       inkscape:original-d="m 281.368,421.82927 c -21.05168,0.86726 -42.38702,1.73479 -63.58091,2.60258" /><path
       style="fill:none;stroke:#d45500;stroke-width:5;stroke-linecap:butt;stroke-linejoin:miter;stroke-dasharray:none;stroke-opacity:1;marker-end:url(#TriangleStart)"
       d="M 174.41964,420.10964 116.84688,401.6244"
       id="path1703"
       inkscape:path-effect="#path-effect1719"
       inkscape:original-d="M 174.41964,420.10964 C 155.22898,413.79947 136.03807,407.78588 116.84688,401.6244" /><path
       style="fill:none;stroke:#d45500;stroke-width:5;stroke-linecap:butt;stroke-linejoin:miter;stroke-dasharray:none;stroke-opacity:1;marker-end:url(#TriangleStart)"
       d="M 86.913716,386.94341 46.062145,357.07749"
       id="path1705"
       inkscape:path-effect="#path-effect1723"
       inkscape:original-d="M 86.913716,386.94341 C 73.296792,376.98784 59.6796,367.03254 46.062145,357.07749" /><path
       style="fill:none;stroke:#d45500;stroke-width:5;stroke-linecap:butt;stroke-linejoin:miter;stroke-dasharray:none;stroke-opacity:1;marker-end:url(#TriangleStart)"
       d="M 23.846506,334.73692 -5.337755,294.14981"
       id="path1707"
       inkscape:path-effect="#path-effect1727"
       inkscape:original-d="M 23.846506,334.73692 C 14.118684,321.20762 4.3905983,307.67858 -5.337755,294.14981" /><path
       style="fill:none;stroke:#a02c2c;stroke-width:5;stroke-linecap:butt;stroke-linejoin:miter;stroke-dasharray:none;stroke-opacity:1;marker-end:url(#TriangleStart)"
       d="M -2.1241495,33.252418 C -2.8544345,51.552533 2.6884384,70.045464 13.364193,84.926855 28.914863,106.6036 55.442424,119.95255 82.116772,119.52388"
       id="path1741"
       inkscape:path-effect="#path-effect1743"
       inkscape:original-d="M -2.1241495,33.252418 C 6.2169488,48.210497 5.0235525,69.96937 13.364193,84.926855 21.704834,99.884344 59.199474,110.56106 82.116772,119.52388"
       sodipodi:nodetypes="csc" /><path
       style="fill:none;stroke:#a02c2c;stroke-width:5;stroke-linecap:butt;stroke-linejoin:miter;stroke-dasharray:none;stroke-opacity:1;marker-end:url(#TriangleStart)"
       d="M -2.1241495,240.08642 C -2.8544336,221.78631 2.6884393,203.29338 13.364193,188.41199 28.914863,166.73525 55.442425,153.3863 82.116772,153.81497"
       id="path1809"
       inkscape:path-effect="#path-effect1813"
       inkscape:original-d="m -2.1241495,240.08642 c 8.3410983,-14.95808 7.147702,-36.71694 15.4883425,-51.67443 8.340641,-14.95749 45.835281,-25.6342 68.752579,-34.59702"
       sodipodi:nodetypes="csc" /><path
       style="fill:none;stroke:#a02c2c;stroke-width:5;stroke-linecap:butt;stroke-linejoin:miter;stroke-dasharray:none;stroke-opacity:1;marker-end:url(#TriangleStart)"
       d="M -24.943658,136.4026 H 46.159694"
       id="path2437"
       inkscape:path-effect="#path-effect2439"
       inkscape:original-d="m -24.943658,136.4026 c 23.4916372,-0.16976 47.402501,2.6e-4 71.103352,0" /><path
       style="fill:none;stroke:#a02c2c;stroke-width:5;stroke-linecap:butt;stroke-linejoin:miter;stroke-dasharray:none;stroke-opacity:1;marker-end:url(#TriangleStart)"
       d="m 367.99399,118.48163 c 18.30012,0.73029 36.79305,-4.81258 51.67444,-15.48834 21.67675,-15.550671 35.02569,-42.078235 34.59702,-68.752584"
       id="path2550"
       inkscape:path-effect="#path-effect2558"
       inkscape:original-d="m 367.99399,118.48163 c 14.95808,-8.3411 36.71695,-7.1477 51.67444,-15.48834 14.95749,-8.340644 25.6342,-45.835284 34.59702,-68.752584"
       sodipodi:nodetypes="csc" /><path
       style="fill:none;stroke:#a02c2c;stroke-width:5;stroke-linecap:butt;stroke-linejoin:miter;stroke-dasharray:none;stroke-opacity:1;marker-end:url(#TriangleStart)"
       d="m 368.65519,154.85722 c 18.30011,-0.73029 36.79304,4.81259 51.67443,15.48834 21.67674,15.55067 35.02569,42.07823 34.59702,68.75258"
       id="path2552"
       inkscape:path-effect="#path-effect2562"
       inkscape:original-d="m 368.65519,154.85722 c 14.95808,8.3411 36.71694,7.1477 51.67443,15.48834 14.95749,8.34064 25.6342,45.83528 34.59702,68.75258"
       sodipodi:nodetypes="csc" /><path
       style="fill:none;stroke:#a02c2c;stroke-width:5;stroke-linecap:butt;stroke-linejoin:miter;stroke-dasharray:none;stroke-opacity:1;marker-end:url(#TriangleStart)"
       d="m 393.48531,136.4026 h 71.10335"
       id="path2554"
       inkscape:path-effect="#path-effect2566"
       inkscape:original-d="m 393.48531,136.4026 c 23.49164,-0.16976 47.4025,2.6e-4 71.10335,0" /><path
       style="fill:none;stroke:#d45500;stroke-width:5;stroke-linecap:butt;stroke-linejoin:miter;stroke-dasharray:none;stroke-opacity:1;marker-end:url(#TriangleStart)"
       d="m 426.81322,-58.163145 -39.28207,-30.04987"
       id="path2608"
       inkscape:path-effect="#path-effect2612"
       inkscape:original-d="m 426.81322,-58.163145 c -12.89726,-9.966751 -26.18786,-20.032928 -39.28207,-30.04987" /><path
       style="fill:none;stroke:#d45500;stroke-width:5;stroke-linecap:butt;stroke-linejoin:miter;stroke-dasharray:none;stroke-opacity:1;marker-end:url(#TriangleStart)"
       d="m 426.81322,348.94918 -39.28207,30.04987"
       id="path2630"
       inkscape:path-effect="#path-effect2634"
       inkscape:original-d="m 426.81322,348.94918 c -12.89726,9.96675 -26.18786,20.03293 -39.28207,30.04987" /><path
       style="opacity:0.6;fill:#000000;fill-opacity:0;stroke:#de8787;stroke-width:5;stroke-linecap:butt;stroke-linejoin:miter;stroke-dasharray:none;stroke-opacity:1;marker-end:url(#Arrow3)"
       d="m 231.36913,-52.356382 c -4.10989,-0.886154 -8.22009,-1.772374 -16.59136,-1.951416 -8.37127,-0.179042 -21.00309,0.349152 -30.18372,5.374173 -9.18063,5.025021 -14.9093,14.54641 -20.63803,24.067903"
       id="path35592"
       inkscape:path-effect="#path-effect35594-6"
       inkscape:original-d="m 231.36913,-52.356382 c -4.10993,-0.88596 -8.22013,-1.77218 -12.33059,-2.65866 -12.63203,0.52848 -25.26385,1.05666 -37.89619,1.58461 -5.72863,9.52201 -11.45728,19.04341 -17.18633,28.56471" /><path
       style="opacity:0.6;fill:#000000;fill-opacity:0;stroke:#de8787;stroke-width:5;stroke-linecap:butt;stroke-linejoin:miter;stroke-dasharray:none;stroke-opacity:1;marker-end:url(#Arrow3)"
       d="m 163.33007,11.693448 c 3.6508,13.031646 7.30151,26.062988 19.57377,32.482409 12.27227,6.419421 33.16507,6.227222 54.05802,6.035021"
       id="path35644"
       inkscape:path-effect="#path-effect35646-7"
       inkscape:original-d="m 163.33007,11.693448 c 3.65096,13.0316 7.30168,26.06294 10.95214,39.09404 20.8939,-0.19195 41.7867,-0.38415 62.67965,-0.57661" /><path
       style="opacity:0.6;fill:#000000;fill-opacity:0;stroke:#de8787;stroke-width:5;stroke-linecap:butt;stroke-linejoin:miter;stroke-dasharray:none;stroke-opacity:1;marker-end:url(#Arrow3)"
       d="m 273.34988,43.299888 c 9.94274,-7.444163 19.88541,-14.88827 25.30375,-24.071107 5.41835,-9.182836 6.31236,-20.10419762 0.008,-30.702334 -6.304,-10.598136 -19.80583,-20.872396 -33.30823,-31.147089"
       id="path35696"
       inkscape:path-effect="#path-effect35698-3"
       inkscape:original-d="m 273.34988,43.299888 c 9.94296,-7.44387 19.88563,-14.88797 29.82806,-22.33237 0.89432,-10.92155 1.78835,-21.84291037 2.68211,-32.76476 -13.50211,-10.2744 -27.00393,-20.54867 -40.5063,-30.8234" /><path
       style="opacity:0.6;fill:#000000;fill-opacity:0;stroke:#de8787;stroke-width:5;stroke-linecap:butt;stroke-linejoin:miter;stroke-dasharray:none;stroke-opacity:1;marker-end:url(#Arrow3)"
       d="m 231.36913,347.59948 c -4.10989,0.88615 -8.22009,1.77237 -16.59136,1.95142 -8.37127,0.17904 -21.00309,-0.34916 -30.18372,-5.37418 -9.18063,-5.02502 -14.9093,-14.54641 -20.63803,-24.0679"
       id="path4156"
       inkscape:path-effect="#path-effect4164"
       inkscape:original-d="m 231.36913,347.59948 c -4.10993,0.88596 -8.22013,1.77218 -12.33059,2.65866 -12.63203,-0.52848 -25.26385,-1.05666 -37.89619,-1.58461 -5.72863,-9.52201 -11.45728,-19.04341 -17.18633,-28.56471" /><path
       style="opacity:0.6;fill:#000000;fill-opacity:0;stroke:#de8787;stroke-width:5;stroke-linecap:butt;stroke-linejoin:miter;stroke-dasharray:none;stroke-opacity:1;marker-end:url(#Arrow3)"
       d="m 163.33007,283.54965 c 3.6508,-13.03165 7.30151,-26.06299 19.57377,-32.48241 12.27227,-6.41942 33.16507,-6.22722 54.05802,-6.03502"
       id="path4158"
       inkscape:path-effect="#path-effect4168"
       inkscape:original-d="m 163.33007,283.54965 c 3.65096,-13.0316 7.30168,-26.06294 10.95214,-39.09404 20.8939,0.19195 41.7867,0.38415 62.67965,0.57661" /><path
       style="opacity:0.6;fill:#000000;fill-opacity:0;stroke:#de8787;stroke-width:5;stroke-linecap:butt;stroke-linejoin:miter;stroke-dasharray:none;stroke-opacity:1;marker-end:url(#Arrow3)"
       d="m 273.34988,251.94321 c 9.94274,7.44416 19.88541,14.88827 25.30375,24.07111 5.41835,9.18283 6.31236,20.10419 0.008,30.70233 -6.304,10.59814 -19.80583,20.8724 -33.30823,31.14709"
       id="path4160"
       inkscape:path-effect="#path-effect4172"
       inkscape:original-d="m 273.34988,251.94321 c 9.94296,7.44387 19.88563,14.88797 29.82806,22.33237 0.89432,10.92155 1.78835,21.84291 2.68211,32.76476 -13.50211,10.2744 -27.00393,20.54867 -40.5063,30.8234" /><g
       transform="matrix(7.1359455,0,0,7.1359455,-59.708765,455.08032)"
       ns16:version="1.8.1"
       ns16:texconverter="pdflatex"
       ns16:pdfconverter="inkscape"
       ns16:text="$\\textsf{+ contraction wave}$"
       ns16:preamble="/home/eric-neiva/.config/inkscape/extensions/textext/default_packages.tex"
       ns16:scale="7.992723630625608"
       ns16:alignment="middle center"
       ns16:stroke-to-path="0"
       ns16:inkscapeversion="1.2.2"
       ns16:jacobian_sqrt="2.81966"
       id="g1122"
       style="fill:#ffeeaa"><defs
         id="id-1a112f96-3a23-407d-87b1-741a30df142d"><g
           id="id-b7a00447-5ffc-4d2b-ae93-d23491738333"><symbol
             overflow="visible"
             id="id-44458986-97a1-47a6-b421-3354659be987"><path
               style="stroke:none;stroke-width:0"
               d=""
               id="id-215df666-7465-4025-a19f-ff74eb51b6f9" /></symbol><symbol
             overflow="visible"
             id="id-bd179bf5-1a9c-448c-82e4-09bae2529adf"><path
               style="stroke:none;stroke-width:0"
               d="m 4.078125,-2.296875 h 2.78125 C 7,-2.296875 7.1875,-2.296875 7.1875,-2.5 7.1875,-2.6875 7,-2.6875 6.859375,-2.6875 h -2.78125 v -2.796875 c 0,-0.140625 0,-0.328125 -0.203125,-0.328125 -0.203125,0 -0.203125,0.1875 -0.203125,0.328125 V -2.6875 h -2.78125 c -0.140625,0 -0.328125,0 -0.328125,0.1875 0,0.203125 0.1875,0.203125 0.328125,0.203125 h 2.78125 V 0.5 c 0,0.140625 0,0.328125 0.203125,0.328125 0.203125,0 0.203125,-0.1875 0.203125,-0.328125 z m 0,0"
               id="id-346f935a-b67b-4462-8c8e-cb2a98b21b59" /></symbol><symbol
             overflow="visible"
             id="id-a8e81353-def6-4957-b770-427e95037044"><path
               style="stroke:none;stroke-width:0"
               d="M 4.09375,-4.171875 C 3.5,-4.5 3.15625,-4.59375 2.546875,-4.59375 c -1.375,0 -2.1875,1.203125 -2.1875,2.375 0,1.234375 0.90625,2.328125 2.15625,2.328125 0.53125,0 1.078125,-0.140625 1.625,-0.515625 l -0.0625,-0.65625 c -0.515625,0.390625 -1.046875,0.53125 -1.5625,0.53125 -0.828125,0 -1.375,-0.71875 -1.375,-1.6875 C 1.140625,-3 1.5,-3.953125 2.5625,-3.953125 c 0.515625,0 0.859375,0.078125 1.40625,0.4375 z m 0,0"
               id="id-ebe5f784-c585-437f-bd77-889f4b2af1af" /></symbol><symbol
             overflow="visible"
             id="id-3df4047a-4eeb-4c29-a953-a664f6fa32ca"><path
               style="stroke:none;stroke-width:0"
               d="m 4.671875,-2.1875 c 0,-1.34375 -1,-2.40625 -2.171875,-2.40625 -1.234375,0 -2.203125,1.09375 -2.203125,2.40625 0,1.3125 1.015625,2.296875 2.1875,2.296875 1.1875,0 2.1875,-1 2.1875,-2.296875 z m -2.1875,1.65625 c -0.6875,0 -1.40625,-0.5625 -1.40625,-1.765625 0,-1.203125 0.75,-1.6875 1.40625,-1.6875 0.703125,0 1.40625,0.515625 1.40625,1.6875 0,1.1875 -0.671875,1.765625 -1.40625,1.765625 z m 0,0"
               id="id-88443d0a-0035-4dc1-a20c-a4ef04a5a6d1" /></symbol><symbol
             overflow="visible"
             id="id-4fd404e1-f11b-4429-b279-17dae85d3969"><path
               style="stroke:none;stroke-width:0"
               d="m 4.34375,-2.96875 c 0,-0.65625 -0.15625,-1.5625 -1.375,-1.5625 -0.890625,0 -1.390625,0.671875 -1.4375,0.75 V -4.484375 H 0.8125 V 0 h 0.765625 v -2.4375 c 0,-0.65625 0.25,-1.484375 1.015625,-1.484375 0.953125,0 0.96875,0.703125 0.96875,1.015625 V 0 h 0.78125 z m 0,0"
               id="id-2a28ff59-297d-4971-9385-bd6d9b3cbcbf" /></symbol><symbol
             overflow="visible"
             id="id-cb77c5f7-4317-41ab-a65e-5464f5b2c112"><path
               style="stroke:none;stroke-width:0"
               d="M 1.75,-3.84375 H 3.15625 V -4.421875 H 1.75 V -5.6875 H 1.0625 v 1.265625 h -0.875 v 0.578125 h 0.84375 v 2.65625 c 0,0.59375 0.140625,1.296875 0.828125,1.296875 0.6875,0 1.203125,-0.25 1.453125,-0.375 L 3.15625,-0.859375 C 2.890625,-0.640625 2.578125,-0.53125 2.25,-0.53125 c -0.359375,0 -0.5,-0.296875 -0.5,-0.828125 z m 0,0"
               id="id-1bc250df-b5b7-4aec-b0bb-89ddf1de899e" /></symbol><symbol
             overflow="visible"
             id="id-fb44d81c-fa26-403b-8754-55246f25bde9"><path
               style="stroke:none;stroke-width:0"
               d="M 1.5625,-2.140625 C 1.5625,-3.125 2.28125,-3.84375 3.265625,-3.875 v -0.65625 c -0.890625,0 -1.4375,0.5 -1.75,0.953125 v -0.90625 H 0.8125 V 0 h 0.75 z m 0,0"
               id="id-119c19b2-0c22-4e79-a508-3a64bb9ab196" /></symbol><symbol
             overflow="visible"
             id="id-5d4237e7-0d74-4c37-8cef-4f8448e8ce95"><path
               style="stroke:none;stroke-width:0"
               d="m 3.984375,-2.875 c 0,-1.015625 -0.734375,-1.71875 -1.65625,-1.71875 -0.640625,0 -1.09375,0.15625 -1.5625,0.421875 l 0.0625,0.65625 C 1.34375,-3.875 1.84375,-4 2.328125,-4 c 0.46875,0 0.875,0.390625 0.875,1.125 v 0.4375 C 1.703125,-2.421875 0.4375,-2 0.4375,-1.125 c 0,0.421875 0.265625,1.234375 1.140625,1.234375 0.140625,0 1.078125,-0.015625 1.65625,-0.46875 V 0 h 0.75 z m -0.78125,1.5625 c 0,0.1875 0,0.4375 -0.34375,0.625 C 2.578125,-0.515625 2.1875,-0.5 2.078125,-0.5 1.609375,-0.5 1.15625,-0.734375 1.15625,-1.140625 c 0,-0.703125 1.609375,-0.765625 2.046875,-0.796875 z m 0,0"
               id="id-a266d6ae-1e7e-46b7-a03c-5690d5ca9c02" /></symbol><symbol
             overflow="visible"
             id="id-a6069d2f-83c4-4b02-a192-3501dbca0b8b"><path
               style="stroke:none;stroke-width:0"
               d="M 1.625,-6.78125 H 0.734375 v 0.890625 H 1.625 Z m -0.0625,2.359375 h -0.75 V 0 h 0.75 z m 0,0"
               id="id-67783ee9-99ad-443f-ab41-c1317da9d3d1" /></symbol><symbol
             overflow="visible"
             id="id-bedacb99-ac47-4955-9cd0-28999031d9a5"><path
               style="stroke:none;stroke-width:0"
               d="M 6.65625,-4.421875 H 5.9375 L 5.296875,-2.3125 C 5.1875,-1.953125 4.890625,-0.96875 4.828125,-0.53125 4.78125,-0.84375 4.53125,-1.734375 4.359375,-2.296875 l -0.640625,-2.125 H 3.015625 l -0.5625,1.875 C 2.34375,-2.203125 2,-1.0625 1.96875,-0.546875 H 1.953125 C 1.90625,-1.03125 1.578125,-2.15625 1.421875,-2.703125 l -0.53125,-1.71875 h -0.75 L 1.5,0 H 2.296875 C 2.34375,-0.15625 2.6875,-1.28125 2.90625,-2.046875 3.046875,-2.515625 3.328125,-3.5 3.359375,-3.875 H 3.375 c 0.015625,0.28125 0.1875,0.96875 0.3125,1.40625 L 4.421875,0 h 0.875 z m 0,0"
               id="id-57989f6e-5b7e-4417-ac88-8c56c27567c0" /></symbol><symbol
             overflow="visible"
             id="id-d322d465-b6e8-441e-ab8a-27e715ec216f"><path
               style="stroke:none;stroke-width:0"
               d="m 4.453125,-4.421875 h -0.75 l -0.796875,2.0625 C 2.703125,-1.796875 2.390625,-1 2.3125,-0.53125 H 2.296875 C 2.25,-0.890625 1.984375,-1.578125 1.890625,-1.84375 L 0.921875,-4.421875 H 0.140625 L 1.859375,0 h 0.875 z m 0,0"
               id="id-3c232168-348f-4d21-be18-8d2149f1d4d0" /></symbol><symbol
             overflow="visible"
             id="id-a296fcc2-b569-4b1c-b358-0643279d0e95"><path
               style="stroke:none;stroke-width:0"
               d="M 4.125,-2.1875 C 4.125,-2.515625 4.109375,-3.265625 3.734375,-3.875 3.3125,-4.484375 2.71875,-4.59375 2.359375,-4.59375 1.25,-4.59375 0.34375,-3.53125 0.34375,-2.25 c 0,1.3125 0.96875,2.359375 2.15625,2.359375 0.625,0 1.203125,-0.234375 1.59375,-0.515625 L 4.03125,-1.0625 C 3.40625,-0.53125 2.734375,-0.5 2.515625,-0.5 1.71875,-0.5 1.078125,-1.203125 1.046875,-2.1875 Z M 1.09375,-2.734375 c 0.15625,-0.75 0.6875,-1.25 1.265625,-1.25 0.515625,0 1.0625,0.328125 1.203125,1.25 z m 0,0"
               id="id-06dfa15b-4417-4a49-beea-ee7348a14284" /></symbol></g></defs><g
         id="id-9f680aa5-6638-49f1-b50a-965bb393cd7a"
         transform="translate(-149.275,-127.984)"
         style="fill:#ffeeaa"><g
           style="fill:#ffeeaa;fill-opacity:1"
           id="id-e507e539-d136-4a93-84d9-df154c4e9360"
           transform="translate(-55.551299,34.666794)"><text
             xml:space="preserve"
             transform="matrix(0.05169184,0,0,0.05169184,159.02646,-56.36834)"
             id="text1127"
             style="font-style:normal;font-weight:normal;font-size:40px;line-height:1.25;font-family:sans-serif;white-space:pre;shape-inside:url(#rect1129);display:inline;fill:#ffeeaa;fill-opacity:1;stroke:none"><tspan
               x="879.82422"
               y="3023.0942"
               id="tspan3232"><tspan
                 style="font-size:192px;font-family:'Latin Modern Sans Demi Cond';-inkscape-font-specification:'Latin Modern Sans Demi Cond, Normal'"
                 id="tspan3230">+ Contraction Wave</tspan></tspan></text></g></g></g><g
       id="g642"
       transform="matrix(0.40252799,0,0,0.3420741,143.90698,70.92263)">
		<g
   id="g632">
			<path
   fill="none"
   stroke="#69bd45"
   stroke-width="3.8193"
   stroke-linecap="round"
   d="m 171.833,168.4 c 0,0 42.67,-112.551 143.559,-121.884"
   id="path568" />
			<g
   id="g582">
				<g
   id="g580">
					<g
   id="g578">
						<path
   fill="#00b5eb"
   stroke="#0f717c"
   stroke-width="1.5277"
   stroke-miterlimit="1"
   d="m 340.283,89.908 c 3.33,-7.132 3.973,-18.048 1.973,-33.1 -1.729,-12.993 -4.816,-24.296 -4.947,-24.773 -0.91,-3.318 -4.335,-5.268 -7.662,-4.357 -3.318,0.915 -5.267,4.343 -4.356,7.663 0.032,0.111 2.992,10.952 4.606,23.108 1.369,10.322 1.188,16.942 0.51,21.151 -2.05,-3.718 -4.451,-9.854 -6.645,-19.957 -2.59,-11.954 -3.482,-23.239 -3.494,-23.426 -0.263,-3.434 -3.262,-6.004 -6.692,-5.742 -3.432,0.265 -6.001,3.26 -5.738,6.689 0.035,0.494 0.949,12.175 3.715,24.987 3.204,14.838 7.498,24.899 13.039,30.486 -4.436,12.629 -4.496,30.042 -0.152,51.878 3.551,17.874 8.765,32.054 8.981,32.646 1.061,2.862 4.005,4.485 6.912,3.979 0.365,-0.066 0.736,-0.164 1.098,-0.298 3.231,-1.195 4.878,-4.781 3.682,-8.01 -0.052,-0.135 -5.085,-13.832 -8.447,-30.746 -3.076,-15.486 -3.76,-28.503 -2.063,-38.392 4.915,8.704 8.665,21.127 11.002,36.659 2.568,17.075 2.464,31.819 2.462,31.964 -0.033,3.445 2.729,6.259 6.173,6.292 0.389,0.005 0.767,-0.028 1.138,-0.09 2.905,-0.502 5.126,-3.023 5.156,-6.077 0.006,-0.637 0.122,-15.739 -2.575,-33.762 -3.296,-22.017 -9.231,-38.389 -17.676,-48.772 z"
   id="path570" />
						<g
   id="g576">
							<path
   fill="#d93d96"
   stroke="#c11f43"
   stroke-width="1.1458"
   stroke-miterlimit="1"
   d="m 329.324,92.291 c 0.322,1.868 -0.929,3.644 -2.794,3.972 -1.87,0.325 -3.649,-0.928 -3.972,-2.795 -0.328,-1.868 0.926,-3.646 2.794,-3.974 1.865,-0.325 3.643,0.928 3.972,2.797 z"
   id="path572" />
							<circle
   fill="#d93d96"
   stroke="#c11f43"
   stroke-width="1.1458"
   stroke-miterlimit="1"
   cx="339.09698"
   cy="90.588997"
   r="3.4349999"
   id="circle574" />
						</g>
					</g>
				</g>
			</g>
			<g
   id="g596">
				<g
   id="g594">
					<g
   id="g592">
						<path
   fill="#00b5eb"
   stroke="#0f717c"
   stroke-width="1.5277"
   stroke-miterlimit="1"
   d="m 350.921,297.469 c 5.365,-5.759 9.343,-15.942 12.084,-30.877 2.366,-12.892 2.915,-24.597 2.94,-25.089 0.154,-3.441 -2.504,-6.352 -5.948,-6.511 -3.437,-0.154 -6.349,2.506 -6.511,5.946 0,0.111 -0.527,11.336 -2.741,23.401 -1.884,10.241 -4.1,16.478 -6.043,20.275 -0.806,-4.167 -1.193,-10.741 -0.16,-21.031 1.219,-12.168 3.852,-23.181 3.898,-23.363 0.81,-3.349 -1.25,-6.714 -4.595,-7.522 -3.345,-0.811 -6.713,1.248 -7.524,4.592 -0.114,0.478 -2.848,11.87 -4.169,24.916 -1.53,15.104 -0.553,25.995 2.998,33.022 -8.115,10.641 -13.543,27.188 -16.148,49.294 -2.139,18.106 -1.551,33.195 -1.524,33.826 0.126,3.052 2.423,5.5 5.342,5.919 0.369,0.053 0.751,0.071 1.142,0.059 3.438,-0.146 6.111,-3.047 5.972,-6.487 -0.006,-0.145 -0.573,-14.725 1.449,-31.851 1.851,-15.678 5.214,-28.27 9.878,-37.161 1.993,9.802 1.727,22.775 -0.843,38.269 -2.822,17.037 -7.469,31.026 -7.516,31.166 -1.095,3.264 0.665,6.801 3.927,7.89 0.37,0.126 0.739,0.213 1.11,0.264 2.923,0.416 5.81,-1.294 6.781,-4.191 0.204,-0.604 4.972,-14.93 7.965,-32.91 3.661,-21.963 3.064,-39.364 -1.764,-51.846 z"
   id="path584" />
						<g
   id="g590">
							<path
   fill="#d93d96"
   stroke="#c11f43"
   stroke-width="1.1458"
   stroke-miterlimit="1"
   d="m 339.427,298.158 c -0.271,1.878 -2.008,3.186 -3.884,2.916 -1.878,-0.267 -3.188,-2.006 -2.919,-3.886 0.266,-1.874 2.005,-3.182 3.885,-2.915 1.876,0.27 3.18,2.005 2.918,3.885 z"
   id="path586" />
							<path
   fill="#d93d96"
   stroke="#c11f43"
   stroke-width="1.1458"
   stroke-miterlimit="1"
   d="m 352.646,300.036 c -0.266,1.88 -2.005,3.186 -3.885,2.921 -1.877,-0.27 -3.182,-2.009 -2.915,-3.884 0.265,-1.881 2.005,-3.187 3.885,-2.92 1.875,0.264 3.18,2.009 2.915,3.883 z"
   id="path588" />
						</g>
					</g>
				</g>
			</g>
			<path
   fill="none"
   stroke="#69bd45"
   stroke-width="3.8193"
   stroke-linecap="round"
   d="m 171.833,172.488 c 0,0 47.927,-99.729 135.983,-103.811"
   id="path598" />
			<path
   fill="none"
   stroke="#69bd45"
   stroke-width="3.8193"
   stroke-linecap="round"
   d="m 173.096,174.814 c 0,0 55.404,-43.155 84.854,-37.906"
   id="path600" />
			<path
   fill="none"
   stroke="#69bd45"
   stroke-width="3.8193"
   stroke-linecap="round"
   d="m 499.096,172.488 c 0,0 -38.492,-135.885 -142.296,-132.969"
   id="path602" />
			<path
   fill="none"
   stroke="#69bd45"
   stroke-width="3.8193"
   stroke-linecap="round"
   d="m 499.096,170.13 c 0,0 -43.277,-111.363 -138.562,-101.453"
   id="path604" />
			<path
   fill="none"
   stroke="#69bd45"
   stroke-width="3.8193"
   stroke-linecap="round"
   d="m 498.397,176.56 c 0,0 8.745,-67.653 -6.997,-99.728"
   id="path606" />
			<path
   fill="none"
   stroke="#69bd45"
   stroke-width="3.8193"
   stroke-linecap="round"
   d="m 500.223,175.705 c 0,0 37.979,-8.047 35.064,-40.125"
   id="path608" />
			<path
   fill="none"
   stroke="#69bd45"
   stroke-width="3.8193"
   stroke-linecap="round"
   d="m 501.519,178.901 c 0,0 62.953,14.577 35.222,66.481"
   id="path610" />
			<path
   fill="none"
   stroke="#69bd45"
   stroke-width="3.8193"
   stroke-linecap="round"
   d="m 170.181,172.771 c 0,0 -6.997,-56.475 10.496,-79.85"
   id="path612" />
			<path
   fill="none"
   stroke="#69bd45"
   stroke-width="3.8193"
   stroke-linecap="round"
   d="m 169.655,174.4 c 0,0 -21.363,5.362 -30.11,-22.395"
   id="path614" />
			<path
   fill="none"
   stroke="#69bd45"
   stroke-width="3.8193"
   stroke-linecap="round"
   d="m 169.655,175.986 c 0,0 -27.195,1.165 -26.028,37.902"
   id="path616" />
			<path
   fill="none"
   stroke="#69bd45"
   stroke-width="3.8193"
   stroke-linecap="round"
   d="m 497.953,178.901 c 0,0 -54.741,90.374 -123.794,78.138"
   id="path618" />
			<path
   fill="none"
   stroke="#69bd45"
   stroke-width="3.8193"
   stroke-linecap="round"
   d="m 171.833,177.151 c 0,0 62.165,76.77 152.758,83.782"
   id="path620" />
			<path
   fill="none"
   stroke="#69bd45"
   stroke-width="3.8193"
   stroke-linecap="round"
   d="m 499.096,181.233 c 0,0 20.415,107.889 -112.554,137.633"
   id="path622" />
			<path
   fill="none"
   stroke="#497f3b"
   stroke-width="6.1109"
   stroke-linecap="round"
   d="m 340.283,89.908 c 0,0 130.821,-0.238 158.813,84.907"
   id="path624" />
			<path
   fill="none"
   stroke="#497f3b"
   stroke-width="6.1109"
   stroke-linecap="round"
   d="m 324.591,92.638 c 0,0 -96.677,-1.8 -152.66,82.176"
   id="path626" />
			<path
   fill="none"
   stroke="#497f3b"
   stroke-width="6.1109"
   stroke-linecap="round"
   d="M 336.022,297.677 C 180.463,273.135 171.93,178.902 171.93,178.902"
   id="path628" />
			<path
   fill="none"
   stroke="#497f3b"
   stroke-width="6.1109"
   stroke-linecap="round"
   d="m 499.096,184.15 c 0,0 -51.717,107.028 -148.175,115.403"
   id="path630" />
		</g>
		<path
   fill="none"
   stroke="#69bd45"
   stroke-width="3.8193"
   stroke-linecap="round"
   d="m 174.736,176.56 c 0,0 92.324,21.106 179.04,11.759"
   id="path634" />
		<path
   fill="none"
   stroke="#69bd45"
   stroke-width="3.8193"
   stroke-linecap="round"
   d="m 496.109,176.56 c 0,0 -90.964,32.009 -180.718,28.506"
   id="path636" />
		<path
   fill="none"
   stroke="#69bd45"
   stroke-width="3.8193"
   stroke-linecap="round"
   d="m 174.736,178.901 c 0,0 63.996,44.857 164.363,36.679"
   id="path638" />
		<path
   fill="none"
   stroke="#69bd45"
   stroke-width="3.8193"
   stroke-linecap="round"
   d="m 493.986,178.901 c 0,0 -95.79,48.923 -168.047,49.433"
   id="path640" />
	</g><path
       style="fill:none;stroke:#a02c2c;stroke-width:5;stroke-linecap:butt;stroke-linejoin:miter;stroke-dasharray:none;stroke-opacity:1;marker-end:url(#TriangleStart)"
       d="m 106.06332,119.90859 h 71.10336"
       id="path482"
       inkscape:path-effect="#path-effect486"
       inkscape:original-d="m 106.06332,119.90859 c 23.49164,-0.16976 47.4025,2.6e-4 71.10336,0" /><path
       style="fill:none;stroke:#a02c2c;stroke-width:5;stroke-linecap:butt;stroke-linejoin:miter;stroke-dasharray:none;stroke-opacity:1;marker-end:url(#TriangleStart)"
       d="m 106.06332,154.28135 h 71.10336"
       id="path500"
       inkscape:path-effect="#path-effect504"
       inkscape:original-d="m 106.06332,154.28135 c 23.49164,-0.16976 47.4025,2.6e-4 71.10336,0" /><g
       transform="matrix(7.1359455,0,0,7.1359455,-40.212911,592.35052)"
       ns16:version="1.8.1"
       ns16:texconverter="pdflatex"
       ns16:pdfconverter="inkscape"
       ns16:text="$\\textsf{+ contraction wave}$"
       ns16:preamble="/home/eric-neiva/.config/inkscape/extensions/textext/default_packages.tex"
       ns16:scale="7.992723630625608"
       ns16:alignment="middle center"
       ns16:stroke-to-path="0"
       ns16:inkscapeversion="1.2.2"
       ns16:jacobian_sqrt="2.81966"
       id="g1663"
       style="fill:#ffeeaa"><defs
         id="defs1653"><g
           id="g1651"><symbol
             overflow="visible"
             id="symbol1605"><path
               style="stroke:none;stroke-width:0"
               d=""
               id="path1603" /></symbol><symbol
             overflow="visible"
             id="symbol1609"><path
               style="stroke:none;stroke-width:0"
               d="m 4.078125,-2.296875 h 2.78125 C 7,-2.296875 7.1875,-2.296875 7.1875,-2.5 7.1875,-2.6875 7,-2.6875 6.859375,-2.6875 h -2.78125 v -2.796875 c 0,-0.140625 0,-0.328125 -0.203125,-0.328125 -0.203125,0 -0.203125,0.1875 -0.203125,0.328125 V -2.6875 h -2.78125 c -0.140625,0 -0.328125,0 -0.328125,0.1875 0,0.203125 0.1875,0.203125 0.328125,0.203125 h 2.78125 V 0.5 c 0,0.140625 0,0.328125 0.203125,0.328125 0.203125,0 0.203125,-0.1875 0.203125,-0.328125 z m 0,0"
               id="path1607" /></symbol><symbol
             overflow="visible"
             id="symbol1613"><path
               style="stroke:none;stroke-width:0"
               d="M 4.09375,-4.171875 C 3.5,-4.5 3.15625,-4.59375 2.546875,-4.59375 c -1.375,0 -2.1875,1.203125 -2.1875,2.375 0,1.234375 0.90625,2.328125 2.15625,2.328125 0.53125,0 1.078125,-0.140625 1.625,-0.515625 l -0.0625,-0.65625 c -0.515625,0.390625 -1.046875,0.53125 -1.5625,0.53125 -0.828125,0 -1.375,-0.71875 -1.375,-1.6875 C 1.140625,-3 1.5,-3.953125 2.5625,-3.953125 c 0.515625,0 0.859375,0.078125 1.40625,0.4375 z m 0,0"
               id="path1611" /></symbol><symbol
             overflow="visible"
             id="symbol1617"><path
               style="stroke:none;stroke-width:0"
               d="m 4.671875,-2.1875 c 0,-1.34375 -1,-2.40625 -2.171875,-2.40625 -1.234375,0 -2.203125,1.09375 -2.203125,2.40625 0,1.3125 1.015625,2.296875 2.1875,2.296875 1.1875,0 2.1875,-1 2.1875,-2.296875 z m -2.1875,1.65625 c -0.6875,0 -1.40625,-0.5625 -1.40625,-1.765625 0,-1.203125 0.75,-1.6875 1.40625,-1.6875 0.703125,0 1.40625,0.515625 1.40625,1.6875 0,1.1875 -0.671875,1.765625 -1.40625,1.765625 z m 0,0"
               id="path1615" /></symbol><symbol
             overflow="visible"
             id="symbol1621"><path
               style="stroke:none;stroke-width:0"
               d="m 4.34375,-2.96875 c 0,-0.65625 -0.15625,-1.5625 -1.375,-1.5625 -0.890625,0 -1.390625,0.671875 -1.4375,0.75 V -4.484375 H 0.8125 V 0 h 0.765625 v -2.4375 c 0,-0.65625 0.25,-1.484375 1.015625,-1.484375 0.953125,0 0.96875,0.703125 0.96875,1.015625 V 0 h 0.78125 z m 0,0"
               id="path1619" /></symbol><symbol
             overflow="visible"
             id="symbol1625"><path
               style="stroke:none;stroke-width:0"
               d="M 1.75,-3.84375 H 3.15625 V -4.421875 H 1.75 V -5.6875 H 1.0625 v 1.265625 h -0.875 v 0.578125 h 0.84375 v 2.65625 c 0,0.59375 0.140625,1.296875 0.828125,1.296875 0.6875,0 1.203125,-0.25 1.453125,-0.375 L 3.15625,-0.859375 C 2.890625,-0.640625 2.578125,-0.53125 2.25,-0.53125 c -0.359375,0 -0.5,-0.296875 -0.5,-0.828125 z m 0,0"
               id="path1623" /></symbol><symbol
             overflow="visible"
             id="symbol1629"><path
               style="stroke:none;stroke-width:0"
               d="M 1.5625,-2.140625 C 1.5625,-3.125 2.28125,-3.84375 3.265625,-3.875 v -0.65625 c -0.890625,0 -1.4375,0.5 -1.75,0.953125 v -0.90625 H 0.8125 V 0 h 0.75 z m 0,0"
               id="path1627" /></symbol><symbol
             overflow="visible"
             id="symbol1633"><path
               style="stroke:none;stroke-width:0"
               d="m 3.984375,-2.875 c 0,-1.015625 -0.734375,-1.71875 -1.65625,-1.71875 -0.640625,0 -1.09375,0.15625 -1.5625,0.421875 l 0.0625,0.65625 C 1.34375,-3.875 1.84375,-4 2.328125,-4 c 0.46875,0 0.875,0.390625 0.875,1.125 v 0.4375 C 1.703125,-2.421875 0.4375,-2 0.4375,-1.125 c 0,0.421875 0.265625,1.234375 1.140625,1.234375 0.140625,0 1.078125,-0.015625 1.65625,-0.46875 V 0 h 0.75 z m -0.78125,1.5625 c 0,0.1875 0,0.4375 -0.34375,0.625 C 2.578125,-0.515625 2.1875,-0.5 2.078125,-0.5 1.609375,-0.5 1.15625,-0.734375 1.15625,-1.140625 c 0,-0.703125 1.609375,-0.765625 2.046875,-0.796875 z m 0,0"
               id="path1631" /></symbol><symbol
             overflow="visible"
             id="symbol1637"><path
               style="stroke:none;stroke-width:0"
               d="M 1.625,-6.78125 H 0.734375 v 0.890625 H 1.625 Z m -0.0625,2.359375 h -0.75 V 0 h 0.75 z m 0,0"
               id="path1635" /></symbol><symbol
             overflow="visible"
             id="symbol1641"><path
               style="stroke:none;stroke-width:0"
               d="M 6.65625,-4.421875 H 5.9375 L 5.296875,-2.3125 C 5.1875,-1.953125 4.890625,-0.96875 4.828125,-0.53125 4.78125,-0.84375 4.53125,-1.734375 4.359375,-2.296875 l -0.640625,-2.125 H 3.015625 l -0.5625,1.875 C 2.34375,-2.203125 2,-1.0625 1.96875,-0.546875 H 1.953125 C 1.90625,-1.03125 1.578125,-2.15625 1.421875,-2.703125 l -0.53125,-1.71875 h -0.75 L 1.5,0 H 2.296875 C 2.34375,-0.15625 2.6875,-1.28125 2.90625,-2.046875 3.046875,-2.515625 3.328125,-3.5 3.359375,-3.875 H 3.375 c 0.015625,0.28125 0.1875,0.96875 0.3125,1.40625 L 4.421875,0 h 0.875 z m 0,0"
               id="path1639" /></symbol><symbol
             overflow="visible"
             id="symbol1645"><path
               style="stroke:none;stroke-width:0"
               d="m 4.453125,-4.421875 h -0.75 l -0.796875,2.0625 C 2.703125,-1.796875 2.390625,-1 2.3125,-0.53125 H 2.296875 C 2.25,-0.890625 1.984375,-1.578125 1.890625,-1.84375 L 0.921875,-4.421875 H 0.140625 L 1.859375,0 h 0.875 z m 0,0"
               id="path1643" /></symbol><symbol
             overflow="visible"
             id="symbol1649"><path
               style="stroke:none;stroke-width:0"
               d="M 4.125,-2.1875 C 4.125,-2.515625 4.109375,-3.265625 3.734375,-3.875 3.3125,-4.484375 2.71875,-4.59375 2.359375,-4.59375 1.25,-4.59375 0.34375,-3.53125 0.34375,-2.25 c 0,1.3125 0.96875,2.359375 2.15625,2.359375 0.625,0 1.203125,-0.234375 1.59375,-0.515625 L 4.03125,-1.0625 C 3.40625,-0.53125 2.734375,-0.5 2.515625,-0.5 1.71875,-0.5 1.078125,-1.203125 1.046875,-2.1875 Z M 1.09375,-2.734375 c 0.15625,-0.75 0.6875,-1.25 1.265625,-1.25 0.515625,0 1.0625,0.328125 1.203125,1.25 z m 0,0"
               id="path1647" /></symbol></g></defs><g
         id="g1661"
         transform="translate(-149.275,-127.984)"
         style="fill:#ffeeaa"><g
           style="fill:#ffeeaa;fill-opacity:1"
           id="g1659"
           transform="translate(-55.551299,34.666794)"><text
             xml:space="preserve"
             transform="matrix(0.02740748,0,0,0.02740748,230.00082,-61.845329)"
             id="text1657"
             style="font-style:normal;font-weight:normal;font-size:40px;line-height:1.25;font-family:sans-serif;white-space:pre;shape-inside:url(#rect1665);display:inline;fill:#69bd45;fill-opacity:1;stroke:none"><tspan
               x="879.82422"
               y="3023.0942"
               id="tspan3236"><tspan
                 style="font-size:192px;font-family:'Latin Modern Sans Demi Cond';-inkscape-font-specification:'Latin Modern Sans Demi Cond, Normal'"
                 id="tspan3234">spindle</tspan></tspan></text></g></g></g></g></svg>
