<?xml version="1.0" encoding="UTF-8" standalone="no"?>
<svg
   viewBox="0 0 730.39 560.42"
   version="1.1"
   id="svg55"
   sodipodi:docname="Simple_diagram_of_animal_cell_(en).svg"
   inkscape:version="1.2.2 (1:1.2.2+202212051550+b0a8486541)"
   inkscape:export-filename="Simple_diagram_of_animal_cell_(en).png"
   inkscape:export-xdpi="261.027"
   inkscape:export-ydpi="261.027"
   xmlns:inkscape="http://www.inkscape.org/namespaces/inkscape"
   xmlns:sodipodi="http://sodipodi.sourceforge.net/DTD/sodipodi-0.dtd"
   xmlns="http://www.w3.org/2000/svg"
   xmlns:svg="http://www.w3.org/2000/svg">
  <sodipodi:namedview
     id="namedview57"
     pagecolor="#505050"
     bordercolor="#ffffff"
     borderopacity="1"
     inkscape:showpageshadow="0"
     inkscape:pageopacity="0"
     inkscape:pagecheckerboard="1"
     inkscape:deskcolor="#505050"
     showgrid="false"
     inkscape:zoom="1.4625335"
     inkscape:cx="233.84079"
     inkscape:cy="217.77278"
     inkscape:window-width="1884"
     inkscape:window-height="1536"
     inkscape:window-x="1956"
     inkscape:window-y="27"
     inkscape:window-maximized="0"
     inkscape:current-layer="svg55" />
  <defs
     id="defs5">
    <rect
       x="2.4527015"
       y="33.718699"
       width="247.75323"
       height="90.076748"
       id="rect346" />
    <marker
       id="a"
       orient="auto"
       overflow="visible">
      <path
         fill="#333345"
         stroke="#333345"
         stroke-width="0.4pt"
         d="m 1.96,0 c 0,1.1 -0.9,2 -2,2 -1.1,0 -2,-0.9 -2,-2 0,-1.1 0.9,-2 2,-2 1.1,0 2,0.9 2,2 z"
         id="path2" />
    </marker>
  </defs>
  <path
     fill="#eff9f9"
     stroke="#08a"
     stroke-width="3.5"
     d="M466.48 40c-25.34.97-51.77 1.24-75.32 10.62-27.94 11.13-54.8 28.75-73.55 52.28-19.7 24.75-29.7 56.77-36.3 87.73-11.2 52.6-14.2 108.4-4.4 161.27 4.2 22.65 14 44.54 26.6 63.8 19.2 29.16 44 55.45 72.7 75.32 17.8 12.28 38.1 22.04 59.4 25.7 55.8 9.58 117.3 10.76 169.3-11.52 31-13.26 60-37.87 74.5-68.23 22.2-46.46 12-102.74 9.8-154.2-2.1-50.1.5-104.1-22.1-148.86-18.6-36.7-50.2-70-87.7-86.8-34.3-15.4-75-8.5-112.5-7.1z"
     id="path7" />
  <g
     fill="#d88ebf"
     transform="translate(86.5 -255.256)"
     id="g29">
    <ellipse
       cx="82.25"
       cy="607.3"
       transform="rotate(-34)"
       rx="8"
       ry="3.75"
       id="ellipse9" />
    <ellipse
       cx="567.85"
       cy="355"
       transform="rotate(21)"
       ry="3.75"
       rx="8"
       id="ellipse11" />
    <ellipse
       cx="416.25"
       cy="719.7"
       ry="3.75"
       rx="8"
       id="ellipse13" />
    <ellipse
       cx="-526"
       cy="628.8"
       transform="rotate(-80)"
       ry="3.75"
       rx="8"
       id="ellipse15" />
    <ellipse
       cx="715.5"
       cy="158"
       transform="rotate(35)"
       rx="8"
       ry="3.75"
       id="ellipse17" />
    <ellipse
       cx="-739.36"
       cy="-77"
       rx="8"
       ry="3.75"
       transform="rotate(-118)"
       id="ellipse19" />
    <ellipse
       cx="463.06"
       cy="395"
       transform="rotate(79)"
       ry="3.75"
       rx="8"
       id="ellipse21" />
    <ellipse
       cx="15.17"
       cy="463"
       rx="8"
       ry="3.75"
       transform="rotate(-34.89)"
       id="ellipse23" />
    <ellipse
       cx="159.13"
       cy="606"
       transform="rotate(-10)"
       rx="8"
       ry="3.75"
       id="ellipse25" />
    <ellipse
       cx="486"
       cy="507.7"
       transform="rotate(14.3)"
       rx="8"
       ry="3.75"
       id="ellipse27" />
  </g>
  <path
     fill="#1c818a"
     d="M418.4 172.8c-10.87-1.73-22.68 7.12-28.67 16.34-8.22 12.62-8.54 30.43-4.55 44.95 3 10.9 9.64 23.2 20.2 27.2 11.72 4.5 27.77 1 36.87-7.6 10.6-10.1 14.6-28.3 11.1-42.5-4.1-16.9-17.82-35.9-34.96-38.6z"
     id="path31" />
  <path
     d="M 241.22,217.104 H 395.96"
     id="path33"
     style="fill:none;stroke:#ffeeaa;stroke-width:1.5;stroke-opacity:1;marker-end:url(#a)" />
  <path
     d="M 241.22,356.924 H 432.5"
     id="path35"
     style="fill:none;stroke:#ffeeaa;stroke-width:1.5;stroke-opacity:1;marker-end:url(#a)" />
  <path
     d="m 241.22,257.104 h 30.64"
     id="path37"
     style="fill:none;stroke:#ffeeaa;stroke-width:1.5;stroke-opacity:1;marker-end:url(#a)" />
  <path
     d="M 241.22,177.104 H 345.28"
     id="path39"
     style="fill:#ffeeaa;stroke:#ffeeaa;stroke-width:1.5;stroke-opacity:1;marker-end:url(#a);fill-opacity:1" />
  <g
     fill="#333345"
     font-size="26.75"
     font-family="URW Gothic L"
     font-weight="bold"
     text-anchor="end"
     id="g53">
    <text
       x="238.76"
       y="364.554"
       id="text51"><tspan
         x="238.76"
         y="364.554"
         id="tspan43">Mitochondrion</tspan><tspan
         x="238.76"
         y="225.984"
         id="tspan45">Nucleus</tspan><tspan
         x="238.76"
         y="265.744"
         id="tspan47">Cell membrane</tspan><tspan
         x="238.76"
         y="185.984"
         id="tspan49">Cytoplasm</tspan></text>
  </g>
  <text
     xml:space="preserve"
     id="text344"
     style="font-style:normal;font-variant:normal;font-weight:normal;font-stretch:normal;font-size:40px;line-height:1.25;font-family:'Latin Modern Sans';-inkscape-font-specification:'Latin Modern Sans';white-space:pre;shape-inside:url(#rect346);display:inline;fill:#000000;fill-opacity:1;stroke:none" />
  <text
     xml:space="preserve"
     style="font-style:normal;font-weight:normal;font-size:40.235px;line-height:1.25;font-family:sans-serif;fill:#000000;fill-opacity:1;stroke:none;stroke-width:1.00588"
     x="-0.82252419"
     y="267.80652"
     id="text472"><tspan
       sodipodi:role="line"
       id="tspan470"
       x="-0.82252419"
       y="267.80652"
       style="font-style:normal;font-variant:normal;font-weight:bold;font-stretch:normal;font-family:'Latin Modern Sans Demi Cond';-inkscape-font-specification:'Latin Modern Sans Demi Cond Bold';fill:#ffeeaa;stroke-width:1.00588">Cell membrane</tspan></text>
  <circle
     style="fill:#ffeeaa;fill-opacity:1;stroke:#ffeeaa;stroke-width:2;stroke-linecap:round;stroke-linejoin:round;stroke-dasharray:0.423337, 0.105833;stroke-opacity:1;paint-order:stroke fill markers"
     id="path2558"
     cx="345.40015"
     cy="177.104"
     r="2.8207185" />
  <circle
     style="fill:#ffeeaa;fill-opacity:1;stroke:#ffeeaa;stroke-width:2;stroke-linecap:round;stroke-linejoin:round;stroke-dasharray:0.423337, 0.105833;stroke-opacity:1;paint-order:stroke fill markers"
     id="circle2566"
     cx="396.33469"
     cy="217.104"
     r="2.8207185" />
  <circle
     style="fill:#ffeeaa;fill-opacity:1;stroke:#ffeeaa;stroke-width:2;stroke-linecap:round;stroke-linejoin:round;stroke-dasharray:0.423337, 0.105833;stroke-opacity:1;paint-order:stroke fill markers"
     id="circle2574"
     cx="271.767"
     cy="257.104"
     r="2.8207185" />
  <circle
     style="fill:#ffeeaa;fill-opacity:1;stroke:#ffeeaa;stroke-width:2;stroke-linecap:round;stroke-linejoin:round;stroke-dasharray:0.423337, 0.105833;stroke-opacity:1;paint-order:stroke fill markers"
     id="circle2582"
     cx="432.52264"
     cy="356.92401"
     r="2.8207185" />
  <text
     xml:space="preserve"
     style="font-style:normal;font-weight:normal;font-size:40.235px;line-height:1.25;font-family:sans-serif;fill:#000000;fill-opacity:1;stroke:none;stroke-width:1.00588"
     x="4.9986668"
     y="367.99829"
     id="text2598"><tspan
       sodipodi:role="line"
       id="tspan2596"
       x="4.9986668"
       y="367.99829"
       style="font-style:normal;font-variant:normal;font-weight:bold;font-stretch:normal;font-family:'Latin Modern Sans Demi Cond';-inkscape-font-specification:'Latin Modern Sans Demi Cond Bold';fill:#ffeeaa;stroke-width:1.00588">Mitochondrion</tspan></text>
  <text
     xml:space="preserve"
     style="font-style:normal;font-weight:normal;font-size:40.235px;line-height:1.25;font-family:sans-serif;fill:#000000;fill-opacity:1;stroke:none;stroke-width:1.00588"
     x="111.32588"
     y="228.84717"
     id="text2608"><tspan
       sodipodi:role="line"
       id="tspan2606"
       x="111.32588"
       y="228.84717"
       style="font-style:normal;font-variant:normal;font-weight:bold;font-stretch:normal;font-family:'Latin Modern Sans Demi Cond';-inkscape-font-specification:'Latin Modern Sans Demi Cond Bold';fill:#ffeeaa;stroke-width:1.00588">Nucleus</tspan></text>
  <text
     xml:space="preserve"
     style="font-style:normal;font-weight:normal;font-size:40.235px;line-height:1.25;font-family:sans-serif;fill:#000000;fill-opacity:1;stroke:none;stroke-width:1.00588"
     x="69.767136"
     y="187.25969"
     id="text2618"><tspan
       sodipodi:role="line"
       id="tspan2616"
       x="69.767136"
       y="187.25969"
       style="font-style:normal;font-variant:normal;font-weight:bold;font-stretch:normal;font-family:'Latin Modern Sans Demi Cond';-inkscape-font-specification:'Latin Modern Sans Demi Cond Bold';fill:#ffeeaa;stroke-width:1.00588">Cytoplasm</tspan></text>
</svg>
