<?xml version="1.0" encoding="UTF-8" standalone="no"?>
<!-- Created with Inkscape (http://www.inkscape.org/) -->

<svg
   width="168.21301mm"
   height="160.174mm"
   viewBox="0 0 168.21302 160.17398"
   version="1.1"
   id="svg1"
   inkscape:version="1.3.2 (1:1.3.2+202311252150+091e20ef0f)"
   sodipodi:docname="continuum-body.svg"
   xml:space="preserve"
   inkscape:export-filename="continuum-body.png"
   inkscape:export-xdpi="61.4165"
   inkscape:export-ydpi="61.4165"
   xmlns:inkscape="http://www.inkscape.org/namespaces/inkscape"
   xmlns:sodipodi="http://sodipodi.sourceforge.net/DTD/sodipodi-0.dtd"
   xmlns="http://www.w3.org/2000/svg"
   xmlns:svg="http://www.w3.org/2000/svg"
   xmlns:ns1="http://www.iki.fi/pav/software/textext/"><sodipodi:namedview
     id="namedview1"
     pagecolor="#505050"
     bordercolor="#ffffff"
     borderopacity="1"
     inkscape:showpageshadow="0"
     inkscape:pageopacity="0"
     inkscape:pagecheckerboard="1"
     inkscape:deskcolor="#d1d1d1"
     inkscape:document-units="mm"
     inkscape:zoom="0.97512882"
     inkscape:cx="352.7739"
     inkscape:cy="298.42211"
     inkscape:window-width="924"
     inkscape:window-height="1016"
     inkscape:window-x="996"
     inkscape:window-y="27"
     inkscape:window-maximized="0"
     inkscape:current-layer="layer1" /><defs
     id="defs1"><inkscape:path-effect
       effect="bspline"
       id="path-effect115"
       is_visible="true"
       lpeversion="1.3"
       weight="33.333333"
       steps="2"
       helper_size="0"
       apply_no_weight="true"
       apply_with_weight="true"
       only_selected="false"
       uniform="false" /><inkscape:path-effect
       effect="bspline"
       id="path-effect114"
       is_visible="true"
       lpeversion="1.3"
       weight="33.333333"
       steps="2"
       helper_size="0"
       apply_no_weight="true"
       apply_with_weight="true"
       only_selected="false"
       uniform="false" /><inkscape:path-effect
       effect="bspline"
       id="path-effect113"
       is_visible="true"
       lpeversion="1.3"
       weight="33.333333"
       steps="2"
       helper_size="0"
       apply_no_weight="true"
       apply_with_weight="true"
       only_selected="false"
       uniform="false" /><inkscape:path-effect
       effect="bspline"
       id="path-effect111"
       is_visible="true"
       lpeversion="1.3"
       weight="33.333333"
       steps="2"
       helper_size="0"
       apply_no_weight="true"
       apply_with_weight="true"
       only_selected="false"
       uniform="false" /><inkscape:path-effect
       effect="bspline"
       id="path-effect51"
       is_visible="true"
       lpeversion="1.3"
       weight="33.333333"
       steps="2"
       helper_size="0"
       apply_no_weight="true"
       apply_with_weight="true"
       only_selected="false"
       uniform="false" /><inkscape:path-effect
       effect="bspline"
       id="path-effect50"
       is_visible="true"
       lpeversion="1.3"
       weight="33.333333"
       steps="2"
       helper_size="0"
       apply_no_weight="true"
       apply_with_weight="true"
       only_selected="false"
       uniform="false" /><inkscape:path-effect
       effect="bspline"
       id="path-effect48"
       is_visible="true"
       lpeversion="1.3"
       weight="33.333333"
       steps="2"
       helper_size="0"
       apply_no_weight="true"
       apply_with_weight="true"
       only_selected="false"
       uniform="false" /><inkscape:path-effect
       effect="bspline"
       id="path-effect47"
       is_visible="true"
       lpeversion="1.3"
       weight="33.333333"
       steps="2"
       helper_size="0"
       apply_no_weight="true"
       apply_with_weight="true"
       only_selected="false"
       uniform="false" /><inkscape:path-effect
       effect="bspline"
       id="path-effect46"
       is_visible="true"
       lpeversion="1.3"
       weight="33.333333"
       steps="2"
       helper_size="0"
       apply_no_weight="true"
       apply_with_weight="true"
       only_selected="false"
       uniform="false" /><marker
       inkscape:stockid="Arrow2Lend"
       orient="auto"
       refY="0"
       refX="0"
       id="Arrow2Lend"
       style="overflow:visible"><path
         id="path3906"
         style="font-size:12px;fill-rule:evenodd;stroke-width:0.625;stroke-linejoin:round"
         d="M 8.7185878,4.0337352 -2.2072895,0.01601326 8.7185884,-4.0017078 c -1.7454984,2.3720609 -1.7354408,5.6174519 -6e-7,8.035443 z"
         transform="matrix(-1.1,0,0,-1.1,-1.1,0)" /></marker><linearGradient
       id="linearGradient4578"><stop
         style="stop-color:#7a7a7a;stop-opacity:1;"
         offset="0"
         id="stop4580" /><stop
         style="stop-color:#e4e4e4;stop-opacity:1;"
         offset="1"
         id="stop4582" /></linearGradient><marker
       inkscape:stockid="TriangleOutL"
       orient="auto"
       refY="0"
       refX="0"
       id="TriangleOutL"
       style="overflow:visible"><path
         id="path4028"
         d="M 5.77,0 -2.88,5 V -5 Z"
         style="fill-rule:evenodd;stroke:#000000;stroke-width:1pt;marker-start:none"
         transform="scale(0.8)" /></marker><marker
       inkscape:stockid="Arrow1Lend"
       orient="auto"
       refY="0"
       refX="0"
       id="Arrow1Lend"
       style="overflow:visible"><path
         id="path3888"
         d="M 0,0 5,-5 -12.5,0 5,5 Z"
         style="fill-rule:evenodd;stroke:#000000;stroke-width:1pt;marker-start:none"
         transform="matrix(-0.8,0,0,-0.8,-10,0)" /></marker><inkscape:perspective
       sodipodi:type="inkscape:persp3d"
       inkscape:vp_x="0 : -136.32598 : 1"
       inkscape:vp_y="0 : 999.99988 : 0"
       inkscape:vp_z="1 : -136.32598 : 1"
       inkscape:persp3d-origin="0.5 : -136.49265 : 1"
       id="perspective10" /><inkscape:perspective
       id="perspective2830"
       inkscape:persp3d-origin="0.5 : -136.49265 : 1"
       inkscape:vp_z="1 : -136.32598 : 1"
       inkscape:vp_y="0 : 999.99988 : 0"
       inkscape:vp_x="0 : -136.32598 : 1"
       sodipodi:type="inkscape:persp3d" /><inkscape:perspective
       id="perspective2855"
       inkscape:persp3d-origin="0.5 : -136.49265 : 1"
       inkscape:vp_z="1 : -136.32598 : 1"
       inkscape:vp_y="0 : 999.99988 : 0"
       inkscape:vp_x="0 : -136.32598 : 1"
       sodipodi:type="inkscape:persp3d" /><inkscape:perspective
       id="perspective2896"
       inkscape:persp3d-origin="0.5 : -136.49265 : 1"
       inkscape:vp_z="1 : -136.32598 : 1"
       inkscape:vp_y="0 : 999.99988 : 0"
       inkscape:vp_x="0 : -136.32598 : 1"
       sodipodi:type="inkscape:persp3d" /><inkscape:perspective
       id="perspective2927"
       inkscape:persp3d-origin="0.5 : -136.49265 : 1"
       inkscape:vp_z="1 : -136.32598 : 1"
       inkscape:vp_y="0 : 999.99988 : 0"
       inkscape:vp_x="0 : -136.32598 : 1"
       sodipodi:type="inkscape:persp3d" /><inkscape:perspective
       id="perspective2952"
       inkscape:persp3d-origin="0.5 : -136.49265 : 1"
       inkscape:vp_z="1 : -136.32598 : 1"
       inkscape:vp_y="0 : 999.99988 : 0"
       inkscape:vp_x="0 : -136.32598 : 1"
       sodipodi:type="inkscape:persp3d" /><inkscape:perspective
       id="perspective2952-5"
       inkscape:persp3d-origin="0.5 : -136.49265 : 1"
       inkscape:vp_z="1 : -136.32598 : 1"
       inkscape:vp_y="0 : 999.99988 : 0"
       inkscape:vp_x="0 : -136.32598 : 1"
       sodipodi:type="inkscape:persp3d" /><inkscape:perspective
       id="perspective2952-4"
       inkscape:persp3d-origin="0.5 : -136.49265 : 1"
       inkscape:vp_z="1 : -136.32598 : 1"
       inkscape:vp_y="0 : 999.99988 : 0"
       inkscape:vp_x="0 : -136.32598 : 1"
       sodipodi:type="inkscape:persp3d" /><inkscape:perspective
       id="perspective2999"
       inkscape:persp3d-origin="0.5 : -136.49265 : 1"
       inkscape:vp_z="1 : -136.32598 : 1"
       inkscape:vp_y="0 : 999.99988 : 0"
       inkscape:vp_x="0 : -136.32598 : 1"
       sodipodi:type="inkscape:persp3d" /><inkscape:perspective
       id="perspective2999-7"
       inkscape:persp3d-origin="0.5 : -136.49265 : 1"
       inkscape:vp_z="1 : -136.32598 : 1"
       inkscape:vp_y="0 : 999.99988 : 0"
       inkscape:vp_x="0 : -136.32598 : 1"
       sodipodi:type="inkscape:persp3d" /><inkscape:perspective
       id="perspective3035"
       inkscape:persp3d-origin="0.5 : -136.49265 : 1"
       inkscape:vp_z="1 : -136.32598 : 1"
       inkscape:vp_y="0 : 999.99988 : 0"
       inkscape:vp_x="0 : -136.32598 : 1"
       sodipodi:type="inkscape:persp3d" /><inkscape:perspective
       id="perspective3060"
       inkscape:persp3d-origin="0.5 : -136.49265 : 1"
       inkscape:vp_z="1 : -136.32598 : 1"
       inkscape:vp_y="0 : 999.99988 : 0"
       inkscape:vp_x="0 : -136.32598 : 1"
       sodipodi:type="inkscape:persp3d" /><inkscape:perspective
       id="perspective4526"
       inkscape:persp3d-origin="0.5 : -136.49265 : 1"
       inkscape:vp_z="1 : -136.32598 : 1"
       inkscape:vp_y="0 : 999.99988 : 0"
       inkscape:vp_x="0 : -136.32598 : 1"
       sodipodi:type="inkscape:persp3d" /><marker
       inkscape:stockid="TriangleOutL"
       orient="auto"
       refY="0"
       refX="0"
       id="TriangleOutL-2"
       style="overflow:visible"><path
         id="path4028-7"
         d="M 5.77,0 -2.88,5 V -5 Z"
         style="fill-rule:evenodd;stroke:#000000;stroke-width:1pt;marker-start:none"
         transform="scale(0.8)" /></marker><inkscape:perspective
       id="perspective4554"
       inkscape:persp3d-origin="0.5 : -136.49265 : 1"
       inkscape:vp_z="1 : -136.32598 : 1"
       inkscape:vp_y="0 : 999.99988 : 0"
       inkscape:vp_x="0 : -136.32598 : 1"
       sodipodi:type="inkscape:persp3d" /><marker
       inkscape:stockid="TriangleOutL"
       orient="auto"
       refY="0"
       refX="0"
       id="TriangleOutL-0"
       style="overflow:visible"><path
         id="path4028-0"
         d="M 5.77,0 -2.88,5 V -5 Z"
         style="fill-rule:evenodd;stroke:#000000;stroke-width:1pt;marker-start:none"
         transform="scale(0.8)" /></marker><inkscape:perspective
       id="perspective4596"
       inkscape:persp3d-origin="0.5 : -136.49265 : 1"
       inkscape:vp_z="1 : -136.32598 : 1"
       inkscape:vp_y="0 : 999.99988 : 0"
       inkscape:vp_x="0 : -136.32598 : 1"
       sodipodi:type="inkscape:persp3d" /><inkscape:perspective
       id="perspective4816"
       inkscape:persp3d-origin="0.5 : -136.49265 : 1"
       inkscape:vp_z="1 : -136.32598 : 1"
       inkscape:vp_y="0 : 999.99988 : 0"
       inkscape:vp_x="0 : -136.32598 : 1"
       sodipodi:type="inkscape:persp3d" /><marker
       inkscape:stockid="Arrow2Lend"
       orient="auto"
       refY="0"
       refX="0"
       id="Arrow2Lend-3"
       style="overflow:visible"><path
         id="path3906-6"
         style="font-size:12px;fill-rule:evenodd;stroke-width:0.625;stroke-linejoin:round"
         d="M 8.7185878,4.0337352 -2.2072895,0.01601326 8.7185884,-4.0017078 c -1.7454984,2.3720609 -1.7354408,5.6174519 -6e-7,8.035443 z"
         transform="matrix(-1.1,0,0,-1.1,-1.1,0)" /></marker><marker
       inkscape:stockid="TriangleOutL"
       orient="auto"
       refY="0"
       refX="0"
       id="TriangleOutL-3"
       style="overflow:visible"><path
         id="path4028-5"
         d="M 5.77,0 -2.88,5 V -5 Z"
         style="fill-rule:evenodd;stroke:#000000;stroke-width:1pt;marker-start:none"
         transform="scale(0.8)" /></marker><marker
       inkscape:stockid="Arrow1Lend"
       orient="auto"
       refY="0"
       refX="0"
       id="Arrow1Lend-6"
       style="overflow:visible"><path
         id="path3888-2"
         d="M 0,0 5,-5 -12.5,0 5,5 Z"
         style="fill-rule:evenodd;stroke:#000000;stroke-width:1pt;marker-start:none"
         transform="matrix(-0.8,0,0,-0.8,-10,0)" /></marker><inkscape:perspective
       sodipodi:type="inkscape:persp3d"
       inkscape:vp_x="0 : 40.049161 : 1"
       inkscape:vp_y="0 : 1000 : 0"
       inkscape:vp_z="0.9999999 : 40.049161 : 1"
       inkscape:persp3d-origin="0.49999999 : 39.882494 : 1"
       id="perspective10-9" /><inkscape:perspective
       id="perspective2830-1"
       inkscape:persp3d-origin="0.49999999 : 39.882494 : 1"
       inkscape:vp_z="0.9999999 : 40.049161 : 1"
       inkscape:vp_y="0 : 1000 : 0"
       inkscape:vp_x="0 : 40.049161 : 1"
       sodipodi:type="inkscape:persp3d" /><inkscape:perspective
       id="perspective2855-2"
       inkscape:persp3d-origin="0.49999999 : 39.882494 : 1"
       inkscape:vp_z="0.9999999 : 40.049161 : 1"
       inkscape:vp_y="0 : 1000 : 0"
       inkscape:vp_x="0 : 40.049161 : 1"
       sodipodi:type="inkscape:persp3d" /><inkscape:perspective
       id="perspective2896-7"
       inkscape:persp3d-origin="0.49999999 : 39.882494 : 1"
       inkscape:vp_z="0.9999999 : 40.049161 : 1"
       inkscape:vp_y="0 : 1000 : 0"
       inkscape:vp_x="0 : 40.049161 : 1"
       sodipodi:type="inkscape:persp3d" /><inkscape:perspective
       id="perspective2927-0"
       inkscape:persp3d-origin="0.49999999 : 39.882494 : 1"
       inkscape:vp_z="0.9999999 : 40.049161 : 1"
       inkscape:vp_y="0 : 1000 : 0"
       inkscape:vp_x="0 : 40.049161 : 1"
       sodipodi:type="inkscape:persp3d" /><inkscape:perspective
       id="perspective2952-9"
       inkscape:persp3d-origin="0.49999999 : 39.882494 : 1"
       inkscape:vp_z="0.9999999 : 40.049161 : 1"
       inkscape:vp_y="0 : 1000 : 0"
       inkscape:vp_x="0 : 40.049161 : 1"
       sodipodi:type="inkscape:persp3d" /><inkscape:perspective
       id="perspective2952-5-3"
       inkscape:persp3d-origin="0.49999999 : 39.882494 : 1"
       inkscape:vp_z="0.9999999 : 40.049161 : 1"
       inkscape:vp_y="0 : 1000 : 0"
       inkscape:vp_x="0 : 40.049161 : 1"
       sodipodi:type="inkscape:persp3d" /><inkscape:perspective
       id="perspective2952-4-6"
       inkscape:persp3d-origin="0.49999999 : 39.882494 : 1"
       inkscape:vp_z="0.9999999 : 40.049161 : 1"
       inkscape:vp_y="0 : 1000 : 0"
       inkscape:vp_x="0 : 40.049161 : 1"
       sodipodi:type="inkscape:persp3d" /><inkscape:perspective
       id="perspective2999-0"
       inkscape:persp3d-origin="0.49999999 : 39.882494 : 1"
       inkscape:vp_z="0.9999999 : 40.049161 : 1"
       inkscape:vp_y="0 : 1000 : 0"
       inkscape:vp_x="0 : 40.049161 : 1"
       sodipodi:type="inkscape:persp3d" /><inkscape:perspective
       id="perspective2999-7-6"
       inkscape:persp3d-origin="0.49999999 : 39.882494 : 1"
       inkscape:vp_z="0.9999999 : 40.049161 : 1"
       inkscape:vp_y="0 : 1000 : 0"
       inkscape:vp_x="0 : 40.049161 : 1"
       sodipodi:type="inkscape:persp3d" /><inkscape:perspective
       id="perspective3035-2"
       inkscape:persp3d-origin="0.49999999 : 39.882494 : 1"
       inkscape:vp_z="0.9999999 : 40.049161 : 1"
       inkscape:vp_y="0 : 1000 : 0"
       inkscape:vp_x="0 : 40.049161 : 1"
       sodipodi:type="inkscape:persp3d" /><inkscape:perspective
       id="perspective3060-6"
       inkscape:persp3d-origin="0.49999999 : 39.882494 : 1"
       inkscape:vp_z="0.9999999 : 40.049161 : 1"
       inkscape:vp_y="0 : 1000 : 0"
       inkscape:vp_x="0 : 40.049161 : 1"
       sodipodi:type="inkscape:persp3d" /><inkscape:perspective
       id="perspective4526-1"
       inkscape:persp3d-origin="0.49999999 : 39.882494 : 1"
       inkscape:vp_z="0.9999999 : 40.049161 : 1"
       inkscape:vp_y="0 : 1000 : 0"
       inkscape:vp_x="0 : 40.049161 : 1"
       sodipodi:type="inkscape:persp3d" /><marker
       inkscape:stockid="TriangleOutL"
       orient="auto"
       refY="0"
       refX="0"
       id="TriangleOutL-2-8"
       style="overflow:visible"><path
         id="path4028-7-7"
         d="M 5.77,0 -2.88,5 V -5 Z"
         style="fill-rule:evenodd;stroke:#000000;stroke-width:1pt;marker-start:none"
         transform="scale(0.8)" /></marker><inkscape:perspective
       id="perspective4554-9"
       inkscape:persp3d-origin="0.49999999 : 39.882494 : 1"
       inkscape:vp_z="0.9999999 : 40.049161 : 1"
       inkscape:vp_y="0 : 1000 : 0"
       inkscape:vp_x="0 : 40.049161 : 1"
       sodipodi:type="inkscape:persp3d" /><marker
       inkscape:stockid="TriangleOutL"
       orient="auto"
       refY="0"
       refX="0"
       id="TriangleOutL-0-2"
       style="overflow:visible"><path
         id="path4028-0-0"
         d="M 5.77,0 -2.88,5 V -5 Z"
         style="fill-rule:evenodd;stroke:#000000;stroke-width:1pt;marker-start:none"
         transform="scale(0.8)" /></marker><inkscape:perspective
       id="perspective4596-2"
       inkscape:persp3d-origin="0.49999999 : 39.882494 : 1"
       inkscape:vp_z="0.9999999 : 40.049161 : 1"
       inkscape:vp_y="0 : 1000 : 0"
       inkscape:vp_x="0 : 40.049161 : 1"
       sodipodi:type="inkscape:persp3d" /><inkscape:perspective
       id="perspective4816-3"
       inkscape:persp3d-origin="0.49999999 : 39.882494 : 1"
       inkscape:vp_z="0.9999999 : 40.049161 : 1"
       inkscape:vp_y="0 : 1000 : 0"
       inkscape:vp_x="0 : 40.049161 : 1"
       sodipodi:type="inkscape:persp3d" /><marker
       inkscape:stockid="Arrow2Lend"
       orient="auto"
       refY="0"
       refX="0"
       id="Arrow2Lend-5"
       style="overflow:visible"><path
         id="path3906-9"
         style="font-size:12px;fill-rule:evenodd;stroke-width:0.625;stroke-linejoin:round"
         d="M 8.7185878,4.0337352 -2.2072895,0.01601326 8.7185884,-4.0017078 c -1.7454984,2.3720609 -1.7354408,5.6174519 -6e-7,8.035443 z"
         transform="matrix(-1.1,0,0,-1.1,-1.1,0)" /></marker><marker
       inkscape:stockid="TriangleOutL"
       orient="auto"
       refY="0"
       refX="0"
       id="TriangleOutL-8"
       style="overflow:visible"><path
         id="path4028-9"
         d="M 5.77,0 -2.88,5 V -5 Z"
         style="fill-rule:evenodd;stroke:#000000;stroke-width:1pt;marker-start:none"
         transform="scale(0.8)" /></marker><marker
       inkscape:stockid="Arrow1Lend"
       orient="auto"
       refY="0"
       refX="0"
       id="Arrow1Lend-7"
       style="overflow:visible"><path
         id="path3888-3"
         d="M 0,0 5,-5 -12.5,0 5,5 Z"
         style="fill-rule:evenodd;stroke:#000000;stroke-width:1pt;marker-start:none"
         transform="matrix(-0.8,0,0,-0.8,-10,0)" /></marker><inkscape:perspective
       sodipodi:type="inkscape:persp3d"
       inkscape:vp_x="0 : 75.391229 : 1"
       inkscape:vp_y="0 : 1000 : 0"
       inkscape:vp_z="0.9999999 : 75.391229 : 1"
       inkscape:persp3d-origin="0.49999997 : 75.224562 : 1"
       id="perspective10-6" /><inkscape:perspective
       id="perspective2830-12"
       inkscape:persp3d-origin="0.49999997 : 75.224562 : 1"
       inkscape:vp_z="0.9999999 : 75.391229 : 1"
       inkscape:vp_y="0 : 1000 : 0"
       inkscape:vp_x="0 : 75.391229 : 1"
       sodipodi:type="inkscape:persp3d" /><inkscape:perspective
       id="perspective2855-9"
       inkscape:persp3d-origin="0.49999997 : 75.224562 : 1"
       inkscape:vp_z="0.9999999 : 75.391229 : 1"
       inkscape:vp_y="0 : 1000 : 0"
       inkscape:vp_x="0 : 75.391229 : 1"
       sodipodi:type="inkscape:persp3d" /><inkscape:perspective
       id="perspective2896-3"
       inkscape:persp3d-origin="0.49999997 : 75.224562 : 1"
       inkscape:vp_z="0.9999999 : 75.391229 : 1"
       inkscape:vp_y="0 : 1000 : 0"
       inkscape:vp_x="0 : 75.391229 : 1"
       sodipodi:type="inkscape:persp3d" /><inkscape:perspective
       id="perspective2927-1"
       inkscape:persp3d-origin="0.49999997 : 75.224562 : 1"
       inkscape:vp_z="0.9999999 : 75.391229 : 1"
       inkscape:vp_y="0 : 1000 : 0"
       inkscape:vp_x="0 : 75.391229 : 1"
       sodipodi:type="inkscape:persp3d" /><inkscape:perspective
       id="perspective2952-94"
       inkscape:persp3d-origin="0.49999997 : 75.224562 : 1"
       inkscape:vp_z="0.9999999 : 75.391229 : 1"
       inkscape:vp_y="0 : 1000 : 0"
       inkscape:vp_x="0 : 75.391229 : 1"
       sodipodi:type="inkscape:persp3d" /><inkscape:perspective
       id="perspective2952-5-7"
       inkscape:persp3d-origin="0.49999997 : 75.224562 : 1"
       inkscape:vp_z="0.9999999 : 75.391229 : 1"
       inkscape:vp_y="0 : 1000 : 0"
       inkscape:vp_x="0 : 75.391229 : 1"
       sodipodi:type="inkscape:persp3d" /><inkscape:perspective
       id="perspective2952-4-8"
       inkscape:persp3d-origin="0.49999997 : 75.224562 : 1"
       inkscape:vp_z="0.9999999 : 75.391229 : 1"
       inkscape:vp_y="0 : 1000 : 0"
       inkscape:vp_x="0 : 75.391229 : 1"
       sodipodi:type="inkscape:persp3d" /><inkscape:perspective
       id="perspective2999-4"
       inkscape:persp3d-origin="0.49999997 : 75.224562 : 1"
       inkscape:vp_z="0.9999999 : 75.391229 : 1"
       inkscape:vp_y="0 : 1000 : 0"
       inkscape:vp_x="0 : 75.391229 : 1"
       sodipodi:type="inkscape:persp3d" /><inkscape:perspective
       id="perspective2999-7-5"
       inkscape:persp3d-origin="0.49999997 : 75.224562 : 1"
       inkscape:vp_z="0.9999999 : 75.391229 : 1"
       inkscape:vp_y="0 : 1000 : 0"
       inkscape:vp_x="0 : 75.391229 : 1"
       sodipodi:type="inkscape:persp3d" /><inkscape:perspective
       id="perspective3035-0"
       inkscape:persp3d-origin="0.49999997 : 75.224562 : 1"
       inkscape:vp_z="0.9999999 : 75.391229 : 1"
       inkscape:vp_y="0 : 1000 : 0"
       inkscape:vp_x="0 : 75.391229 : 1"
       sodipodi:type="inkscape:persp3d" /><inkscape:perspective
       id="perspective3060-3"
       inkscape:persp3d-origin="0.49999997 : 75.224562 : 1"
       inkscape:vp_z="0.9999999 : 75.391229 : 1"
       inkscape:vp_y="0 : 1000 : 0"
       inkscape:vp_x="0 : 75.391229 : 1"
       sodipodi:type="inkscape:persp3d" /><inkscape:perspective
       id="perspective4526-6"
       inkscape:persp3d-origin="0.49999997 : 75.224562 : 1"
       inkscape:vp_z="0.9999999 : 75.391229 : 1"
       inkscape:vp_y="0 : 1000 : 0"
       inkscape:vp_x="0 : 75.391229 : 1"
       sodipodi:type="inkscape:persp3d" /><marker
       inkscape:stockid="TriangleOutL"
       orient="auto"
       refY="0"
       refX="0"
       id="TriangleOutL-2-1"
       style="overflow:visible"><path
         id="path4028-7-0"
         d="M 5.77,0 -2.88,5 V -5 Z"
         style="fill-rule:evenodd;stroke:#000000;stroke-width:1pt;marker-start:none"
         transform="scale(0.8)" /></marker><inkscape:perspective
       id="perspective4554-6"
       inkscape:persp3d-origin="0.49999997 : 75.224562 : 1"
       inkscape:vp_z="0.9999999 : 75.391229 : 1"
       inkscape:vp_y="0 : 1000 : 0"
       inkscape:vp_x="0 : 75.391229 : 1"
       sodipodi:type="inkscape:persp3d" /><marker
       inkscape:stockid="TriangleOutL"
       orient="auto"
       refY="0"
       refX="0"
       id="TriangleOutL-0-3"
       style="overflow:visible"><path
         id="path4028-0-2"
         d="M 5.77,0 -2.88,5 V -5 Z"
         style="fill-rule:evenodd;stroke:#000000;stroke-width:1pt;marker-start:none"
         transform="scale(0.8)" /></marker><inkscape:perspective
       id="perspective4596-0"
       inkscape:persp3d-origin="0.49999997 : 75.224562 : 1"
       inkscape:vp_z="0.9999999 : 75.391229 : 1"
       inkscape:vp_y="0 : 1000 : 0"
       inkscape:vp_x="0 : 75.391229 : 1"
       sodipodi:type="inkscape:persp3d" /><inkscape:perspective
       id="perspective4816-6"
       inkscape:persp3d-origin="0.49999997 : 75.224562 : 1"
       inkscape:vp_z="0.9999999 : 75.391229 : 1"
       inkscape:vp_y="0 : 1000 : 0"
       inkscape:vp_x="0 : 75.391229 : 1"
       sodipodi:type="inkscape:persp3d" /></defs><g
     inkscape:label="Layer 1"
     inkscape:groupmode="layer"
     id="layer1"
     transform="translate(73.509277,-33.138942)"><path
       style="fill:#808000;fill-opacity:1;stroke:#ffeeaa;stroke-width:1;stroke-linecap:butt;stroke-linejoin:miter;stroke-miterlimit:4;stroke-dasharray:none;stroke-opacity:1"
       d="m 63.916568,122.29243 c 0,0 21.894338,-8.36801 24.24567,-20.5292 1.624896,-8.404032 2.350866,-15.606268 -10.97249,-36.810962 -17.065241,-27.160066 -39.99925,-21.258908 -46.1798,-18.651392 -6.73649,2.842064 -17.934409,7.128032 -5.89739,32.441722 4.46517,9.39021 5.6687,15.67779 2.83161,19.82129 -13.243637,19.341982 2.87793,40.010312 35.9724,23.728542 z"
       id="path4576"
       sodipodi:nodetypes="csssssc" /><g
       transform="matrix(1.5173378,0,0,1.5173378,31.411558,55.907888)"
       ns1:version="1.10.2"
       ns1:texconverter="pdflatex"
       ns1:pdfconverter="inkscape"
       ns1:text="$\\mathcal{B}$"
       ns1:preamble="/home/eric-neiva/.config/inkscape/extensions/textext/default_packages.tex"
       ns1:scale="20.0"
       ns1:alignment="middle center"
       ns1:stroke-to-path="0"
       ns1:inkscapeversion="1.3.2"
       id="g6906"
       ns1:jacobian_sqrt="7.05556"
       style="fill:#ffeeaa;fill-opacity:1;stroke:#ffeeaa;stroke-opacity:0.4"><defs
   id="id-7321ead1-3f86-4f71-91f9-cb7b2498f27f">
    <g
   id="id-9bc693cc-2a25-4992-818d-6d9a88e15fed">
      <symbol
   overflow="visible"
   id="id-5de672a3-7cd9-4de7-8b14-37098b74abb8">
        <path
   style="stroke:none;stroke-width:0"
   d=""
   id="id-abae6982-7062-4902-b658-f3e878e88119" />
      </symbol>
      <symbol
   overflow="visible"
   id="id-f6fa82b4-a75c-4f0b-be91-c3a67bf72640">
        <path
   style="stroke:none;stroke-width:0"
   d="M 2.796875,-6.765625 C 2.8125,-6.875 2.8125,-6.890625 2.8125,-6.921875 2.8125,-7 2.796875,-7.03125 2.703125,-7.03125 c -0.109375,0 -0.40625,0.15625 -0.609375,0.25 C 1.640625,-6.546875 1.25,-6.359375 1.25,-6.1875 c 0,0.0625 0.078125,0.0625 0.109375,0.0625 0.125,0 0.390625,-0.140625 0.578125,-0.21875 -0.125,0.96875 -0.359375,2.25 -0.546875,3.109375 C 1.03125,-1.546875 0.84375,-0.9375 0.34375,0.03125 0.296875,0.125 0.296875,0.140625 0.296875,0.15625 c 0,0.0625 0.078125,0.0625 0.109375,0.0625 0.15625,0 0.578125,-0.171875 0.734375,-0.453125 0.125,-0.234375 0.5,-0.96875 0.796875,-2.125 0.21875,-0.84375 0.609375,-2.15625 1.3125,-3.1875 0.453125,-0.640625 0.875,-0.9375 1.5,-0.9375 0.546875,0 1.03125,0.34375 1.03125,0.875 0,0.875 -0.953125,1.1875 -1.984375,1.546875 -0.125,0.03125 -0.8125,0.28125 -0.8125,0.53125 0,0.046875 0.078125,0.0625 0.109375,0.0625 0.03125,0 0.265625,-0.046875 0.46875,-0.046875 1.015625,0 1.828125,0.609375 1.828125,1.546875 0,1.234375 -1.046875,1.640625 -1.96875,1.640625 -0.765625,0 -1.125,-0.421875 -1.265625,-0.5625 -0.03125,-0.046875 -0.046875,-0.0625 -0.125,-0.0625 -0.21875,0 -0.71875,0.3125 -0.71875,0.484375 0,0.03125 0.375,0.6875 1.453125,0.6875 1.40625,0 3.46875,-1 3.46875,-2.59375 0,-0.84375 -0.546875,-1.46875 -1.5625,-1.65625 0.796875,-0.34375 1.953125,-1.0625 1.953125,-2 0,-0.578125 -0.46875,-1 -1.21875,-1 -0.328125,0 -1.609375,0.078125 -2.8125,1.578125 z m 0,0"
   id="id-ed7e9381-b1ab-437f-8ef4-80c9c5211991" />
      </symbol>
    </g>
  </defs>
  <g
   id="id-2fe77556-d40f-4e48-b315-0e8d0f569ced"
   transform="translate(-149.009,-127.734)"
   style="fill:#ffeeaa;fill-opacity:1;stroke:#ffeeaa;stroke-opacity:0.4">
    <g
   style="fill:#ffeeaa;fill-opacity:1;stroke:#ffeeaa;stroke-opacity:0.4"
   id="id-87522a0b-3c30-4367-afb8-2ee4be8238d2">
      <g
   transform="translate(148.712,134.765)"
   id="g3020"
   style="fill:#ffeeaa;fill-opacity:1;stroke:#ffeeaa;stroke-opacity:0.4"><path
   style="fill:#ffeeaa;fill-opacity:1;stroke:#ffeeaa;stroke-width:0;stroke-opacity:0.4"
   d="M 2.796875,-6.765625 C 2.8125,-6.875 2.8125,-6.890625 2.8125,-6.921875 2.8125,-7 2.796875,-7.03125 2.703125,-7.03125 c -0.109375,0 -0.40625,0.15625 -0.609375,0.25 C 1.640625,-6.546875 1.25,-6.359375 1.25,-6.1875 c 0,0.0625 0.078125,0.0625 0.109375,0.0625 0.125,0 0.390625,-0.140625 0.578125,-0.21875 -0.125,0.96875 -0.359375,2.25 -0.546875,3.109375 C 1.03125,-1.546875 0.84375,-0.9375 0.34375,0.03125 0.296875,0.125 0.296875,0.140625 0.296875,0.15625 c 0,0.0625 0.078125,0.0625 0.109375,0.0625 0.15625,0 0.578125,-0.171875 0.734375,-0.453125 0.125,-0.234375 0.5,-0.96875 0.796875,-2.125 0.21875,-0.84375 0.609375,-2.15625 1.3125,-3.1875 0.453125,-0.640625 0.875,-0.9375 1.5,-0.9375 0.546875,0 1.03125,0.34375 1.03125,0.875 0,0.875 -0.953125,1.1875 -1.984375,1.546875 -0.125,0.03125 -0.8125,0.28125 -0.8125,0.53125 0,0.046875 0.078125,0.0625 0.109375,0.0625 0.03125,0 0.265625,-0.046875 0.46875,-0.046875 1.015625,0 1.828125,0.609375 1.828125,1.546875 0,1.234375 -1.046875,1.640625 -1.96875,1.640625 -0.765625,0 -1.125,-0.421875 -1.265625,-0.5625 -0.03125,-0.046875 -0.046875,-0.0625 -0.125,-0.0625 -0.21875,0 -0.71875,0.3125 -0.71875,0.484375 0,0.03125 0.375,0.6875 1.453125,0.6875 1.40625,0 3.46875,-1 3.46875,-2.59375 0,-0.84375 -0.546875,-1.46875 -1.5625,-1.65625 0.796875,-0.34375 1.953125,-1.0625 1.953125,-2 0,-0.578125 -0.46875,-1 -1.21875,-1 -0.328125,0 -1.609375,0.078125 -2.8125,1.578125 z m 0,0"
   id="id-d537e376-6f11-4cb2-ab99-891b3ce41678" />
      </g></g>
  </g>
</g><g
       transform="matrix(1.24706,0,0,1.24706,58.487237,92.670963)"
       ns1:version="1.10.2"
       ns1:texconverter="pdflatex"
       ns1:pdfconverter="inkscape"
       ns1:text="$P$"
       ns1:preamble="/home/eric-neiva/.config/inkscape/extensions/textext/default_packages.tex"
       ns1:scale="3.534972583397515"
       ns1:alignment="middle center"
       ns1:stroke-to-path="0"
       ns1:inkscapeversion="1.3.2"
       id="g7612"
       ns1:jacobian_sqrt="1.24706"
       style="fill:#ffeeaa;fill-opacity:1"><defs
   id="id-60472d35-0bb6-428a-a008-68cb30a3dab3">
    <g
   id="id-a11bc910-1e60-4b61-bed1-f2ad3be0343c">
      <symbol
   overflow="visible"
   id="id-2ab1376e-6785-4e98-a307-60fd261e69ef">
        <path
   style="stroke:none;stroke-width:0"
   d=""
   id="id-a319c110-834e-4b3f-99d7-d6c42be37455" />
      </symbol>
      <symbol
   overflow="visible"
   id="id-d762143e-4428-4c01-bd68-d3c488841a69">
        <path
   style="stroke:none;stroke-width:0"
   d="M 3.015625,-3.15625 H 4.71875 c 1.40625,0 2.796875,-1.03125 2.796875,-2.140625 0,-0.78125 -0.65625,-1.515625 -1.96875,-1.515625 h -3.21875 c -0.1875,0 -0.296875,0 -0.296875,0.1875 0,0.125 0.078125,0.125 0.28125,0.125 0.125,0 0.3125,0.015625 0.421875,0.015625 0.171875,0.03125 0.21875,0.046875 0.21875,0.171875 0,0.03125 0,0.0625 -0.03125,0.1875 l -1.34375,5.34375 c -0.09375,0.390625 -0.109375,0.46875 -0.90625,0.46875 -0.15625,0 -0.265625,0 -0.265625,0.1875 C 0.40625,0 0.515625,0 0.546875,0 0.828125,0 1.53125,-0.03125 1.8125,-0.03125 c 0.21875,0 0.4375,0.015625 0.640625,0.015625 0.21875,0 0.4375,0.015625 0.640625,0.015625 0.078125,0 0.203125,0 0.203125,-0.203125 0,-0.109375 -0.09375,-0.109375 -0.28125,-0.109375 -0.359375,0 -0.640625,0 -0.640625,-0.171875 0,-0.0625 0.015625,-0.109375 0.03125,-0.171875 z M 3.734375,-6.125 C 3.828125,-6.46875 3.84375,-6.5 4.28125,-6.5 h 0.953125 c 0.828125,0 1.359375,0.265625 1.359375,0.953125 0,0.390625 -0.203125,1.25 -0.59375,1.609375 -0.5,0.453125 -1.09375,0.53125 -1.53125,0.53125 H 3.0625 Z m 0,0"
   id="id-1f3eb95f-56d2-4e4e-b20b-226ba7420c34" />
      </symbol>
    </g>
  </defs>
  <g
   id="id-944145ee-25e9-48db-9c9e-f3cb9f88fcc0"
   transform="translate(-149.118,-127.953)"
   style="fill:#ffeeaa;fill-opacity:1">
    <g
   style="fill:#ffeeaa;fill-opacity:1"
   id="id-574464ed-81dd-45fa-9912-7734e680a962">
      <g
   transform="translate(148.712,134.765)"
   id="g3537"
   style="fill:#ffeeaa;fill-opacity:1"><path
   style="fill:#ffeeaa;fill-opacity:1;stroke:none;stroke-width:0"
   d="M 3.015625,-3.15625 H 4.71875 c 1.40625,0 2.796875,-1.03125 2.796875,-2.140625 0,-0.78125 -0.65625,-1.515625 -1.96875,-1.515625 h -3.21875 c -0.1875,0 -0.296875,0 -0.296875,0.1875 0,0.125 0.078125,0.125 0.28125,0.125 0.125,0 0.3125,0.015625 0.421875,0.015625 0.171875,0.03125 0.21875,0.046875 0.21875,0.171875 0,0.03125 0,0.0625 -0.03125,0.1875 l -1.34375,5.34375 c -0.09375,0.390625 -0.109375,0.46875 -0.90625,0.46875 -0.15625,0 -0.265625,0 -0.265625,0.1875 C 0.40625,0 0.515625,0 0.546875,0 0.828125,0 1.53125,-0.03125 1.8125,-0.03125 c 0.21875,0 0.4375,0.015625 0.640625,0.015625 0.21875,0 0.4375,0.015625 0.640625,0.015625 0.078125,0 0.203125,0 0.203125,-0.203125 0,-0.109375 -0.09375,-0.109375 -0.28125,-0.109375 -0.359375,0 -0.640625,0 -0.640625,-0.171875 0,-0.0625 0.015625,-0.109375 0.03125,-0.171875 z M 3.734375,-6.125 C 3.828125,-6.46875 3.84375,-6.5 4.28125,-6.5 h 0.953125 c 0.828125,0 1.359375,0.265625 1.359375,0.953125 0,0.390625 -0.203125,1.25 -0.59375,1.609375 -0.5,0.453125 -1.09375,0.53125 -1.53125,0.53125 H 3.0625 Z m 0,0"
   id="id-36dd6d29-562a-4269-af38-497b116ef2bc" />
      </g></g>
  </g>
</g><circle
       style="fill:#ffeeaa;fill-opacity:1;stroke:none;stroke-width:0.499999;stroke-linecap:square;stroke-linejoin:miter;stroke-dasharray:3, 3;stroke-dashoffset:0;stroke-opacity:1"
       id="path80"
       cx="67.95578"
       cy="103.02348"
       r="2.0496714" /><g
       style="font-style:italic;font-variant:normal;font-weight:normal;font-stretch:normal;font-size:56px;line-height:125%;font-family:times;-inkscape-font-specification:'Andale Mono Italic';fill:#000000;fill-opacity:1;stroke:none"
       id="text2818"
       transform="matrix(0.26458333,0,0,0.26458333,80.639642,75.836242)" /></g></svg>
