<?xml version="1.0" encoding="UTF-8" standalone="no"?>
<!-- Created with Inkscape (http://www.inkscape.org/) -->

<svg
   width="1600mm"
   height="900mm"
   viewBox="0 0 1600.0001 900"
   version="1.1"
   id="svg5"
   xml:space="preserve"
   inkscape:version="1.3.2 (1:1.3.2+202311252150+091e20ef0f)"
   sodipodi:docname="peclet.svg"
   inkscape:export-filename="peclet.png"
   inkscape:export-xdpi="25.4"
   inkscape:export-ydpi="25.4"
   xmlns:inkscape="http://www.inkscape.org/namespaces/inkscape"
   xmlns:sodipodi="http://sodipodi.sourceforge.net/DTD/sodipodi-0.dtd"
   xmlns="http://www.w3.org/2000/svg"
   xmlns:svg="http://www.w3.org/2000/svg"><sodipodi:namedview
     id="namedview7"
     pagecolor="#505050"
     bordercolor="#ffffff"
     borderopacity="1"
     inkscape:showpageshadow="0"
     inkscape:pageopacity="0"
     inkscape:pagecheckerboard="1"
     inkscape:deskcolor="#505050"
     inkscape:document-units="mm"
     showgrid="false"
     inkscape:zoom="0.23783647"
     inkscape:cx="4234.0016"
     inkscape:cy="3123.9953"
     inkscape:window-width="3768"
     inkscape:window-height="1536"
     inkscape:window-x="72"
     inkscape:window-y="27"
     inkscape:window-maximized="1"
     inkscape:current-layer="layer1" /><defs
     id="defs2"><marker
       markerWidth="0.52499998"
       markerHeight="0.99999995"
       refX="0"
       refY="0"
       orient="auto-start-reverse"
       id="marker4"
       viewBox="0 0 0.525 1"
       inkscape:stockid="Triangle cap"
       style="overflow:visible"
       preserveAspectRatio="xMidYMid"
       inkscape:isstock="true"
       inkscape:collect="always"><path
         style="fill:context-stroke;stroke-linecap:butt"
         d="M 0,-1 1,0 0,1 -0.05,0 Z"
         sodipodi:nodetypes="sssssscsss"
         transform="scale(0.5)"
         id="path4" /></marker><marker
       markerWidth="0.52499997"
       markerHeight="0.99999994"
       refX="0"
       refY="0"
       orient="auto-start-reverse"
       id="CapTriangle"
       viewBox="0 0 0.525 1"
       inkscape:stockid="Triangle cap"
       style="overflow:visible"
       preserveAspectRatio="xMidYMid"
       inkscape:isstock="true"
       inkscape:collect="always"><path
         style="fill:context-stroke;stroke-linecap:butt"
         d="M 0,-1 1,0 0,1 -0.05,0 Z"
         sodipodi:nodetypes="sssssscsss"
         transform="scale(0.5)"
         id="path3" /></marker><inkscape:path-effect
       effect="bspline"
       id="path-effect1"
       is_visible="true"
       lpeversion="1.3"
       weight="33.333333"
       steps="2"
       helper_size="0"
       apply_no_weight="true"
       apply_with_weight="true"
       only_selected="false"
       uniform="false" /><rect
       x="1382.8281"
       y="1488.0383"
       width="2159.9055"
       height="1170.2654"
       id="rect1" /><rect
       x="1246.2223"
       y="290.14188"
       width="1346.1706"
       height="288.84421"
       id="rect9" /><rect
       x="3454.2344"
       y="1449.7465"
       width="1144.6013"
       height="898.23804"
       id="rect1035" /><rect
       x="3526.3955"
       y="1592.4678"
       width="1072.4401"
       height="755.51666"
       id="rect1029" /><rect
       x="1063.9573"
       y="-375.6478"
       width="1553.063"
       height="195.16019"
       id="rect375" /><clipPath
       clipPathUnits="userSpaceOnUse"
       id="clipPath570"><rect
         style="fill:none;stroke:#000080;stroke-width:0.499999;stroke-linecap:round;stroke-dashoffset:6.12283"
         id="rect572"
         width="401.15347"
         height="283.50504"
         x="-693.95502"
         y="-338.72284" /></clipPath><clipPath
       clipPathUnits="userSpaceOnUse"
       id="clipPath770"><rect
         style="fill:none;stroke:#000000;stroke-width:0.740632;stroke-linecap:round;stroke-dashoffset:6.12283"
         id="rect772"
         width="253.91508"
         height="49.495613"
         x="-274.58167"
         y="402.20306" /></clipPath><clipPath
       clipPathUnits="userSpaceOnUse"
       id="clipPath778"><rect
         style="fill:none;stroke:#000000;stroke-width:0.499999;stroke-linecap:round;stroke-dashoffset:6.12283"
         id="rect780"
         width="177.31261"
         height="39.751404"
         x="-397.91525"
         y="499.83243" /></clipPath><clipPath
       clipPathUnits="userSpaceOnUse"
       id="clipPath786"><rect
         style="fill:none;stroke:#000000;stroke-width:0.499999;stroke-linecap:round;stroke-dashoffset:6.12283"
         id="rect788"
         width="269.66553"
         height="46.829357"
         x="-330.01569"
         y="398.66086" /></clipPath><clipPath
       clipPathUnits="userSpaceOnUse"
       id="clipPath1361"><rect
         style="fill:none;stroke:#000000;stroke-width:0.499999;stroke-linecap:round;stroke-dashoffset:6.12283"
         id="rect1363"
         width="448.26886"
         height="148.16667"
         x="-716.80328"
         y="305.41779" /></clipPath><rect
       x="3454.2344"
       y="1449.7465"
       width="1144.6013"
       height="898.23804"
       id="rect1043" /><rect
       x="3113.3479"
       y="1495.9489"
       width="2817.3201"
       height="349.57129"
       id="rect2" /><rect
       x="3113.3479"
       y="1495.9489"
       width="2817.3201"
       height="349.57129"
       id="rect10" /><rect
       x="3113.3479"
       y="1495.9489"
       width="2817.3201"
       height="349.57129"
       id="rect11" /><rect
       x="3113.3479"
       y="1495.9489"
       width="2817.3201"
       height="349.57129"
       id="rect12" /><rect
       x="3113.3479"
       y="1495.9489"
       width="2817.3201"
       height="349.57129"
       id="rect13" /><rect
       x="3113.3479"
       y="1495.9489"
       width="2817.3201"
       height="349.57129"
       id="rect14" /><clipPath
       clipPathUnits="userSpaceOnUse"
       id="clipPath1"><rect
         style="fill:#ffdd55;fill-opacity:0;stroke:#ffdd55;stroke-width:0.49389;stroke-linecap:round;stroke-linejoin:round"
         id="rect3"
         width="212.03825"
         height="151.33398"
         x="-204.74918"
         y="577.26038" /></clipPath><rect
       x="3113.3479"
       y="1495.9489"
       width="2817.3201"
       height="349.57129"
       id="rect5" /><inkscape:path-effect
       effect="bspline"
       id="path-effect6443"
       is_visible="true"
       lpeversion="1"
       weight="33.333333"
       steps="2"
       helper_size="0"
       apply_no_weight="true"
       apply_with_weight="true"
       only_selected="false"
       uniform="false" /><inkscape:path-effect
       effect="bspline"
       id="path-effect6477"
       is_visible="true"
       lpeversion="1"
       weight="33.333333"
       steps="2"
       helper_size="0"
       apply_no_weight="true"
       apply_with_weight="true"
       only_selected="false"
       uniform="false" /><inkscape:path-effect
       effect="bspline"
       id="path-effect35594"
       is_visible="true"
       lpeversion="1"
       weight="33.333333"
       steps="2"
       helper_size="0"
       apply_no_weight="true"
       apply_with_weight="true"
       only_selected="false"
       uniform="false" /><inkscape:path-effect
       effect="bspline"
       id="path-effect35646"
       is_visible="true"
       lpeversion="1"
       weight="33.333333"
       steps="2"
       helper_size="0"
       apply_no_weight="true"
       apply_with_weight="true"
       only_selected="false"
       uniform="false" /><inkscape:path-effect
       effect="bspline"
       id="path-effect35698"
       is_visible="true"
       lpeversion="1"
       weight="33.333333"
       steps="2"
       helper_size="0"
       apply_no_weight="true"
       apply_with_weight="true"
       only_selected="false"
       uniform="false" /><inkscape:path-effect
       effect="bspline"
       id="path-effect35054"
       is_visible="true"
       lpeversion="1"
       weight="33.333333"
       steps="2"
       helper_size="0"
       apply_no_weight="true"
       apply_with_weight="true"
       only_selected="false"
       uniform="false" /><inkscape:path-effect
       effect="bspline"
       id="path-effect35106"
       is_visible="true"
       lpeversion="1"
       weight="33.333333"
       steps="2"
       helper_size="0"
       apply_no_weight="true"
       apply_with_weight="true"
       only_selected="false"
       uniform="false" /><inkscape:path-effect
       effect="bspline"
       id="path-effect5425"
       is_visible="true"
       lpeversion="1"
       weight="33.333333"
       steps="2"
       helper_size="0"
       apply_no_weight="true"
       apply_with_weight="true"
       only_selected="false"
       uniform="false" /><inkscape:path-effect
       effect="bspline"
       id="path-effect6706"
       is_visible="true"
       lpeversion="1"
       weight="33.333333"
       steps="2"
       helper_size="0"
       apply_no_weight="true"
       apply_with_weight="true"
       only_selected="false"
       uniform="false" /><g
       id="id-2cf43a94-e5c1-4f4b-8232-5a10a6d9617d"><symbol
         overflow="visible"
         id="id-2e3e3e87-c434-47e1-b84f-5f3d43852efd"><path
           style="stroke:none;stroke-width:0"
           d=""
           id="id-e12d02e6-eafe-4d0d-8a26-864a257efee4" /></symbol><symbol
         overflow="visible"
         id="id-42a3f3a8-897a-4b1f-badb-07152b02ab3d"><path
           style="stroke:none;stroke-width:0"
           d="M 6.75,-1.609375 H 6.5 c -0.046875,0.25 -0.09375,0.484375 -0.1875,0.71875 -0.046875,0.15625 -0.078125,0.25 -0.65625,0.25 H 4.859375 C 5,-1.203125 5.296875,-1.6875 5.75,-2.34375 c 0.46875,-0.703125 0.875,-1.390625 0.875,-2.1875 0,-1.375 -1.34375,-2.5 -3.03125,-2.5 -1.703125,0 -3.03125,1.140625 -3.03125,2.5 0,0.796875 0.40625,1.484375 0.875,2.1875 0.4375,0.65625 0.75,1.140625 0.890625,1.703125 H 1.53125 C 0.953125,-0.640625 0.921875,-0.734375 0.875,-0.875 0.78125,-1.109375 0.734375,-1.359375 0.6875,-1.609375 h -0.25 L 0.765625,0 h 1.59375 c 0.21875,0 0.25,0 0.25,-0.203125 0,-0.703125 -0.3125,-1.578125 -0.53125,-2.21875 -0.21875,-0.578125 -0.5,-1.359375 -0.5,-2.109375 0,-1.59375 1.109375,-2.28125 2.015625,-2.28125 0.953125,0 2.015625,0.71875 2.015625,2.28125 0,0.75 -0.28125,1.5 -0.5625,2.3125 -0.15625,0.421875 -0.46875,1.328125 -0.46875,2.015625 C 4.578125,0 4.609375,0 4.828125,0 h 1.59375 z m 0,0"
           id="id-09f7e83e-6333-42a9-8d52-9bb40d9ef871" /></symbol></g><g
       id="id-41623fbe-1d4c-4b51-a373-61388808f03a"><symbol
         overflow="visible"
         id="id-e7e85908-3373-42ec-ae9d-920d4a82ded5"><path
           style="stroke:none;stroke-width:0"
           d=""
           id="id-f87c9096-fb0b-4517-ac99-5317f748dd0f" /></symbol><symbol
         overflow="visible"
         id="id-8a061278-a6de-432e-a3cf-fd2a035ff929"><path
           style="stroke:none;stroke-width:0"
           d="m 5.515625,-6.78125 h -5.1875 v 0.3125 H 0.5625 c 0.765625,0 0.796875,0.109375 0.796875,0.46875 v 5.21875 c 0,0.359375 -0.03125,0.46875 -0.796875,0.46875 H 0.328125 V 0 c 0.34375,-0.03125 1.125,-0.03125 1.515625,-0.03125 0.40625,0 1.3125,0 1.671875,0.03125 V -0.3125 H 3.1875 C 2.25,-0.3125 2.25,-0.4375 2.25,-0.78125 v -5.296875 c 0,-0.328125 0.015625,-0.390625 0.484375,-0.390625 h 1.03125 c 1.421875,0 1.625,0.59375 1.78125,1.9375 h 0.25 z m 0,0"
           id="id-c23c073f-0b10-4880-9a18-745f920b08fa" /></symbol></g><g
       id="id-3d8721b9-10ef-46b7-9f51-001c4ba379b7"
       style="fill:#0000ff;stroke-width:0"><symbol
         overflow="visible"
         id="id-9f365821-c81f-4c61-b072-d012e66564f4"
         style="fill:#0000ff;stroke-width:0"><path
           style="fill:#0000ff;stroke:#0000ff;stroke-width:0"
           d=""
           id="id-ded59419-948e-4f06-aacd-15b5525c759c" /></symbol><symbol
         overflow="visible"
         id="id-e91ff44c-6d34-4c0a-afef-e35aa0c6b04a"
         style="fill:#0000ff;stroke-width:0"><path
           style="fill:#0000ff;stroke:#0000ff;stroke-width:0"
           d="M 3.484375,-0.5625 C 3.59375,-0.15625 3.953125,0.109375 4.375,0.109375 4.71875,0.109375 4.953125,-0.125 5.109375,-0.4375 5.28125,-0.796875 5.40625,-1.40625 5.40625,-1.421875 c 0,-0.109375 -0.078125,-0.109375 -0.109375,-0.109375 -0.109375,0 -0.109375,0.046875 -0.140625,0.1875 -0.140625,0.5625 -0.328125,1.234375 -0.75,1.234375 -0.203125,0 -0.3125,-0.125 -0.3125,-0.453125 0,-0.21875 0.125,-0.6875 0.203125,-1.046875 L 4.578125,-2.6875 C 4.609375,-2.828125 4.703125,-3.203125 4.75,-3.359375 4.796875,-3.59375 4.890625,-3.96875 4.890625,-4.03125 c 0,-0.171875 -0.140625,-0.265625 -0.28125,-0.265625 -0.046875,0 -0.3125,0.015625 -0.390625,0.34375 -0.1875,0.734375 -0.625,2.484375 -0.75,3 -0.015625,0.046875 -0.40625,0.84375 -1.140625,0.84375 -0.515625,0 -0.609375,-0.453125 -0.609375,-0.8125 0,-0.5625 0.28125,-1.34375 0.53125,-2.03125 0.125,-0.3125 0.171875,-0.453125 0.171875,-0.640625 0,-0.4375 -0.3125,-0.8125 -0.8125,-0.8125 -0.953125,0 -1.3125,1.453125 -1.3125,1.53125 0,0.109375 0.09375,0.109375 0.109375,0.109375 0.109375,0 0.109375,-0.03125 0.15625,-0.1875 0.25,-0.859375 0.640625,-1.234375 1.015625,-1.234375 0.09375,0 0.25,0.015625 0.25,0.328125 0,0.234375 -0.109375,0.53125 -0.171875,0.671875 -0.375,1 -0.578125,1.609375 -0.578125,2.09375 0,0.953125 0.6875,1.203125 1.21875,1.203125 0.65625,0 1.015625,-0.453125 1.1875,-0.671875 z m 0,0"
           id="id-7a880b8d-e9bb-4be9-9274-ebf63095f924" /></symbol><symbol
         overflow="visible"
         id="id-d6546090-d8db-4d98-b3ea-fe1c18edb6aa"
         style="fill:#0000ff;stroke-width:0"><path
           style="fill:#0000ff;stroke:#0000ff;stroke-width:0"
           d=""
           id="id-a9df978d-c3af-421b-864f-fec2c63bd60d" /></symbol><symbol
         overflow="visible"
         id="id-3c045d51-ab22-4c3c-99e6-6f7350dfcd2f"
         style="fill:#0000ff;stroke-width:0"><path
           style="fill:#0000ff;stroke:#0000ff;stroke-width:0"
           d="m 1.03125,-0.90625 c -0.046875,0.203125 -0.125,0.5625 -0.125,0.609375 0,0.25 0.1875,0.359375 0.359375,0.359375 C 1.65625,0.0625 1.75,-0.296875 1.8125,-0.5 1.90625,-0.90625 1.90625,-0.921875 2,-1.3125 2.109375,-1.71875 2.109375,-1.734375 2.125,-1.796875 2.171875,-2 2.46875,-2.34375 2.65625,-2.515625 c 0.125,-0.109375 0.421875,-0.3125 0.796875,-0.3125 0.328125,0 0.390625,0.1875 0.390625,0.40625 0,0.390625 -0.3125,1.171875 -0.421875,1.453125 C 3.328125,-0.75 3.3125,-0.6875 3.3125,-0.578125 c 0,0.40625 0.453125,0.640625 0.890625,0.640625 0.796875,0 1.21875,-0.890625 1.21875,-1.09375 0,-0.125 -0.125,-0.125 -0.21875,-0.125 -0.171875,0 -0.1875,0.015625 -0.234375,0.15625 -0.125,0.390625 -0.421875,0.734375 -0.71875,0.734375 -0.046875,0 -0.125,0 -0.125,-0.171875 0,-0.125 0.046875,-0.203125 0.171875,-0.53125 0.0625,-0.140625 0.390625,-0.953125 0.390625,-1.328125 0,-0.859375 -0.96875,-0.859375 -1.171875,-0.859375 -0.171875,0 -0.703125,0 -1.265625,0.5625 -0.15625,-0.5625 -0.90625,-0.5625 -0.96875,-0.5625 -0.734375,0 -0.96875,1.03125 -0.96875,1.09375 0,0.125 0.109375,0.125 0.21875,0.125 0.171875,0 0.1875,0 0.21875,-0.15625 0.09375,-0.296875 0.21875,-0.734375 0.484375,-0.734375 0.171875,0 0.1875,0.171875 0.1875,0.28125 0,0.09375 -0.015625,0.171875 -0.0625,0.390625 C 1.28125,-1.890625 1.28125,-1.875 1.21875,-1.609375 Z m 0,0"
           id="id-6e8f8e48-56a0-4e89-9f07-6162caf527df" /></symbol><symbol
         overflow="visible"
         id="id-f13c6a64-15cc-4367-823b-4a94768f4a0a"
         style="fill:#0000ff;stroke-width:0"><path
           style="fill:#0000ff;stroke:#0000ff;stroke-width:0"
           d=""
           id="id-ea8ca1c2-34a6-4a41-a450-91be7114ccf0" /></symbol><symbol
         overflow="visible"
         id="id-32574973-1032-49c5-8655-963a7064b4c1"
         style="fill:#0000ff;stroke-width:0"><path
           style="fill:#0000ff;stroke:#0000ff;stroke-width:0"
           d="m 4.328125,-4.734375 h -3.9375 v 0.25 H 0.5625 c 0.53125,0 0.546875,0.078125 0.546875,0.3125 V -0.5625 c 0,0.234375 -0.015625,0.3125 -0.546875,0.3125 H 0.390625 V 0 c 0,0 0.796875,-0.03125 1.0625,-0.03125 C 1.734375,-0.03125 2.5625,0 2.671875,0 v -0.25 h -0.25 c -0.65625,0 -0.65625,-0.09375 -0.65625,-0.328125 v -3.625 c 0,-0.21875 0.015625,-0.28125 0.34375,-0.28125 h 0.84375 C 4,-4.484375 4.1875,-4.09375 4.296875,-3.125 H 4.53125 Z m 0,0"
           id="id-502efd00-ceae-4d6f-b647-98c93b65360c" /></symbol><symbol
         overflow="visible"
         id="id-fa973f1e-614a-4813-acdd-66b2691a706a"
         style="fill:#0000ff;stroke-width:0"><path
           style="fill:#0000ff;stroke:#0000ff;stroke-width:0"
           d=""
           id="id-9e14e487-ffa2-45ca-8367-055466fa0e5f" /></symbol><symbol
         overflow="visible"
         id="id-8812ee0a-562e-4d43-8921-b21c2fe3de0c"
         style="fill:#0000ff;stroke-width:0"><path
           style="fill:#0000ff;stroke:#0000ff;stroke-width:0"
           d="M 2.796875,-3.75 C 2.65625,-4.25 2.109375,-4.5 1.5625,-4.5 1.203125,-4.5 0.921875,-4.296875 0.703125,-3.9375 0.453125,-3.53125 0.3125,-3 0.3125,-2.953125 c 0,0.140625 0.15625,0.140625 0.25,0.140625 0.109375,0 0.140625,0 0.1875,-0.046875 C 0.78125,-2.875 0.78125,-2.90625 0.84375,-3.15625 1.03125,-3.921875 1.25,-4.140625 1.515625,-4.140625 c 0.15625,0 0.234375,0.09375 0.234375,0.359375 0,0.171875 -0.046875,0.328125 -0.140625,0.734375 C 1.53125,-2.765625 1.4375,-2.375 1.390625,-2.15625 L 1.03125,-0.75 C 1,-0.625 0.953125,-0.421875 0.953125,-0.359375 c 0,0.203125 0.15625,0.4375 0.46875,0.4375 0.515625,0 0.625,-0.453125 0.703125,-0.75 0.09375,-0.375 0.171875,-0.6875 0.28125,-1.125 0.03125,-0.125 0.28125,-1.15625 0.3125,-1.1875 0,-0.0625 0.28125,-0.5 0.609375,-0.78125 0.28125,-0.21875 0.609375,-0.375 1.03125,-0.375 0.25,0 0.5,0.09375 0.5,0.578125 0,0.578125 -0.4375,1.734375 -0.625,2.234375 -0.125,0.265625 -0.140625,0.34375 -0.140625,0.515625 0,0.578125 0.578125,0.890625 1.125,0.890625 1.046875,0 1.546875,-1.359375 1.546875,-1.546875 0,-0.140625 -0.140625,-0.140625 -0.234375,-0.140625 -0.125,0 -0.1875,0 -0.234375,0.125 C 5.96875,-0.375 5.4375,-0.28125 5.28125,-0.28125 c -0.078125,0 -0.171875,0 -0.171875,-0.203125 0,-0.234375 0.09375,-0.484375 0.1875,-0.734375 0.171875,-0.40625 0.625,-1.578125 0.625,-2.125 C 5.921875,-4.265625 5.15625,-4.5 4.4375,-4.5 4.234375,-4.5 3.5,-4.5 2.796875,-3.75 Z m 0,0"
           id="id-594ae072-4c0a-440c-a44b-5e11baf31524" /></symbol></g><g
       id="id-bd597f05-29a3-43e2-b7b9-8042d3c38625"
       style="fill:#0000ff;stroke-width:0"><symbol
         overflow="visible"
         id="id-d7861a41-0060-4a23-90f2-7adc3c5c9b42"
         style="fill:#0000ff;stroke-width:0"><path
           style="fill:#0000ff;stroke:#0000ff;stroke-width:0"
           d=""
           id="id-8b4d102f-b6e2-4fc2-a59a-c2d0ab6a5832" /></symbol><symbol
         overflow="visible"
         id="id-c38a4459-9796-4e11-b768-0015b7db3db9"
         style="fill:#0000ff;stroke-width:0"><path
           style="fill:#0000ff;stroke:#0000ff;stroke-width:0"
           d="m 5.609375,-3.15625 c 0.078125,-0.28125 0.1875,-0.765625 0.1875,-0.828125 0,-0.21875 -0.15625,-0.4375 -0.46875,-0.4375 -0.15625,0 -0.515625,0.078125 -0.65625,0.53125 -0.03125,0.125 -0.484375,1.9375 -0.5625,2.265625 -0.0625,0.234375 -0.125,0.515625 -0.15625,0.703125 C 3.78125,-0.6875 3.390625,-0.28125 2.875,-0.28125 c -0.578125,0 -0.59375,-0.5 -0.59375,-0.71875 0,-0.609375 0.3125,-1.390625 0.59375,-2.109375 C 2.96875,-3.375 3,-3.4375 3,-3.609375 3,-4.1875 2.421875,-4.5 1.875,-4.5 c -1.0625,0 -1.5625,1.34375 -1.5625,1.546875 0,0.140625 0.15625,0.140625 0.25,0.140625 0.109375,0 0.1875,0 0.21875,-0.125 0.328125,-1.109375 0.875,-1.203125 1.03125,-1.203125 0.078125,0 0.171875,0 0.171875,0.203125 0,0.234375 -0.125,0.515625 -0.15625,0.625 -0.421875,1.046875 -0.609375,1.609375 -0.609375,2.09375 0,1.140625 1,1.296875 1.578125,1.296875 0.296875,0 0.734375,-0.03125 1.265625,-0.546875 0.328125,0.484375 0.90625,0.546875 1.140625,0.546875 0.375,0 0.65625,-0.203125 0.875,-0.5625 0.234375,-0.40625 0.375,-0.9375 0.375,-0.984375 0,-0.140625 -0.15625,-0.140625 -0.25,-0.140625 -0.109375,0 -0.140625,0 -0.1875,0.046875 -0.03125,0.015625 -0.03125,0.03125 -0.078125,0.28125 -0.203125,0.78125 -0.421875,1 -0.6875,1 -0.140625,0 -0.21875,-0.09375 -0.21875,-0.359375 0,-0.171875 0.03125,-0.34375 0.125,-0.734375 0.078125,-0.28125 0.171875,-0.671875 0.234375,-0.890625 z m 0,0"
           id="id-45da3cb9-6fcf-4903-988b-db23233236b2" /></symbol><symbol
         overflow="visible"
         id="id-41f74a8a-c8c4-4906-96e1-8fb01c4321e5"
         style="fill:#0000ff;stroke-width:0"><path
           style="fill:#0000ff;stroke:#0000ff;stroke-width:0"
           d=""
           id="id-a445f782-8408-4a2b-8c6c-c9a32c9d79ca" /></symbol><symbol
         overflow="visible"
         id="id-48d00b1d-1a4c-4687-8db6-cce681014198"
         style="fill:#0000ff;stroke-width:0"><path
           style="fill:#0000ff;stroke:#0000ff;stroke-width:0"
           d="m 5.28125,-1.171875 h -0.25 c 0,0.015625 -0.0625,0.34375 -0.125,0.515625 C 4.875,-0.546875 4.84375,-0.5 4.421875,-0.5 H 3.828125 C 3.9375,-0.890625 4.140625,-1.15625 4.53125,-1.671875 4.875,-2.140625 5.1875,-2.59375 5.1875,-3.15625 c 0,-0.953125 -1.015625,-1.75 -2.34375,-1.75 -1.34375,0 -2.359375,0.796875 -2.359375,1.75 0,0.609375 0.34375,1.0625 0.828125,1.71875 0.203125,0.265625 0.421875,0.578125 0.53125,0.9375 H 1.25 C 0.84375,-0.5 0.8125,-0.546875 0.78125,-0.625 0.71875,-0.765625 0.640625,-1.15625 0.640625,-1.171875 h -0.25 L 0.640625,0 H 1.90625 c 0.140625,0 0.1875,0 0.1875,-0.15625 0,-0.5 -0.25,-1.09375 -0.40625,-1.4375 -0.265625,-0.609375 -0.453125,-1.0625 -0.453125,-1.578125 0,-0.984375 0.78125,-1.53125 1.609375,-1.53125 0.8125,0 1.59375,0.546875 1.59375,1.53125 0,0.53125 -0.203125,1 -0.4375,1.546875 C 3.84375,-1.28125 3.578125,-0.65625 3.578125,-0.15625 3.578125,0 3.609375,0 3.78125,0 h 1.25 z m 0,0"
           id="id-f15586bc-edbf-4775-8443-b8e6d0856642" /></symbol></g><g
       id="id-65f67d13-6900-47fd-a439-66c5b4081d9a"
       style="fill:#0000ff;stroke-width:0"><symbol
         overflow="visible"
         id="id-235c6a0d-cada-4625-83ee-9b606cdb0a21"
         style="fill:#0000ff;stroke-width:0"><path
           style="fill:#0000ff;stroke:#0000ff;stroke-width:0"
           d=""
           id="id-ca4c0991-dfec-482a-998b-2760dd4982af" /></symbol><symbol
         overflow="visible"
         id="id-56c6ee11-dafe-47d7-8cb9-a3f240e06155"
         style="fill:#0000ff;stroke-width:0"><path
           style="fill:#0000ff;stroke:#0000ff;stroke-width:0"
           d="m 5.609375,-3.15625 c 0.078125,-0.28125 0.1875,-0.765625 0.1875,-0.828125 0,-0.21875 -0.15625,-0.4375 -0.46875,-0.4375 -0.15625,0 -0.515625,0.078125 -0.65625,0.53125 -0.03125,0.125 -0.484375,1.9375 -0.5625,2.265625 -0.0625,0.234375 -0.125,0.515625 -0.15625,0.703125 C 3.78125,-0.6875 3.390625,-0.28125 2.875,-0.28125 c -0.578125,0 -0.59375,-0.5 -0.59375,-0.71875 0,-0.609375 0.3125,-1.390625 0.59375,-2.109375 C 2.96875,-3.375 3,-3.4375 3,-3.609375 3,-4.1875 2.421875,-4.5 1.875,-4.5 c -1.0625,0 -1.5625,1.34375 -1.5625,1.546875 0,0.140625 0.15625,0.140625 0.25,0.140625 0.109375,0 0.1875,0 0.21875,-0.125 0.328125,-1.109375 0.875,-1.203125 1.03125,-1.203125 0.078125,0 0.171875,0 0.171875,0.203125 0,0.234375 -0.125,0.515625 -0.15625,0.625 -0.421875,1.046875 -0.609375,1.609375 -0.609375,2.09375 0,1.140625 1,1.296875 1.578125,1.296875 0.296875,0 0.734375,-0.03125 1.265625,-0.546875 0.328125,0.484375 0.90625,0.546875 1.140625,0.546875 0.375,0 0.65625,-0.203125 0.875,-0.5625 0.234375,-0.40625 0.375,-0.9375 0.375,-0.984375 0,-0.140625 -0.15625,-0.140625 -0.25,-0.140625 -0.109375,0 -0.140625,0 -0.1875,0.046875 -0.03125,0.015625 -0.03125,0.03125 -0.078125,0.28125 -0.203125,0.78125 -0.421875,1 -0.6875,1 -0.140625,0 -0.21875,-0.09375 -0.21875,-0.359375 0,-0.171875 0.03125,-0.34375 0.125,-0.734375 0.078125,-0.28125 0.171875,-0.671875 0.234375,-0.890625 z m 0,0"
           id="id-687e9c59-6173-48e6-9a21-94db2fff82ee" /></symbol><symbol
         overflow="visible"
         id="id-71e08561-e055-4df5-834e-0e394f7d9f98"
         style="fill:#0000ff;stroke-width:0"><path
           style="fill:#0000ff;stroke:#0000ff;stroke-width:0"
           d=""
           id="id-04f59d52-e88d-48e4-bf76-41cd53324112" /></symbol><symbol
         overflow="visible"
         id="id-b8d1d041-f22b-40eb-8e52-5319cc96f251"
         style="fill:#0000ff;stroke-width:0"><path
           style="fill:#0000ff;stroke:#0000ff;stroke-width:0"
           d="m 4.328125,-4.734375 h -3.9375 v 0.25 H 0.5625 c 0.53125,0 0.546875,0.078125 0.546875,0.3125 V -0.5625 c 0,0.234375 -0.015625,0.3125 -0.546875,0.3125 H 0.390625 V 0 c 0,0 0.796875,-0.03125 1.0625,-0.03125 C 1.734375,-0.03125 2.5625,0 2.671875,0 v -0.25 h -0.25 c -0.65625,0 -0.65625,-0.09375 -0.65625,-0.328125 v -3.625 c 0,-0.21875 0.015625,-0.28125 0.34375,-0.28125 h 0.84375 C 4,-4.484375 4.1875,-4.09375 4.296875,-3.125 H 4.53125 Z m 0,0"
           id="id-ca163c6d-9bbb-4942-b0eb-ec03e793811f" /></symbol></g><g
       id="g1397"><symbol
         overflow="visible"
         id="symbol1359"><path
           style="stroke:none;stroke-width:0"
           d=""
           id="path1357" /></symbol><symbol
         overflow="visible"
         id="symbol1363"><path
           style="stroke:none;stroke-width:0"
           d="m 3.375,-4.421875 c -2.046875,0 -2.953125,1.875 -2.953125,2.921875 0,1.078125 0.796875,1.578125 1.875,1.578125 1.8125,0 2.875,-1.375 2.875,-2.796875 0,-0.234375 -0.03125,-0.515625 -0.140625,-0.75 h 0.953125 c 0.203125,0 0.359375,0 0.5,-0.15625 C 6.5625,-3.6875 6.6875,-3.8125 6.6875,-4.03125 c 0,-0.390625 -0.34375,-0.390625 -0.53125,-0.390625 z M 2.3125,-0.28125 c -0.859375,0 -0.859375,-0.703125 -0.859375,-0.859375 0,-0.375 0.21875,-1.328125 0.4375,-1.6875 0.203125,-0.34375 0.53125,-0.640625 1.296875,-0.640625 0.8125,0 0.90625,0.34375 0.90625,0.703125 0,0.296875 -0.203125,1.296875 -0.515625,1.78125 C 3.171875,-0.375 2.59375,-0.28125 2.3125,-0.28125 Z m 0,0"
           id="path1361" /></symbol><symbol
         overflow="visible"
         id="symbol1367"><path
           style="stroke:none;stroke-width:0"
           d="m 5.609375,-3.15625 c 0.078125,-0.28125 0.1875,-0.765625 0.1875,-0.828125 0,-0.21875 -0.15625,-0.4375 -0.46875,-0.4375 -0.15625,0 -0.515625,0.078125 -0.65625,0.53125 -0.03125,0.125 -0.484375,1.9375 -0.5625,2.265625 -0.0625,0.234375 -0.125,0.515625 -0.15625,0.703125 C 3.78125,-0.6875 3.390625,-0.28125 2.875,-0.28125 c -0.578125,0 -0.59375,-0.5 -0.59375,-0.71875 0,-0.609375 0.3125,-1.390625 0.59375,-2.109375 C 2.96875,-3.375 3,-3.4375 3,-3.609375 3,-4.1875 2.421875,-4.5 1.875,-4.5 c -1.0625,0 -1.5625,1.34375 -1.5625,1.546875 0,0.140625 0.15625,0.140625 0.25,0.140625 0.109375,0 0.1875,0 0.21875,-0.125 0.328125,-1.109375 0.875,-1.203125 1.03125,-1.203125 0.078125,0 0.171875,0 0.171875,0.203125 0,0.234375 -0.125,0.515625 -0.15625,0.625 -0.421875,1.046875 -0.609375,1.609375 -0.609375,2.09375 0,1.140625 1,1.296875 1.578125,1.296875 0.296875,0 0.734375,-0.03125 1.265625,-0.546875 0.328125,0.484375 0.90625,0.546875 1.140625,0.546875 0.375,0 0.65625,-0.203125 0.875,-0.5625 0.234375,-0.40625 0.375,-0.9375 0.375,-0.984375 0,-0.140625 -0.15625,-0.140625 -0.25,-0.140625 -0.109375,0 -0.140625,0 -0.1875,0.046875 -0.03125,0.015625 -0.03125,0.03125 -0.078125,0.28125 -0.203125,0.78125 -0.421875,1 -0.6875,1 -0.140625,0 -0.21875,-0.09375 -0.21875,-0.359375 0,-0.171875 0.03125,-0.34375 0.125,-0.734375 0.078125,-0.28125 0.171875,-0.671875 0.234375,-0.890625 z m 0,0"
           id="path1365" /></symbol><symbol
         overflow="visible"
         id="symbol1371"><path
           style="stroke:none;stroke-width:0"
           d="M 2.796875,-3.75 C 2.65625,-4.25 2.109375,-4.5 1.5625,-4.5 1.203125,-4.5 0.921875,-4.296875 0.703125,-3.9375 0.453125,-3.53125 0.3125,-3 0.3125,-2.953125 c 0,0.140625 0.15625,0.140625 0.25,0.140625 0.109375,0 0.140625,0 0.1875,-0.046875 C 0.78125,-2.875 0.78125,-2.90625 0.84375,-3.15625 1.03125,-3.921875 1.25,-4.140625 1.515625,-4.140625 c 0.15625,0 0.234375,0.09375 0.234375,0.359375 0,0.171875 -0.046875,0.328125 -0.140625,0.734375 C 1.53125,-2.765625 1.4375,-2.375 1.390625,-2.15625 L 1.03125,-0.75 C 1,-0.625 0.953125,-0.421875 0.953125,-0.359375 c 0,0.203125 0.15625,0.4375 0.46875,0.4375 0.515625,0 0.625,-0.453125 0.703125,-0.75 0.09375,-0.375 0.171875,-0.6875 0.28125,-1.125 0.03125,-0.125 0.28125,-1.15625 0.3125,-1.1875 0,-0.0625 0.28125,-0.5 0.609375,-0.78125 0.28125,-0.21875 0.609375,-0.375 1.03125,-0.375 0.25,0 0.5,0.09375 0.5,0.578125 0,0.578125 -0.4375,1.734375 -0.625,2.234375 -0.125,0.265625 -0.140625,0.34375 -0.140625,0.515625 0,0.578125 0.578125,0.890625 1.125,0.890625 1.046875,0 1.546875,-1.359375 1.546875,-1.546875 0,-0.140625 -0.140625,-0.140625 -0.234375,-0.140625 -0.125,0 -0.1875,0 -0.234375,0.125 C 5.96875,-0.375 5.4375,-0.28125 5.28125,-0.28125 c -0.078125,0 -0.171875,0 -0.171875,-0.203125 0,-0.234375 0.09375,-0.484375 0.1875,-0.734375 0.171875,-0.40625 0.625,-1.578125 0.625,-2.125 C 5.921875,-4.265625 5.15625,-4.5 4.4375,-4.5 4.234375,-4.5 3.5,-4.5 2.796875,-3.75 Z m 0,0"
           id="path1369" /></symbol><symbol
         overflow="visible"
         id="symbol1375"><path
           style="stroke:none;stroke-width:0"
           d=""
           id="path1373" /></symbol><symbol
         overflow="visible"
         id="symbol1379"><path
           style="stroke:none;stroke-width:0"
           d="m 5.28125,-1.171875 h -0.25 c 0,0.015625 -0.0625,0.34375 -0.125,0.515625 C 4.875,-0.546875 4.84375,-0.5 4.421875,-0.5 H 3.828125 C 3.9375,-0.890625 4.140625,-1.15625 4.53125,-1.671875 4.875,-2.140625 5.1875,-2.59375 5.1875,-3.15625 c 0,-0.953125 -1.015625,-1.75 -2.34375,-1.75 -1.34375,0 -2.359375,0.796875 -2.359375,1.75 0,0.609375 0.34375,1.0625 0.828125,1.71875 0.203125,0.265625 0.421875,0.578125 0.53125,0.9375 H 1.25 C 0.84375,-0.5 0.8125,-0.546875 0.78125,-0.625 0.71875,-0.765625 0.640625,-1.15625 0.640625,-1.171875 h -0.25 L 0.640625,0 H 1.90625 c 0.140625,0 0.1875,0 0.1875,-0.15625 0,-0.5 -0.25,-1.09375 -0.40625,-1.4375 -0.265625,-0.609375 -0.453125,-1.0625 -0.453125,-1.578125 0,-0.984375 0.78125,-1.53125 1.609375,-1.53125 0.8125,0 1.59375,0.546875 1.59375,1.53125 0,0.53125 -0.203125,1 -0.4375,1.546875 C 3.84375,-1.28125 3.578125,-0.65625 3.578125,-0.15625 3.578125,0 3.609375,0 3.78125,0 h 1.25 z m 0,0"
           id="path1377" /></symbol><symbol
         overflow="visible"
         id="symbol1383"><path
           style="stroke:none;stroke-width:0"
           d="m 4.328125,-4.734375 h -3.9375 v 0.25 H 0.5625 c 0.53125,0 0.546875,0.078125 0.546875,0.3125 V -0.5625 c 0,0.234375 -0.015625,0.3125 -0.546875,0.3125 H 0.390625 V 0 c 0,0 0.796875,-0.03125 1.0625,-0.03125 C 1.734375,-0.03125 2.5625,0 2.671875,0 v -0.25 h -0.25 c -0.65625,0 -0.65625,-0.09375 -0.65625,-0.328125 v -3.625 c 0,-0.21875 0.015625,-0.28125 0.34375,-0.28125 h 0.84375 C 4,-4.484375 4.1875,-4.09375 4.296875,-3.125 H 4.53125 Z m 0,0"
           id="path1381" /></symbol><symbol
         overflow="visible"
         id="symbol1387"><path
           style="stroke:none;stroke-width:0"
           d=""
           id="path1385" /></symbol><symbol
         overflow="visible"
         id="symbol1391"><path
           style="stroke:none;stroke-width:0"
           d="m 3.296875,2.390625 c 0,-0.03125 0,-0.046875 -0.171875,-0.21875 C 1.890625,0.921875 1.5625,-0.96875 1.5625,-2.5 c 0,-1.734375 0.375,-3.46875 1.609375,-4.703125 0.125,-0.125 0.125,-0.140625 0.125,-0.171875 0,-0.078125 -0.03125,-0.109375 -0.09375,-0.109375 -0.109375,0 -1,0.6875 -1.59375,1.953125 -0.5,1.09375 -0.625,2.203125 -0.625,3.03125 0,0.78125 0.109375,1.984375 0.65625,3.125 C 2.25,1.84375 3.09375,2.5 3.203125,2.5 c 0.0625,0 0.09375,-0.03125 0.09375,-0.109375 z m 0,0"
           id="path1389" /></symbol><symbol
         overflow="visible"
         id="symbol1395"><path
           style="stroke:none;stroke-width:0"
           d="m 2.875,-2.5 c 0,-0.765625 -0.109375,-1.96875 -0.65625,-3.109375 -0.59375,-1.21875 -1.453125,-1.875 -1.546875,-1.875 -0.0625,0 -0.109375,0.046875 -0.109375,0.109375 0,0.03125 0,0.046875 0.1875,0.234375 0.984375,0.984375 1.546875,2.5625 1.546875,4.640625 0,1.71875 -0.359375,3.46875 -1.59375,4.71875 C 0.5625,2.34375 0.5625,2.359375 0.5625,2.390625 0.5625,2.453125 0.609375,2.5 0.671875,2.5 0.765625,2.5 1.671875,1.8125 2.25,0.546875 2.765625,-0.546875 2.875,-1.65625 2.875,-2.5 Z m 0,0"
           id="path1393" /></symbol></g><inkscape:path-effect
       effect="bspline"
       id="path-effect11104"
       is_visible="true"
       lpeversion="1"
       weight="33.333333"
       steps="2"
       helper_size="0"
       apply_no_weight="true"
       apply_with_weight="true"
       only_selected="false"
       uniform="false" /><inkscape:path-effect
       effect="bspline"
       id="path-effect11144"
       is_visible="true"
       lpeversion="1"
       weight="33.333333"
       steps="2"
       helper_size="0"
       apply_no_weight="true"
       apply_with_weight="true"
       only_selected="false"
       uniform="false" /><inkscape:path-effect
       effect="bspline"
       id="path-effect11184"
       is_visible="true"
       lpeversion="1"
       weight="33.333333"
       steps="2"
       helper_size="0"
       apply_no_weight="true"
       apply_with_weight="true"
       only_selected="false"
       uniform="false" /><inkscape:path-effect
       effect="bspline"
       id="path-effect11226"
       is_visible="true"
       lpeversion="1"
       weight="33.333333"
       steps="2"
       helper_size="0"
       apply_no_weight="true"
       apply_with_weight="true"
       only_selected="false"
       uniform="false" /><inkscape:path-effect
       effect="bspline"
       id="path-effect11596"
       is_visible="true"
       lpeversion="1"
       weight="33.333333"
       steps="2"
       helper_size="0"
       apply_no_weight="true"
       apply_with_weight="true"
       only_selected="false"
       uniform="false" /><g
       id="g37"><symbol
         overflow="visible"
         id="symbol36"><path
           style="stroke:none;stroke-width:0"
           d=""
           id="path36" /></symbol><symbol
         overflow="visible"
         id="symbol37"><path
           style="stroke:none;stroke-width:0"
           d="M 6.75,-1.609375 H 6.5 c -0.046875,0.25 -0.09375,0.484375 -0.1875,0.71875 -0.046875,0.15625 -0.078125,0.25 -0.65625,0.25 H 4.859375 C 5,-1.203125 5.296875,-1.6875 5.75,-2.34375 c 0.46875,-0.703125 0.875,-1.390625 0.875,-2.1875 0,-1.375 -1.34375,-2.5 -3.03125,-2.5 -1.703125,0 -3.03125,1.140625 -3.03125,2.5 0,0.796875 0.40625,1.484375 0.875,2.1875 0.4375,0.65625 0.75,1.140625 0.890625,1.703125 H 1.53125 C 0.953125,-0.640625 0.921875,-0.734375 0.875,-0.875 0.78125,-1.109375 0.734375,-1.359375 0.6875,-1.609375 h -0.25 L 0.765625,0 h 1.59375 c 0.21875,0 0.25,0 0.25,-0.203125 0,-0.703125 -0.3125,-1.578125 -0.53125,-2.21875 -0.21875,-0.578125 -0.5,-1.359375 -0.5,-2.109375 0,-1.59375 1.109375,-2.28125 2.015625,-2.28125 0.953125,0 2.015625,0.71875 2.015625,2.28125 0,0.75 -0.28125,1.5 -0.5625,2.3125 -0.15625,0.421875 -0.46875,1.328125 -0.46875,2.015625 C 4.578125,0 4.609375,0 4.828125,0 h 1.59375 z m 0,0"
           id="path37" /></symbol></g><g
       id="g39"><symbol
         overflow="visible"
         id="symbol38"><path
           style="stroke:none;stroke-width:0"
           d=""
           id="path38" /></symbol><symbol
         overflow="visible"
         id="symbol39"><path
           style="stroke:none;stroke-width:0"
           d="m 5.515625,-6.78125 h -5.1875 v 0.3125 H 0.5625 c 0.765625,0 0.796875,0.109375 0.796875,0.46875 v 5.21875 c 0,0.359375 -0.03125,0.46875 -0.796875,0.46875 H 0.328125 V 0 c 0.34375,-0.03125 1.125,-0.03125 1.515625,-0.03125 0.40625,0 1.3125,0 1.671875,0.03125 V -0.3125 H 3.1875 C 2.25,-0.3125 2.25,-0.4375 2.25,-0.78125 v -5.296875 c 0,-0.328125 0.015625,-0.390625 0.484375,-0.390625 h 1.03125 c 1.421875,0 1.625,0.59375 1.78125,1.9375 h 0.25 z m 0,0"
           id="path39" /></symbol></g><g
       id="g46"><symbol
         overflow="visible"
         id="symbol40"><path
           style="stroke:none;stroke-width:0"
           d=""
           id="path40" /></symbol><symbol
         overflow="visible"
         id="symbol41"><path
           style="stroke:none;stroke-width:0"
           d="m 2.296875,-3.5 c 0.0625,-0.203125 0.15625,-0.59375 0.15625,-0.640625 0,-0.171875 -0.125,-0.265625 -0.296875,-0.265625 -0.015625,0 -0.296875,0.015625 -0.390625,0.359375 l -1.4375,5.765625 c -0.03125,0.125 -0.03125,0.140625 -0.03125,0.171875 0,0.140625 0.109375,0.265625 0.28125,0.265625 0.203125,0 0.328125,-0.1875 0.34375,-0.21875 C 0.96875,1.859375 1.09375,1.328125 1.46875,-0.203125 1.796875,0.0625 2.25,0.109375 2.4375,0.109375 c 0.703125,0 1.09375,-0.453125 1.328125,-0.734375 0.09375,0.453125 0.46875,0.734375 0.90625,0.734375 0.34375,0 0.578125,-0.234375 0.734375,-0.546875 0.171875,-0.359375 0.296875,-0.96875 0.296875,-0.984375 0,-0.109375 -0.09375,-0.109375 -0.125,-0.109375 -0.09375,0 -0.109375,0.046875 -0.140625,0.1875 -0.15625,0.640625 -0.34375,1.234375 -0.75,1.234375 -0.265625,0 -0.296875,-0.265625 -0.296875,-0.453125 0,-0.21875 0.109375,-0.6875 0.1875,-1.046875 L 4.859375,-2.6875 C 4.890625,-2.828125 5,-3.203125 5.03125,-3.359375 5.078125,-3.59375 5.1875,-3.96875 5.1875,-4.03125 c 0,-0.171875 -0.140625,-0.265625 -0.296875,-0.265625 -0.046875,0 -0.3125,0.015625 -0.390625,0.34375 l -0.46875,1.875 c -0.109375,0.5 -0.21875,0.90625 -0.25,1.015625 -0.015625,0.046875 -0.484375,0.953125 -1.296875,0.953125 -0.5,0 -0.734375,-0.328125 -0.734375,-0.875 0,-0.28125 0.0625,-0.5625 0.140625,-0.84375 z m 0,0"
           id="path41" /></symbol><symbol
         overflow="visible"
         id="symbol42"><path
           style="stroke:none;stroke-width:0"
           d=""
           id="path42" /></symbol><symbol
         overflow="visible"
         id="symbol43"><path
           style="stroke:none;stroke-width:0"
           d="m 5.28125,-1.171875 h -0.25 c 0,0.015625 -0.0625,0.34375 -0.125,0.515625 C 4.875,-0.546875 4.84375,-0.5 4.421875,-0.5 H 3.828125 C 3.9375,-0.890625 4.140625,-1.15625 4.53125,-1.671875 4.875,-2.140625 5.1875,-2.59375 5.1875,-3.15625 c 0,-0.953125 -1.015625,-1.75 -2.34375,-1.75 -1.34375,0 -2.359375,0.796875 -2.359375,1.75 0,0.609375 0.34375,1.0625 0.828125,1.71875 0.203125,0.265625 0.421875,0.578125 0.53125,0.9375 H 1.25 C 0.84375,-0.5 0.8125,-0.546875 0.78125,-0.625 0.71875,-0.765625 0.640625,-1.15625 0.640625,-1.171875 h -0.25 L 0.640625,0 H 1.90625 c 0.140625,0 0.1875,0 0.1875,-0.15625 0,-0.5 -0.25,-1.09375 -0.40625,-1.4375 -0.265625,-0.609375 -0.453125,-1.0625 -0.453125,-1.578125 0,-0.984375 0.78125,-1.53125 1.609375,-1.53125 0.8125,0 1.59375,0.546875 1.59375,1.53125 0,0.53125 -0.203125,1 -0.4375,1.546875 C 3.84375,-1.28125 3.578125,-0.65625 3.578125,-0.15625 3.578125,0 3.609375,0 3.78125,0 h 1.25 z m 0,0"
           id="path43" /></symbol><symbol
         overflow="visible"
         id="symbol44"><path
           style="stroke:none;stroke-width:0"
           d="m 4.328125,-4.734375 h -3.9375 v 0.25 H 0.5625 c 0.53125,0 0.546875,0.078125 0.546875,0.3125 V -0.5625 c 0,0.234375 -0.015625,0.3125 -0.546875,0.3125 H 0.390625 V 0 c 0,0 0.796875,-0.03125 1.0625,-0.03125 C 1.734375,-0.03125 2.5625,0 2.671875,0 v -0.25 h -0.25 c -0.65625,0 -0.65625,-0.09375 -0.65625,-0.328125 v -3.625 c 0,-0.21875 0.015625,-0.28125 0.34375,-0.28125 h 0.84375 C 4,-4.484375 4.1875,-4.09375 4.296875,-3.125 H 4.53125 Z m 0,0"
           id="path44" /></symbol><symbol
         overflow="visible"
         id="symbol45"><path
           style="stroke:none;stroke-width:0"
           d=""
           id="path45" /></symbol><symbol
         overflow="visible"
         id="symbol46"><path
           style="stroke:none;stroke-width:0"
           d="M 6.171875,-5.21875 C 6.296875,-5.296875 6.375,-5.328125 6.375,-5.4375 c 0,-0.140625 -0.109375,-0.203125 -0.203125,-0.203125 -0.078125,0 -0.140625,0.03125 -0.1875,0.0625 l -5.25,2.859375 C 0.625,-2.640625 0.546875,-2.609375 0.546875,-2.5 c 0,0.125 0.078125,0.15625 0.1875,0.234375 l 5.25,2.859375 C 6.09375,0.65625 6.125,0.65625 6.171875,0.65625 6.296875,0.65625 6.375,0.5625 6.375,0.453125 6.375,0.34375 6.296875,0.3125 6.171875,0.234375 l -5,-2.734375 z m 3.046875,0 c 0.109375,-0.078125 0.1875,-0.109375 0.1875,-0.21875 0,-0.140625 -0.109375,-0.203125 -0.1875,-0.203125 -0.078125,0 -0.140625,0.03125 -0.1875,0.0625 l -5.25,2.859375 c -0.125,0.078125 -0.1875,0.109375 -0.1875,0.21875 0,0.125 0.0625,0.15625 0.1875,0.234375 L 9.015625,0.59375 c 0.125,0.0625 0.15625,0.0625 0.203125,0.0625 0.125,0 0.1875,-0.09375 0.1875,-0.203125 0,-0.109375 -0.078125,-0.140625 -0.1875,-0.21875 L 4.203125,-2.5 Z m 0,0"
           id="path46" /></symbol></g><g
       id="g51"><symbol
         overflow="visible"
         id="symbol47"><path
           style="stroke:none;stroke-width:0"
           d=""
           id="path47" /></symbol><symbol
         overflow="visible"
         id="symbol48"><path
           style="stroke:none;stroke-width:0"
           d="m 6.5625,-2.296875 c 0.171875,0 0.359375,0 0.359375,-0.203125 0,-0.1875 -0.1875,-0.1875 -0.359375,-0.1875 H 1.171875 c -0.171875,0 -0.34375,0 -0.34375,0.1875 0,0.203125 0.171875,0.203125 0.34375,0.203125 z m 0,0"
           id="path48" /></symbol><symbol
         overflow="visible"
         id="symbol49"><path
           style="stroke:none;stroke-width:0"
           d=""
           id="path49" /></symbol><symbol
         overflow="visible"
         id="symbol50"><path
           style="stroke:none;stroke-width:0"
           d="m 2.640625,-3.71875 h 1.125 C 3.4375,-2.25 3.34375,-1.8125 3.34375,-1.140625 c 0,0.140625 0,0.40625 0.078125,0.75 0.109375,0.4375 0.21875,0.5 0.359375,0.5 0.203125,0 0.421875,-0.171875 0.421875,-0.375 0,-0.0625 0,-0.078125 -0.0625,-0.21875 -0.296875,-0.71875 -0.296875,-1.375 -0.296875,-1.65625 0,-0.515625 0.078125,-1.0625 0.1875,-1.578125 h 1.125 c 0.140625,0 0.5,0 0.5,-0.34375 0,-0.234375 -0.21875,-0.234375 -0.40625,-0.234375 H 1.90625 c -0.21875,0 -0.59375,0 -1.03125,0.46875 -0.34375,0.390625 -0.609375,0.84375 -0.609375,0.890625 0,0.015625 0,0.109375 0.125,0.109375 0.078125,0 0.09375,-0.046875 0.15625,-0.125 C 1.03125,-3.71875 1.609375,-3.71875 1.8125,-3.71875 H 2.375 C 2.0625,-2.515625 1.53125,-1.3125 1.109375,-0.40625 1.03125,-0.25 1.03125,-0.234375 1.03125,-0.15625 c 0,0.1875 0.15625,0.265625 0.28125,0.265625 0.296875,0 0.375,-0.28125 0.5,-0.640625 C 1.953125,-1 1.953125,-1.015625 2.078125,-1.515625 Z m 0,0"
           id="path50" /></symbol><symbol
         overflow="visible"
         id="symbol51"><path
           style="stroke:none;stroke-width:0"
           d="m 3.734375,-6.125 c 0.0625,-0.234375 0.09375,-0.328125 0.28125,-0.359375 C 4.109375,-6.5 4.421875,-6.5 4.625,-6.5 c 0.703125,0 1.8125,0 1.8125,0.984375 0,0.34375 -0.15625,1.03125 -0.546875,1.421875 -0.265625,0.25 -0.78125,0.578125 -1.6875,0.578125 H 3.09375 Z m 1.4375,2.734375 c 1.015625,-0.21875 2.1875,-0.921875 2.1875,-1.921875 0,-0.859375 -0.890625,-1.5 -2.203125,-1.5 H 2.328125 c -0.203125,0 -0.296875,0 -0.296875,0.203125 C 2.03125,-6.5 2.125,-6.5 2.3125,-6.5 c 0.015625,0 0.203125,0 0.375,0.015625 0.1875,0.03125 0.265625,0.03125 0.265625,0.171875 0,0.03125 0,0.0625 -0.03125,0.1875 l -1.34375,5.34375 C 1.484375,-0.390625 1.46875,-0.3125 0.671875,-0.3125 0.5,-0.3125 0.40625,-0.3125 0.40625,-0.109375 0.40625,0 0.53125,0 0.546875,0 c 0.28125,0 0.984375,-0.03125 1.25,-0.03125 0.28125,0 1,0.03125 1.28125,0.03125 0.078125,0 0.1875,0 0.1875,-0.203125 0,-0.109375 -0.078125,-0.109375 -0.28125,-0.109375 -0.359375,0 -0.640625,0 -0.640625,-0.171875 0,-0.0625 0.015625,-0.109375 0.03125,-0.171875 l 0.65625,-2.640625 h 1.1875 c 0.90625,0 1.078125,0.5625 1.078125,0.90625 0,0.140625 -0.078125,0.453125 -0.140625,0.6875 C 5.09375,-1.421875 5,-1.0625 5,-0.859375 5,0.21875 6.203125,0.21875 6.328125,0.21875 c 0.84375,0 1.203125,-1 1.203125,-1.140625 0,-0.125 -0.109375,-0.125 -0.125,-0.125 -0.09375,0 -0.109375,0.0625 -0.125,0.140625 C 7.03125,-0.171875 6.59375,0 6.375,0 6.046875,0 5.96875,-0.21875 5.96875,-0.609375 c 0,-0.3125 0.0625,-0.8125 0.109375,-1.140625 0.015625,-0.140625 0.03125,-0.328125 0.03125,-0.46875 0,-0.765625 -0.671875,-1.078125 -0.9375,-1.171875 z m 0,0"
           id="path51" /></symbol></g><g
       id="g54"><symbol
         overflow="visible"
         id="symbol52"><path
           style="stroke:none"
           d=""
           id="path52" /></symbol><symbol
         overflow="visible"
         id="symbol53"><path
           style="stroke:none"
           d="m 2.640625,-3.71875 h 1.125 C 3.4375,-2.25 3.34375,-1.8125 3.34375,-1.140625 c 0,0.140625 0,0.40625 0.078125,0.75 0.109375,0.4375 0.21875,0.5 0.359375,0.5 0.203125,0 0.421875,-0.171875 0.421875,-0.375 0,-0.0625 0,-0.078125 -0.0625,-0.21875 -0.296875,-0.71875 -0.296875,-1.375 -0.296875,-1.65625 0,-0.515625 0.078125,-1.0625 0.1875,-1.578125 h 1.125 c 0.140625,0 0.5,0 0.5,-0.34375 0,-0.234375 -0.21875,-0.234375 -0.40625,-0.234375 H 1.90625 c -0.21875,0 -0.59375,0 -1.03125,0.46875 -0.34375,0.390625 -0.609375,0.84375 -0.609375,0.890625 0,0.015625 0,0.109375 0.125,0.109375 0.078125,0 0.09375,-0.046875 0.15625,-0.125 C 1.03125,-3.71875 1.609375,-3.71875 1.8125,-3.71875 H 2.375 C 2.0625,-2.515625 1.53125,-1.3125 1.109375,-0.40625 1.03125,-0.25 1.03125,-0.234375 1.03125,-0.15625 c 0,0.1875 0.15625,0.265625 0.28125,0.265625 0.296875,0 0.375,-0.28125 0.5,-0.640625 C 1.953125,-1 1.953125,-1.015625 2.078125,-1.515625 Z m 0,0"
           id="path53" /></symbol><symbol
         overflow="visible"
         id="symbol54"><path
           style="stroke:none"
           d="m 3.734375,-6.125 c 0.0625,-0.234375 0.09375,-0.328125 0.28125,-0.359375 C 4.109375,-6.5 4.421875,-6.5 4.625,-6.5 c 0.703125,0 1.8125,0 1.8125,0.984375 0,0.34375 -0.15625,1.03125 -0.546875,1.421875 -0.265625,0.25 -0.78125,0.578125 -1.6875,0.578125 H 3.09375 Z m 1.4375,2.734375 c 1.015625,-0.21875 2.1875,-0.921875 2.1875,-1.921875 0,-0.859375 -0.890625,-1.5 -2.203125,-1.5 H 2.328125 c -0.203125,0 -0.296875,0 -0.296875,0.203125 C 2.03125,-6.5 2.125,-6.5 2.3125,-6.5 c 0.015625,0 0.203125,0 0.375,0.015625 0.1875,0.03125 0.265625,0.03125 0.265625,0.171875 0,0.03125 0,0.0625 -0.03125,0.1875 l -1.34375,5.34375 C 1.484375,-0.390625 1.46875,-0.3125 0.671875,-0.3125 0.5,-0.3125 0.40625,-0.3125 0.40625,-0.109375 0.40625,0 0.53125,0 0.546875,0 c 0.28125,0 0.984375,-0.03125 1.25,-0.03125 0.28125,0 1,0.03125 1.28125,0.03125 0.078125,0 0.1875,0 0.1875,-0.203125 0,-0.109375 -0.078125,-0.109375 -0.28125,-0.109375 -0.359375,0 -0.640625,0 -0.640625,-0.171875 0,-0.0625 0.015625,-0.109375 0.03125,-0.171875 l 0.65625,-2.640625 h 1.1875 c 0.90625,0 1.078125,0.5625 1.078125,0.90625 0,0.140625 -0.078125,0.453125 -0.140625,0.6875 C 5.09375,-1.421875 5,-1.0625 5,-0.859375 5,0.21875 6.203125,0.21875 6.328125,0.21875 c 0.84375,0 1.203125,-1 1.203125,-1.140625 0,-0.125 -0.109375,-0.125 -0.125,-0.125 -0.09375,0 -0.109375,0.0625 -0.125,0.140625 C 7.03125,-0.171875 6.59375,0 6.375,0 6.046875,0 5.96875,-0.21875 5.96875,-0.609375 c 0,-0.3125 0.0625,-0.8125 0.109375,-1.140625 0.015625,-0.140625 0.03125,-0.328125 0.03125,-0.46875 0,-0.765625 -0.671875,-1.078125 -0.9375,-1.171875 z m 0,0"
           id="path54" /></symbol></g><g
       id="g58"
       style="fill:#0000ff;stroke-width:0"><symbol
         overflow="visible"
         id="symbol55"
         style="fill:#0000ff;stroke-width:0"><path
           style="fill:#0000ff;stroke:#0000ff;stroke-width:0"
           d=""
           id="path55" /></symbol><symbol
         overflow="visible"
         id="symbol56"
         style="fill:#0000ff;stroke-width:0"><path
           style="fill:#0000ff;stroke:#0000ff;stroke-width:0"
           d="m 5.609375,-3.15625 c 0.078125,-0.28125 0.1875,-0.765625 0.1875,-0.828125 0,-0.21875 -0.15625,-0.4375 -0.46875,-0.4375 -0.15625,0 -0.515625,0.078125 -0.65625,0.53125 -0.03125,0.125 -0.484375,1.9375 -0.5625,2.265625 -0.0625,0.234375 -0.125,0.515625 -0.15625,0.703125 C 3.78125,-0.6875 3.390625,-0.28125 2.875,-0.28125 c -0.578125,0 -0.59375,-0.5 -0.59375,-0.71875 0,-0.609375 0.3125,-1.390625 0.59375,-2.109375 C 2.96875,-3.375 3,-3.4375 3,-3.609375 3,-4.1875 2.421875,-4.5 1.875,-4.5 c -1.0625,0 -1.5625,1.34375 -1.5625,1.546875 0,0.140625 0.15625,0.140625 0.25,0.140625 0.109375,0 0.1875,0 0.21875,-0.125 0.328125,-1.109375 0.875,-1.203125 1.03125,-1.203125 0.078125,0 0.171875,0 0.171875,0.203125 0,0.234375 -0.125,0.515625 -0.15625,0.625 -0.421875,1.046875 -0.609375,1.609375 -0.609375,2.09375 0,1.140625 1,1.296875 1.578125,1.296875 0.296875,0 0.734375,-0.03125 1.265625,-0.546875 0.328125,0.484375 0.90625,0.546875 1.140625,0.546875 0.375,0 0.65625,-0.203125 0.875,-0.5625 0.234375,-0.40625 0.375,-0.9375 0.375,-0.984375 0,-0.140625 -0.15625,-0.140625 -0.25,-0.140625 -0.109375,0 -0.140625,0 -0.1875,0.046875 -0.03125,0.015625 -0.03125,0.03125 -0.078125,0.28125 -0.203125,0.78125 -0.421875,1 -0.6875,1 -0.140625,0 -0.21875,-0.09375 -0.21875,-0.359375 0,-0.171875 0.03125,-0.34375 0.125,-0.734375 0.078125,-0.28125 0.171875,-0.671875 0.234375,-0.890625 z m 0,0"
           id="path56" /></symbol><symbol
         overflow="visible"
         id="symbol57"
         style="fill:#0000ff;stroke-width:0"><path
           style="fill:#0000ff;stroke:#0000ff;stroke-width:0"
           d=""
           id="path57" /></symbol><symbol
         overflow="visible"
         id="symbol58"
         style="fill:#0000ff;stroke-width:0"><path
           style="fill:#0000ff;stroke:#0000ff;stroke-width:0"
           d="m 5.28125,-1.171875 h -0.25 c 0,0.015625 -0.0625,0.34375 -0.125,0.515625 C 4.875,-0.546875 4.84375,-0.5 4.421875,-0.5 H 3.828125 C 3.9375,-0.890625 4.140625,-1.15625 4.53125,-1.671875 4.875,-2.140625 5.1875,-2.59375 5.1875,-3.15625 c 0,-0.953125 -1.015625,-1.75 -2.34375,-1.75 -1.34375,0 -2.359375,0.796875 -2.359375,1.75 0,0.609375 0.34375,1.0625 0.828125,1.71875 0.203125,0.265625 0.421875,0.578125 0.53125,0.9375 H 1.25 C 0.84375,-0.5 0.8125,-0.546875 0.78125,-0.625 0.71875,-0.765625 0.640625,-1.15625 0.640625,-1.171875 h -0.25 L 0.640625,0 H 1.90625 c 0.140625,0 0.1875,0 0.1875,-0.15625 0,-0.5 -0.25,-1.09375 -0.40625,-1.4375 -0.265625,-0.609375 -0.453125,-1.0625 -0.453125,-1.578125 0,-0.984375 0.78125,-1.53125 1.609375,-1.53125 0.8125,0 1.59375,0.546875 1.59375,1.53125 0,0.53125 -0.203125,1 -0.4375,1.546875 C 3.84375,-1.28125 3.578125,-0.65625 3.578125,-0.15625 3.578125,0 3.609375,0 3.78125,0 h 1.25 z m 0,0"
           id="path58" /></symbol></g><g
       id="g62"
       style="fill:#0000ff;stroke-width:0"><symbol
         overflow="visible"
         id="symbol59"
         style="fill:#0000ff;stroke-width:0"><path
           style="fill:#0000ff;stroke:#0000ff;stroke-width:0"
           d=""
           id="path59" /></symbol><symbol
         overflow="visible"
         id="symbol60"
         style="fill:#0000ff;stroke-width:0"><path
           style="fill:#0000ff;stroke:#0000ff;stroke-width:0"
           d="m 5.609375,-3.15625 c 0.078125,-0.28125 0.1875,-0.765625 0.1875,-0.828125 0,-0.21875 -0.15625,-0.4375 -0.46875,-0.4375 -0.15625,0 -0.515625,0.078125 -0.65625,0.53125 -0.03125,0.125 -0.484375,1.9375 -0.5625,2.265625 -0.0625,0.234375 -0.125,0.515625 -0.15625,0.703125 C 3.78125,-0.6875 3.390625,-0.28125 2.875,-0.28125 c -0.578125,0 -0.59375,-0.5 -0.59375,-0.71875 0,-0.609375 0.3125,-1.390625 0.59375,-2.109375 C 2.96875,-3.375 3,-3.4375 3,-3.609375 3,-4.1875 2.421875,-4.5 1.875,-4.5 c -1.0625,0 -1.5625,1.34375 -1.5625,1.546875 0,0.140625 0.15625,0.140625 0.25,0.140625 0.109375,0 0.1875,0 0.21875,-0.125 0.328125,-1.109375 0.875,-1.203125 1.03125,-1.203125 0.078125,0 0.171875,0 0.171875,0.203125 0,0.234375 -0.125,0.515625 -0.15625,0.625 -0.421875,1.046875 -0.609375,1.609375 -0.609375,2.09375 0,1.140625 1,1.296875 1.578125,1.296875 0.296875,0 0.734375,-0.03125 1.265625,-0.546875 0.328125,0.484375 0.90625,0.546875 1.140625,0.546875 0.375,0 0.65625,-0.203125 0.875,-0.5625 0.234375,-0.40625 0.375,-0.9375 0.375,-0.984375 0,-0.140625 -0.15625,-0.140625 -0.25,-0.140625 -0.109375,0 -0.140625,0 -0.1875,0.046875 -0.03125,0.015625 -0.03125,0.03125 -0.078125,0.28125 -0.203125,0.78125 -0.421875,1 -0.6875,1 -0.140625,0 -0.21875,-0.09375 -0.21875,-0.359375 0,-0.171875 0.03125,-0.34375 0.125,-0.734375 0.078125,-0.28125 0.171875,-0.671875 0.234375,-0.890625 z m 0,0"
           id="path60" /></symbol><symbol
         overflow="visible"
         id="symbol61"
         style="fill:#0000ff;stroke-width:0"><path
           style="fill:#0000ff;stroke:#0000ff;stroke-width:0"
           d=""
           id="path61" /></symbol><symbol
         overflow="visible"
         id="symbol62"
         style="fill:#0000ff;stroke-width:0"><path
           style="fill:#0000ff;stroke:#0000ff;stroke-width:0"
           d="m 4.328125,-4.734375 h -3.9375 v 0.25 H 0.5625 c 0.53125,0 0.546875,0.078125 0.546875,0.3125 V -0.5625 c 0,0.234375 -0.015625,0.3125 -0.546875,0.3125 H 0.390625 V 0 c 0,0 0.796875,-0.03125 1.0625,-0.03125 C 1.734375,-0.03125 2.5625,0 2.671875,0 v -0.25 h -0.25 c -0.65625,0 -0.65625,-0.09375 -0.65625,-0.328125 v -3.625 c 0,-0.21875 0.015625,-0.28125 0.34375,-0.28125 h 0.84375 C 4,-4.484375 4.1875,-4.09375 4.296875,-3.125 H 4.53125 Z m 0,0"
           id="path62" /></symbol></g><g
       id="g69"><symbol
         overflow="visible"
         id="symbol63"><path
           style="stroke:none"
           d=""
           id="path63" /></symbol><symbol
         overflow="visible"
         id="symbol64"><path
           style="stroke:none"
           d="m 0.875,-0.59375 c -0.03125,0.15625 -0.09375,0.390625 -0.09375,0.4375 0,0.171875 0.140625,0.265625 0.296875,0.265625 0.125,0 0.296875,-0.078125 0.375,-0.28125 0,-0.015625 0.125,-0.484375 0.1875,-0.734375 l 0.21875,-0.890625 C 1.90625,-2.03125 1.96875,-2.25 2.03125,-2.46875 c 0.03125,-0.171875 0.109375,-0.46875 0.125,-0.5 0.140625,-0.3125 0.671875,-1.21875 1.625,-1.21875 0.453125,0 0.53125,0.375 0.53125,0.703125 0,0.25 -0.0625,0.53125 -0.140625,0.828125 L 3.890625,-1.5 3.6875,-0.75 c -0.03125,0.203125 -0.125,0.546875 -0.125,0.59375 0,0.171875 0.140625,0.265625 0.28125,0.265625 0.3125,0 0.375,-0.25 0.453125,-0.5625 0.140625,-0.5625 0.515625,-2.015625 0.59375,-2.40625 0.03125,-0.125 0.5625,-1.328125 1.65625,-1.328125 0.421875,0 0.53125,0.34375 0.53125,0.703125 0,0.5625 -0.421875,1.703125 -0.625,2.234375 -0.078125,0.234375 -0.125,0.34375 -0.125,0.546875 0,0.46875 0.34375,0.8125 0.8125,0.8125 0.9375,0 1.3125,-1.453125 1.3125,-1.53125 0,-0.109375 -0.09375,-0.109375 -0.125,-0.109375 -0.09375,0 -0.09375,0.03125 -0.140625,0.1875 -0.15625,0.53125 -0.46875,1.234375 -1.015625,1.234375 -0.171875,0 -0.25,-0.09375 -0.25,-0.328125 0,-0.25 0.09375,-0.484375 0.1875,-0.703125 0.1875,-0.53125 0.609375,-1.625 0.609375,-2.203125 0,-0.640625 -0.40625,-1.0625 -1.15625,-1.0625 -0.734375,0 -1.25,0.4375 -1.625,0.96875 0,-0.125 -0.03125,-0.46875 -0.3125,-0.703125 -0.25,-0.21875 -0.5625,-0.265625 -0.8125,-0.265625 -0.90625,0 -1.390625,0.640625 -1.5625,0.875 -0.046875,-0.578125 -0.46875,-0.875 -0.921875,-0.875 -0.453125,0 -0.640625,0.390625 -0.734375,0.5625 -0.171875,0.359375 -0.296875,0.9375 -0.296875,0.96875 0,0.109375 0.09375,0.109375 0.109375,0.109375 0.109375,0 0.109375,-0.015625 0.171875,-0.234375 0.171875,-0.703125 0.375,-1.1875 0.734375,-1.1875 0.15625,0 0.296875,0.078125 0.296875,0.453125 0,0.21875 -0.03125,0.328125 -0.15625,0.84375 z m 0,0"
           id="path64" /></symbol><symbol
         overflow="visible"
         id="symbol65"><path
           style="stroke:none"
           d=""
           id="path65" /></symbol><symbol
         overflow="visible"
         id="symbol66"><path
           style="stroke:none"
           d="m 4.328125,-4.734375 h -3.9375 v 0.25 H 0.5625 c 0.53125,0 0.546875,0.078125 0.546875,0.3125 V -0.5625 c 0,0.234375 -0.015625,0.3125 -0.546875,0.3125 H 0.390625 V 0 c 0,0 0.796875,-0.03125 1.0625,-0.03125 C 1.734375,-0.03125 2.5625,0 2.671875,0 v -0.25 h -0.25 c -0.65625,0 -0.65625,-0.09375 -0.65625,-0.328125 v -3.625 c 0,-0.21875 0.015625,-0.28125 0.34375,-0.28125 h 0.84375 C 4,-4.484375 4.1875,-4.09375 4.296875,-3.125 H 4.53125 Z m 0,0"
           id="path66" /></symbol><symbol
         overflow="visible"
         id="symbol67"><path
           style="stroke:none"
           d="M 3.59375,-2.21875 C 3.59375,-2.984375 3.5,-3.546875 3.1875,-4.03125 2.96875,-4.34375 2.53125,-4.625 1.984375,-4.625 c -1.625,0 -1.625,1.90625 -1.625,2.40625 0,0.5 0,2.359375 1.625,2.359375 1.609375,0 1.609375,-1.859375 1.609375,-2.359375 z M 1.984375,-0.0625 c -0.328125,0 -0.75,-0.1875 -0.890625,-0.75 C 1,-1.21875 1,-1.796875 1,-2.3125 1,-2.828125 1,-3.359375 1.09375,-3.734375 1.25,-4.28125 1.6875,-4.4375 1.984375,-4.4375 c 0.375,0 0.734375,0.234375 0.859375,0.640625 0.109375,0.375 0.125,0.875 0.125,1.484375 0,0.515625 0,1.03125 -0.09375,1.46875 -0.140625,0.640625 -0.609375,0.78125 -0.890625,0.78125 z m 0,0"
           id="path67" /></symbol><symbol
         overflow="visible"
         id="symbol68"><path
           style="stroke:none"
           d=""
           id="path68" /></symbol><symbol
         overflow="visible"
         id="symbol69"><path
           style="stroke:none"
           d="m 1.46875,-0.109375 c 0,0.375 -0.0625,0.828125 -0.546875,1.265625 C 0.90625,1.1875 0.875,1.21875 0.875,1.25 c 0,0.046875 0.0625,0.09375 0.09375,0.09375 0.109375,0 0.703125,-0.5625 0.703125,-1.390625 0,-0.421875 -0.171875,-0.75 -0.5,-0.75 -0.21875,0 -0.390625,0.171875 -0.390625,0.390625 C 0.78125,-0.1875 0.9375,0 1.1875,0 1.359375,0 1.46875,-0.109375 1.46875,-0.109375 Z m 0,0"
           id="path69" /></symbol></g><g
       id="g78"><symbol
         overflow="visible"
         id="symbol70"><path
           style="stroke:none"
           d=""
           id="path70" /></symbol><symbol
         overflow="visible"
         id="symbol71"><path
           style="stroke:none"
           d="m 3.484375,-4.8125 c -0.0625,-0.125 -0.078125,-0.15625 -0.21875,-0.15625 -0.09375,0 -0.15625,0.015625 -0.21875,0.125 L 0.46875,-0.171875 C 0.421875,-0.09375 0.421875,-0.078125 0.421875,-0.0625 0.421875,0 0.484375,0 0.59375,0 H 5.9375 c 0.109375,0 0.171875,0 0.171875,-0.0625 0,-0.015625 0,-0.03125 -0.046875,-0.109375 z m -0.453125,0.53125 2.046875,3.703125 h -4.09375 z m 0,0"
           id="path71" /></symbol><symbol
         overflow="visible"
         id="symbol72"><path
           style="stroke:none"
           d=""
           id="path72" /></symbol><symbol
         overflow="visible"
         id="symbol73"><path
           style="stroke:none"
           d="m 3.03125,-0.5625 c -0.046875,0.140625 -0.109375,0.375 -0.109375,0.40625 0,0.15625 0.125,0.21875 0.234375,0.21875 0.140625,0 0.25,-0.078125 0.28125,-0.140625 0.03125,-0.0625 0.09375,-0.296875 0.125,-0.4375 0.03125,-0.125 0.109375,-0.453125 0.15625,-0.625 0.03125,-0.15625 0.078125,-0.3125 0.109375,-0.46875 0.078125,-0.296875 0.078125,-0.3125 0.21875,-0.53125 C 4.265625,-2.484375 4.625,-2.875 5.15625,-2.875 c 0.390625,0 0.421875,0.3125 0.421875,0.484375 0,0.421875 -0.296875,1.1875 -0.421875,1.484375 -0.0625,0.203125 -0.09375,0.265625 -0.09375,0.375 0,0.375 0.296875,0.59375 0.65625,0.59375 0.703125,0 1,-0.953125 1,-1.0625 0,-0.09375 -0.078125,-0.09375 -0.109375,-0.09375 -0.09375,0 -0.09375,0.046875 -0.125,0.125 C 6.328125,-0.40625 6.015625,-0.125 5.75,-0.125 c -0.15625,0 -0.1875,-0.09375 -0.1875,-0.25 0,-0.15625 0.046875,-0.25 0.171875,-0.5625 0.078125,-0.21875 0.359375,-0.953125 0.359375,-1.34375 0,-0.109375 0,-0.40625 -0.25,-0.609375 -0.125,-0.078125 -0.328125,-0.1875 -0.65625,-0.1875 -0.625,0 -1,0.421875 -1.234375,0.703125 C 3.90625,-2.96875 3.40625,-3.078125 3.046875,-3.078125 2.46875,-3.078125 2.078125,-2.71875 1.875,-2.4375 1.828125,-2.921875 1.421875,-3.078125 1.125,-3.078125 c -0.296875,0 -0.453125,0.21875 -0.546875,0.375 -0.15625,0.265625 -0.25,0.65625 -0.25,0.703125 0,0.078125 0.09375,0.078125 0.125,0.078125 0.09375,0 0.09375,-0.015625 0.140625,-0.203125 0.109375,-0.40625 0.25,-0.75 0.515625,-0.75 0.1875,0 0.234375,0.15625 0.234375,0.34375 0,0.125 -0.0625,0.390625 -0.125,0.578125 -0.046875,0.1875 -0.109375,0.46875 -0.140625,0.625 L 0.84375,-0.4375 c -0.015625,0.09375 -0.0625,0.265625 -0.0625,0.28125 0,0.15625 0.125,0.21875 0.234375,0.21875 0.125,0 0.234375,-0.078125 0.28125,-0.140625 0.03125,-0.0625 0.078125,-0.296875 0.125,-0.4375 0.03125,-0.125 0.109375,-0.453125 0.140625,-0.625 0.046875,-0.15625 0.09375,-0.3125 0.125,-0.46875 0.078125,-0.28125 0.09375,-0.34375 0.296875,-0.625 C 2.171875,-2.515625 2.5,-2.875 3.03125,-2.875 c 0.390625,0 0.40625,0.359375 0.40625,0.484375 0,0.171875 -0.015625,0.265625 -0.125,0.65625 z m 0,0"
           id="path73" /></symbol><symbol
         overflow="visible"
         id="symbol74"><path
           style="stroke:none"
           d=""
           id="path74" /></symbol><symbol
         overflow="visible"
         id="symbol75"><path
           style="stroke:none"
           d="M 3.578125,-3.390625 H 0.40625 v 0.21875 H 0.5625 c 0.40625,0 0.40625,0.0625 0.40625,0.21875 v 2.53125 c 0,0.15625 0,0.203125 -0.40625,0.203125 H 0.40625 V 0 C 0.671875,-0.015625 0.953125,-0.015625 1.25,-0.015625 c 0.296875,0 0.65625,0 0.9375,0.015625 V -0.21875 H 1.96875 C 1.5,-0.21875 1.5,-0.265625 1.5,-0.421875 V -2.96875 c 0,-0.15625 0,-0.203125 0.234375,-0.203125 H 2.46875 c 0.828125,0 0.96875,0.296875 1.0625,0.96875 h 0.203125 z m 0,0"
           id="path75" /></symbol><symbol
         overflow="visible"
         id="symbol76"><path
           style="stroke:none"
           d="M 3,-1.59375 C 3,-1.953125 3,-3.3125 1.6875,-3.3125 c -1.296875,0 -1.296875,1.359375 -1.296875,1.71875 0,0.359375 0,1.703125 1.296875,1.703125 C 3,0.109375 3,-1.234375 3,-1.59375 Z M 1.6875,-0.0625 C 1.515625,-0.0625 1.09375,-0.125 0.96875,-0.625 0.890625,-0.890625 0.890625,-1.25 0.890625,-1.65625 c 0,-0.375 0,-0.71875 0.078125,-1 0.125,-0.421875 0.515625,-0.5 0.71875,-0.5 0.375,0 0.640625,0.1875 0.734375,0.546875 C 2.5,-2.359375 2.5,-1.953125 2.5,-1.65625 c 0,0.34375 0,0.75 -0.078125,1.046875 C 2.296875,-0.125 1.890625,-0.0625 1.6875,-0.0625 Z m 0,0"
           id="path76" /></symbol><symbol
         overflow="visible"
         id="symbol77"><path
           style="stroke:none"
           d=""
           id="path77" /></symbol><symbol
         overflow="visible"
         id="symbol78"><path
           style="stroke:none"
           d="m 1.34375,-0.0625 c 0,0.46875 -0.25,0.75 -0.390625,0.859375 -0.046875,0.03125 -0.0625,0.046875 -0.0625,0.078125 0,0.03125 0.046875,0.09375 0.09375,0.09375 0.0625,0 0.53125,-0.390625 0.53125,-1.015625 0,-0.34375 -0.15625,-0.5625 -0.375,-0.5625 -0.1875,0 -0.296875,0.15625 -0.296875,0.3125 C 0.84375,-0.140625 0.953125,0 1.140625,0 1.21875,0 1.296875,-0.015625 1.34375,-0.0625 Z m 0,0"
           id="path78" /></symbol></g><inkscape:path-effect
       effect="bspline"
       id="path-effect6443-8"
       is_visible="true"
       lpeversion="1"
       weight="33.333333"
       steps="2"
       helper_size="0"
       apply_no_weight="true"
       apply_with_weight="true"
       only_selected="false"
       uniform="false" /><inkscape:path-effect
       effect="bspline"
       id="path-effect6477-9"
       is_visible="true"
       lpeversion="1"
       weight="33.333333"
       steps="2"
       helper_size="0"
       apply_no_weight="true"
       apply_with_weight="true"
       only_selected="false"
       uniform="false" /><inkscape:path-effect
       effect="bspline"
       id="path-effect35594-7"
       is_visible="true"
       lpeversion="1"
       weight="33.333333"
       steps="2"
       helper_size="0"
       apply_no_weight="true"
       apply_with_weight="true"
       only_selected="false"
       uniform="false" /><inkscape:path-effect
       effect="bspline"
       id="path-effect35646-6"
       is_visible="true"
       lpeversion="1"
       weight="33.333333"
       steps="2"
       helper_size="0"
       apply_no_weight="true"
       apply_with_weight="true"
       only_selected="false"
       uniform="false" /><inkscape:path-effect
       effect="bspline"
       id="path-effect35698-2"
       is_visible="true"
       lpeversion="1"
       weight="33.333333"
       steps="2"
       helper_size="0"
       apply_no_weight="true"
       apply_with_weight="true"
       only_selected="false"
       uniform="false" /><inkscape:path-effect
       effect="bspline"
       id="path-effect35054-9"
       is_visible="true"
       lpeversion="1"
       weight="33.333333"
       steps="2"
       helper_size="0"
       apply_no_weight="true"
       apply_with_weight="true"
       only_selected="false"
       uniform="false" /><inkscape:path-effect
       effect="bspline"
       id="path-effect35106-1"
       is_visible="true"
       lpeversion="1"
       weight="33.333333"
       steps="2"
       helper_size="0"
       apply_no_weight="true"
       apply_with_weight="true"
       only_selected="false"
       uniform="false" /><inkscape:path-effect
       effect="bspline"
       id="path-effect5425-9"
       is_visible="true"
       lpeversion="1"
       weight="33.333333"
       steps="2"
       helper_size="0"
       apply_no_weight="true"
       apply_with_weight="true"
       only_selected="false"
       uniform="false" /><inkscape:path-effect
       effect="bspline"
       id="path-effect6706-7"
       is_visible="true"
       lpeversion="1"
       weight="33.333333"
       steps="2"
       helper_size="0"
       apply_no_weight="true"
       apply_with_weight="true"
       only_selected="false"
       uniform="false" /><g
       id="g6"><symbol
         overflow="visible"
         id="symbol5"><path
           style="stroke:none;stroke-width:0"
           d=""
           id="path5" /></symbol><symbol
         overflow="visible"
         id="symbol6"><path
           style="stroke:none;stroke-width:0"
           d="M 6.75,-1.609375 H 6.5 c -0.046875,0.25 -0.09375,0.484375 -0.1875,0.71875 -0.046875,0.15625 -0.078125,0.25 -0.65625,0.25 H 4.859375 C 5,-1.203125 5.296875,-1.6875 5.75,-2.34375 c 0.46875,-0.703125 0.875,-1.390625 0.875,-2.1875 0,-1.375 -1.34375,-2.5 -3.03125,-2.5 -1.703125,0 -3.03125,1.140625 -3.03125,2.5 0,0.796875 0.40625,1.484375 0.875,2.1875 0.4375,0.65625 0.75,1.140625 0.890625,1.703125 H 1.53125 C 0.953125,-0.640625 0.921875,-0.734375 0.875,-0.875 0.78125,-1.109375 0.734375,-1.359375 0.6875,-1.609375 h -0.25 L 0.765625,0 h 1.59375 c 0.21875,0 0.25,0 0.25,-0.203125 0,-0.703125 -0.3125,-1.578125 -0.53125,-2.21875 -0.21875,-0.578125 -0.5,-1.359375 -0.5,-2.109375 0,-1.59375 1.109375,-2.28125 2.015625,-2.28125 0.953125,0 2.015625,0.71875 2.015625,2.28125 0,0.75 -0.28125,1.5 -0.5625,2.3125 -0.15625,0.421875 -0.46875,1.328125 -0.46875,2.015625 C 4.578125,0 4.609375,0 4.828125,0 h 1.59375 z m 0,0"
           id="path6" /></symbol></g><g
       id="g8"><symbol
         overflow="visible"
         id="symbol7"><path
           style="stroke:none;stroke-width:0"
           d=""
           id="path7" /></symbol><symbol
         overflow="visible"
         id="symbol8"><path
           style="stroke:none;stroke-width:0"
           d="m 5.515625,-6.78125 h -5.1875 v 0.3125 H 0.5625 c 0.765625,0 0.796875,0.109375 0.796875,0.46875 v 5.21875 c 0,0.359375 -0.03125,0.46875 -0.796875,0.46875 H 0.328125 V 0 c 0.34375,-0.03125 1.125,-0.03125 1.515625,-0.03125 0.40625,0 1.3125,0 1.671875,0.03125 V -0.3125 H 3.1875 C 2.25,-0.3125 2.25,-0.4375 2.25,-0.78125 v -5.296875 c 0,-0.328125 0.015625,-0.390625 0.484375,-0.390625 h 1.03125 c 1.421875,0 1.625,0.59375 1.78125,1.9375 h 0.25 z m 0,0"
           id="path8" /></symbol></g><g
       id="g17"
       style="fill:#0000ff;stroke-width:0"><symbol
         overflow="visible"
         id="symbol9"
         style="fill:#0000ff;stroke-width:0"><path
           style="fill:#0000ff;stroke:#0000ff;stroke-width:0"
           d=""
           id="path9" /></symbol><symbol
         overflow="visible"
         id="symbol10"
         style="fill:#0000ff;stroke-width:0"><path
           style="fill:#0000ff;stroke:#0000ff;stroke-width:0"
           d="M 3.484375,-0.5625 C 3.59375,-0.15625 3.953125,0.109375 4.375,0.109375 4.71875,0.109375 4.953125,-0.125 5.109375,-0.4375 5.28125,-0.796875 5.40625,-1.40625 5.40625,-1.421875 c 0,-0.109375 -0.078125,-0.109375 -0.109375,-0.109375 -0.109375,0 -0.109375,0.046875 -0.140625,0.1875 -0.140625,0.5625 -0.328125,1.234375 -0.75,1.234375 -0.203125,0 -0.3125,-0.125 -0.3125,-0.453125 0,-0.21875 0.125,-0.6875 0.203125,-1.046875 L 4.578125,-2.6875 C 4.609375,-2.828125 4.703125,-3.203125 4.75,-3.359375 4.796875,-3.59375 4.890625,-3.96875 4.890625,-4.03125 c 0,-0.171875 -0.140625,-0.265625 -0.28125,-0.265625 -0.046875,0 -0.3125,0.015625 -0.390625,0.34375 -0.1875,0.734375 -0.625,2.484375 -0.75,3 -0.015625,0.046875 -0.40625,0.84375 -1.140625,0.84375 -0.515625,0 -0.609375,-0.453125 -0.609375,-0.8125 0,-0.5625 0.28125,-1.34375 0.53125,-2.03125 0.125,-0.3125 0.171875,-0.453125 0.171875,-0.640625 0,-0.4375 -0.3125,-0.8125 -0.8125,-0.8125 -0.953125,0 -1.3125,1.453125 -1.3125,1.53125 0,0.109375 0.09375,0.109375 0.109375,0.109375 0.109375,0 0.109375,-0.03125 0.15625,-0.1875 0.25,-0.859375 0.640625,-1.234375 1.015625,-1.234375 0.09375,0 0.25,0.015625 0.25,0.328125 0,0.234375 -0.109375,0.53125 -0.171875,0.671875 -0.375,1 -0.578125,1.609375 -0.578125,2.09375 0,0.953125 0.6875,1.203125 1.21875,1.203125 0.65625,0 1.015625,-0.453125 1.1875,-0.671875 z m 0,0"
           id="path10" /></symbol><symbol
         overflow="visible"
         id="symbol11"
         style="fill:#0000ff;stroke-width:0"><path
           style="fill:#0000ff;stroke:#0000ff;stroke-width:0"
           d=""
           id="path11" /></symbol><symbol
         overflow="visible"
         id="symbol12"
         style="fill:#0000ff;stroke-width:0"><path
           style="fill:#0000ff;stroke:#0000ff;stroke-width:0"
           d="m 1.03125,-0.90625 c -0.046875,0.203125 -0.125,0.5625 -0.125,0.609375 0,0.25 0.1875,0.359375 0.359375,0.359375 C 1.65625,0.0625 1.75,-0.296875 1.8125,-0.5 1.90625,-0.90625 1.90625,-0.921875 2,-1.3125 2.109375,-1.71875 2.109375,-1.734375 2.125,-1.796875 2.171875,-2 2.46875,-2.34375 2.65625,-2.515625 c 0.125,-0.109375 0.421875,-0.3125 0.796875,-0.3125 0.328125,0 0.390625,0.1875 0.390625,0.40625 0,0.390625 -0.3125,1.171875 -0.421875,1.453125 C 3.328125,-0.75 3.3125,-0.6875 3.3125,-0.578125 c 0,0.40625 0.453125,0.640625 0.890625,0.640625 0.796875,0 1.21875,-0.890625 1.21875,-1.09375 0,-0.125 -0.125,-0.125 -0.21875,-0.125 -0.171875,0 -0.1875,0.015625 -0.234375,0.15625 -0.125,0.390625 -0.421875,0.734375 -0.71875,0.734375 -0.046875,0 -0.125,0 -0.125,-0.171875 0,-0.125 0.046875,-0.203125 0.171875,-0.53125 0.0625,-0.140625 0.390625,-0.953125 0.390625,-1.328125 0,-0.859375 -0.96875,-0.859375 -1.171875,-0.859375 -0.171875,0 -0.703125,0 -1.265625,0.5625 -0.15625,-0.5625 -0.90625,-0.5625 -0.96875,-0.5625 -0.734375,0 -0.96875,1.03125 -0.96875,1.09375 0,0.125 0.109375,0.125 0.21875,0.125 0.171875,0 0.1875,0 0.21875,-0.15625 0.09375,-0.296875 0.21875,-0.734375 0.484375,-0.734375 0.171875,0 0.1875,0.171875 0.1875,0.28125 0,0.09375 -0.015625,0.171875 -0.0625,0.390625 C 1.28125,-1.890625 1.28125,-1.875 1.21875,-1.609375 Z m 0,0"
           id="path12" /></symbol><symbol
         overflow="visible"
         id="symbol13"
         style="fill:#0000ff;stroke-width:0"><path
           style="fill:#0000ff;stroke:#0000ff;stroke-width:0"
           d=""
           id="path13" /></symbol><symbol
         overflow="visible"
         id="symbol15"
         style="fill:#0000ff;stroke-width:0"><path
           style="fill:#0000ff;stroke:#0000ff;stroke-width:0"
           d="m 4.328125,-4.734375 h -3.9375 v 0.25 H 0.5625 c 0.53125,0 0.546875,0.078125 0.546875,0.3125 V -0.5625 c 0,0.234375 -0.015625,0.3125 -0.546875,0.3125 H 0.390625 V 0 c 0,0 0.796875,-0.03125 1.0625,-0.03125 C 1.734375,-0.03125 2.5625,0 2.671875,0 v -0.25 h -0.25 c -0.65625,0 -0.65625,-0.09375 -0.65625,-0.328125 v -3.625 c 0,-0.21875 0.015625,-0.28125 0.34375,-0.28125 h 0.84375 C 4,-4.484375 4.1875,-4.09375 4.296875,-3.125 H 4.53125 Z m 0,0"
           id="path15" /></symbol><symbol
         overflow="visible"
         id="symbol16"
         style="fill:#0000ff;stroke-width:0"><path
           style="fill:#0000ff;stroke:#0000ff;stroke-width:0"
           d=""
           id="path16" /></symbol><symbol
         overflow="visible"
         id="symbol17"
         style="fill:#0000ff;stroke-width:0"><path
           style="fill:#0000ff;stroke:#0000ff;stroke-width:0"
           d="M 2.796875,-3.75 C 2.65625,-4.25 2.109375,-4.5 1.5625,-4.5 1.203125,-4.5 0.921875,-4.296875 0.703125,-3.9375 0.453125,-3.53125 0.3125,-3 0.3125,-2.953125 c 0,0.140625 0.15625,0.140625 0.25,0.140625 0.109375,0 0.140625,0 0.1875,-0.046875 C 0.78125,-2.875 0.78125,-2.90625 0.84375,-3.15625 1.03125,-3.921875 1.25,-4.140625 1.515625,-4.140625 c 0.15625,0 0.234375,0.09375 0.234375,0.359375 0,0.171875 -0.046875,0.328125 -0.140625,0.734375 C 1.53125,-2.765625 1.4375,-2.375 1.390625,-2.15625 L 1.03125,-0.75 C 1,-0.625 0.953125,-0.421875 0.953125,-0.359375 c 0,0.203125 0.15625,0.4375 0.46875,0.4375 0.515625,0 0.625,-0.453125 0.703125,-0.75 0.09375,-0.375 0.171875,-0.6875 0.28125,-1.125 0.03125,-0.125 0.28125,-1.15625 0.3125,-1.1875 0,-0.0625 0.28125,-0.5 0.609375,-0.78125 0.28125,-0.21875 0.609375,-0.375 1.03125,-0.375 0.25,0 0.5,0.09375 0.5,0.578125 0,0.578125 -0.4375,1.734375 -0.625,2.234375 -0.125,0.265625 -0.140625,0.34375 -0.140625,0.515625 0,0.578125 0.578125,0.890625 1.125,0.890625 1.046875,0 1.546875,-1.359375 1.546875,-1.546875 0,-0.140625 -0.140625,-0.140625 -0.234375,-0.140625 -0.125,0 -0.1875,0 -0.234375,0.125 C 5.96875,-0.375 5.4375,-0.28125 5.28125,-0.28125 c -0.078125,0 -0.171875,0 -0.171875,-0.203125 0,-0.234375 0.09375,-0.484375 0.1875,-0.734375 0.171875,-0.40625 0.625,-1.578125 0.625,-2.125 C 5.921875,-4.265625 5.15625,-4.5 4.4375,-4.5 4.234375,-4.5 3.5,-4.5 2.796875,-3.75 Z m 0,0"
           id="path17" /></symbol></g><g
       id="g21"
       style="fill:#0000ff;stroke-width:0"><symbol
         overflow="visible"
         id="symbol18"
         style="fill:#0000ff;stroke-width:0"><path
           style="fill:#0000ff;stroke:#0000ff;stroke-width:0"
           d=""
           id="path18" /></symbol><symbol
         overflow="visible"
         id="symbol19"
         style="fill:#0000ff;stroke-width:0"><path
           style="fill:#0000ff;stroke:#0000ff;stroke-width:0"
           d="m 5.609375,-3.15625 c 0.078125,-0.28125 0.1875,-0.765625 0.1875,-0.828125 0,-0.21875 -0.15625,-0.4375 -0.46875,-0.4375 -0.15625,0 -0.515625,0.078125 -0.65625,0.53125 -0.03125,0.125 -0.484375,1.9375 -0.5625,2.265625 -0.0625,0.234375 -0.125,0.515625 -0.15625,0.703125 C 3.78125,-0.6875 3.390625,-0.28125 2.875,-0.28125 c -0.578125,0 -0.59375,-0.5 -0.59375,-0.71875 0,-0.609375 0.3125,-1.390625 0.59375,-2.109375 C 2.96875,-3.375 3,-3.4375 3,-3.609375 3,-4.1875 2.421875,-4.5 1.875,-4.5 c -1.0625,0 -1.5625,1.34375 -1.5625,1.546875 0,0.140625 0.15625,0.140625 0.25,0.140625 0.109375,0 0.1875,0 0.21875,-0.125 0.328125,-1.109375 0.875,-1.203125 1.03125,-1.203125 0.078125,0 0.171875,0 0.171875,0.203125 0,0.234375 -0.125,0.515625 -0.15625,0.625 -0.421875,1.046875 -0.609375,1.609375 -0.609375,2.09375 0,1.140625 1,1.296875 1.578125,1.296875 0.296875,0 0.734375,-0.03125 1.265625,-0.546875 0.328125,0.484375 0.90625,0.546875 1.140625,0.546875 0.375,0 0.65625,-0.203125 0.875,-0.5625 0.234375,-0.40625 0.375,-0.9375 0.375,-0.984375 0,-0.140625 -0.15625,-0.140625 -0.25,-0.140625 -0.109375,0 -0.140625,0 -0.1875,0.046875 -0.03125,0.015625 -0.03125,0.03125 -0.078125,0.28125 -0.203125,0.78125 -0.421875,1 -0.6875,1 -0.140625,0 -0.21875,-0.09375 -0.21875,-0.359375 0,-0.171875 0.03125,-0.34375 0.125,-0.734375 0.078125,-0.28125 0.171875,-0.671875 0.234375,-0.890625 z m 0,0"
           id="path19" /></symbol><symbol
         overflow="visible"
         id="symbol20"
         style="fill:#0000ff;stroke-width:0"><path
           style="fill:#0000ff;stroke:#0000ff;stroke-width:0"
           d=""
           id="path20" /></symbol><symbol
         overflow="visible"
         id="symbol21"
         style="fill:#0000ff;stroke-width:0"><path
           style="fill:#0000ff;stroke:#0000ff;stroke-width:0"
           d="m 5.28125,-1.171875 h -0.25 c 0,0.015625 -0.0625,0.34375 -0.125,0.515625 C 4.875,-0.546875 4.84375,-0.5 4.421875,-0.5 H 3.828125 C 3.9375,-0.890625 4.140625,-1.15625 4.53125,-1.671875 4.875,-2.140625 5.1875,-2.59375 5.1875,-3.15625 c 0,-0.953125 -1.015625,-1.75 -2.34375,-1.75 -1.34375,0 -2.359375,0.796875 -2.359375,1.75 0,0.609375 0.34375,1.0625 0.828125,1.71875 0.203125,0.265625 0.421875,0.578125 0.53125,0.9375 H 1.25 C 0.84375,-0.5 0.8125,-0.546875 0.78125,-0.625 0.71875,-0.765625 0.640625,-1.15625 0.640625,-1.171875 h -0.25 L 0.640625,0 H 1.90625 c 0.140625,0 0.1875,0 0.1875,-0.15625 0,-0.5 -0.25,-1.09375 -0.40625,-1.4375 -0.265625,-0.609375 -0.453125,-1.0625 -0.453125,-1.578125 0,-0.984375 0.78125,-1.53125 1.609375,-1.53125 0.8125,0 1.59375,0.546875 1.59375,1.53125 0,0.53125 -0.203125,1 -0.4375,1.546875 C 3.84375,-1.28125 3.578125,-0.65625 3.578125,-0.15625 3.578125,0 3.609375,0 3.78125,0 h 1.25 z m 0,0"
           id="path21" /></symbol></g><g
       id="g25"
       style="fill:#0000ff;stroke-width:0"><symbol
         overflow="visible"
         id="symbol22"
         style="fill:#0000ff;stroke-width:0"><path
           style="fill:#0000ff;stroke:#0000ff;stroke-width:0"
           d=""
           id="path22" /></symbol><symbol
         overflow="visible"
         id="symbol23"
         style="fill:#0000ff;stroke-width:0"><path
           style="fill:#0000ff;stroke:#0000ff;stroke-width:0"
           d="m 5.609375,-3.15625 c 0.078125,-0.28125 0.1875,-0.765625 0.1875,-0.828125 0,-0.21875 -0.15625,-0.4375 -0.46875,-0.4375 -0.15625,0 -0.515625,0.078125 -0.65625,0.53125 -0.03125,0.125 -0.484375,1.9375 -0.5625,2.265625 -0.0625,0.234375 -0.125,0.515625 -0.15625,0.703125 C 3.78125,-0.6875 3.390625,-0.28125 2.875,-0.28125 c -0.578125,0 -0.59375,-0.5 -0.59375,-0.71875 0,-0.609375 0.3125,-1.390625 0.59375,-2.109375 C 2.96875,-3.375 3,-3.4375 3,-3.609375 3,-4.1875 2.421875,-4.5 1.875,-4.5 c -1.0625,0 -1.5625,1.34375 -1.5625,1.546875 0,0.140625 0.15625,0.140625 0.25,0.140625 0.109375,0 0.1875,0 0.21875,-0.125 0.328125,-1.109375 0.875,-1.203125 1.03125,-1.203125 0.078125,0 0.171875,0 0.171875,0.203125 0,0.234375 -0.125,0.515625 -0.15625,0.625 -0.421875,1.046875 -0.609375,1.609375 -0.609375,2.09375 0,1.140625 1,1.296875 1.578125,1.296875 0.296875,0 0.734375,-0.03125 1.265625,-0.546875 0.328125,0.484375 0.90625,0.546875 1.140625,0.546875 0.375,0 0.65625,-0.203125 0.875,-0.5625 0.234375,-0.40625 0.375,-0.9375 0.375,-0.984375 0,-0.140625 -0.15625,-0.140625 -0.25,-0.140625 -0.109375,0 -0.140625,0 -0.1875,0.046875 -0.03125,0.015625 -0.03125,0.03125 -0.078125,0.28125 -0.203125,0.78125 -0.421875,1 -0.6875,1 -0.140625,0 -0.21875,-0.09375 -0.21875,-0.359375 0,-0.171875 0.03125,-0.34375 0.125,-0.734375 0.078125,-0.28125 0.171875,-0.671875 0.234375,-0.890625 z m 0,0"
           id="path23" /></symbol><symbol
         overflow="visible"
         id="symbol24"
         style="fill:#0000ff;stroke-width:0"><path
           style="fill:#0000ff;stroke:#0000ff;stroke-width:0"
           d=""
           id="path24" /></symbol><symbol
         overflow="visible"
         id="symbol25"
         style="fill:#0000ff;stroke-width:0"><path
           style="fill:#0000ff;stroke:#0000ff;stroke-width:0"
           d="m 4.328125,-4.734375 h -3.9375 v 0.25 H 0.5625 c 0.53125,0 0.546875,0.078125 0.546875,0.3125 V -0.5625 c 0,0.234375 -0.015625,0.3125 -0.546875,0.3125 H 0.390625 V 0 c 0,0 0.796875,-0.03125 1.0625,-0.03125 C 1.734375,-0.03125 2.5625,0 2.671875,0 v -0.25 h -0.25 c -0.65625,0 -0.65625,-0.09375 -0.65625,-0.328125 v -3.625 c 0,-0.21875 0.015625,-0.28125 0.34375,-0.28125 h 0.84375 C 4,-4.484375 4.1875,-4.09375 4.296875,-3.125 H 4.53125 Z m 0,0"
           id="path25" /></symbol></g><g
       id="g35"><symbol
         overflow="visible"
         id="symbol26"><path
           style="stroke:none;stroke-width:0"
           d=""
           id="path26" /></symbol><symbol
         overflow="visible"
         id="symbol27"><path
           style="stroke:none;stroke-width:0"
           d="m 3.375,-4.421875 c -2.046875,0 -2.953125,1.875 -2.953125,2.921875 0,1.078125 0.796875,1.578125 1.875,1.578125 1.8125,0 2.875,-1.375 2.875,-2.796875 0,-0.234375 -0.03125,-0.515625 -0.140625,-0.75 h 0.953125 c 0.203125,0 0.359375,0 0.5,-0.15625 C 6.5625,-3.6875 6.6875,-3.8125 6.6875,-4.03125 c 0,-0.390625 -0.34375,-0.390625 -0.53125,-0.390625 z M 2.3125,-0.28125 c -0.859375,0 -0.859375,-0.703125 -0.859375,-0.859375 0,-0.375 0.21875,-1.328125 0.4375,-1.6875 0.203125,-0.34375 0.53125,-0.640625 1.296875,-0.640625 0.8125,0 0.90625,0.34375 0.90625,0.703125 0,0.296875 -0.203125,1.296875 -0.515625,1.78125 C 3.171875,-0.375 2.59375,-0.28125 2.3125,-0.28125 Z m 0,0"
           id="path27" /></symbol><symbol
         overflow="visible"
         id="symbol28"><path
           style="stroke:none;stroke-width:0"
           d="m 5.609375,-3.15625 c 0.078125,-0.28125 0.1875,-0.765625 0.1875,-0.828125 0,-0.21875 -0.15625,-0.4375 -0.46875,-0.4375 -0.15625,0 -0.515625,0.078125 -0.65625,0.53125 -0.03125,0.125 -0.484375,1.9375 -0.5625,2.265625 -0.0625,0.234375 -0.125,0.515625 -0.15625,0.703125 C 3.78125,-0.6875 3.390625,-0.28125 2.875,-0.28125 c -0.578125,0 -0.59375,-0.5 -0.59375,-0.71875 0,-0.609375 0.3125,-1.390625 0.59375,-2.109375 C 2.96875,-3.375 3,-3.4375 3,-3.609375 3,-4.1875 2.421875,-4.5 1.875,-4.5 c -1.0625,0 -1.5625,1.34375 -1.5625,1.546875 0,0.140625 0.15625,0.140625 0.25,0.140625 0.109375,0 0.1875,0 0.21875,-0.125 0.328125,-1.109375 0.875,-1.203125 1.03125,-1.203125 0.078125,0 0.171875,0 0.171875,0.203125 0,0.234375 -0.125,0.515625 -0.15625,0.625 -0.421875,1.046875 -0.609375,1.609375 -0.609375,2.09375 0,1.140625 1,1.296875 1.578125,1.296875 0.296875,0 0.734375,-0.03125 1.265625,-0.546875 0.328125,0.484375 0.90625,0.546875 1.140625,0.546875 0.375,0 0.65625,-0.203125 0.875,-0.5625 0.234375,-0.40625 0.375,-0.9375 0.375,-0.984375 0,-0.140625 -0.15625,-0.140625 -0.25,-0.140625 -0.109375,0 -0.140625,0 -0.1875,0.046875 -0.03125,0.015625 -0.03125,0.03125 -0.078125,0.28125 -0.203125,0.78125 -0.421875,1 -0.6875,1 -0.140625,0 -0.21875,-0.09375 -0.21875,-0.359375 0,-0.171875 0.03125,-0.34375 0.125,-0.734375 0.078125,-0.28125 0.171875,-0.671875 0.234375,-0.890625 z m 0,0"
           id="path28" /></symbol><symbol
         overflow="visible"
         id="symbol29"><path
           style="stroke:none;stroke-width:0"
           d="M 2.796875,-3.75 C 2.65625,-4.25 2.109375,-4.5 1.5625,-4.5 1.203125,-4.5 0.921875,-4.296875 0.703125,-3.9375 0.453125,-3.53125 0.3125,-3 0.3125,-2.953125 c 0,0.140625 0.15625,0.140625 0.25,0.140625 0.109375,0 0.140625,0 0.1875,-0.046875 C 0.78125,-2.875 0.78125,-2.90625 0.84375,-3.15625 1.03125,-3.921875 1.25,-4.140625 1.515625,-4.140625 c 0.15625,0 0.234375,0.09375 0.234375,0.359375 0,0.171875 -0.046875,0.328125 -0.140625,0.734375 C 1.53125,-2.765625 1.4375,-2.375 1.390625,-2.15625 L 1.03125,-0.75 C 1,-0.625 0.953125,-0.421875 0.953125,-0.359375 c 0,0.203125 0.15625,0.4375 0.46875,0.4375 0.515625,0 0.625,-0.453125 0.703125,-0.75 0.09375,-0.375 0.171875,-0.6875 0.28125,-1.125 0.03125,-0.125 0.28125,-1.15625 0.3125,-1.1875 0,-0.0625 0.28125,-0.5 0.609375,-0.78125 0.28125,-0.21875 0.609375,-0.375 1.03125,-0.375 0.25,0 0.5,0.09375 0.5,0.578125 0,0.578125 -0.4375,1.734375 -0.625,2.234375 -0.125,0.265625 -0.140625,0.34375 -0.140625,0.515625 0,0.578125 0.578125,0.890625 1.125,0.890625 1.046875,0 1.546875,-1.359375 1.546875,-1.546875 0,-0.140625 -0.140625,-0.140625 -0.234375,-0.140625 -0.125,0 -0.1875,0 -0.234375,0.125 C 5.96875,-0.375 5.4375,-0.28125 5.28125,-0.28125 c -0.078125,0 -0.171875,0 -0.171875,-0.203125 0,-0.234375 0.09375,-0.484375 0.1875,-0.734375 0.171875,-0.40625 0.625,-1.578125 0.625,-2.125 C 5.921875,-4.265625 5.15625,-4.5 4.4375,-4.5 4.234375,-4.5 3.5,-4.5 2.796875,-3.75 Z m 0,0"
           id="path29" /></symbol><symbol
         overflow="visible"
         id="symbol30"><path
           style="stroke:none;stroke-width:0"
           d=""
           id="path30" /></symbol><symbol
         overflow="visible"
         id="symbol31"><path
           style="stroke:none;stroke-width:0"
           d="m 5.28125,-1.171875 h -0.25 c 0,0.015625 -0.0625,0.34375 -0.125,0.515625 C 4.875,-0.546875 4.84375,-0.5 4.421875,-0.5 H 3.828125 C 3.9375,-0.890625 4.140625,-1.15625 4.53125,-1.671875 4.875,-2.140625 5.1875,-2.59375 5.1875,-3.15625 c 0,-0.953125 -1.015625,-1.75 -2.34375,-1.75 -1.34375,0 -2.359375,0.796875 -2.359375,1.75 0,0.609375 0.34375,1.0625 0.828125,1.71875 0.203125,0.265625 0.421875,0.578125 0.53125,0.9375 H 1.25 C 0.84375,-0.5 0.8125,-0.546875 0.78125,-0.625 0.71875,-0.765625 0.640625,-1.15625 0.640625,-1.171875 h -0.25 L 0.640625,0 H 1.90625 c 0.140625,0 0.1875,0 0.1875,-0.15625 0,-0.5 -0.25,-1.09375 -0.40625,-1.4375 -0.265625,-0.609375 -0.453125,-1.0625 -0.453125,-1.578125 0,-0.984375 0.78125,-1.53125 1.609375,-1.53125 0.8125,0 1.59375,0.546875 1.59375,1.53125 0,0.53125 -0.203125,1 -0.4375,1.546875 C 3.84375,-1.28125 3.578125,-0.65625 3.578125,-0.15625 3.578125,0 3.609375,0 3.78125,0 h 1.25 z m 0,0"
           id="path31" /></symbol><symbol
         overflow="visible"
         id="symbol32"><path
           style="stroke:none;stroke-width:0"
           d="m 4.328125,-4.734375 h -3.9375 v 0.25 H 0.5625 c 0.53125,0 0.546875,0.078125 0.546875,0.3125 V -0.5625 c 0,0.234375 -0.015625,0.3125 -0.546875,0.3125 H 0.390625 V 0 c 0,0 0.796875,-0.03125 1.0625,-0.03125 C 1.734375,-0.03125 2.5625,0 2.671875,0 v -0.25 h -0.25 c -0.65625,0 -0.65625,-0.09375 -0.65625,-0.328125 v -3.625 c 0,-0.21875 0.015625,-0.28125 0.34375,-0.28125 h 0.84375 C 4,-4.484375 4.1875,-4.09375 4.296875,-3.125 H 4.53125 Z m 0,0"
           id="path32" /></symbol><symbol
         overflow="visible"
         id="symbol33"><path
           style="stroke:none;stroke-width:0"
           d=""
           id="path33" /></symbol><symbol
         overflow="visible"
         id="symbol34"><path
           style="stroke:none;stroke-width:0"
           d="m 3.296875,2.390625 c 0,-0.03125 0,-0.046875 -0.171875,-0.21875 C 1.890625,0.921875 1.5625,-0.96875 1.5625,-2.5 c 0,-1.734375 0.375,-3.46875 1.609375,-4.703125 0.125,-0.125 0.125,-0.140625 0.125,-0.171875 0,-0.078125 -0.03125,-0.109375 -0.09375,-0.109375 -0.109375,0 -1,0.6875 -1.59375,1.953125 -0.5,1.09375 -0.625,2.203125 -0.625,3.03125 0,0.78125 0.109375,1.984375 0.65625,3.125 C 2.25,1.84375 3.09375,2.5 3.203125,2.5 c 0.0625,0 0.09375,-0.03125 0.09375,-0.109375 z m 0,0"
           id="path34" /></symbol><symbol
         overflow="visible"
         id="symbol35"><path
           style="stroke:none;stroke-width:0"
           d="m 2.875,-2.5 c 0,-0.765625 -0.109375,-1.96875 -0.65625,-3.109375 -0.59375,-1.21875 -1.453125,-1.875 -1.546875,-1.875 -0.0625,0 -0.109375,0.046875 -0.109375,0.109375 0,0.03125 0,0.046875 0.1875,0.234375 0.984375,0.984375 1.546875,2.5625 1.546875,4.640625 0,1.71875 -0.359375,3.46875 -1.59375,4.71875 C 0.5625,2.34375 0.5625,2.359375 0.5625,2.390625 0.5625,2.453125 0.609375,2.5 0.671875,2.5 0.765625,2.5 1.671875,1.8125 2.25,0.546875 2.765625,-0.546875 2.875,-1.65625 2.875,-2.5 Z m 0,0"
           id="path35" /></symbol></g><rect
       x="1382.8281"
       y="1488.0383"
       width="2159.9055"
       height="1170.2654"
       id="rect4" /><rect
       x="1382.8281"
       y="1488.0383"
       width="2159.9055"
       height="1170.2654"
       id="rect6" /><rect
       x="1382.8281"
       y="1488.0383"
       width="2159.9055"
       height="1170.2654"
       id="rect7" /><rect
       x="1382.8281"
       y="1488.0383"
       width="2159.9055"
       height="1170.2654"
       id="rect8" /><rect
       x="1382.8281"
       y="1488.0383"
       width="2159.9055"
       height="1170.2654"
       id="rect15" /></defs><g
     inkscape:label="Layer 1"
     inkscape:groupmode="layer"
     id="layer1"
     transform="translate(1076.0549,356.9425)"><text
       xml:space="preserve"
       style="font-style:normal;font-weight:normal;font-size:9.43556px;line-height:1.25;font-family:sans-serif;fill:#000000;fill-opacity:1;stroke:none;stroke-width:0.235889"
       x="-323.84219"
       y="-376.72781"
       id="text431"><tspan
         sodipodi:role="line"
         id="tspan429"
         style="stroke-width:0.235889"
         x="-323.84219"
         y="-376.72781">`</tspan></text><text
       xml:space="preserve"
       transform="matrix(0.26458333,0,0,0.26458333,-1076.0549,-356.9425)"
       id="text1027"
       style="font-style:normal;font-weight:normal;font-size:40px;line-height:1.25;font-family:sans-serif;white-space:pre;shape-inside:url(#rect1029);display:inline;fill:#000000;fill-opacity:1;stroke:none" /><text
       xml:space="preserve"
       transform="matrix(0.86703971,0,0,0.86703971,-1517.5168,-891.95373)"
       id="text1"
       style="font-style:normal;font-variant:normal;font-weight:normal;font-stretch:normal;font-size:40px;line-height:1.25;font-family:Roboto;-inkscape-font-specification:Roboto;white-space:pre;shape-inside:url(#rect1);display:inline;fill:#ffffff;fill-opacity:1;stroke:none"><tspan
         x="1382.8281"
         y="1524.8199"
         id="tspan4"><tspan
           style="font-weight:bold;-inkscape-font-specification:'Roboto Bold'"
           id="tspan1">heterogeneity</tspan></tspan></text><path
       style="fill:none;stroke:#f9f9f9;stroke-width:8.61758;stroke-linecap:butt;stroke-linejoin:miter;stroke-dasharray:none;stroke-opacity:1;marker-end:url(#CapTriangle)"
       d="m -94.04062,412.09135 19.383597,-24.46073 H 43.538729"
       id="path1" /><path
       style="fill:none;stroke:#f9f9f9;stroke-width:8.61758;stroke-linecap:butt;stroke-linejoin:miter;stroke-dasharray:none;stroke-opacity:1;marker-end:url(#marker4)"
       d="m -94.04062,431.61132 19.383597,24.46072 H 43.538729"
       id="path2" /><text
       xml:space="preserve"
       transform="matrix(0.86703971,0,0,0.86703971,-1141.3829,-923.76868)"
       id="text4"
       style="font-style:normal;font-variant:normal;font-weight:normal;font-stretch:normal;font-size:40px;line-height:1.25;font-family:Roboto;-inkscape-font-specification:Roboto;white-space:pre;shape-inside:url(#rect4);display:inline;fill:#00ffff;fill-opacity:1;stroke:none"><tspan
         x="1382.8281"
         y="1524.8199"
         id="tspan6"><tspan
           style="font-weight:bold;-inkscape-font-specification:'Roboto Bold'"
           id="tspan5">positive feedback</tspan></tspan></text><text
       xml:space="preserve"
       transform="matrix(0.86703971,0,0,0.86703971,-1141.3829,-855.01039)"
       id="text5"
       style="font-style:normal;font-variant:normal;font-weight:normal;font-stretch:normal;font-size:40px;line-height:1.25;font-family:Roboto;-inkscape-font-specification:Roboto;white-space:pre;shape-inside:url(#rect6);display:inline;fill:#ffaaaa;fill-opacity:1;stroke:none"><tspan
         x="1382.8281"
         y="1524.8199"
         id="tspan8"><tspan
           style="font-weight:bold;-inkscape-font-specification:'Roboto Bold'"
           id="tspan7">homogenises</tspan></tspan></text><text
       xml:space="preserve"
       transform="matrix(0.86703971,0,0,0.86703971,-1318.2479,-952.15867)"
       id="text6"
       style="font-style:normal;font-variant:normal;font-weight:normal;font-stretch:normal;font-size:40px;line-height:1.25;font-family:Roboto;-inkscape-font-specification:Roboto;white-space:pre;shape-inside:url(#rect7);display:inline;fill:#00ffff;fill-opacity:1;stroke:none"><tspan
         x="1382.8281"
         y="1524.8199"
         id="tspan10"><tspan
           style="font-weight:bold;-inkscape-font-specification:'Roboto Bold'"
           id="tspan9">high Pe</tspan></tspan></text><text
       xml:space="preserve"
       transform="matrix(0.86703971,0,0,0.86703971,-1315.479,-827.8606)"
       id="text7"
       style="font-style:normal;font-variant:normal;font-weight:normal;font-stretch:normal;font-size:40px;line-height:1.25;font-family:Roboto;-inkscape-font-specification:Roboto;white-space:pre;shape-inside:url(#rect8);display:inline;fill:#ffaaaa;fill-opacity:1;stroke:none"><tspan
         x="1382.8281"
         y="1524.8199"
         id="tspan12"><tspan
           style="font-weight:bold;-inkscape-font-specification:'Roboto Bold'"
           id="tspan11">low Pe</tspan></tspan></text><path
       style="fill:none;stroke:#ffffff;stroke-width:8.618;stroke-linecap:butt;stroke-linejoin:miter;stroke-dasharray:none;stroke-opacity:1;marker-end:url(#CapTriangle)"
       d="m 90.824723,361.27625 14.056757,-23.08156 h 37.39245"
       id="path14"
       sodipodi:nodetypes="ccc" /><text
       xml:space="preserve"
       transform="matrix(0.86703971,0,0,0.86703971,-1044.4522,-977.95266)"
       id="text14"
       style="font-style:normal;font-variant:normal;font-weight:normal;font-stretch:normal;font-size:40px;line-height:1.25;font-family:Roboto;-inkscape-font-specification:Roboto;white-space:pre;shape-inside:url(#rect15);display:inline;fill:#ffcc00;fill-opacity:1;stroke:none"><tspan
         x="1382.8281"
         y="1524.8199"
         id="tspan14"><tspan
           style="font-weight:bold;-inkscape-font-specification:'Roboto Bold'"
           id="tspan13">patterns form!</tspan></tspan></text></g></svg>
