<?xml version="1.0" encoding="UTF-8" standalone="no"?>
<!-- Created with Inkscape (http://www.inkscape.org/) -->

<svg
   width="168.21301mm"
   height="160.174mm"
   viewBox="0 0 168.21302 160.17398"
   version="1.1"
   id="svg1"
   inkscape:version="1.3.2 (1:1.3.2+202311252150+091e20ef0f)"
   sodipodi:docname="reference-frame.svg"
   xml:space="preserve"
   inkscape:export-filename="reference-frame.png"
   inkscape:export-xdpi="61.4165"
   inkscape:export-ydpi="61.4165"
   xmlns:inkscape="http://www.inkscape.org/namespaces/inkscape"
   xmlns:sodipodi="http://sodipodi.sourceforge.net/DTD/sodipodi-0.dtd"
   xmlns="http://www.w3.org/2000/svg"
   xmlns:svg="http://www.w3.org/2000/svg"
   xmlns:ns1="http://www.iki.fi/pav/software/textext/"><sodipodi:namedview
     id="namedview1"
     pagecolor="#505050"
     bordercolor="#ffffff"
     borderopacity="1"
     inkscape:showpageshadow="0"
     inkscape:pageopacity="0"
     inkscape:pagecheckerboard="1"
     inkscape:deskcolor="#d1d1d1"
     inkscape:document-units="mm"
     inkscape:zoom="0.97512882"
     inkscape:cx="352.7739"
     inkscape:cy="298.42211"
     inkscape:window-width="924"
     inkscape:window-height="1016"
     inkscape:window-x="996"
     inkscape:window-y="27"
     inkscape:window-maximized="0"
     inkscape:current-layer="layer1" /><defs
     id="defs1"><inkscape:path-effect
       effect="bspline"
       id="path-effect115"
       is_visible="true"
       lpeversion="1.3"
       weight="33.333333"
       steps="2"
       helper_size="0"
       apply_no_weight="true"
       apply_with_weight="true"
       only_selected="false"
       uniform="false" /><inkscape:path-effect
       effect="bspline"
       id="path-effect114"
       is_visible="true"
       lpeversion="1.3"
       weight="33.333333"
       steps="2"
       helper_size="0"
       apply_no_weight="true"
       apply_with_weight="true"
       only_selected="false"
       uniform="false" /><inkscape:path-effect
       effect="bspline"
       id="path-effect113"
       is_visible="true"
       lpeversion="1.3"
       weight="33.333333"
       steps="2"
       helper_size="0"
       apply_no_weight="true"
       apply_with_weight="true"
       only_selected="false"
       uniform="false" /><inkscape:path-effect
       effect="bspline"
       id="path-effect111"
       is_visible="true"
       lpeversion="1.3"
       weight="33.333333"
       steps="2"
       helper_size="0"
       apply_no_weight="true"
       apply_with_weight="true"
       only_selected="false"
       uniform="false" /><marker
       style="overflow:visible"
       id="marker82"
       refX="0"
       refY="0"
       orient="auto-start-reverse"
       inkscape:stockid="Triangle arrow"
       markerWidth="1"
       markerHeight="1"
       viewBox="0 0 1 1"
       inkscape:isstock="true"
       inkscape:collect="always"
       preserveAspectRatio="xMidYMid"><path
         transform="scale(0.5)"
         style="fill:context-stroke;fill-rule:evenodd;stroke:context-stroke;stroke-width:1pt"
         d="M 5.77,0 -2.88,5 V -5 Z"
         id="path82" /></marker><marker
       style="overflow:visible"
       id="marker81"
       refX="0"
       refY="0"
       orient="auto-start-reverse"
       inkscape:stockid="Triangle arrow"
       markerWidth="1"
       markerHeight="1"
       viewBox="0 0 1 1"
       inkscape:isstock="true"
       inkscape:collect="always"
       preserveAspectRatio="xMidYMid"><path
         transform="scale(0.5)"
         style="fill:context-stroke;fill-rule:evenodd;stroke:context-stroke;stroke-width:1pt"
         d="M 5.77,0 -2.88,5 V -5 Z"
         id="path81" /></marker><marker
       style="overflow:visible"
       id="Triangle"
       refX="0"
       refY="0"
       orient="auto-start-reverse"
       inkscape:stockid="Triangle arrow"
       markerWidth="1"
       markerHeight="1"
       viewBox="0 0 1 1"
       inkscape:isstock="true"
       inkscape:collect="always"
       preserveAspectRatio="xMidYMid"><path
         transform="scale(0.5)"
         style="fill:context-stroke;fill-rule:evenodd;stroke:context-stroke;stroke-width:1pt"
         d="M 5.77,0 -2.88,5 V -5 Z"
         id="path135" /></marker><inkscape:path-effect
       effect="bspline"
       id="path-effect51"
       is_visible="true"
       lpeversion="1.3"
       weight="33.333333"
       steps="2"
       helper_size="0"
       apply_no_weight="true"
       apply_with_weight="true"
       only_selected="false"
       uniform="false" /><inkscape:path-effect
       effect="bspline"
       id="path-effect50"
       is_visible="true"
       lpeversion="1.3"
       weight="33.333333"
       steps="2"
       helper_size="0"
       apply_no_weight="true"
       apply_with_weight="true"
       only_selected="false"
       uniform="false" /><inkscape:path-effect
       effect="bspline"
       id="path-effect48"
       is_visible="true"
       lpeversion="1.3"
       weight="33.333333"
       steps="2"
       helper_size="0"
       apply_no_weight="true"
       apply_with_weight="true"
       only_selected="false"
       uniform="false" /><inkscape:path-effect
       effect="bspline"
       id="path-effect47"
       is_visible="true"
       lpeversion="1.3"
       weight="33.333333"
       steps="2"
       helper_size="0"
       apply_no_weight="true"
       apply_with_weight="true"
       only_selected="false"
       uniform="false" /><inkscape:path-effect
       effect="bspline"
       id="path-effect46"
       is_visible="true"
       lpeversion="1.3"
       weight="33.333333"
       steps="2"
       helper_size="0"
       apply_no_weight="true"
       apply_with_weight="true"
       only_selected="false"
       uniform="false" /><marker
       inkscape:stockid="Arrow2Lend"
       orient="auto"
       refY="0"
       refX="0"
       id="Arrow2Lend"
       style="overflow:visible"><path
         id="path3906"
         style="font-size:12px;fill-rule:evenodd;stroke-width:0.625;stroke-linejoin:round"
         d="M 8.7185878,4.0337352 -2.2072895,0.01601326 8.7185884,-4.0017078 c -1.7454984,2.3720609 -1.7354408,5.6174519 -6e-7,8.035443 z"
         transform="matrix(-1.1,0,0,-1.1,-1.1,0)" /></marker><linearGradient
       id="linearGradient4578"><stop
         style="stop-color:#7a7a7a;stop-opacity:1;"
         offset="0"
         id="stop4580" /><stop
         style="stop-color:#e4e4e4;stop-opacity:1;"
         offset="1"
         id="stop4582" /></linearGradient><marker
       inkscape:stockid="TriangleOutL"
       orient="auto"
       refY="0"
       refX="0"
       id="TriangleOutL"
       style="overflow:visible"><path
         id="path4028"
         d="M 5.77,0 -2.88,5 V -5 Z"
         style="fill-rule:evenodd;stroke:#000000;stroke-width:1pt;marker-start:none"
         transform="scale(0.8)" /></marker><marker
       inkscape:stockid="Arrow1Lend"
       orient="auto"
       refY="0"
       refX="0"
       id="Arrow1Lend"
       style="overflow:visible"><path
         id="path3888"
         d="M 0,0 5,-5 -12.5,0 5,5 Z"
         style="fill-rule:evenodd;stroke:#000000;stroke-width:1pt;marker-start:none"
         transform="matrix(-0.8,0,0,-0.8,-10,0)" /></marker><inkscape:perspective
       sodipodi:type="inkscape:persp3d"
       inkscape:vp_x="0 : -136.32598 : 1"
       inkscape:vp_y="0 : 999.99988 : 0"
       inkscape:vp_z="1 : -136.32598 : 1"
       inkscape:persp3d-origin="0.5 : -136.49265 : 1"
       id="perspective10" /><inkscape:perspective
       id="perspective2830"
       inkscape:persp3d-origin="0.5 : -136.49265 : 1"
       inkscape:vp_z="1 : -136.32598 : 1"
       inkscape:vp_y="0 : 999.99988 : 0"
       inkscape:vp_x="0 : -136.32598 : 1"
       sodipodi:type="inkscape:persp3d" /><inkscape:perspective
       id="perspective2855"
       inkscape:persp3d-origin="0.5 : -136.49265 : 1"
       inkscape:vp_z="1 : -136.32598 : 1"
       inkscape:vp_y="0 : 999.99988 : 0"
       inkscape:vp_x="0 : -136.32598 : 1"
       sodipodi:type="inkscape:persp3d" /><inkscape:perspective
       id="perspective2896"
       inkscape:persp3d-origin="0.5 : -136.49265 : 1"
       inkscape:vp_z="1 : -136.32598 : 1"
       inkscape:vp_y="0 : 999.99988 : 0"
       inkscape:vp_x="0 : -136.32598 : 1"
       sodipodi:type="inkscape:persp3d" /><inkscape:perspective
       id="perspective2927"
       inkscape:persp3d-origin="0.5 : -136.49265 : 1"
       inkscape:vp_z="1 : -136.32598 : 1"
       inkscape:vp_y="0 : 999.99988 : 0"
       inkscape:vp_x="0 : -136.32598 : 1"
       sodipodi:type="inkscape:persp3d" /><inkscape:perspective
       id="perspective2952"
       inkscape:persp3d-origin="0.5 : -136.49265 : 1"
       inkscape:vp_z="1 : -136.32598 : 1"
       inkscape:vp_y="0 : 999.99988 : 0"
       inkscape:vp_x="0 : -136.32598 : 1"
       sodipodi:type="inkscape:persp3d" /><inkscape:perspective
       id="perspective2952-5"
       inkscape:persp3d-origin="0.5 : -136.49265 : 1"
       inkscape:vp_z="1 : -136.32598 : 1"
       inkscape:vp_y="0 : 999.99988 : 0"
       inkscape:vp_x="0 : -136.32598 : 1"
       sodipodi:type="inkscape:persp3d" /><inkscape:perspective
       id="perspective2952-4"
       inkscape:persp3d-origin="0.5 : -136.49265 : 1"
       inkscape:vp_z="1 : -136.32598 : 1"
       inkscape:vp_y="0 : 999.99988 : 0"
       inkscape:vp_x="0 : -136.32598 : 1"
       sodipodi:type="inkscape:persp3d" /><inkscape:perspective
       id="perspective2999"
       inkscape:persp3d-origin="0.5 : -136.49265 : 1"
       inkscape:vp_z="1 : -136.32598 : 1"
       inkscape:vp_y="0 : 999.99988 : 0"
       inkscape:vp_x="0 : -136.32598 : 1"
       sodipodi:type="inkscape:persp3d" /><inkscape:perspective
       id="perspective2999-7"
       inkscape:persp3d-origin="0.5 : -136.49265 : 1"
       inkscape:vp_z="1 : -136.32598 : 1"
       inkscape:vp_y="0 : 999.99988 : 0"
       inkscape:vp_x="0 : -136.32598 : 1"
       sodipodi:type="inkscape:persp3d" /><inkscape:perspective
       id="perspective3035"
       inkscape:persp3d-origin="0.5 : -136.49265 : 1"
       inkscape:vp_z="1 : -136.32598 : 1"
       inkscape:vp_y="0 : 999.99988 : 0"
       inkscape:vp_x="0 : -136.32598 : 1"
       sodipodi:type="inkscape:persp3d" /><inkscape:perspective
       id="perspective3060"
       inkscape:persp3d-origin="0.5 : -136.49265 : 1"
       inkscape:vp_z="1 : -136.32598 : 1"
       inkscape:vp_y="0 : 999.99988 : 0"
       inkscape:vp_x="0 : -136.32598 : 1"
       sodipodi:type="inkscape:persp3d" /><inkscape:perspective
       id="perspective4526"
       inkscape:persp3d-origin="0.5 : -136.49265 : 1"
       inkscape:vp_z="1 : -136.32598 : 1"
       inkscape:vp_y="0 : 999.99988 : 0"
       inkscape:vp_x="0 : -136.32598 : 1"
       sodipodi:type="inkscape:persp3d" /><marker
       inkscape:stockid="TriangleOutL"
       orient="auto"
       refY="0"
       refX="0"
       id="TriangleOutL-2"
       style="overflow:visible"><path
         id="path4028-7"
         d="M 5.77,0 -2.88,5 V -5 Z"
         style="fill-rule:evenodd;stroke:#000000;stroke-width:1pt;marker-start:none"
         transform="scale(0.8)" /></marker><inkscape:perspective
       id="perspective4554"
       inkscape:persp3d-origin="0.5 : -136.49265 : 1"
       inkscape:vp_z="1 : -136.32598 : 1"
       inkscape:vp_y="0 : 999.99988 : 0"
       inkscape:vp_x="0 : -136.32598 : 1"
       sodipodi:type="inkscape:persp3d" /><marker
       inkscape:stockid="TriangleOutL"
       orient="auto"
       refY="0"
       refX="0"
       id="TriangleOutL-0"
       style="overflow:visible"><path
         id="path4028-0"
         d="M 5.77,0 -2.88,5 V -5 Z"
         style="fill-rule:evenodd;stroke:#000000;stroke-width:1pt;marker-start:none"
         transform="scale(0.8)" /></marker><inkscape:perspective
       id="perspective4596"
       inkscape:persp3d-origin="0.5 : -136.49265 : 1"
       inkscape:vp_z="1 : -136.32598 : 1"
       inkscape:vp_y="0 : 999.99988 : 0"
       inkscape:vp_x="0 : -136.32598 : 1"
       sodipodi:type="inkscape:persp3d" /><inkscape:perspective
       id="perspective4816"
       inkscape:persp3d-origin="0.5 : -136.49265 : 1"
       inkscape:vp_z="1 : -136.32598 : 1"
       inkscape:vp_y="0 : 999.99988 : 0"
       inkscape:vp_x="0 : -136.32598 : 1"
       sodipodi:type="inkscape:persp3d" /><marker
       inkscape:stockid="Arrow2Lend"
       orient="auto"
       refY="0"
       refX="0"
       id="Arrow2Lend-3"
       style="overflow:visible"><path
         id="path3906-6"
         style="font-size:12px;fill-rule:evenodd;stroke-width:0.625;stroke-linejoin:round"
         d="M 8.7185878,4.0337352 -2.2072895,0.01601326 8.7185884,-4.0017078 c -1.7454984,2.3720609 -1.7354408,5.6174519 -6e-7,8.035443 z"
         transform="matrix(-1.1,0,0,-1.1,-1.1,0)" /></marker><marker
       inkscape:stockid="TriangleOutL"
       orient="auto"
       refY="0"
       refX="0"
       id="TriangleOutL-3"
       style="overflow:visible"><path
         id="path4028-5"
         d="M 5.77,0 -2.88,5 V -5 Z"
         style="fill-rule:evenodd;stroke:#000000;stroke-width:1pt;marker-start:none"
         transform="scale(0.8)" /></marker><marker
       inkscape:stockid="Arrow1Lend"
       orient="auto"
       refY="0"
       refX="0"
       id="Arrow1Lend-6"
       style="overflow:visible"><path
         id="path3888-2"
         d="M 0,0 5,-5 -12.5,0 5,5 Z"
         style="fill-rule:evenodd;stroke:#000000;stroke-width:1pt;marker-start:none"
         transform="matrix(-0.8,0,0,-0.8,-10,0)" /></marker><inkscape:perspective
       sodipodi:type="inkscape:persp3d"
       inkscape:vp_x="0 : 40.049161 : 1"
       inkscape:vp_y="0 : 1000 : 0"
       inkscape:vp_z="0.9999999 : 40.049161 : 1"
       inkscape:persp3d-origin="0.49999999 : 39.882494 : 1"
       id="perspective10-9" /><inkscape:perspective
       id="perspective2830-1"
       inkscape:persp3d-origin="0.49999999 : 39.882494 : 1"
       inkscape:vp_z="0.9999999 : 40.049161 : 1"
       inkscape:vp_y="0 : 1000 : 0"
       inkscape:vp_x="0 : 40.049161 : 1"
       sodipodi:type="inkscape:persp3d" /><inkscape:perspective
       id="perspective2855-2"
       inkscape:persp3d-origin="0.49999999 : 39.882494 : 1"
       inkscape:vp_z="0.9999999 : 40.049161 : 1"
       inkscape:vp_y="0 : 1000 : 0"
       inkscape:vp_x="0 : 40.049161 : 1"
       sodipodi:type="inkscape:persp3d" /><inkscape:perspective
       id="perspective2896-7"
       inkscape:persp3d-origin="0.49999999 : 39.882494 : 1"
       inkscape:vp_z="0.9999999 : 40.049161 : 1"
       inkscape:vp_y="0 : 1000 : 0"
       inkscape:vp_x="0 : 40.049161 : 1"
       sodipodi:type="inkscape:persp3d" /><inkscape:perspective
       id="perspective2927-0"
       inkscape:persp3d-origin="0.49999999 : 39.882494 : 1"
       inkscape:vp_z="0.9999999 : 40.049161 : 1"
       inkscape:vp_y="0 : 1000 : 0"
       inkscape:vp_x="0 : 40.049161 : 1"
       sodipodi:type="inkscape:persp3d" /><inkscape:perspective
       id="perspective2952-9"
       inkscape:persp3d-origin="0.49999999 : 39.882494 : 1"
       inkscape:vp_z="0.9999999 : 40.049161 : 1"
       inkscape:vp_y="0 : 1000 : 0"
       inkscape:vp_x="0 : 40.049161 : 1"
       sodipodi:type="inkscape:persp3d" /><inkscape:perspective
       id="perspective2952-5-3"
       inkscape:persp3d-origin="0.49999999 : 39.882494 : 1"
       inkscape:vp_z="0.9999999 : 40.049161 : 1"
       inkscape:vp_y="0 : 1000 : 0"
       inkscape:vp_x="0 : 40.049161 : 1"
       sodipodi:type="inkscape:persp3d" /><inkscape:perspective
       id="perspective2952-4-6"
       inkscape:persp3d-origin="0.49999999 : 39.882494 : 1"
       inkscape:vp_z="0.9999999 : 40.049161 : 1"
       inkscape:vp_y="0 : 1000 : 0"
       inkscape:vp_x="0 : 40.049161 : 1"
       sodipodi:type="inkscape:persp3d" /><inkscape:perspective
       id="perspective2999-0"
       inkscape:persp3d-origin="0.49999999 : 39.882494 : 1"
       inkscape:vp_z="0.9999999 : 40.049161 : 1"
       inkscape:vp_y="0 : 1000 : 0"
       inkscape:vp_x="0 : 40.049161 : 1"
       sodipodi:type="inkscape:persp3d" /><inkscape:perspective
       id="perspective2999-7-6"
       inkscape:persp3d-origin="0.49999999 : 39.882494 : 1"
       inkscape:vp_z="0.9999999 : 40.049161 : 1"
       inkscape:vp_y="0 : 1000 : 0"
       inkscape:vp_x="0 : 40.049161 : 1"
       sodipodi:type="inkscape:persp3d" /><inkscape:perspective
       id="perspective3035-2"
       inkscape:persp3d-origin="0.49999999 : 39.882494 : 1"
       inkscape:vp_z="0.9999999 : 40.049161 : 1"
       inkscape:vp_y="0 : 1000 : 0"
       inkscape:vp_x="0 : 40.049161 : 1"
       sodipodi:type="inkscape:persp3d" /><inkscape:perspective
       id="perspective3060-6"
       inkscape:persp3d-origin="0.49999999 : 39.882494 : 1"
       inkscape:vp_z="0.9999999 : 40.049161 : 1"
       inkscape:vp_y="0 : 1000 : 0"
       inkscape:vp_x="0 : 40.049161 : 1"
       sodipodi:type="inkscape:persp3d" /><inkscape:perspective
       id="perspective4526-1"
       inkscape:persp3d-origin="0.49999999 : 39.882494 : 1"
       inkscape:vp_z="0.9999999 : 40.049161 : 1"
       inkscape:vp_y="0 : 1000 : 0"
       inkscape:vp_x="0 : 40.049161 : 1"
       sodipodi:type="inkscape:persp3d" /><marker
       inkscape:stockid="TriangleOutL"
       orient="auto"
       refY="0"
       refX="0"
       id="TriangleOutL-2-8"
       style="overflow:visible"><path
         id="path4028-7-7"
         d="M 5.77,0 -2.88,5 V -5 Z"
         style="fill-rule:evenodd;stroke:#000000;stroke-width:1pt;marker-start:none"
         transform="scale(0.8)" /></marker><inkscape:perspective
       id="perspective4554-9"
       inkscape:persp3d-origin="0.49999999 : 39.882494 : 1"
       inkscape:vp_z="0.9999999 : 40.049161 : 1"
       inkscape:vp_y="0 : 1000 : 0"
       inkscape:vp_x="0 : 40.049161 : 1"
       sodipodi:type="inkscape:persp3d" /><marker
       inkscape:stockid="TriangleOutL"
       orient="auto"
       refY="0"
       refX="0"
       id="TriangleOutL-0-2"
       style="overflow:visible"><path
         id="path4028-0-0"
         d="M 5.77,0 -2.88,5 V -5 Z"
         style="fill-rule:evenodd;stroke:#000000;stroke-width:1pt;marker-start:none"
         transform="scale(0.8)" /></marker><inkscape:perspective
       id="perspective4596-2"
       inkscape:persp3d-origin="0.49999999 : 39.882494 : 1"
       inkscape:vp_z="0.9999999 : 40.049161 : 1"
       inkscape:vp_y="0 : 1000 : 0"
       inkscape:vp_x="0 : 40.049161 : 1"
       sodipodi:type="inkscape:persp3d" /><inkscape:perspective
       id="perspective4816-3"
       inkscape:persp3d-origin="0.49999999 : 39.882494 : 1"
       inkscape:vp_z="0.9999999 : 40.049161 : 1"
       inkscape:vp_y="0 : 1000 : 0"
       inkscape:vp_x="0 : 40.049161 : 1"
       sodipodi:type="inkscape:persp3d" /><marker
       inkscape:stockid="Arrow2Lend"
       orient="auto"
       refY="0"
       refX="0"
       id="Arrow2Lend-5"
       style="overflow:visible"><path
         id="path3906-9"
         style="font-size:12px;fill-rule:evenodd;stroke-width:0.625;stroke-linejoin:round"
         d="M 8.7185878,4.0337352 -2.2072895,0.01601326 8.7185884,-4.0017078 c -1.7454984,2.3720609 -1.7354408,5.6174519 -6e-7,8.035443 z"
         transform="matrix(-1.1,0,0,-1.1,-1.1,0)" /></marker><marker
       inkscape:stockid="TriangleOutL"
       orient="auto"
       refY="0"
       refX="0"
       id="TriangleOutL-8"
       style="overflow:visible"><path
         id="path4028-9"
         d="M 5.77,0 -2.88,5 V -5 Z"
         style="fill-rule:evenodd;stroke:#000000;stroke-width:1pt;marker-start:none"
         transform="scale(0.8)" /></marker><marker
       inkscape:stockid="Arrow1Lend"
       orient="auto"
       refY="0"
       refX="0"
       id="Arrow1Lend-7"
       style="overflow:visible"><path
         id="path3888-3"
         d="M 0,0 5,-5 -12.5,0 5,5 Z"
         style="fill-rule:evenodd;stroke:#000000;stroke-width:1pt;marker-start:none"
         transform="matrix(-0.8,0,0,-0.8,-10,0)" /></marker><inkscape:perspective
       sodipodi:type="inkscape:persp3d"
       inkscape:vp_x="0 : 75.391229 : 1"
       inkscape:vp_y="0 : 1000 : 0"
       inkscape:vp_z="0.9999999 : 75.391229 : 1"
       inkscape:persp3d-origin="0.49999997 : 75.224562 : 1"
       id="perspective10-6" /><inkscape:perspective
       id="perspective2830-12"
       inkscape:persp3d-origin="0.49999997 : 75.224562 : 1"
       inkscape:vp_z="0.9999999 : 75.391229 : 1"
       inkscape:vp_y="0 : 1000 : 0"
       inkscape:vp_x="0 : 75.391229 : 1"
       sodipodi:type="inkscape:persp3d" /><inkscape:perspective
       id="perspective2855-9"
       inkscape:persp3d-origin="0.49999997 : 75.224562 : 1"
       inkscape:vp_z="0.9999999 : 75.391229 : 1"
       inkscape:vp_y="0 : 1000 : 0"
       inkscape:vp_x="0 : 75.391229 : 1"
       sodipodi:type="inkscape:persp3d" /><inkscape:perspective
       id="perspective2896-3"
       inkscape:persp3d-origin="0.49999997 : 75.224562 : 1"
       inkscape:vp_z="0.9999999 : 75.391229 : 1"
       inkscape:vp_y="0 : 1000 : 0"
       inkscape:vp_x="0 : 75.391229 : 1"
       sodipodi:type="inkscape:persp3d" /><inkscape:perspective
       id="perspective2927-1"
       inkscape:persp3d-origin="0.49999997 : 75.224562 : 1"
       inkscape:vp_z="0.9999999 : 75.391229 : 1"
       inkscape:vp_y="0 : 1000 : 0"
       inkscape:vp_x="0 : 75.391229 : 1"
       sodipodi:type="inkscape:persp3d" /><inkscape:perspective
       id="perspective2952-94"
       inkscape:persp3d-origin="0.49999997 : 75.224562 : 1"
       inkscape:vp_z="0.9999999 : 75.391229 : 1"
       inkscape:vp_y="0 : 1000 : 0"
       inkscape:vp_x="0 : 75.391229 : 1"
       sodipodi:type="inkscape:persp3d" /><inkscape:perspective
       id="perspective2952-5-7"
       inkscape:persp3d-origin="0.49999997 : 75.224562 : 1"
       inkscape:vp_z="0.9999999 : 75.391229 : 1"
       inkscape:vp_y="0 : 1000 : 0"
       inkscape:vp_x="0 : 75.391229 : 1"
       sodipodi:type="inkscape:persp3d" /><inkscape:perspective
       id="perspective2952-4-8"
       inkscape:persp3d-origin="0.49999997 : 75.224562 : 1"
       inkscape:vp_z="0.9999999 : 75.391229 : 1"
       inkscape:vp_y="0 : 1000 : 0"
       inkscape:vp_x="0 : 75.391229 : 1"
       sodipodi:type="inkscape:persp3d" /><inkscape:perspective
       id="perspective2999-4"
       inkscape:persp3d-origin="0.49999997 : 75.224562 : 1"
       inkscape:vp_z="0.9999999 : 75.391229 : 1"
       inkscape:vp_y="0 : 1000 : 0"
       inkscape:vp_x="0 : 75.391229 : 1"
       sodipodi:type="inkscape:persp3d" /><inkscape:perspective
       id="perspective2999-7-5"
       inkscape:persp3d-origin="0.49999997 : 75.224562 : 1"
       inkscape:vp_z="0.9999999 : 75.391229 : 1"
       inkscape:vp_y="0 : 1000 : 0"
       inkscape:vp_x="0 : 75.391229 : 1"
       sodipodi:type="inkscape:persp3d" /><inkscape:perspective
       id="perspective3035-0"
       inkscape:persp3d-origin="0.49999997 : 75.224562 : 1"
       inkscape:vp_z="0.9999999 : 75.391229 : 1"
       inkscape:vp_y="0 : 1000 : 0"
       inkscape:vp_x="0 : 75.391229 : 1"
       sodipodi:type="inkscape:persp3d" /><inkscape:perspective
       id="perspective3060-3"
       inkscape:persp3d-origin="0.49999997 : 75.224562 : 1"
       inkscape:vp_z="0.9999999 : 75.391229 : 1"
       inkscape:vp_y="0 : 1000 : 0"
       inkscape:vp_x="0 : 75.391229 : 1"
       sodipodi:type="inkscape:persp3d" /><inkscape:perspective
       id="perspective4526-6"
       inkscape:persp3d-origin="0.49999997 : 75.224562 : 1"
       inkscape:vp_z="0.9999999 : 75.391229 : 1"
       inkscape:vp_y="0 : 1000 : 0"
       inkscape:vp_x="0 : 75.391229 : 1"
       sodipodi:type="inkscape:persp3d" /><marker
       inkscape:stockid="TriangleOutL"
       orient="auto"
       refY="0"
       refX="0"
       id="TriangleOutL-2-1"
       style="overflow:visible"><path
         id="path4028-7-0"
         d="M 5.77,0 -2.88,5 V -5 Z"
         style="fill-rule:evenodd;stroke:#000000;stroke-width:1pt;marker-start:none"
         transform="scale(0.8)" /></marker><inkscape:perspective
       id="perspective4554-6"
       inkscape:persp3d-origin="0.49999997 : 75.224562 : 1"
       inkscape:vp_z="0.9999999 : 75.391229 : 1"
       inkscape:vp_y="0 : 1000 : 0"
       inkscape:vp_x="0 : 75.391229 : 1"
       sodipodi:type="inkscape:persp3d" /><marker
       inkscape:stockid="TriangleOutL"
       orient="auto"
       refY="0"
       refX="0"
       id="TriangleOutL-0-3"
       style="overflow:visible"><path
         id="path4028-0-2"
         d="M 5.77,0 -2.88,5 V -5 Z"
         style="fill-rule:evenodd;stroke:#000000;stroke-width:1pt;marker-start:none"
         transform="scale(0.8)" /></marker><inkscape:perspective
       id="perspective4596-0"
       inkscape:persp3d-origin="0.49999997 : 75.224562 : 1"
       inkscape:vp_z="0.9999999 : 75.391229 : 1"
       inkscape:vp_y="0 : 1000 : 0"
       inkscape:vp_x="0 : 75.391229 : 1"
       sodipodi:type="inkscape:persp3d" /><inkscape:perspective
       id="perspective4816-6"
       inkscape:persp3d-origin="0.49999997 : 75.224562 : 1"
       inkscape:vp_z="0.9999999 : 75.391229 : 1"
       inkscape:vp_y="0 : 1000 : 0"
       inkscape:vp_x="0 : 75.391229 : 1"
       sodipodi:type="inkscape:persp3d" /></defs><g
     inkscape:label="Layer 1"
     inkscape:groupmode="layer"
     id="layer1"
     transform="translate(73.509277,-33.138942)"><path
       style="fill:#808000;fill-opacity:1;stroke:#ffeeaa;stroke-width:1;stroke-linecap:butt;stroke-linejoin:miter;stroke-miterlimit:4;stroke-dasharray:none;stroke-opacity:1"
       d="m 63.916568,122.29243 c 0,0 21.894338,-8.36801 24.24567,-20.5292 1.624896,-8.404032 2.350866,-15.606268 -10.97249,-36.810962 -17.065241,-27.160066 -39.99925,-21.258908 -46.1798,-18.651392 -6.73649,2.842064 -17.934409,7.128032 -5.89739,32.441722 4.46517,9.39021 5.6687,15.67779 2.83161,19.82129 -13.243637,19.341982 2.87793,40.010312 35.9724,23.728542 z"
       id="path4576"
       sodipodi:nodetypes="csssssc" /><g
       transform="matrix(1.5173378,0,0,1.5173378,31.411558,55.907888)"
       ns1:version="1.10.2"
       ns1:texconverter="pdflatex"
       ns1:pdfconverter="inkscape"
       ns1:text="$\\mathcal{B}$"
       ns1:preamble="/home/eric-neiva/.config/inkscape/extensions/textext/default_packages.tex"
       ns1:scale="20.0"
       ns1:alignment="middle center"
       ns1:stroke-to-path="0"
       ns1:inkscapeversion="1.3.2"
       id="g6906"
       ns1:jacobian_sqrt="7.05556"
       style="fill:#ffeeaa;fill-opacity:1;stroke:#ffeeaa;stroke-opacity:0.4"><defs
   id="id-7321ead1-3f86-4f71-91f9-cb7b2498f27f">
    <g
   id="id-9bc693cc-2a25-4992-818d-6d9a88e15fed">
      <symbol
   overflow="visible"
   id="id-5de672a3-7cd9-4de7-8b14-37098b74abb8">
        <path
   style="stroke:none;stroke-width:0"
   d=""
   id="id-abae6982-7062-4902-b658-f3e878e88119" />
      </symbol>
      <symbol
   overflow="visible"
   id="id-f6fa82b4-a75c-4f0b-be91-c3a67bf72640">
        <path
   style="stroke:none;stroke-width:0"
   d="M 2.796875,-6.765625 C 2.8125,-6.875 2.8125,-6.890625 2.8125,-6.921875 2.8125,-7 2.796875,-7.03125 2.703125,-7.03125 c -0.109375,0 -0.40625,0.15625 -0.609375,0.25 C 1.640625,-6.546875 1.25,-6.359375 1.25,-6.1875 c 0,0.0625 0.078125,0.0625 0.109375,0.0625 0.125,0 0.390625,-0.140625 0.578125,-0.21875 -0.125,0.96875 -0.359375,2.25 -0.546875,3.109375 C 1.03125,-1.546875 0.84375,-0.9375 0.34375,0.03125 0.296875,0.125 0.296875,0.140625 0.296875,0.15625 c 0,0.0625 0.078125,0.0625 0.109375,0.0625 0.15625,0 0.578125,-0.171875 0.734375,-0.453125 0.125,-0.234375 0.5,-0.96875 0.796875,-2.125 0.21875,-0.84375 0.609375,-2.15625 1.3125,-3.1875 0.453125,-0.640625 0.875,-0.9375 1.5,-0.9375 0.546875,0 1.03125,0.34375 1.03125,0.875 0,0.875 -0.953125,1.1875 -1.984375,1.546875 -0.125,0.03125 -0.8125,0.28125 -0.8125,0.53125 0,0.046875 0.078125,0.0625 0.109375,0.0625 0.03125,0 0.265625,-0.046875 0.46875,-0.046875 1.015625,0 1.828125,0.609375 1.828125,1.546875 0,1.234375 -1.046875,1.640625 -1.96875,1.640625 -0.765625,0 -1.125,-0.421875 -1.265625,-0.5625 -0.03125,-0.046875 -0.046875,-0.0625 -0.125,-0.0625 -0.21875,0 -0.71875,0.3125 -0.71875,0.484375 0,0.03125 0.375,0.6875 1.453125,0.6875 1.40625,0 3.46875,-1 3.46875,-2.59375 0,-0.84375 -0.546875,-1.46875 -1.5625,-1.65625 0.796875,-0.34375 1.953125,-1.0625 1.953125,-2 0,-0.578125 -0.46875,-1 -1.21875,-1 -0.328125,0 -1.609375,0.078125 -2.8125,1.578125 z m 0,0"
   id="id-ed7e9381-b1ab-437f-8ef4-80c9c5211991" />
      </symbol>
    </g>
  </defs>
  <g
   id="id-2fe77556-d40f-4e48-b315-0e8d0f569ced"
   transform="translate(-149.009,-127.734)"
   style="fill:#ffeeaa;fill-opacity:1;stroke:#ffeeaa;stroke-opacity:0.4">
    <g
   style="fill:#ffeeaa;fill-opacity:1;stroke:#ffeeaa;stroke-opacity:0.4"
   id="id-87522a0b-3c30-4367-afb8-2ee4be8238d2">
      <g
   transform="translate(148.712,134.765)"
   id="g3020"
   style="fill:#ffeeaa;fill-opacity:1;stroke:#ffeeaa;stroke-opacity:0.4"><path
   style="fill:#ffeeaa;fill-opacity:1;stroke:#ffeeaa;stroke-width:0;stroke-opacity:0.4"
   d="M 2.796875,-6.765625 C 2.8125,-6.875 2.8125,-6.890625 2.8125,-6.921875 2.8125,-7 2.796875,-7.03125 2.703125,-7.03125 c -0.109375,0 -0.40625,0.15625 -0.609375,0.25 C 1.640625,-6.546875 1.25,-6.359375 1.25,-6.1875 c 0,0.0625 0.078125,0.0625 0.109375,0.0625 0.125,0 0.390625,-0.140625 0.578125,-0.21875 -0.125,0.96875 -0.359375,2.25 -0.546875,3.109375 C 1.03125,-1.546875 0.84375,-0.9375 0.34375,0.03125 0.296875,0.125 0.296875,0.140625 0.296875,0.15625 c 0,0.0625 0.078125,0.0625 0.109375,0.0625 0.15625,0 0.578125,-0.171875 0.734375,-0.453125 0.125,-0.234375 0.5,-0.96875 0.796875,-2.125 0.21875,-0.84375 0.609375,-2.15625 1.3125,-3.1875 0.453125,-0.640625 0.875,-0.9375 1.5,-0.9375 0.546875,0 1.03125,0.34375 1.03125,0.875 0,0.875 -0.953125,1.1875 -1.984375,1.546875 -0.125,0.03125 -0.8125,0.28125 -0.8125,0.53125 0,0.046875 0.078125,0.0625 0.109375,0.0625 0.03125,0 0.265625,-0.046875 0.46875,-0.046875 1.015625,0 1.828125,0.609375 1.828125,1.546875 0,1.234375 -1.046875,1.640625 -1.96875,1.640625 -0.765625,0 -1.125,-0.421875 -1.265625,-0.5625 -0.03125,-0.046875 -0.046875,-0.0625 -0.125,-0.0625 -0.21875,0 -0.71875,0.3125 -0.71875,0.484375 0,0.03125 0.375,0.6875 1.453125,0.6875 1.40625,0 3.46875,-1 3.46875,-2.59375 0,-0.84375 -0.546875,-1.46875 -1.5625,-1.65625 0.796875,-0.34375 1.953125,-1.0625 1.953125,-2 0,-0.578125 -0.46875,-1 -1.21875,-1 -0.328125,0 -1.609375,0.078125 -2.8125,1.578125 z m 0,0"
   id="id-d537e376-6f11-4cb2-ab99-891b3ce41678" />
      </g></g>
  </g>
</g><g
       transform="matrix(1.24706,0,0,1.24706,58.487237,92.670963)"
       ns1:version="1.10.2"
       ns1:texconverter="pdflatex"
       ns1:pdfconverter="inkscape"
       ns1:text="$P$"
       ns1:preamble="/home/eric-neiva/.config/inkscape/extensions/textext/default_packages.tex"
       ns1:scale="3.534972583397515"
       ns1:alignment="middle center"
       ns1:stroke-to-path="0"
       ns1:inkscapeversion="1.3.2"
       id="g7612"
       ns1:jacobian_sqrt="1.24706"
       style="fill:#ffeeaa;fill-opacity:1"><defs
   id="id-60472d35-0bb6-428a-a008-68cb30a3dab3">
    <g
   id="id-a11bc910-1e60-4b61-bed1-f2ad3be0343c">
      <symbol
   overflow="visible"
   id="id-2ab1376e-6785-4e98-a307-60fd261e69ef">
        <path
   style="stroke:none;stroke-width:0"
   d=""
   id="id-a319c110-834e-4b3f-99d7-d6c42be37455" />
      </symbol>
      <symbol
   overflow="visible"
   id="id-d762143e-4428-4c01-bd68-d3c488841a69">
        <path
   style="stroke:none;stroke-width:0"
   d="M 3.015625,-3.15625 H 4.71875 c 1.40625,0 2.796875,-1.03125 2.796875,-2.140625 0,-0.78125 -0.65625,-1.515625 -1.96875,-1.515625 h -3.21875 c -0.1875,0 -0.296875,0 -0.296875,0.1875 0,0.125 0.078125,0.125 0.28125,0.125 0.125,0 0.3125,0.015625 0.421875,0.015625 0.171875,0.03125 0.21875,0.046875 0.21875,0.171875 0,0.03125 0,0.0625 -0.03125,0.1875 l -1.34375,5.34375 c -0.09375,0.390625 -0.109375,0.46875 -0.90625,0.46875 -0.15625,0 -0.265625,0 -0.265625,0.1875 C 0.40625,0 0.515625,0 0.546875,0 0.828125,0 1.53125,-0.03125 1.8125,-0.03125 c 0.21875,0 0.4375,0.015625 0.640625,0.015625 0.21875,0 0.4375,0.015625 0.640625,0.015625 0.078125,0 0.203125,0 0.203125,-0.203125 0,-0.109375 -0.09375,-0.109375 -0.28125,-0.109375 -0.359375,0 -0.640625,0 -0.640625,-0.171875 0,-0.0625 0.015625,-0.109375 0.03125,-0.171875 z M 3.734375,-6.125 C 3.828125,-6.46875 3.84375,-6.5 4.28125,-6.5 h 0.953125 c 0.828125,0 1.359375,0.265625 1.359375,0.953125 0,0.390625 -0.203125,1.25 -0.59375,1.609375 -0.5,0.453125 -1.09375,0.53125 -1.53125,0.53125 H 3.0625 Z m 0,0"
   id="id-1f3eb95f-56d2-4e4e-b20b-226ba7420c34" />
      </symbol>
    </g>
  </defs>
  <g
   id="id-944145ee-25e9-48db-9c9e-f3cb9f88fcc0"
   transform="translate(-149.118,-127.953)"
   style="fill:#ffeeaa;fill-opacity:1">
    <g
   style="fill:#ffeeaa;fill-opacity:1"
   id="id-574464ed-81dd-45fa-9912-7734e680a962">
      <g
   transform="translate(148.712,134.765)"
   id="g3537"
   style="fill:#ffeeaa;fill-opacity:1"><path
   style="fill:#ffeeaa;fill-opacity:1;stroke:none;stroke-width:0"
   d="M 3.015625,-3.15625 H 4.71875 c 1.40625,0 2.796875,-1.03125 2.796875,-2.140625 0,-0.78125 -0.65625,-1.515625 -1.96875,-1.515625 h -3.21875 c -0.1875,0 -0.296875,0 -0.296875,0.1875 0,0.125 0.078125,0.125 0.28125,0.125 0.125,0 0.3125,0.015625 0.421875,0.015625 0.171875,0.03125 0.21875,0.046875 0.21875,0.171875 0,0.03125 0,0.0625 -0.03125,0.1875 l -1.34375,5.34375 c -0.09375,0.390625 -0.109375,0.46875 -0.90625,0.46875 -0.15625,0 -0.265625,0 -0.265625,0.1875 C 0.40625,0 0.515625,0 0.546875,0 0.828125,0 1.53125,-0.03125 1.8125,-0.03125 c 0.21875,0 0.4375,0.015625 0.640625,0.015625 0.21875,0 0.4375,0.015625 0.640625,0.015625 0.078125,0 0.203125,0 0.203125,-0.203125 0,-0.109375 -0.09375,-0.109375 -0.28125,-0.109375 -0.359375,0 -0.640625,0 -0.640625,-0.171875 0,-0.0625 0.015625,-0.109375 0.03125,-0.171875 z M 3.734375,-6.125 C 3.828125,-6.46875 3.84375,-6.5 4.28125,-6.5 h 0.953125 c 0.828125,0 1.359375,0.265625 1.359375,0.953125 0,0.390625 -0.203125,1.25 -0.59375,1.609375 -0.5,0.453125 -1.09375,0.53125 -1.53125,0.53125 H 3.0625 Z m 0,0"
   id="id-36dd6d29-562a-4269-af38-497b116ef2bc" />
      </g></g>
  </g>
</g><circle
       style="fill:#ffeeaa;fill-opacity:1;stroke:none;stroke-width:0.499999;stroke-linecap:square;stroke-linejoin:miter;stroke-dasharray:3, 3;stroke-dashoffset:0;stroke-opacity:1"
       id="path80"
       cx="67.95578"
       cy="103.02348"
       r="2.0496714" /><g
       style="font-style:italic;font-variant:normal;font-weight:normal;font-stretch:normal;font-size:56px;line-height:125%;font-family:times;-inkscape-font-specification:'Andale Mono Italic';fill:#000000;fill-opacity:1;stroke:none"
       id="text2818"
       transform="matrix(0.26458333,0,0,0.26458333,80.639642,75.836242)" /><path
       style="fill:none;stroke:#ffeeaa;stroke-width:1.5;stroke-linecap:butt;stroke-linejoin:miter;stroke-miterlimit:4;stroke-dasharray:none;stroke-opacity:1;marker-end:url(#marker81)"
       d="m -21.911229,143.11997 0.473866,-87.189157"
       id="path3108" /><path
       style="fill:none;stroke:#ffeeaa;stroke-width:1.5;stroke-linecap:butt;stroke-linejoin:miter;stroke-miterlimit:4;stroke-dasharray:none;stroke-opacity:1;marker-end:url(#Triangle)"
       d="m -21.911229,143.11997 105.041225,0.47935"
       id="path3108-5" /><path
       style="fill:none;stroke:#ffeeaa;stroke-width:1.5;stroke-linecap:butt;stroke-linejoin:miter;stroke-miterlimit:4;stroke-dasharray:none;stroke-opacity:1;marker-end:url(#marker82)"
       d="m -21.911229,143.11997 -47.502046,39.49099"
       id="path3108-5-7" /><g
       transform="matrix(1.3894677,0,0,1.3894677,-60.99657,183.68204)"
       ns1:version="1.10.2"
       ns1:texconverter="pdflatex"
       ns1:pdfconverter="inkscape"
       ns1:text="$x_1,x$"
       ns1:preamble="/home/eric-neiva/.config/inkscape/extensions/textext/default_packages.tex"
       ns1:scale="3.534972583397515"
       ns1:alignment="middle center"
       ns1:stroke-to-path="0"
       ns1:inkscapeversion="1.3.2"
       id="g5621"
       ns1:jacobian_sqrt="1.24706"
       style="fill:#ffeeaa;fill-opacity:1"><defs
   id="id-c36aa005-7657-4fb8-a62d-290a20da6cec">
    <g
   id="id-30f2b5b8-5637-480b-9125-05cf12163000">
      <symbol
   overflow="visible"
   id="id-8fc9963b-ebc0-4303-825f-ced9347a4feb">
        <path
   style="stroke:none;stroke-width:0"
   d=""
   id="id-bac43dde-e728-465f-bf79-cdba3e728914" />
      </symbol>
      <symbol
   overflow="visible"
   id="id-558d9ddd-1435-4ff9-a083-dc276cce3942">
        <path
   style="stroke:none;stroke-width:0"
   d="M 3.328125,-3.015625 C 3.390625,-3.265625 3.625,-4.1875 4.3125,-4.1875 c 0.046875,0 0.296875,0 0.5,0.125 C 4.53125,-4 4.34375,-3.765625 4.34375,-3.515625 c 0,0.15625 0.109375,0.34375 0.375,0.34375 0.21875,0 0.53125,-0.171875 0.53125,-0.578125 0,-0.515625 -0.578125,-0.65625 -0.921875,-0.65625 -0.578125,0 -0.921875,0.53125 -1.046875,0.75 -0.25,-0.65625 -0.78125,-0.75 -1.078125,-0.75 -1.03125,0 -1.609375,1.28125 -1.609375,1.53125 0,0.109375 0.109375,0.109375 0.125,0.109375 0.078125,0 0.109375,-0.03125 0.125,-0.109375 0.34375,-1.0625 1,-1.3125 1.34375,-1.3125 0.1875,0 0.53125,0.09375 0.53125,0.671875 0,0.3125 -0.171875,0.96875 -0.53125,2.375 -0.15625,0.609375 -0.515625,1.03125 -0.953125,1.03125 -0.0625,0 -0.28125,0 -0.5,-0.125 0.25,-0.0625 0.46875,-0.265625 0.46875,-0.546875 0,-0.265625 -0.21875,-0.34375 -0.359375,-0.34375 -0.3125,0 -0.546875,0.25 -0.546875,0.578125 0,0.453125 0.484375,0.65625 0.921875,0.65625 0.671875,0 1.03125,-0.703125 1.046875,-0.75 0.125,0.359375 0.484375,0.75 1.078125,0.75 1.03125,0 1.59375,-1.28125 1.59375,-1.53125 0,-0.109375 -0.078125,-0.109375 -0.109375,-0.109375 -0.09375,0 -0.109375,0.046875 -0.140625,0.109375 -0.328125,1.078125 -1,1.3125 -1.3125,1.3125 -0.390625,0 -0.546875,-0.3125 -0.546875,-0.65625 0,-0.21875 0.046875,-0.4375 0.15625,-0.875 z m 0,0"
   id="id-e281c384-f0ca-4e31-a795-e714438065cb" />
      </symbol>
      <symbol
   overflow="visible"
   id="id-589cd4d7-6fce-4072-98be-e5c27e351da9">
        <path
   style="stroke:none;stroke-width:0"
   d="m 2.03125,-0.015625 c 0,-0.65625 -0.25,-1.046875 -0.640625,-1.046875 -0.328125,0 -0.53125,0.25 -0.53125,0.53125 C 0.859375,-0.265625 1.0625,0 1.390625,0 1.5,0 1.640625,-0.046875 1.734375,-0.125 1.765625,-0.15625 1.78125,-0.15625 1.78125,-0.15625 c 0.015625,0 0.015625,0 0.015625,0.140625 0,0.75 -0.34375,1.34375 -0.671875,1.671875 -0.109375,0.109375 -0.109375,0.125 -0.109375,0.15625 0,0.078125 0.046875,0.109375 0.09375,0.109375 0.109375,0 0.921875,-0.765625 0.921875,-1.9375 z m 0,0"
   id="id-91069e43-46cb-4c38-85e1-4924c59dfafb" />
      </symbol>
      <symbol
   overflow="visible"
   id="id-ba1b8f90-3712-4682-b674-7919d15654a0">
        <path
   style="stroke:none;stroke-width:0"
   d=""
   id="id-c3781101-c2d0-4d5d-830e-81ab9a00aa52" />
      </symbol>
      <symbol
   overflow="visible"
   id="id-582735b7-f979-4633-82d9-0c920b62e41d">
        <path
   style="stroke:none;stroke-width:0"
   d="m 2.328125,-4.4375 c 0,-0.1875 0,-0.1875 -0.203125,-0.1875 -0.453125,0.4375 -1.078125,0.4375 -1.359375,0.4375 v 0.25 c 0.15625,0 0.625,0 1,-0.1875 v 3.546875 c 0,0.234375 0,0.328125 -0.6875,0.328125 H 0.8125 V 0 c 0.125,0 0.984375,-0.03125 1.234375,-0.03125 0.21875,0 1.09375,0.03125 1.25,0.03125 V -0.25 H 3.03125 c -0.703125,0 -0.703125,-0.09375 -0.703125,-0.328125 z m 0,0"
   id="id-04c9b7db-9aa4-421a-b6a8-4e9d457748f5" />
      </symbol>
    </g>
  </defs>
  <g
   id="id-0d54554c-a69d-4952-a508-e5903fc009df"
   transform="translate(-149.009,-130.359)"
   style="fill:#ffeeaa;fill-opacity:1">
    <g
   style="fill:#ffeeaa;fill-opacity:1"
   id="id-632e74d5-ceb5-4ada-a841-c847d7d29aa3">
      <g
   transform="translate(148.712,134.765)"
   id="g6597"
   style="fill:#ffeeaa;fill-opacity:1"><path
   style="fill:#ffeeaa;fill-opacity:1;stroke:none;stroke-width:0"
   d="M 3.328125,-3.015625 C 3.390625,-3.265625 3.625,-4.1875 4.3125,-4.1875 c 0.046875,0 0.296875,0 0.5,0.125 C 4.53125,-4 4.34375,-3.765625 4.34375,-3.515625 c 0,0.15625 0.109375,0.34375 0.375,0.34375 0.21875,0 0.53125,-0.171875 0.53125,-0.578125 0,-0.515625 -0.578125,-0.65625 -0.921875,-0.65625 -0.578125,0 -0.921875,0.53125 -1.046875,0.75 -0.25,-0.65625 -0.78125,-0.75 -1.078125,-0.75 -1.03125,0 -1.609375,1.28125 -1.609375,1.53125 0,0.109375 0.109375,0.109375 0.125,0.109375 0.078125,0 0.109375,-0.03125 0.125,-0.109375 0.34375,-1.0625 1,-1.3125 1.34375,-1.3125 0.1875,0 0.53125,0.09375 0.53125,0.671875 0,0.3125 -0.171875,0.96875 -0.53125,2.375 -0.15625,0.609375 -0.515625,1.03125 -0.953125,1.03125 -0.0625,0 -0.28125,0 -0.5,-0.125 0.25,-0.0625 0.46875,-0.265625 0.46875,-0.546875 0,-0.265625 -0.21875,-0.34375 -0.359375,-0.34375 -0.3125,0 -0.546875,0.25 -0.546875,0.578125 0,0.453125 0.484375,0.65625 0.921875,0.65625 0.671875,0 1.03125,-0.703125 1.046875,-0.75 0.125,0.359375 0.484375,0.75 1.078125,0.75 1.03125,0 1.59375,-1.28125 1.59375,-1.53125 0,-0.109375 -0.078125,-0.109375 -0.109375,-0.109375 -0.09375,0 -0.109375,0.046875 -0.140625,0.109375 -0.328125,1.078125 -1,1.3125 -1.3125,1.3125 -0.390625,0 -0.546875,-0.3125 -0.546875,-0.65625 0,-0.21875 0.046875,-0.4375 0.15625,-0.875 z m 0,0"
   id="id-091eedfd-d626-4e69-b83e-f4c68964dc48" />
      </g></g>
    <g
   style="fill:#ffeeaa;fill-opacity:1"
   id="id-67984b64-a232-4ca9-9947-68a6cf1f7b67">
      <g
   transform="translate(154.406,136.259)"
   id="g2919"
   style="fill:#ffeeaa;fill-opacity:1"><path
   style="fill:#ffeeaa;fill-opacity:1;stroke:none;stroke-width:0"
   d="m 2.328125,-4.4375 c 0,-0.1875 0,-0.1875 -0.203125,-0.1875 -0.453125,0.4375 -1.078125,0.4375 -1.359375,0.4375 v 0.25 c 0.15625,0 0.625,0 1,-0.1875 v 3.546875 c 0,0.234375 0,0.328125 -0.6875,0.328125 H 0.8125 V 0 c 0.125,0 0.984375,-0.03125 1.234375,-0.03125 0.21875,0 1.09375,0.03125 1.25,0.03125 V -0.25 H 3.03125 c -0.703125,0 -0.703125,-0.09375 -0.703125,-0.328125 z m 0,0"
   id="id-86886924-b664-40f5-b1e0-7bf19aa4ba0d" />
      </g></g>
    <g
   style="fill:#ffeeaa;fill-opacity:1"
   id="id-ab9ba31b-54b9-40ac-bde3-5380c007aa14">
      <g
   transform="translate(158.876,134.765)"
   id="g7461"
   style="fill:#ffeeaa;fill-opacity:1"><path
   style="fill:#ffeeaa;fill-opacity:1;stroke:none;stroke-width:0"
   d="m 2.03125,-0.015625 c 0,-0.65625 -0.25,-1.046875 -0.640625,-1.046875 -0.328125,0 -0.53125,0.25 -0.53125,0.53125 C 0.859375,-0.265625 1.0625,0 1.390625,0 1.5,0 1.640625,-0.046875 1.734375,-0.125 1.765625,-0.15625 1.78125,-0.15625 1.78125,-0.15625 c 0.015625,0 0.015625,0 0.015625,0.140625 0,0.75 -0.34375,1.34375 -0.671875,1.671875 -0.109375,0.109375 -0.109375,0.125 -0.109375,0.15625 0,0.078125 0.046875,0.109375 0.09375,0.109375 0.109375,0 0.921875,-0.765625 0.921875,-1.9375 z m 0,0"
   id="id-966223c8-d54a-4bb6-aedb-4c9059e1f335" />
      </g></g>
    <g
   style="fill:#ffeeaa;fill-opacity:1"
   id="id-6cddad2b-c7d4-4321-9873-6b5052931d76">
      <g
   transform="translate(163.307,134.765)"
   id="g4870"
   style="fill:#ffeeaa;fill-opacity:1"><path
   style="fill:#ffeeaa;fill-opacity:1;stroke:none;stroke-width:0"
   d="M 3.328125,-3.015625 C 3.390625,-3.265625 3.625,-4.1875 4.3125,-4.1875 c 0.046875,0 0.296875,0 0.5,0.125 C 4.53125,-4 4.34375,-3.765625 4.34375,-3.515625 c 0,0.15625 0.109375,0.34375 0.375,0.34375 0.21875,0 0.53125,-0.171875 0.53125,-0.578125 0,-0.515625 -0.578125,-0.65625 -0.921875,-0.65625 -0.578125,0 -0.921875,0.53125 -1.046875,0.75 -0.25,-0.65625 -0.78125,-0.75 -1.078125,-0.75 -1.03125,0 -1.609375,1.28125 -1.609375,1.53125 0,0.109375 0.109375,0.109375 0.125,0.109375 0.078125,0 0.109375,-0.03125 0.125,-0.109375 0.34375,-1.0625 1,-1.3125 1.34375,-1.3125 0.1875,0 0.53125,0.09375 0.53125,0.671875 0,0.3125 -0.171875,0.96875 -0.53125,2.375 -0.15625,0.609375 -0.515625,1.03125 -0.953125,1.03125 -0.0625,0 -0.28125,0 -0.5,-0.125 0.25,-0.0625 0.46875,-0.265625 0.46875,-0.546875 0,-0.265625 -0.21875,-0.34375 -0.359375,-0.34375 -0.3125,0 -0.546875,0.25 -0.546875,0.578125 0,0.453125 0.484375,0.65625 0.921875,0.65625 0.671875,0 1.03125,-0.703125 1.046875,-0.75 0.125,0.359375 0.484375,0.75 1.078125,0.75 1.03125,0 1.59375,-1.28125 1.59375,-1.53125 0,-0.109375 -0.078125,-0.109375 -0.109375,-0.109375 -0.09375,0 -0.109375,0.046875 -0.140625,0.109375 -0.328125,1.078125 -1,1.3125 -1.3125,1.3125 -0.390625,0 -0.546875,-0.3125 -0.546875,-0.65625 0,-0.21875 0.046875,-0.4375 0.15625,-0.875 z m 0,0"
   id="id-098b1394-4a59-47d9-96fb-6478398bc91d" />
      </g></g>
  </g>
</g><g
       transform="matrix(1.3894677,0,0,1.3894677,68.041756,150.36681)"
       ns1:version="1.10.2"
       ns1:texconverter="pdflatex"
       ns1:pdfconverter="inkscape"
       ns1:text="$x_2,y$"
       ns1:preamble="/home/eric-neiva/.config/inkscape/extensions/textext/default_packages.tex"
       ns1:scale="3.534972583397515"
       ns1:alignment="middle center"
       ns1:stroke-to-path="0"
       ns1:inkscapeversion="1.3.2"
       id="g97"
       ns1:jacobian_sqrt="1.24706"
       style="fill:#ffeeaa;fill-opacity:1"><defs
   id="id-3efb7af9-75ac-4908-b4b1-56648861d796">
    <g
   id="id-62a8ee55-441f-43eb-a688-d5d8419811ae">
      <symbol
   overflow="visible"
   id="id-f297f8d2-e14e-4c6e-948c-52b62ce51697">
        <path
   style="stroke:none"
   d=""
   id="id-e4c4ee2c-7538-4e4c-8b8c-b47f357c9837" />
      </symbol>
      <symbol
   overflow="visible"
   id="id-196d8ec5-c7f5-4b4c-b085-757aacd6d323">
        <path
   style="stroke:none"
   d="M 3.328125,-3.015625 C 3.390625,-3.265625 3.625,-4.1875 4.3125,-4.1875 c 0.046875,0 0.296875,0 0.5,0.125 C 4.53125,-4 4.34375,-3.765625 4.34375,-3.515625 c 0,0.15625 0.109375,0.34375 0.375,0.34375 0.21875,0 0.53125,-0.171875 0.53125,-0.578125 0,-0.515625 -0.578125,-0.65625 -0.921875,-0.65625 -0.578125,0 -0.921875,0.53125 -1.046875,0.75 -0.25,-0.65625 -0.78125,-0.75 -1.078125,-0.75 -1.03125,0 -1.609375,1.28125 -1.609375,1.53125 0,0.109375 0.109375,0.109375 0.125,0.109375 0.078125,0 0.109375,-0.03125 0.125,-0.109375 0.34375,-1.0625 1,-1.3125 1.34375,-1.3125 0.1875,0 0.53125,0.09375 0.53125,0.671875 0,0.3125 -0.171875,0.96875 -0.53125,2.375 -0.15625,0.609375 -0.515625,1.03125 -0.953125,1.03125 -0.0625,0 -0.28125,0 -0.5,-0.125 0.25,-0.0625 0.46875,-0.265625 0.46875,-0.546875 0,-0.265625 -0.21875,-0.34375 -0.359375,-0.34375 -0.3125,0 -0.546875,0.25 -0.546875,0.578125 0,0.453125 0.484375,0.65625 0.921875,0.65625 0.671875,0 1.03125,-0.703125 1.046875,-0.75 0.125,0.359375 0.484375,0.75 1.078125,0.75 1.03125,0 1.59375,-1.28125 1.59375,-1.53125 0,-0.109375 -0.078125,-0.109375 -0.109375,-0.109375 -0.09375,0 -0.109375,0.046875 -0.140625,0.109375 -0.328125,1.078125 -1,1.3125 -1.3125,1.3125 -0.390625,0 -0.546875,-0.3125 -0.546875,-0.65625 0,-0.21875 0.046875,-0.4375 0.15625,-0.875 z m 0,0"
   id="id-08b50680-9b42-4c76-8fc1-c868e6d0db25" />
      </symbol>
      <symbol
   overflow="visible"
   id="id-a3f45254-532f-415f-9064-0013082fbb92">
        <path
   style="stroke:none"
   d="m 2.03125,-0.015625 c 0,-0.65625 -0.25,-1.046875 -0.640625,-1.046875 -0.328125,0 -0.53125,0.25 -0.53125,0.53125 C 0.859375,-0.265625 1.0625,0 1.390625,0 1.5,0 1.640625,-0.046875 1.734375,-0.125 1.765625,-0.15625 1.78125,-0.15625 1.78125,-0.15625 c 0.015625,0 0.015625,0 0.015625,0.140625 0,0.75 -0.34375,1.34375 -0.671875,1.671875 -0.109375,0.109375 -0.109375,0.125 -0.109375,0.15625 0,0.078125 0.046875,0.109375 0.09375,0.109375 0.109375,0 0.921875,-0.765625 0.921875,-1.9375 z m 0,0"
   id="id-fcc5cc51-2c13-419a-acd4-b84eb8687769" />
      </symbol>
      <symbol
   overflow="visible"
   id="id-c7d870da-2dc4-45dd-9081-c1f5d334ddbf">
        <path
   style="stroke:none"
   d="m 4.84375,-3.796875 c 0.046875,-0.140625 0.046875,-0.15625 0.046875,-0.234375 0,-0.171875 -0.140625,-0.265625 -0.296875,-0.265625 -0.09375,0 -0.25,0.0625 -0.34375,0.203125 -0.015625,0.0625 -0.109375,0.359375 -0.140625,0.546875 -0.078125,0.25 -0.140625,0.53125 -0.203125,0.796875 l -0.453125,1.796875 c -0.03125,0.140625 -0.46875,0.84375 -1.125,0.84375 -0.5,0 -0.609375,-0.4375 -0.609375,-0.8125 C 1.71875,-1.375 1.890625,-2 2.21875,-2.875 2.375,-3.28125 2.421875,-3.390625 2.421875,-3.59375 c 0,-0.4375 -0.3125,-0.8125 -0.8125,-0.8125 -0.953125,0 -1.3125,1.453125 -1.3125,1.53125 0,0.109375 0.09375,0.109375 0.109375,0.109375 0.109375,0 0.109375,-0.03125 0.15625,-0.1875 0.28125,-0.9375 0.671875,-1.234375 1.015625,-1.234375 0.078125,0 0.25,0 0.25,0.3125 0,0.25 -0.109375,0.515625 -0.171875,0.703125 -0.40625,1.0625 -0.578125,1.625 -0.578125,2.09375 0,0.890625 0.625,1.1875 1.21875,1.1875 0.390625,0 0.71875,-0.171875 1,-0.453125 -0.125,0.515625 -0.25,1.015625 -0.640625,1.546875 -0.265625,0.328125 -0.640625,0.625 -1.09375,0.625 -0.140625,0 -0.59375,-0.03125 -0.765625,-0.421875 0.15625,0 0.296875,0 0.421875,-0.125 C 1.328125,1.203125 1.421875,1.0625 1.421875,0.875 1.421875,0.5625 1.15625,0.53125 1.0625,0.53125 0.828125,0.53125 0.5,0.6875 0.5,1.171875 c 0,0.5 0.4375,0.875 1.0625,0.875 1.015625,0 2.046875,-0.90625 2.328125,-2.03125 z m 0,0"
   id="id-033e58ae-17f0-4023-8dfd-4b18129e906d" />
      </symbol>
      <symbol
   overflow="visible"
   id="id-ea362bb1-29e7-4e0d-9909-b81a75d96792">
        <path
   style="stroke:none"
   d=""
   id="id-b4a4d593-0585-40f1-9cbc-322995c3f672" />
      </symbol>
      <symbol
   overflow="visible"
   id="id-32f7a1cc-9cc7-49be-bb2d-023fad23226a">
        <path
   style="stroke:none"
   d="M 3.515625,-1.265625 H 3.28125 c -0.015625,0.15625 -0.09375,0.5625 -0.1875,0.625 C 3.046875,-0.59375 2.515625,-0.59375 2.40625,-0.59375 H 1.125 c 0.734375,-0.640625 0.984375,-0.84375 1.390625,-1.171875 0.515625,-0.40625 1,-0.84375 1,-1.5 0,-0.84375 -0.734375,-1.359375 -1.625,-1.359375 -0.859375,0 -1.453125,0.609375 -1.453125,1.25 0,0.34375 0.296875,0.390625 0.375,0.390625 0.15625,0 0.359375,-0.125 0.359375,-0.375 0,-0.125 -0.046875,-0.375 -0.40625,-0.375 C 0.984375,-4.21875 1.453125,-4.375 1.78125,-4.375 c 0.703125,0 1.0625,0.546875 1.0625,1.109375 0,0.609375 -0.4375,1.078125 -0.65625,1.328125 L 0.515625,-0.265625 C 0.4375,-0.203125 0.4375,-0.1875 0.4375,0 h 2.875 z m 0,0"
   id="id-34d406a5-4b75-43e3-b22d-15f1f9aea841" />
      </symbol>
    </g>
  </defs>
  <g
   id="id-63e3610c-abf5-4422-b6d6-a6296671793e"
   transform="translate(-149.009,-130.359)"
   style="fill:#ffeeaa;fill-opacity:1">
    <g
   style="fill:#ffeeaa;fill-opacity:1"
   id="id-749e3c5f-e7f8-4e00-b5cc-675a1f97a592">
      <g
   transform="translate(148.712,134.765)"
   id="g3083"
   style="fill:#ffeeaa;fill-opacity:1"><path
   style="fill:#ffeeaa;fill-opacity:1;stroke:none"
   d="M 3.328125,-3.015625 C 3.390625,-3.265625 3.625,-4.1875 4.3125,-4.1875 c 0.046875,0 0.296875,0 0.5,0.125 C 4.53125,-4 4.34375,-3.765625 4.34375,-3.515625 c 0,0.15625 0.109375,0.34375 0.375,0.34375 0.21875,0 0.53125,-0.171875 0.53125,-0.578125 0,-0.515625 -0.578125,-0.65625 -0.921875,-0.65625 -0.578125,0 -0.921875,0.53125 -1.046875,0.75 -0.25,-0.65625 -0.78125,-0.75 -1.078125,-0.75 -1.03125,0 -1.609375,1.28125 -1.609375,1.53125 0,0.109375 0.109375,0.109375 0.125,0.109375 0.078125,0 0.109375,-0.03125 0.125,-0.109375 0.34375,-1.0625 1,-1.3125 1.34375,-1.3125 0.1875,0 0.53125,0.09375 0.53125,0.671875 0,0.3125 -0.171875,0.96875 -0.53125,2.375 -0.15625,0.609375 -0.515625,1.03125 -0.953125,1.03125 -0.0625,0 -0.28125,0 -0.5,-0.125 0.25,-0.0625 0.46875,-0.265625 0.46875,-0.546875 0,-0.265625 -0.21875,-0.34375 -0.359375,-0.34375 -0.3125,0 -0.546875,0.25 -0.546875,0.578125 0,0.453125 0.484375,0.65625 0.921875,0.65625 0.671875,0 1.03125,-0.703125 1.046875,-0.75 0.125,0.359375 0.484375,0.75 1.078125,0.75 1.03125,0 1.59375,-1.28125 1.59375,-1.53125 0,-0.109375 -0.078125,-0.109375 -0.109375,-0.109375 -0.09375,0 -0.109375,0.046875 -0.140625,0.109375 -0.328125,1.078125 -1,1.3125 -1.3125,1.3125 -0.390625,0 -0.546875,-0.3125 -0.546875,-0.65625 0,-0.21875 0.046875,-0.4375 0.15625,-0.875 z m 0,0"
   id="id-ea8c1724-25d1-40d1-b7f0-fb287fbf6b9f" />
      </g></g>
    <g
   style="fill:#ffeeaa;fill-opacity:1"
   id="id-60d0a71a-d8b5-4b54-b6d2-d7b8ade43f93">
      <g
   transform="translate(154.406,136.259)"
   id="g1271"
   style="fill:#ffeeaa;fill-opacity:1"><path
   style="fill:#ffeeaa;fill-opacity:1;stroke:none"
   d="M 3.515625,-1.265625 H 3.28125 c -0.015625,0.15625 -0.09375,0.5625 -0.1875,0.625 C 3.046875,-0.59375 2.515625,-0.59375 2.40625,-0.59375 H 1.125 c 0.734375,-0.640625 0.984375,-0.84375 1.390625,-1.171875 0.515625,-0.40625 1,-0.84375 1,-1.5 0,-0.84375 -0.734375,-1.359375 -1.625,-1.359375 -0.859375,0 -1.453125,0.609375 -1.453125,1.25 0,0.34375 0.296875,0.390625 0.375,0.390625 0.15625,0 0.359375,-0.125 0.359375,-0.375 0,-0.125 -0.046875,-0.375 -0.40625,-0.375 C 0.984375,-4.21875 1.453125,-4.375 1.78125,-4.375 c 0.703125,0 1.0625,0.546875 1.0625,1.109375 0,0.609375 -0.4375,1.078125 -0.65625,1.328125 L 0.515625,-0.265625 C 0.4375,-0.203125 0.4375,-0.1875 0.4375,0 h 2.875 z m 0,0"
   id="id-f9c8eae0-efa4-41e1-b1aa-30482f8dea76" />
      </g></g>
    <g
   style="fill:#ffeeaa;fill-opacity:1"
   id="id-40f6e9bc-c513-4c54-9cb9-56db18c901bd">
      <g
   transform="translate(158.876,134.765)"
   id="g1395"
   style="fill:#ffeeaa;fill-opacity:1"><path
   style="fill:#ffeeaa;fill-opacity:1;stroke:none"
   d="m 2.03125,-0.015625 c 0,-0.65625 -0.25,-1.046875 -0.640625,-1.046875 -0.328125,0 -0.53125,0.25 -0.53125,0.53125 C 0.859375,-0.265625 1.0625,0 1.390625,0 1.5,0 1.640625,-0.046875 1.734375,-0.125 1.765625,-0.15625 1.78125,-0.15625 1.78125,-0.15625 c 0.015625,0 0.015625,0 0.015625,0.140625 0,0.75 -0.34375,1.34375 -0.671875,1.671875 -0.109375,0.109375 -0.109375,0.125 -0.109375,0.15625 0,0.078125 0.046875,0.109375 0.09375,0.109375 0.109375,0 0.921875,-0.765625 0.921875,-1.9375 z m 0,0"
   id="id-82c96a45-19d7-4572-bfa3-5731860daf09" />
      </g></g>
    <g
   style="fill:#ffeeaa;fill-opacity:1"
   id="id-ffea243d-6240-42ce-b28b-dde7bf87490f">
      <g
   transform="translate(163.307,134.765)"
   id="g4154"
   style="fill:#ffeeaa;fill-opacity:1"><path
   style="fill:#ffeeaa;fill-opacity:1;stroke:none"
   d="m 4.84375,-3.796875 c 0.046875,-0.140625 0.046875,-0.15625 0.046875,-0.234375 0,-0.171875 -0.140625,-0.265625 -0.296875,-0.265625 -0.09375,0 -0.25,0.0625 -0.34375,0.203125 -0.015625,0.0625 -0.109375,0.359375 -0.140625,0.546875 -0.078125,0.25 -0.140625,0.53125 -0.203125,0.796875 l -0.453125,1.796875 c -0.03125,0.140625 -0.46875,0.84375 -1.125,0.84375 -0.5,0 -0.609375,-0.4375 -0.609375,-0.8125 C 1.71875,-1.375 1.890625,-2 2.21875,-2.875 2.375,-3.28125 2.421875,-3.390625 2.421875,-3.59375 c 0,-0.4375 -0.3125,-0.8125 -0.8125,-0.8125 -0.953125,0 -1.3125,1.453125 -1.3125,1.53125 0,0.109375 0.09375,0.109375 0.109375,0.109375 0.109375,0 0.109375,-0.03125 0.15625,-0.1875 0.28125,-0.9375 0.671875,-1.234375 1.015625,-1.234375 0.078125,0 0.25,0 0.25,0.3125 0,0.25 -0.109375,0.515625 -0.171875,0.703125 -0.40625,1.0625 -0.578125,1.625 -0.578125,2.09375 0,0.890625 0.625,1.1875 1.21875,1.1875 0.390625,0 0.71875,-0.171875 1,-0.453125 -0.125,0.515625 -0.25,1.015625 -0.640625,1.546875 -0.265625,0.328125 -0.640625,0.625 -1.09375,0.625 -0.140625,0 -0.59375,-0.03125 -0.765625,-0.421875 0.15625,0 0.296875,0 0.421875,-0.125 C 1.328125,1.203125 1.421875,1.0625 1.421875,0.875 1.421875,0.5625 1.15625,0.53125 1.0625,0.53125 0.828125,0.53125 0.5,0.6875 0.5,1.171875 c 0,0.5 0.4375,0.875 1.0625,0.875 1.015625,0 2.046875,-0.90625 2.328125,-2.03125 z m 0,0"
   id="id-ebb724d7-a8c3-43a0-80c2-e4e5c75141e0" />
      </g></g>
  </g>
</g><g
       transform="matrix(1.3894677,0,0,1.3894677,-51.561719,43.300382)"
       ns1:version="1.10.2"
       ns1:texconverter="pdflatex"
       ns1:pdfconverter="inkscape"
       ns1:text="$x_3,z$"
       ns1:preamble="/home/eric-neiva/.config/inkscape/extensions/textext/default_packages.tex"
       ns1:scale="3.534972583397515"
       ns1:alignment="middle center"
       ns1:stroke-to-path="0"
       ns1:inkscapeversion="1.3.2"
       id="g111"
       ns1:jacobian_sqrt="1.24706"
       style="fill:#ffeeaa;fill-opacity:1"><defs
   id="id-3ce942c8-d82b-4de8-9d64-c3007515733d">
    <g
   id="id-75c21a2e-3ec7-4208-9dc3-f6f993474618">
      <symbol
   overflow="visible"
   id="id-4ac6da80-91fd-4ee9-9107-d7aebb297b03">
        <path
   style="stroke:none"
   d=""
   id="id-3fabf2cd-5aa2-42fd-9a02-86a218079751" />
      </symbol>
      <symbol
   overflow="visible"
   id="id-166e568f-fdc1-460c-b8c9-0909df28b75f">
        <path
   style="stroke:none"
   d="M 3.328125,-3.015625 C 3.390625,-3.265625 3.625,-4.1875 4.3125,-4.1875 c 0.046875,0 0.296875,0 0.5,0.125 C 4.53125,-4 4.34375,-3.765625 4.34375,-3.515625 c 0,0.15625 0.109375,0.34375 0.375,0.34375 0.21875,0 0.53125,-0.171875 0.53125,-0.578125 0,-0.515625 -0.578125,-0.65625 -0.921875,-0.65625 -0.578125,0 -0.921875,0.53125 -1.046875,0.75 -0.25,-0.65625 -0.78125,-0.75 -1.078125,-0.75 -1.03125,0 -1.609375,1.28125 -1.609375,1.53125 0,0.109375 0.109375,0.109375 0.125,0.109375 0.078125,0 0.109375,-0.03125 0.125,-0.109375 0.34375,-1.0625 1,-1.3125 1.34375,-1.3125 0.1875,0 0.53125,0.09375 0.53125,0.671875 0,0.3125 -0.171875,0.96875 -0.53125,2.375 -0.15625,0.609375 -0.515625,1.03125 -0.953125,1.03125 -0.0625,0 -0.28125,0 -0.5,-0.125 0.25,-0.0625 0.46875,-0.265625 0.46875,-0.546875 0,-0.265625 -0.21875,-0.34375 -0.359375,-0.34375 -0.3125,0 -0.546875,0.25 -0.546875,0.578125 0,0.453125 0.484375,0.65625 0.921875,0.65625 0.671875,0 1.03125,-0.703125 1.046875,-0.75 0.125,0.359375 0.484375,0.75 1.078125,0.75 1.03125,0 1.59375,-1.28125 1.59375,-1.53125 0,-0.109375 -0.078125,-0.109375 -0.109375,-0.109375 -0.09375,0 -0.109375,0.046875 -0.140625,0.109375 -0.328125,1.078125 -1,1.3125 -1.3125,1.3125 -0.390625,0 -0.546875,-0.3125 -0.546875,-0.65625 0,-0.21875 0.046875,-0.4375 0.15625,-0.875 z m 0,0"
   id="id-1c2f8a25-df02-42ac-bdd8-588a2fc8f730" />
      </symbol>
      <symbol
   overflow="visible"
   id="id-7b822df7-2f73-4a2f-a9ca-78c683bf728b">
        <path
   style="stroke:none"
   d="m 2.03125,-0.015625 c 0,-0.65625 -0.25,-1.046875 -0.640625,-1.046875 -0.328125,0 -0.53125,0.25 -0.53125,0.53125 C 0.859375,-0.265625 1.0625,0 1.390625,0 1.5,0 1.640625,-0.046875 1.734375,-0.125 1.765625,-0.15625 1.78125,-0.15625 1.78125,-0.15625 c 0.015625,0 0.015625,0 0.015625,0.140625 0,0.75 -0.34375,1.34375 -0.671875,1.671875 -0.109375,0.109375 -0.109375,0.125 -0.109375,0.15625 0,0.078125 0.046875,0.109375 0.09375,0.109375 0.109375,0 0.921875,-0.765625 0.921875,-1.9375 z m 0,0"
   id="id-6a8e9271-2ff4-4d39-8993-31d05ae45498" />
      </symbol>
      <symbol
   overflow="visible"
   id="id-dbc3f438-47b3-4f44-9445-5ed75e143281">
        <path
   style="stroke:none"
   d="m 1.328125,-0.828125 c 0.53125,-0.578125 0.828125,-0.828125 1.1875,-1.140625 0,0 0.609375,-0.53125 0.96875,-0.890625 C 4.4375,-3.78125 4.65625,-4.265625 4.65625,-4.3125 c 0,-0.09375 -0.09375,-0.09375 -0.109375,-0.09375 -0.078125,0 -0.09375,0.015625 -0.15625,0.109375 -0.296875,0.484375 -0.5,0.640625 -0.734375,0.640625 -0.25,0 -0.359375,-0.15625 -0.515625,-0.328125 -0.1875,-0.21875 -0.359375,-0.421875 -0.6875,-0.421875 -0.75,0 -1.203125,0.921875 -1.203125,1.140625 0,0.046875 0.03125,0.109375 0.109375,0.109375 0.09375,0 0.109375,-0.046875 0.140625,-0.109375 0.1875,-0.46875 0.765625,-0.46875 0.84375,-0.46875 0.203125,0 0.390625,0.0625 0.625,0.140625 0.40625,0.15625 0.515625,0.15625 0.765625,0.15625 -0.359375,0.421875 -1.1875,1.140625 -1.375,1.296875 l -0.90625,0.84375 C 0.78125,-0.625 0.421875,-0.0625 0.421875,0.015625 c 0,0.09375 0.109375,0.09375 0.125,0.09375 0.078125,0 0.09375,-0.015625 0.15625,-0.125 0.234375,-0.359375 0.53125,-0.625 0.859375,-0.625 0.21875,0 0.328125,0.09375 0.578125,0.375 0.15625,0.21875 0.34375,0.375 0.625,0.375 1,0 1.578125,-1.265625 1.578125,-1.53125 0,-0.046875 -0.046875,-0.109375 -0.125,-0.109375 -0.09375,0 -0.109375,0.0625 -0.140625,0.140625 C 3.84375,-0.75 3.203125,-0.5625 2.875,-0.5625 c -0.1875,0 -0.375,-0.0625 -0.578125,-0.125 -0.34375,-0.125 -0.5,-0.171875 -0.703125,-0.171875 -0.015625,0 -0.171875,0 -0.265625,0.03125 z m 0,0"
   id="id-11ecfc79-166e-4802-a69a-de77fbdcbb7d" />
      </symbol>
      <symbol
   overflow="visible"
   id="id-fc535b67-5320-47d4-b9c5-70d85bcec90a">
        <path
   style="stroke:none"
   d=""
   id="id-f1dbee68-6184-4131-a7a3-1feeea91e0e7" />
      </symbol>
      <symbol
   overflow="visible"
   id="id-7a2741a9-255f-47c9-a896-799828fadd6a">
        <path
   style="stroke:none"
   d="m 1.90625,-2.328125 c 0.546875,0 0.9375,0.375 0.9375,1.125 0,0.859375 -0.515625,1.125 -0.90625,1.125 -0.28125,0 -0.90625,-0.078125 -1.1875,-0.5 0.328125,0 0.40625,-0.234375 0.40625,-0.390625 0,-0.21875 -0.171875,-0.375 -0.390625,-0.375 -0.1875,0 -0.390625,0.125 -0.390625,0.40625 0,0.65625 0.71875,1.078125 1.5625,1.078125 0.96875,0 1.640625,-0.65625 1.640625,-1.34375 0,-0.546875 -0.4375,-1.09375 -1.203125,-1.25 0.71875,-0.265625 0.984375,-0.78125 0.984375,-1.21875 0,-0.546875 -0.625,-0.953125 -1.40625,-0.953125 -0.765625,0 -1.359375,0.375 -1.359375,0.9375 0,0.234375 0.15625,0.359375 0.359375,0.359375 0.21875,0 0.359375,-0.15625 0.359375,-0.34375 0,-0.203125 -0.140625,-0.359375 -0.359375,-0.375 0.25,-0.296875 0.71875,-0.375 0.984375,-0.375 0.3125,0 0.75,0.15625 0.75,0.75 0,0.296875 -0.09375,0.625 -0.28125,0.828125 -0.21875,0.265625 -0.421875,0.28125 -0.765625,0.3125 -0.171875,0.015625 -0.1875,0.015625 -0.21875,0.015625 -0.015625,0 -0.078125,0.015625 -0.078125,0.09375 0,0.09375 0.0625,0.09375 0.1875,0.09375 z m 0,0"
   id="id-a9b07cdf-82b2-42e5-bdbf-21e3c526498d" />
      </symbol>
    </g>
  </defs>
  <g
   id="id-3e337575-8543-41c8-b29e-69ecabb4f42f"
   transform="translate(-149.009,-130.359)"
   style="fill:#ffeeaa;fill-opacity:1">
    <g
   style="fill:#ffeeaa;fill-opacity:1"
   id="id-5198bd10-f6f9-4b2a-b1c2-33fa59713981">
      <g
   transform="translate(148.712,134.765)"
   id="g7269"
   style="fill:#ffeeaa;fill-opacity:1"><path
   style="fill:#ffeeaa;fill-opacity:1;stroke:none"
   d="M 3.328125,-3.015625 C 3.390625,-3.265625 3.625,-4.1875 4.3125,-4.1875 c 0.046875,0 0.296875,0 0.5,0.125 C 4.53125,-4 4.34375,-3.765625 4.34375,-3.515625 c 0,0.15625 0.109375,0.34375 0.375,0.34375 0.21875,0 0.53125,-0.171875 0.53125,-0.578125 0,-0.515625 -0.578125,-0.65625 -0.921875,-0.65625 -0.578125,0 -0.921875,0.53125 -1.046875,0.75 -0.25,-0.65625 -0.78125,-0.75 -1.078125,-0.75 -1.03125,0 -1.609375,1.28125 -1.609375,1.53125 0,0.109375 0.109375,0.109375 0.125,0.109375 0.078125,0 0.109375,-0.03125 0.125,-0.109375 0.34375,-1.0625 1,-1.3125 1.34375,-1.3125 0.1875,0 0.53125,0.09375 0.53125,0.671875 0,0.3125 -0.171875,0.96875 -0.53125,2.375 -0.15625,0.609375 -0.515625,1.03125 -0.953125,1.03125 -0.0625,0 -0.28125,0 -0.5,-0.125 0.25,-0.0625 0.46875,-0.265625 0.46875,-0.546875 0,-0.265625 -0.21875,-0.34375 -0.359375,-0.34375 -0.3125,0 -0.546875,0.25 -0.546875,0.578125 0,0.453125 0.484375,0.65625 0.921875,0.65625 0.671875,0 1.03125,-0.703125 1.046875,-0.75 0.125,0.359375 0.484375,0.75 1.078125,0.75 1.03125,0 1.59375,-1.28125 1.59375,-1.53125 0,-0.109375 -0.078125,-0.109375 -0.109375,-0.109375 -0.09375,0 -0.109375,0.046875 -0.140625,0.109375 -0.328125,1.078125 -1,1.3125 -1.3125,1.3125 -0.390625,0 -0.546875,-0.3125 -0.546875,-0.65625 0,-0.21875 0.046875,-0.4375 0.15625,-0.875 z m 0,0"
   id="id-43a51765-f4d2-4231-84e1-1fee41b6c2ac" />
      </g></g>
    <g
   style="fill:#ffeeaa;fill-opacity:1"
   id="id-c7ad0d22-580c-4ad3-9bf1-3ec71cfb0930">
      <g
   transform="translate(154.406,136.259)"
   id="g1109"
   style="fill:#ffeeaa;fill-opacity:1"><path
   style="fill:#ffeeaa;fill-opacity:1;stroke:none"
   d="m 1.90625,-2.328125 c 0.546875,0 0.9375,0.375 0.9375,1.125 0,0.859375 -0.515625,1.125 -0.90625,1.125 -0.28125,0 -0.90625,-0.078125 -1.1875,-0.5 0.328125,0 0.40625,-0.234375 0.40625,-0.390625 0,-0.21875 -0.171875,-0.375 -0.390625,-0.375 -0.1875,0 -0.390625,0.125 -0.390625,0.40625 0,0.65625 0.71875,1.078125 1.5625,1.078125 0.96875,0 1.640625,-0.65625 1.640625,-1.34375 0,-0.546875 -0.4375,-1.09375 -1.203125,-1.25 0.71875,-0.265625 0.984375,-0.78125 0.984375,-1.21875 0,-0.546875 -0.625,-0.953125 -1.40625,-0.953125 -0.765625,0 -1.359375,0.375 -1.359375,0.9375 0,0.234375 0.15625,0.359375 0.359375,0.359375 0.21875,0 0.359375,-0.15625 0.359375,-0.34375 0,-0.203125 -0.140625,-0.359375 -0.359375,-0.375 0.25,-0.296875 0.71875,-0.375 0.984375,-0.375 0.3125,0 0.75,0.15625 0.75,0.75 0,0.296875 -0.09375,0.625 -0.28125,0.828125 -0.21875,0.265625 -0.421875,0.28125 -0.765625,0.3125 -0.171875,0.015625 -0.1875,0.015625 -0.21875,0.015625 -0.015625,0 -0.078125,0.015625 -0.078125,0.09375 0,0.09375 0.0625,0.09375 0.1875,0.09375 z m 0,0"
   id="id-65038999-2a0c-4a14-a26b-259dcb239dd8" />
      </g></g>
    <g
   style="fill:#ffeeaa;fill-opacity:1"
   id="id-c6ad63dc-d043-42d5-87d0-3ecc87687a67">
      <g
   transform="translate(158.876,134.765)"
   id="g9987"
   style="fill:#ffeeaa;fill-opacity:1"><path
   style="fill:#ffeeaa;fill-opacity:1;stroke:none"
   d="m 2.03125,-0.015625 c 0,-0.65625 -0.25,-1.046875 -0.640625,-1.046875 -0.328125,0 -0.53125,0.25 -0.53125,0.53125 C 0.859375,-0.265625 1.0625,0 1.390625,0 1.5,0 1.640625,-0.046875 1.734375,-0.125 1.765625,-0.15625 1.78125,-0.15625 1.78125,-0.15625 c 0.015625,0 0.015625,0 0.015625,0.140625 0,0.75 -0.34375,1.34375 -0.671875,1.671875 -0.109375,0.109375 -0.109375,0.125 -0.109375,0.15625 0,0.078125 0.046875,0.109375 0.09375,0.109375 0.109375,0 0.921875,-0.765625 0.921875,-1.9375 z m 0,0"
   id="id-1ff897ad-b9fb-4d3d-9114-65d3aa04a0c8" />
      </g></g>
    <g
   style="fill:#ffeeaa;fill-opacity:1"
   id="id-c4080b26-4651-4ef4-8d58-43ec8919dbd6">
      <g
   transform="translate(163.307,134.765)"
   id="g5393"
   style="fill:#ffeeaa;fill-opacity:1"><path
   style="fill:#ffeeaa;fill-opacity:1;stroke:none"
   d="m 1.328125,-0.828125 c 0.53125,-0.578125 0.828125,-0.828125 1.1875,-1.140625 0,0 0.609375,-0.53125 0.96875,-0.890625 C 4.4375,-3.78125 4.65625,-4.265625 4.65625,-4.3125 c 0,-0.09375 -0.09375,-0.09375 -0.109375,-0.09375 -0.078125,0 -0.09375,0.015625 -0.15625,0.109375 -0.296875,0.484375 -0.5,0.640625 -0.734375,0.640625 -0.25,0 -0.359375,-0.15625 -0.515625,-0.328125 -0.1875,-0.21875 -0.359375,-0.421875 -0.6875,-0.421875 -0.75,0 -1.203125,0.921875 -1.203125,1.140625 0,0.046875 0.03125,0.109375 0.109375,0.109375 0.09375,0 0.109375,-0.046875 0.140625,-0.109375 0.1875,-0.46875 0.765625,-0.46875 0.84375,-0.46875 0.203125,0 0.390625,0.0625 0.625,0.140625 0.40625,0.15625 0.515625,0.15625 0.765625,0.15625 -0.359375,0.421875 -1.1875,1.140625 -1.375,1.296875 l -0.90625,0.84375 C 0.78125,-0.625 0.421875,-0.0625 0.421875,0.015625 c 0,0.09375 0.109375,0.09375 0.125,0.09375 0.078125,0 0.09375,-0.015625 0.15625,-0.125 0.234375,-0.359375 0.53125,-0.625 0.859375,-0.625 0.21875,0 0.328125,0.09375 0.578125,0.375 0.15625,0.21875 0.34375,0.375 0.625,0.375 1,0 1.578125,-1.265625 1.578125,-1.53125 0,-0.046875 -0.046875,-0.109375 -0.125,-0.109375 -0.09375,0 -0.109375,0.0625 -0.140625,0.140625 C 3.84375,-0.75 3.203125,-0.5625 2.875,-0.5625 c -0.1875,0 -0.375,-0.0625 -0.578125,-0.125 -0.34375,-0.125 -0.5,-0.171875 -0.703125,-0.171875 -0.015625,0 -0.171875,0 -0.265625,0.03125 z m 0,0"
   id="id-d76b166e-ffe9-48d4-82eb-018d83265d0a" />
      </g></g>
  </g>
</g><path
       style="fill:none;stroke:#00ffff;stroke-width:2;stroke-linecap:butt;stroke-linejoin:miter;stroke-dasharray:none;stroke-opacity:1;marker-end:url(#Triangle)"
       d="m -21.910868,128.4502 c 9.531871,0.0435 19.0635065,0.087 28.595142,0.13049"
       id="path111"
       inkscape:path-effect="#path-effect111"
       inkscape:original-d="m -21.910868,128.4502 c 9.531474,0.13049 19.063308,0.13049 28.595142,0.13049"
       transform="translate(0,14.539272)" /><path
       style="fill:none;stroke:#00ffff;stroke-width:2;stroke-linecap:butt;stroke-linejoin:miter;stroke-dasharray:none;stroke-opacity:1;marker-end:url(#Triangle)"
       d="m -21.911231,128.58069 c 0.04936,-9.08211 0.09872,-18.16422 0.148082,-27.24632"
       id="path113"
       inkscape:path-effect="#path-effect114"
       inkscape:original-d="m -21.911231,128.58069 c 0.04936,-9.08211 0.09872,-18.16422 0.148082,-27.24632"
       transform="translate(0,14.539272)" /><path
       style="fill:none;stroke:#00ffff;stroke-width:2;stroke-linecap:butt;stroke-linejoin:miter;stroke-dasharray:none;stroke-opacity:1;marker-end:url(#Triangle)"
       d="m -21.911231,128.58069 c -6.83814,5.68491 -13.676287,11.36983 -20.514434,17.05475"
       id="path114"
       inkscape:path-effect="#path-effect115"
       inkscape:original-d="m -21.911231,128.58069 c -6.838143,5.68491 -13.676288,11.36983 -20.514434,17.05475"
       transform="translate(0,14.539272)" /><g
       transform="matrix(1.3894677,0,0,1.3894677,-34.006323,163.9789)"
       ns1:version="1.10.2"
       ns1:texconverter="pdflatex"
       ns1:pdfconverter="inkscape"
       ns1:text="$e_1$"
       ns1:preamble="/home/eric-neiva/.config/inkscape/extensions/textext/default_packages.tex"
       ns1:scale="3.534972583397515"
       ns1:alignment="middle center"
       ns1:stroke-to-path="0"
       ns1:inkscapeversion="1.3.2"
       id="g129"
       ns1:jacobian_sqrt="1.24706"
       style="fill:#00ffff;fill-opacity:1;stroke-width:0"><defs
   id="id-46414ea0-c8b3-4e7a-b8b7-6fff74f01063"
   style="fill:#ffeeaa;fill-opacity:1;stroke-width:0">
    <g
   id="id-064a7145-ac62-4649-a300-4654db39b68b"
   style="fill:#ffeeaa;fill-opacity:1;stroke-width:0">
      <symbol
   overflow="visible"
   id="id-d8367cfe-a77d-4a99-87c9-221c7b3e767b"
   style="fill:#ffeeaa;fill-opacity:1;stroke-width:0">
        <path
   style="fill:#ffeeaa;fill-opacity:1;stroke:#ffeeaa;stroke-width:0"
   d=""
   id="id-8937ad91-c0a3-4140-bcf9-2d40b0678c80" />
      </symbol>
      <symbol
   overflow="visible"
   id="id-47b53c8f-d73c-47be-91f7-e8e247b87606"
   style="fill:#ffeeaa;fill-opacity:1;stroke-width:0">
        <path
   style="fill:#ffeeaa;fill-opacity:1;stroke:#ffeeaa;stroke-width:0"
   d="m 1.859375,-2.296875 c 0.296875,0 1.03125,-0.03125 1.53125,-0.234375 0.703125,-0.296875 0.75,-0.890625 0.75,-1.03125 0,-0.4375 -0.375,-0.84375 -1.0625,-0.84375 -1.109375,0 -2.625,0.96875 -2.625,2.71875 0,1.015625 0.59375,1.796875 1.578125,1.796875 1.421875,0 2.25,-1.0625 2.25,-1.171875 0,-0.0625 -0.046875,-0.140625 -0.109375,-0.140625 -0.0625,0 -0.078125,0.03125 -0.140625,0.109375 -0.78125,0.984375 -1.875,0.984375 -1.984375,0.984375 -0.78125,0 -0.875,-0.84375 -0.875,-1.15625 0,-0.125 0.015625,-0.421875 0.15625,-1.03125 z m -0.46875,-0.21875 C 1.78125,-4.03125 2.8125,-4.1875 3.078125,-4.1875 c 0.453125,0 0.734375,0.296875 0.734375,0.625 0,1.046875 -1.59375,1.046875 -2.015625,1.046875 z m 0,0"
   id="id-8d906860-fcfe-4477-8ac3-d0d2a6e53adc" />
      </symbol>
      <symbol
   overflow="visible"
   id="id-04b2abb7-0dae-413a-b85e-c04fc5395887"
   style="fill:#ffeeaa;fill-opacity:1;stroke-width:0">
        <path
   style="fill:#ffeeaa;fill-opacity:1;stroke:#ffeeaa;stroke-width:0"
   d=""
   id="id-6670bfcb-f12b-4151-a094-5ec17775f207" />
      </symbol>
      <symbol
   overflow="visible"
   id="id-91774ecb-dd5e-42c7-97d0-aa2676d7940a"
   style="fill:#ffeeaa;fill-opacity:1;stroke-width:0">
        <path
   style="fill:#ffeeaa;fill-opacity:1;stroke:#ffeeaa;stroke-width:0"
   d="m 2.328125,-4.4375 c 0,-0.1875 0,-0.1875 -0.203125,-0.1875 -0.453125,0.4375 -1.078125,0.4375 -1.359375,0.4375 v 0.25 c 0.15625,0 0.625,0 1,-0.1875 v 3.546875 c 0,0.234375 0,0.328125 -0.6875,0.328125 H 0.8125 V 0 c 0.125,0 0.984375,-0.03125 1.234375,-0.03125 0.21875,0 1.09375,0.03125 1.25,0.03125 V -0.25 H 3.03125 c -0.703125,0 -0.703125,-0.09375 -0.703125,-0.328125 z m 0,0"
   id="id-7ae33327-7b1c-4a49-a79c-3d3133b22197" />
      </symbol>
    </g>
  </defs>
  <g
   id="id-923840e2-a5c8-4061-8eea-b8b1dc61c80d"
   transform="translate(-149.165,-130.359)"
   style="fill:#00ffff;fill-opacity:1;stroke-width:0">
    <g
   style="fill:#00ffff;fill-opacity:1;stroke-width:0"
   id="id-4542d957-f156-458d-addf-79dccd81cfd4">
      <g
   transform="translate(148.712,134.765)"
   id="g5991"
   style="fill:#00ffff;fill-opacity:1;stroke-width:0"><path
   style="fill:#00ffff;fill-opacity:1;stroke:#ffeeaa;stroke-width:0"
   d="m 1.859375,-2.296875 c 0.296875,0 1.03125,-0.03125 1.53125,-0.234375 0.703125,-0.296875 0.75,-0.890625 0.75,-1.03125 0,-0.4375 -0.375,-0.84375 -1.0625,-0.84375 -1.109375,0 -2.625,0.96875 -2.625,2.71875 0,1.015625 0.59375,1.796875 1.578125,1.796875 1.421875,0 2.25,-1.0625 2.25,-1.171875 0,-0.0625 -0.046875,-0.140625 -0.109375,-0.140625 -0.0625,0 -0.078125,0.03125 -0.140625,0.109375 -0.78125,0.984375 -1.875,0.984375 -1.984375,0.984375 -0.78125,0 -0.875,-0.84375 -0.875,-1.15625 0,-0.125 0.015625,-0.421875 0.15625,-1.03125 z m -0.46875,-0.21875 C 1.78125,-4.03125 2.8125,-4.1875 3.078125,-4.1875 c 0.453125,0 0.734375,0.296875 0.734375,0.625 0,1.046875 -1.59375,1.046875 -2.015625,1.046875 z m 0,0"
   id="id-07565ee2-77b3-45df-b509-4c0c76075a52" />
      </g></g>
    <g
   style="fill:#00ffff;fill-opacity:1;stroke-width:0"
   id="id-59a92104-39fc-46eb-a73c-47e12b47988d">
      <g
   transform="translate(153.351,136.259)"
   id="g9978"
   style="fill:#00ffff;fill-opacity:1;stroke-width:0"><path
   style="fill:#00ffff;fill-opacity:1;stroke:#ffeeaa;stroke-width:0"
   d="m 2.328125,-4.4375 c 0,-0.1875 0,-0.1875 -0.203125,-0.1875 -0.453125,0.4375 -1.078125,0.4375 -1.359375,0.4375 v 0.25 c 0.15625,0 0.625,0 1,-0.1875 v 3.546875 c 0,0.234375 0,0.328125 -0.6875,0.328125 H 0.8125 V 0 c 0.125,0 0.984375,-0.03125 1.234375,-0.03125 0.21875,0 1.09375,0.03125 1.25,0.03125 V -0.25 H 3.03125 c -0.703125,0 -0.703125,-0.09375 -0.703125,-0.328125 z m 0,0"
   id="id-7cdc9fad-5e33-49ad-ba51-eec4198be47a" />
      </g></g>
  </g>
</g><g
       transform="matrix(1.3894677,0,0,1.3894677,1.3129649,152.27038)"
       ns1:version="1.10.2"
       ns1:texconverter="pdflatex"
       ns1:pdfconverter="inkscape"
       ns1:text="$e_2$"
       ns1:preamble="/home/eric-neiva/.config/inkscape/extensions/textext/default_packages.tex"
       ns1:scale="3.534972583397515"
       ns1:alignment="middle center"
       ns1:stroke-to-path="0"
       ns1:inkscapeversion="1.3.2"
       id="g138"
       ns1:jacobian_sqrt="1.24706"
       style="fill:#00ffff;fill-opacity:1;stroke-width:0"><defs
   id="id-f4d77cde-ff77-4e84-ba35-9e17aa106ac8"
   style="fill:#00ffff;fill-opacity:1;stroke-width:0">
    <g
   id="id-9c8c5f85-aada-47bf-9562-37d76ff27609"
   style="fill:#00ffff;fill-opacity:1;stroke-width:0">
      <symbol
   overflow="visible"
   id="id-4138d520-9857-43fb-a59a-35b3e8a70a0c"
   style="fill:#00ffff;fill-opacity:1;stroke-width:0">
        <path
   style="fill:#00ffff;fill-opacity:1;stroke:#00ffff;stroke-width:0"
   d=""
   id="id-541bc010-d1b6-452e-af71-6d28d2524a6b" />
      </symbol>
      <symbol
   overflow="visible"
   id="id-460b6ade-8514-4abe-8fd8-a4dd7ef41a08"
   style="fill:#00ffff;fill-opacity:1;stroke-width:0">
        <path
   style="fill:#00ffff;fill-opacity:1;stroke:#00ffff;stroke-width:0"
   d="m 1.859375,-2.296875 c 0.296875,0 1.03125,-0.03125 1.53125,-0.234375 0.703125,-0.296875 0.75,-0.890625 0.75,-1.03125 0,-0.4375 -0.375,-0.84375 -1.0625,-0.84375 -1.109375,0 -2.625,0.96875 -2.625,2.71875 0,1.015625 0.59375,1.796875 1.578125,1.796875 1.421875,0 2.25,-1.0625 2.25,-1.171875 0,-0.0625 -0.046875,-0.140625 -0.109375,-0.140625 -0.0625,0 -0.078125,0.03125 -0.140625,0.109375 -0.78125,0.984375 -1.875,0.984375 -1.984375,0.984375 -0.78125,0 -0.875,-0.84375 -0.875,-1.15625 0,-0.125 0.015625,-0.421875 0.15625,-1.03125 z m -0.46875,-0.21875 C 1.78125,-4.03125 2.8125,-4.1875 3.078125,-4.1875 c 0.453125,0 0.734375,0.296875 0.734375,0.625 0,1.046875 -1.59375,1.046875 -2.015625,1.046875 z m 0,0"
   id="id-4f126988-3973-421b-ba33-4e6ce1b9787a" />
      </symbol>
      <symbol
   overflow="visible"
   id="id-2b92d5e1-51e1-48a1-ae80-f797be60c5b7"
   style="fill:#00ffff;fill-opacity:1;stroke-width:0">
        <path
   style="fill:#00ffff;fill-opacity:1;stroke:#00ffff;stroke-width:0"
   d=""
   id="id-973264c0-877f-4303-8805-c2b3112ae134" />
      </symbol>
      <symbol
   overflow="visible"
   id="id-749d1001-20d3-490d-9d39-9b27e7f4cd66"
   style="fill:#00ffff;fill-opacity:1;stroke-width:0">
        <path
   style="fill:#00ffff;fill-opacity:1;stroke:#00ffff;stroke-width:0"
   d="M 3.515625,-1.265625 H 3.28125 c -0.015625,0.15625 -0.09375,0.5625 -0.1875,0.625 C 3.046875,-0.59375 2.515625,-0.59375 2.40625,-0.59375 H 1.125 c 0.734375,-0.640625 0.984375,-0.84375 1.390625,-1.171875 0.515625,-0.40625 1,-0.84375 1,-1.5 0,-0.84375 -0.734375,-1.359375 -1.625,-1.359375 -0.859375,0 -1.453125,0.609375 -1.453125,1.25 0,0.34375 0.296875,0.390625 0.375,0.390625 0.15625,0 0.359375,-0.125 0.359375,-0.375 0,-0.125 -0.046875,-0.375 -0.40625,-0.375 C 0.984375,-4.21875 1.453125,-4.375 1.78125,-4.375 c 0.703125,0 1.0625,0.546875 1.0625,1.109375 0,0.609375 -0.4375,1.078125 -0.65625,1.328125 L 0.515625,-0.265625 C 0.4375,-0.203125 0.4375,-0.1875 0.4375,0 h 2.875 z m 0,0"
   id="id-141ccd20-2924-4ace-8150-ef4acec08674" />
      </symbol>
    </g>
  </defs>
  <g
   id="id-9cbd7559-e7b9-4f18-a9a1-eb16ee9b50ef"
   transform="translate(-149.165,-130.359)"
   style="fill:#00ffff;fill-opacity:1;stroke-width:0">
    <g
   style="fill:#00ffff;fill-opacity:1;stroke-width:0"
   id="id-c14a9a24-fd92-4295-80d0-6656ccd85813">
      <g
   transform="translate(148.712,134.765)"
   id="g2613"
   style="fill:#00ffff;fill-opacity:1;stroke-width:0"><path
   style="fill:#00ffff;fill-opacity:1;stroke:#00ffff;stroke-width:0"
   d="m 1.859375,-2.296875 c 0.296875,0 1.03125,-0.03125 1.53125,-0.234375 0.703125,-0.296875 0.75,-0.890625 0.75,-1.03125 0,-0.4375 -0.375,-0.84375 -1.0625,-0.84375 -1.109375,0 -2.625,0.96875 -2.625,2.71875 0,1.015625 0.59375,1.796875 1.578125,1.796875 1.421875,0 2.25,-1.0625 2.25,-1.171875 0,-0.0625 -0.046875,-0.140625 -0.109375,-0.140625 -0.0625,0 -0.078125,0.03125 -0.140625,0.109375 -0.78125,0.984375 -1.875,0.984375 -1.984375,0.984375 -0.78125,0 -0.875,-0.84375 -0.875,-1.15625 0,-0.125 0.015625,-0.421875 0.15625,-1.03125 z m -0.46875,-0.21875 C 1.78125,-4.03125 2.8125,-4.1875 3.078125,-4.1875 c 0.453125,0 0.734375,0.296875 0.734375,0.625 0,1.046875 -1.59375,1.046875 -2.015625,1.046875 z m 0,0"
   id="id-7e0a0b2a-a47a-4325-88c4-1a84c77914ec" />
      </g></g>
    <g
   style="fill:#00ffff;fill-opacity:1;stroke-width:0"
   id="id-40115f94-b5e5-4962-b307-1f06715d1042">
      <g
   transform="translate(153.351,136.259)"
   id="g7790"
   style="fill:#00ffff;fill-opacity:1;stroke-width:0"><path
   style="fill:#00ffff;fill-opacity:1;stroke:#00ffff;stroke-width:0"
   d="M 3.515625,-1.265625 H 3.28125 c -0.015625,0.15625 -0.09375,0.5625 -0.1875,0.625 C 3.046875,-0.59375 2.515625,-0.59375 2.40625,-0.59375 H 1.125 c 0.734375,-0.640625 0.984375,-0.84375 1.390625,-1.171875 0.515625,-0.40625 1,-0.84375 1,-1.5 0,-0.84375 -0.734375,-1.359375 -1.625,-1.359375 -0.859375,0 -1.453125,0.609375 -1.453125,1.25 0,0.34375 0.296875,0.390625 0.375,0.390625 0.15625,0 0.359375,-0.125 0.359375,-0.375 0,-0.125 -0.046875,-0.375 -0.40625,-0.375 C 0.984375,-4.21875 1.453125,-4.375 1.78125,-4.375 c 0.703125,0 1.0625,0.546875 1.0625,1.109375 0,0.609375 -0.4375,1.078125 -0.65625,1.328125 L 0.515625,-0.265625 C 0.4375,-0.203125 0.4375,-0.1875 0.4375,0 h 2.875 z m 0,0"
   id="id-50f627bc-6b9f-43c5-879b-eacc1affbc52" />
      </g></g>
  </g>
</g><g
       transform="matrix(1.3894677,0,0,1.3894677,-41.513313,114.59933)"
       ns1:version="1.10.2"
       ns1:texconverter="pdflatex"
       ns1:pdfconverter="inkscape"
       ns1:text="$e_3$"
       ns1:preamble="/home/eric-neiva/.config/inkscape/extensions/textext/default_packages.tex"
       ns1:scale="3.534972583397515"
       ns1:alignment="middle center"
       ns1:stroke-to-path="0"
       ns1:inkscapeversion="1.3.2"
       id="g147"
       ns1:jacobian_sqrt="1.24706"
       style="fill:#00ffff;fill-opacity:1;stroke-width:0"><defs
   id="id-967aa5c9-1013-41cd-9fea-cdba86583be9"
   style="fill:#00ffff;fill-opacity:1;stroke-width:0">
    <g
   id="id-c00f0236-b503-4136-85e6-2674935a9381"
   style="fill:#00ffff;fill-opacity:1;stroke-width:0">
      <symbol
   overflow="visible"
   id="id-af6d4929-00ee-4feb-a7f3-ca4ac88ad1cb"
   style="fill:#00ffff;fill-opacity:1;stroke-width:0">
        <path
   style="fill:#00ffff;fill-opacity:1;stroke:#00ffff;stroke-width:0"
   d=""
   id="id-2e379696-0132-483b-a9fc-df9a535da839" />
      </symbol>
      <symbol
   overflow="visible"
   id="id-b2548542-68fa-40a0-9cb3-e2e6fc7b1d0e"
   style="fill:#00ffff;fill-opacity:1;stroke-width:0">
        <path
   style="fill:#00ffff;fill-opacity:1;stroke:#00ffff;stroke-width:0"
   d="m 1.859375,-2.296875 c 0.296875,0 1.03125,-0.03125 1.53125,-0.234375 0.703125,-0.296875 0.75,-0.890625 0.75,-1.03125 0,-0.4375 -0.375,-0.84375 -1.0625,-0.84375 -1.109375,0 -2.625,0.96875 -2.625,2.71875 0,1.015625 0.59375,1.796875 1.578125,1.796875 1.421875,0 2.25,-1.0625 2.25,-1.171875 0,-0.0625 -0.046875,-0.140625 -0.109375,-0.140625 -0.0625,0 -0.078125,0.03125 -0.140625,0.109375 -0.78125,0.984375 -1.875,0.984375 -1.984375,0.984375 -0.78125,0 -0.875,-0.84375 -0.875,-1.15625 0,-0.125 0.015625,-0.421875 0.15625,-1.03125 z m -0.46875,-0.21875 C 1.78125,-4.03125 2.8125,-4.1875 3.078125,-4.1875 c 0.453125,0 0.734375,0.296875 0.734375,0.625 0,1.046875 -1.59375,1.046875 -2.015625,1.046875 z m 0,0"
   id="id-a6b31816-e01d-4431-be78-b5f6fa855fc8" />
      </symbol>
      <symbol
   overflow="visible"
   id="id-f0a0249b-f5f0-41b7-a509-df123b23ed2c"
   style="fill:#00ffff;fill-opacity:1;stroke-width:0">
        <path
   style="fill:#00ffff;fill-opacity:1;stroke:#00ffff;stroke-width:0"
   d=""
   id="id-e6d5b656-3086-4c8e-89d7-930a4f937cfa" />
      </symbol>
      <symbol
   overflow="visible"
   id="id-7c0ae9f8-4e7f-4ea6-a09d-d07ce524f6e6"
   style="fill:#00ffff;fill-opacity:1;stroke-width:0">
        <path
   style="fill:#00ffff;fill-opacity:1;stroke:#00ffff;stroke-width:0"
   d="m 1.90625,-2.328125 c 0.546875,0 0.9375,0.375 0.9375,1.125 0,0.859375 -0.515625,1.125 -0.90625,1.125 -0.28125,0 -0.90625,-0.078125 -1.1875,-0.5 0.328125,0 0.40625,-0.234375 0.40625,-0.390625 0,-0.21875 -0.171875,-0.375 -0.390625,-0.375 -0.1875,0 -0.390625,0.125 -0.390625,0.40625 0,0.65625 0.71875,1.078125 1.5625,1.078125 0.96875,0 1.640625,-0.65625 1.640625,-1.34375 0,-0.546875 -0.4375,-1.09375 -1.203125,-1.25 0.71875,-0.265625 0.984375,-0.78125 0.984375,-1.21875 0,-0.546875 -0.625,-0.953125 -1.40625,-0.953125 -0.765625,0 -1.359375,0.375 -1.359375,0.9375 0,0.234375 0.15625,0.359375 0.359375,0.359375 0.21875,0 0.359375,-0.15625 0.359375,-0.34375 0,-0.203125 -0.140625,-0.359375 -0.359375,-0.375 0.25,-0.296875 0.71875,-0.375 0.984375,-0.375 0.3125,0 0.75,0.15625 0.75,0.75 0,0.296875 -0.09375,0.625 -0.28125,0.828125 -0.21875,0.265625 -0.421875,0.28125 -0.765625,0.3125 -0.171875,0.015625 -0.1875,0.015625 -0.21875,0.015625 -0.015625,0 -0.078125,0.015625 -0.078125,0.09375 0,0.09375 0.0625,0.09375 0.1875,0.09375 z m 0,0"
   id="id-0607b94d-1f42-4f7b-a819-e6fb6acd1f59" />
      </symbol>
    </g>
  </defs>
  <g
   id="id-731a027f-0cd8-4712-9ab9-433642217a84"
   transform="translate(-149.165,-130.359)"
   style="fill:#00ffff;fill-opacity:1;stroke-width:0">
    <g
   style="fill:#00ffff;fill-opacity:1;stroke-width:0"
   id="id-f2776eb8-012e-47d0-8a63-c8f216921151">
      <g
   transform="translate(148.712,134.765)"
   id="g507"
   style="fill:#00ffff;fill-opacity:1;stroke-width:0"><path
   style="fill:#00ffff;fill-opacity:1;stroke:#00ffff;stroke-width:0"
   d="m 1.859375,-2.296875 c 0.296875,0 1.03125,-0.03125 1.53125,-0.234375 0.703125,-0.296875 0.75,-0.890625 0.75,-1.03125 0,-0.4375 -0.375,-0.84375 -1.0625,-0.84375 -1.109375,0 -2.625,0.96875 -2.625,2.71875 0,1.015625 0.59375,1.796875 1.578125,1.796875 1.421875,0 2.25,-1.0625 2.25,-1.171875 0,-0.0625 -0.046875,-0.140625 -0.109375,-0.140625 -0.0625,0 -0.078125,0.03125 -0.140625,0.109375 -0.78125,0.984375 -1.875,0.984375 -1.984375,0.984375 -0.78125,0 -0.875,-0.84375 -0.875,-1.15625 0,-0.125 0.015625,-0.421875 0.15625,-1.03125 z m -0.46875,-0.21875 C 1.78125,-4.03125 2.8125,-4.1875 3.078125,-4.1875 c 0.453125,0 0.734375,0.296875 0.734375,0.625 0,1.046875 -1.59375,1.046875 -2.015625,1.046875 z m 0,0"
   id="id-11d375cc-196c-4441-af5b-e9c2a8d8322d" />
      </g></g>
    <g
   style="fill:#00ffff;fill-opacity:1;stroke-width:0"
   id="id-d99df531-eff3-47d2-91be-f1d604a02e57">
      <g
   transform="translate(153.351,136.259)"
   id="g9328"
   style="fill:#00ffff;fill-opacity:1;stroke-width:0"><path
   style="fill:#00ffff;fill-opacity:1;stroke:#00ffff;stroke-width:0"
   d="m 1.90625,-2.328125 c 0.546875,0 0.9375,0.375 0.9375,1.125 0,0.859375 -0.515625,1.125 -0.90625,1.125 -0.28125,0 -0.90625,-0.078125 -1.1875,-0.5 0.328125,0 0.40625,-0.234375 0.40625,-0.390625 0,-0.21875 -0.171875,-0.375 -0.390625,-0.375 -0.1875,0 -0.390625,0.125 -0.390625,0.40625 0,0.65625 0.71875,1.078125 1.5625,1.078125 0.96875,0 1.640625,-0.65625 1.640625,-1.34375 0,-0.546875 -0.4375,-1.09375 -1.203125,-1.25 0.71875,-0.265625 0.984375,-0.78125 0.984375,-1.21875 0,-0.546875 -0.625,-0.953125 -1.40625,-0.953125 -0.765625,0 -1.359375,0.375 -1.359375,0.9375 0,0.234375 0.15625,0.359375 0.359375,0.359375 0.21875,0 0.359375,-0.15625 0.359375,-0.34375 0,-0.203125 -0.140625,-0.359375 -0.359375,-0.375 0.25,-0.296875 0.71875,-0.375 0.984375,-0.375 0.3125,0 0.75,0.15625 0.75,0.75 0,0.296875 -0.09375,0.625 -0.28125,0.828125 -0.21875,0.265625 -0.421875,0.28125 -0.765625,0.3125 -0.171875,0.015625 -0.1875,0.015625 -0.21875,0.015625 -0.015625,0 -0.078125,0.015625 -0.078125,0.09375 0,0.09375 0.0625,0.09375 0.1875,0.09375 z m 0,0"
   id="id-24494939-7439-4299-930b-f63446e44c8a" />
      </g></g>
  </g>
</g><g
       transform="matrix(1.38947,0,0,1.38947,-37.799477,133.08083)"
       ns1:version="1.10.2"
       ns1:texconverter="pdflatex"
       ns1:pdfconverter="inkscape"
       ns1:text="$O$"
       ns1:preamble="/home/eric-neiva/.config/inkscape/extensions/textext/default_packages.tex"
       ns1:scale="3.9386478798264744"
       ns1:alignment="middle center"
       ns1:stroke-to-path="0"
       ns1:inkscapeversion="1.3.2"
       id="g10"
       ns1:jacobian_sqrt="1.38947"
       style="fill:#00ffff;fill-opacity:1;stroke-width:0"><defs
   id="id-9e4e3453-93b1-47bb-9fb0-2b77871166a4"
   style="fill:#00ffff;fill-opacity:1;stroke-width:0">
    <g
   id="id-5550cd17-b93c-48eb-a0a6-964fe749fdec"
   style="fill:#00ffff;fill-opacity:1;stroke-width:0">
      <symbol
   overflow="visible"
   id="id-cca0b699-9364-4283-b6f4-b61dc599d807"
   style="fill:#00ffff;fill-opacity:1;stroke-width:0">
        <path
   style="fill:#00ffff;fill-opacity:1;stroke:#00ffff;stroke-width:0"
   d=""
   id="id-2b7c70d4-f15e-447f-b2f0-923c09cf6176" />
      </symbol>
      <symbol
   overflow="visible"
   id="id-6e518931-559f-4bfc-b00a-322404f949e2"
   style="fill:#00ffff;fill-opacity:1;stroke-width:0">
        <path
   style="fill:#00ffff;fill-opacity:1;stroke:#00ffff;stroke-width:0"
   d="m 7.375,-4.34375 c 0,-1.609375 -1.0625,-2.6875 -2.546875,-2.6875 -2.140625,0 -4.34375,2.265625 -4.34375,4.59375 0,1.65625 1.125,2.65625 2.5625,2.65625 2.109375,0 4.328125,-2.1875 4.328125,-4.5625 z m -4.28125,4.296875 c -0.984375,0 -1.671875,-0.796875 -1.671875,-2.109375 0,-0.453125 0.140625,-1.90625 0.90625,-3.0625 0.6875,-1.046875 1.65625,-1.5625 2.453125,-1.5625 0.8125,0 1.703125,0.5625 1.703125,2.046875 0,0.71875 -0.265625,2.265625 -1.25,3.5 C 4.75,-0.625 3.9375,-0.046875 3.09375,-0.046875 Z m 0,0"
   id="id-e366ad02-91d0-4636-a67c-7e7db390d4a6" />
      </symbol>
    </g>
  </defs>
  <g
   id="id-3775ab2b-83ed-4b65-806a-d5c7b4fee616"
   transform="translate(-149.196,-127.734)"
   style="fill:#00ffff;fill-opacity:1;stroke-width:0">
    <g
   style="fill:#00ffff;fill-opacity:1;stroke-width:0"
   id="id-1f02ad4d-b07a-4835-99b6-1ec3733d5609">
      <g
   transform="translate(148.712,134.765)"
   id="g3821"
   style="fill:#00ffff;fill-opacity:1;stroke-width:0"><path
   style="fill:#00ffff;fill-opacity:1;stroke:#00ffff;stroke-width:0"
   d="m 7.375,-4.34375 c 0,-1.609375 -1.0625,-2.6875 -2.546875,-2.6875 -2.140625,0 -4.34375,2.265625 -4.34375,4.59375 0,1.65625 1.125,2.65625 2.5625,2.65625 2.109375,0 4.328125,-2.1875 4.328125,-4.5625 z m -4.28125,4.296875 c -0.984375,0 -1.671875,-0.796875 -1.671875,-2.109375 0,-0.453125 0.140625,-1.90625 0.90625,-3.0625 0.6875,-1.046875 1.65625,-1.5625 2.453125,-1.5625 0.8125,0 1.703125,0.5625 1.703125,2.046875 0,0.71875 -0.265625,2.265625 -1.25,3.5 C 4.75,-0.625 3.9375,-0.046875 3.09375,-0.046875 Z m 0,0"
   id="id-7bfa5553-d954-4410-b1c6-d03e3b60d2a4" />
      </g></g>
  </g>
</g></g></svg>
