<?xml version="1.0" encoding="UTF-8"?>
<!-- Generator: Adobe Illustrator 14.0.0, SVG Export Plug-In . SVG Version: 6.00 Build 43363)  -->
<!DOCTYPE svg PUBLIC "-//W3C//DTD SVG 1.1//EN" "http://www.w3.org/Graphics/SVG/1.1/DTD/svg11.dtd">
<svg xmlns="http://www.w3.org/2000/svg" xmlns:xlink="http://www.w3.org/1999/xlink" version="1.1" id="Layer_1" x="0px" y="0px" width="576px" height="402px" viewBox="0 0 576 402" enable-background="new 0 0 576 402" xml:space="preserve">
<g>
	<g>
		<g>
			<path fill="none" stroke="#69BD45" stroke-width="3.8193" stroke-linecap="round" d="M171.833,168.4     c0,0,42.67-112.551,143.559-121.884"/>
			<g>
				<g>
					<g>
						<path fill="#00B5EB" stroke="#0F717C" stroke-width="1.5277" stroke-miterlimit="1" d="M340.283,89.908        c3.33-7.132,3.973-18.048,1.973-33.1c-1.729-12.993-4.816-24.296-4.947-24.773c-0.91-3.318-4.335-5.268-7.662-4.357        c-3.318,0.915-5.267,4.343-4.356,7.663c0.032,0.111,2.992,10.952,4.606,23.108c1.369,10.322,1.188,16.942,0.51,21.151        c-2.05-3.718-4.451-9.854-6.645-19.957c-2.59-11.954-3.482-23.239-3.494-23.426c-0.263-3.434-3.262-6.004-6.692-5.742        c-3.432,0.265-6.001,3.26-5.738,6.689c0.035,0.494,0.949,12.175,3.715,24.987c3.204,14.838,7.498,24.899,13.039,30.486        c-4.436,12.629-4.496,30.042-0.152,51.878c3.551,17.874,8.765,32.054,8.981,32.646c1.061,2.862,4.005,4.485,6.912,3.979        c0.365-0.066,0.736-0.164,1.098-0.298c3.231-1.195,4.878-4.781,3.682-8.01c-0.052-0.135-5.085-13.832-8.447-30.746        c-3.076-15.486-3.76-28.503-2.063-38.392c4.915,8.704,8.665,21.127,11.002,36.659c2.568,17.075,2.464,31.819,2.462,31.964        c-0.033,3.445,2.729,6.259,6.173,6.292c0.389,0.005,0.767-0.028,1.138-0.09c2.905-0.502,5.126-3.023,5.156-6.077        c0.006-0.637,0.122-15.739-2.575-33.762C354.663,116.663,348.728,100.291,340.283,89.908z"/>
						<g>
							<path fill="#D93D96" stroke="#C11F43" stroke-width="1.1458" stroke-miterlimit="1" d="M329.324,92.291         c0.322,1.868-0.929,3.644-2.794,3.972c-1.87,0.325-3.649-0.928-3.972-2.795c-0.328-1.868,0.926-3.646,2.794-3.974         C327.217,89.169,328.995,90.422,329.324,92.291z"/>
							<circle fill="#D93D96" stroke="#C11F43" stroke-width="1.1458" stroke-miterlimit="1" cx="339.097" cy="90.589" r="3.435"/>
						</g>
					</g>
				</g>
			</g>
			<g>
				<g>
					<g>
						<path fill="#00B5EB" stroke="#0F717C" stroke-width="1.5277" stroke-miterlimit="1" d="M350.921,297.469        c5.365-5.759,9.343-15.942,12.084-30.877c2.366-12.892,2.915-24.597,2.94-25.089c0.154-3.441-2.504-6.352-5.948-6.511        c-3.437-0.154-6.349,2.506-6.511,5.946c0,0.111-0.527,11.336-2.741,23.401c-1.884,10.241-4.1,16.478-6.043,20.275        c-0.806-4.167-1.193-10.741-0.16-21.031c1.219-12.168,3.852-23.181,3.898-23.363c0.81-3.349-1.25-6.714-4.595-7.522        c-3.345-0.811-6.713,1.248-7.524,4.592c-0.114,0.478-2.848,11.87-4.169,24.916c-1.53,15.104-0.553,25.995,2.998,33.022        c-8.115,10.641-13.543,27.188-16.148,49.294c-2.139,18.106-1.551,33.195-1.524,33.826c0.126,3.052,2.423,5.5,5.342,5.919        c0.369,0.053,0.751,0.071,1.142,0.059c3.438-0.146,6.111-3.047,5.972-6.487c-0.006-0.145-0.573-14.725,1.449-31.851        c1.851-15.678,5.214-28.27,9.878-37.161c1.993,9.802,1.727,22.775-0.843,38.269c-2.822,17.037-7.469,31.026-7.516,31.166        c-1.095,3.264,0.665,6.801,3.927,7.89c0.37,0.126,0.739,0.213,1.11,0.264c2.923,0.416,5.81-1.294,6.781-4.191        c0.204-0.604,4.972-14.93,7.965-32.91C356.346,327.352,355.749,309.951,350.921,297.469z"/>
						<g>
							<path fill="#D93D96" stroke="#C11F43" stroke-width="1.1458" stroke-miterlimit="1" d="M339.427,298.158         c-0.271,1.878-2.008,3.186-3.884,2.916c-1.878-0.267-3.188-2.006-2.919-3.886c0.266-1.874,2.005-3.182,3.885-2.915         C338.385,294.543,339.689,296.278,339.427,298.158z"/>
							<path fill="#D93D96" stroke="#C11F43" stroke-width="1.1458" stroke-miterlimit="1" d="M352.646,300.036         c-0.266,1.88-2.005,3.186-3.885,2.921c-1.877-0.27-3.182-2.009-2.915-3.884c0.265-1.881,2.005-3.187,3.885-2.92         C351.606,296.417,352.911,298.162,352.646,300.036z"/>
						</g>
					</g>
				</g>
			</g>
			<path fill="none" stroke="#69BD45" stroke-width="3.8193" stroke-linecap="round" d="M171.833,172.488     c0,0,47.927-99.729,135.983-103.811"/>
			<path fill="none" stroke="#69BD45" stroke-width="3.8193" stroke-linecap="round" d="M173.096,174.814     c0,0,55.404-43.155,84.854-37.906"/>
			<path fill="none" stroke="#69BD45" stroke-width="3.8193" stroke-linecap="round" d="M499.096,172.488     c0,0-38.492-135.885-142.296-132.969"/>
			<path fill="none" stroke="#69BD45" stroke-width="3.8193" stroke-linecap="round" d="M499.096,170.13     c0,0-43.277-111.363-138.562-101.453"/>
			<path fill="none" stroke="#69BD45" stroke-width="3.8193" stroke-linecap="round" d="M498.397,176.56     c0,0,8.745-67.653-6.997-99.728"/>
			<path fill="none" stroke="#69BD45" stroke-width="3.8193" stroke-linecap="round" d="M500.223,175.705     c0,0,37.979-8.047,35.064-40.125"/>
			<path fill="none" stroke="#69BD45" stroke-width="3.8193" stroke-linecap="round" d="M501.519,178.901     c0,0,62.953,14.577,35.222,66.481"/>
			<path fill="none" stroke="#69BD45" stroke-width="3.8193" stroke-linecap="round" d="M170.181,172.771     c0,0-6.997-56.475,10.496-79.85"/>
			<path fill="none" stroke="#69BD45" stroke-width="3.8193" stroke-linecap="round" d="M169.655,174.4     c0,0-21.363,5.362-30.11-22.395"/>
			<path fill="none" stroke="#69BD45" stroke-width="3.8193" stroke-linecap="round" d="M169.655,175.986     c0,0-27.195,1.165-26.028,37.902"/>
			<path fill="none" stroke="#69BD45" stroke-width="3.8193" stroke-linecap="round" d="M497.953,178.901     c0,0-54.741,90.374-123.794,78.138"/>
			<path fill="none" stroke="#69BD45" stroke-width="3.8193" stroke-linecap="round" d="M171.833,177.151     c0,0,62.165,76.77,152.758,83.782"/>
			<path fill="none" stroke="#69BD45" stroke-width="3.8193" stroke-linecap="round" d="M499.096,181.233     c0,0,20.415,107.889-112.554,137.633"/>
			<path fill="none" stroke="#497F3B" stroke-width="6.1109" stroke-linecap="round" d="M340.283,89.908     c0,0,130.821-0.238,158.813,84.907"/>
			<path fill="none" stroke="#497F3B" stroke-width="6.1109" stroke-linecap="round" d="M324.591,92.638     c0,0-96.677-1.8-152.66,82.176"/>
			<path fill="none" stroke="#497F3B" stroke-width="6.1109" stroke-linecap="round" d="M336.022,297.677     c-155.559-24.542-164.092-118.775-164.092-118.775"/>
			<path fill="none" stroke="#497F3B" stroke-width="6.1109" stroke-linecap="round" d="M499.096,184.15     c0,0-51.717,107.028-148.175,115.403"/>
		</g>
		<path fill="none" stroke="#69BD45" stroke-width="3.8193" stroke-linecap="round" d="M174.736,176.56    c0,0,92.324,21.106,179.04,11.759"/>
		<path fill="none" stroke="#69BD45" stroke-width="3.8193" stroke-linecap="round" d="M496.109,176.56    c0,0-90.964,32.009-180.718,28.506"/>
		<path fill="none" stroke="#69BD45" stroke-width="3.8193" stroke-linecap="round" d="M174.736,178.901    c0,0,63.996,44.857,164.363,36.679"/>
		<path fill="none" stroke="#69BD45" stroke-width="3.8193" stroke-linecap="round" d="M493.986,178.901    c0,0-95.79,48.923-168.047,49.433"/>
	</g>
	<g>
		<polygon points="135.946,85.302 159.985,151.06 155.756,150.616 164.313,160.745 164.321,147.485 161.376,150.551 137.337,84.794       "/>
	</g>
	<g>
		<polygon points="73.193,162.207 138.022,188.648 134.85,191.479 148.101,191.959 138.295,183.036 138.581,187.276 73.754,160.835       "/>
	</g>
	<g>
		<polygon points="487.285,31.017 418.934,46.18 419.931,42.046 408.763,49.195 421.907,50.948 419.257,47.625 487.607,32.463   "/>
	</g>
	<switch><text transform="matrix(1 0 0 1 50.792 66.4365)" id="trsvg8-ja" systemLanguage="ja"><tspan x="0" y="0" font-family="'MyriadPro-Regular'" font-size="12.2218" id="trsvg1-ja">微小管形成中心</tspan><tspan x="23.111" y="14.666" font-family="'MyriadPro-Regular'" font-size="12.2218" id="trsvg2-ja">(MTOC)</tspan></text><text transform="matrix(1 0 0 1 50.792 66.4365)" id="trsvg8"><tspan x="0" y="0" font-family="'MyriadPro-Regular'" font-size="12.2218" id="trsvg1">Microtubule organizing</tspan><tspan x="23.111" y="14.666" font-family="'MyriadPro-Regular'" font-size="12.2218" id="trsvg2">center (MTOC)</tspan></text></switch>
	<switch><text transform="matrix(1 0 0 1 16.7065 156.5723)" font-family="'MyriadPro-Regular'" font-size="12.2218" id="trsvg9-ja" systemLanguage="ja"><tspan id="trsvg3-ja">星状体微小管</tspan></text><text transform="matrix(1 0 0 1 16.7065 156.5723)" font-family="'MyriadPro-Regular'" font-size="12.2218" id="trsvg9"><tspan id="trsvg3">Astral microtubules</tspan></text></switch>
	<switch><text transform="matrix(1 0 0 1 434.4854 25.9521)" font-family="'MyriadPro-Regular'" font-size="12.2218" id="trsvg10-ja" systemLanguage="ja"><tspan id="trsvg4-ja">極微小管</tspan></text><text transform="matrix(1 0 0 1 434.4854 25.9521)" font-family="'MyriadPro-Regular'" font-size="12.2218" id="trsvg10"><tspan id="trsvg4">Polar microtubules</tspan></text></switch>
	<g>
		<polygon points="501.044,306.636 437.82,276.56 441.149,273.911 427.946,272.68 437.231,282.147 437.187,277.895 500.408,307.973       "/>
	</g>
	<switch><text transform="matrix(1 0 0 1 430.7402 321.7959)" id="trsvg11-ja" systemLanguage="ja"><tspan x="0" y="0" font-family="'MyriadPro-Regular'" font-size="12.2218" id="trsvg5-ja">キネトコア微小管</tspan><tspan x="43.375" y="14.666" font-family="'MyriadPro-Regular'" font-size="12.2218" id="trsvg6-ja">(K繊維)</tspan></text><text transform="matrix(1 0 0 1 430.7402 321.7959)" id="trsvg11"><tspan x="0" y="0" font-family="'MyriadPro-Regular'" font-size="12.2218" id="trsvg5">Kinetochore microtubules</tspan><tspan x="43.375" y="14.666" font-family="'MyriadPro-Regular'" font-size="12.2218" id="trsvg6">(K-fibers)</tspan></text></switch>
	<g>
		<polygon points="248.292,327.521 314.64,305.162 314.089,309.381 324.433,301.082 311.176,300.737 314.166,303.762     247.82,326.118   "/>
	</g>
	<switch><text transform="matrix(1 0 0 1 202.2773 341.6563)" font-family="'MyriadPro-Regular'" font-size="12.2218" id="trsvg12-ja" systemLanguage="ja"><tspan id="trsvg7-ja">キネトコア</tspan></text><text transform="matrix(1 0 0 1 202.2773 341.6563)" font-family="'MyriadPro-Regular'" font-size="12.2218" id="trsvg12"><tspan id="trsvg7">Kinetochore</tspan></text></switch>
</g>
</svg>