<?xml version="1.0" encoding="UTF-8" standalone="no"?>
<!-- Created with Inkscape (http://www.inkscape.org/) -->

<svg
   width="623.89594mm"
   height="628.80243mm"
   viewBox="0 0 623.89594 628.80243"
   version="1.1"
   id="svg5"
   sodipodi:docname="surface-bulk-viscous-0.svg"
   inkscape:version="1.2.2 (1:1.2.2+202212051550+b0a8486541)"
   inkscape:export-filename="surface-bulk-viscous-0.png"
   inkscape:export-xdpi="25.4"
   inkscape:export-ydpi="25.4"
   xmlns:inkscape="http://www.inkscape.org/namespaces/inkscape"
   xmlns:sodipodi="http://sodipodi.sourceforge.net/DTD/sodipodi-0.dtd"
   xmlns="http://www.w3.org/2000/svg"
   xmlns:svg="http://www.w3.org/2000/svg"
   xmlns:ns1="http://www.iki.fi/pav/software/textext/">
  <sodipodi:namedview
     id="namedview7"
     pagecolor="#505050"
     bordercolor="#ffffff"
     borderopacity="1"
     inkscape:showpageshadow="0"
     inkscape:pageopacity="0"
     inkscape:pagecheckerboard="1"
     inkscape:deskcolor="#505050"
     inkscape:document-units="mm"
     showgrid="false"
     inkscape:zoom="0.10512065"
     inkscape:cx="-642.11932"
     inkscape:cy="1536.3299"
     inkscape:window-width="1884"
     inkscape:window-height="1536"
     inkscape:window-x="1956"
     inkscape:window-y="27"
     inkscape:window-maximized="0"
     inkscape:current-layer="layer1" />
  <defs
     id="defs2">
    <inkscape:path-effect
       effect="bspline"
       id="path-effect11596"
       is_visible="true"
       lpeversion="1"
       weight="33.333333"
       steps="2"
       helper_size="0"
       apply_no_weight="true"
       apply_with_weight="true"
       only_selected="false" />
    <inkscape:path-effect
       effect="bspline"
       id="path-effect11556"
       is_visible="true"
       lpeversion="1"
       weight="33.333333"
       steps="2"
       helper_size="0"
       apply_no_weight="true"
       apply_with_weight="true"
       only_selected="false" />
    <inkscape:path-effect
       effect="bspline"
       id="path-effect11514"
       is_visible="true"
       lpeversion="1"
       weight="33.333333"
       steps="2"
       helper_size="0"
       apply_no_weight="true"
       apply_with_weight="true"
       only_selected="false" />
    <inkscape:path-effect
       effect="bspline"
       id="path-effect11474"
       is_visible="true"
       lpeversion="1"
       weight="33.333333"
       steps="2"
       helper_size="0"
       apply_no_weight="true"
       apply_with_weight="true"
       only_selected="false" />
    <inkscape:path-effect
       effect="bspline"
       id="path-effect11432"
       is_visible="true"
       lpeversion="1"
       weight="33.333333"
       steps="2"
       helper_size="0"
       apply_no_weight="true"
       apply_with_weight="true"
       only_selected="false" />
    <inkscape:path-effect
       effect="bspline"
       id="path-effect11390"
       is_visible="true"
       lpeversion="1"
       weight="33.333333"
       steps="2"
       helper_size="0"
       apply_no_weight="true"
       apply_with_weight="true"
       only_selected="false" />
    <inkscape:path-effect
       effect="bspline"
       id="path-effect11350"
       is_visible="true"
       lpeversion="1"
       weight="33.333333"
       steps="2"
       helper_size="0"
       apply_no_weight="true"
       apply_with_weight="true"
       only_selected="false" />
    <inkscape:path-effect
       effect="bspline"
       id="path-effect11310"
       is_visible="true"
       lpeversion="1"
       weight="33.333333"
       steps="2"
       helper_size="0"
       apply_no_weight="true"
       apply_with_weight="true"
       only_selected="false" />
    <inkscape:path-effect
       effect="bspline"
       id="path-effect11268"
       is_visible="true"
       lpeversion="1"
       weight="33.333333"
       steps="2"
       helper_size="0"
       apply_no_weight="true"
       apply_with_weight="true"
       only_selected="false" />
    <inkscape:path-effect
       effect="bspline"
       id="path-effect11226"
       is_visible="true"
       lpeversion="1"
       weight="33.333333"
       steps="2"
       helper_size="0"
       apply_no_weight="true"
       apply_with_weight="true"
       only_selected="false" />
    <inkscape:path-effect
       effect="bspline"
       id="path-effect11184"
       is_visible="true"
       lpeversion="1"
       weight="33.333333"
       steps="2"
       helper_size="0"
       apply_no_weight="true"
       apply_with_weight="true"
       only_selected="false" />
    <inkscape:path-effect
       effect="bspline"
       id="path-effect11144"
       is_visible="true"
       lpeversion="1"
       weight="33.333333"
       steps="2"
       helper_size="0"
       apply_no_weight="true"
       apply_with_weight="true"
       only_selected="false" />
    <inkscape:path-effect
       effect="bspline"
       id="path-effect11104"
       is_visible="true"
       lpeversion="1"
       weight="33.333333"
       steps="2"
       helper_size="0"
       apply_no_weight="true"
       apply_with_weight="true"
       only_selected="false" />
    <marker
       style="overflow:visible"
       id="TriangleStart"
       refX="0"
       refY="0"
       orient="auto-start-reverse"
       inkscape:stockid="TriangleStart"
       markerWidth="5.3244081"
       markerHeight="6.155385"
       viewBox="0 0 5.3244081 6.1553851"
       inkscape:isstock="true"
       inkscape:collect="always"
       preserveAspectRatio="xMidYMid">
      <path
         transform="scale(0.5)"
         style="fill:context-stroke;fill-rule:evenodd;stroke:context-stroke;stroke-width:1pt"
         d="M 5.77,0 -2.88,5 V -5 Z"
         id="path135" />
    </marker>
    <inkscape:path-effect
       effect="bspline"
       id="path-effect6477"
       is_visible="true"
       lpeversion="1"
       weight="33.333333"
       steps="2"
       helper_size="0"
       apply_no_weight="true"
       apply_with_weight="true"
       only_selected="false" />
    <inkscape:path-effect
       effect="bspline"
       id="path-effect6443"
       is_visible="true"
       lpeversion="1"
       weight="33.333333"
       steps="2"
       helper_size="0"
       apply_no_weight="true"
       apply_with_weight="true"
       only_selected="false" />
    <marker
       style="overflow:visible"
       id="Arrow3"
       refX="0"
       refY="0"
       orient="auto-start-reverse"
       inkscape:stockid="Arrow3"
       markerWidth="4.2071066"
       markerHeight="6.9999995"
       viewBox="0 0 4.2071068 7"
       inkscape:isstock="true"
       inkscape:collect="always"
       preserveAspectRatio="xMidYMid">
      <path
         style="fill:none;stroke:context-stroke;stroke-width:1;stroke-linecap:round"
         d="M 3,-3 0,0 3,3"
         id="arrow3"
         transform="rotate(180,0.125,0)"
         sodipodi:nodetypes="ccc" />
    </marker>
    <inkscape:path-effect
       effect="bspline"
       id="path-effect35594"
       is_visible="true"
       lpeversion="1"
       weight="33.333333"
       steps="2"
       helper_size="0"
       apply_no_weight="true"
       apply_with_weight="true"
       only_selected="false" />
    <inkscape:path-effect
       effect="bspline"
       id="path-effect35646"
       is_visible="true"
       lpeversion="1"
       weight="33.333333"
       steps="2"
       helper_size="0"
       apply_no_weight="true"
       apply_with_weight="true"
       only_selected="false" />
    <inkscape:path-effect
       effect="bspline"
       id="path-effect35698"
       is_visible="true"
       lpeversion="1"
       weight="33.333333"
       steps="2"
       helper_size="0"
       apply_no_weight="true"
       apply_with_weight="true"
       only_selected="false" />
    <marker
       style="overflow:visible"
       id="Arrow3-3"
       refX="0"
       refY="0"
       orient="auto-start-reverse"
       inkscape:stockid="Arrow3"
       markerWidth="4.2071066"
       markerHeight="6.9999995"
       viewBox="0 0 4.2071068 7"
       inkscape:isstock="true"
       inkscape:collect="always"
       preserveAspectRatio="xMidYMid">
      <path
         style="fill:none;stroke:context-stroke;stroke-width:1;stroke-linecap:round"
         d="M 3,-3 0,0 3,3"
         id="arrow3-6"
         transform="rotate(180,0.125,0)"
         sodipodi:nodetypes="ccc" />
    </marker>
    <inkscape:path-effect
       effect="bspline"
       id="path-effect35054"
       is_visible="true"
       lpeversion="1"
       weight="33.333333"
       steps="2"
       helper_size="0"
       apply_no_weight="true"
       apply_with_weight="true"
       only_selected="false" />
    <inkscape:path-effect
       effect="bspline"
       id="path-effect35106"
       is_visible="true"
       lpeversion="1"
       weight="33.333333"
       steps="2"
       helper_size="0"
       apply_no_weight="true"
       apply_with_weight="true"
       only_selected="false" />
    <marker
       style="overflow:visible"
       id="marker6510"
       refX="0"
       refY="0"
       orient="auto-start-reverse"
       inkscape:stockid="TriangleStart"
       markerWidth="5.3244081"
       markerHeight="6.155385"
       viewBox="0 0 5.3244081 6.1553851"
       inkscape:isstock="true"
       inkscape:collect="always"
       preserveAspectRatio="xMidYMid">
      <path
         transform="scale(0.5)"
         style="fill:context-stroke;fill-rule:evenodd;stroke:context-stroke;stroke-width:1pt"
         d="M 5.77,0 -2.88,5 V -5 Z"
         id="path6508" />
    </marker>
    <inkscape:path-effect
       effect="bspline"
       id="path-effect6706"
       is_visible="true"
       lpeversion="1"
       weight="33.333333"
       steps="2"
       helper_size="0"
       apply_no_weight="true"
       apply_with_weight="true"
       only_selected="false" />
    <inkscape:path-effect
       effect="bspline"
       id="path-effect5425"
       is_visible="true"
       lpeversion="1"
       weight="33.333333"
       steps="2"
       helper_size="0"
       apply_no_weight="true"
       apply_with_weight="true"
       only_selected="false" />
    <g
       id="id-3bfbeff7-6722-439a-9695-18fc2c18d3d4">
      <symbol
         overflow="visible"
         id="id-1ba47d9c-d4f1-450c-a24e-3326555c128e">
        <path
           style="stroke:none;stroke-width:0"
           d=""
           id="id-64ddeaa2-9c2d-4ec8-b6a4-68116a1c365a" />
      </symbol>
      <symbol
         overflow="visible"
         id="id-d0ca5056-6a7b-4d84-8836-ba96af04883f">
        <path
           style="stroke:none;stroke-width:0"
           d="m 3.375,-4.421875 c -2.046875,0 -2.953125,1.875 -2.953125,2.921875 0,1.078125 0.796875,1.578125 1.875,1.578125 1.8125,0 2.875,-1.375 2.875,-2.796875 0,-0.234375 -0.03125,-0.515625 -0.140625,-0.75 h 0.953125 c 0.203125,0 0.359375,0 0.5,-0.15625 C 6.5625,-3.6875 6.6875,-3.8125 6.6875,-4.03125 c 0,-0.390625 -0.34375,-0.390625 -0.53125,-0.390625 z M 2.3125,-0.28125 c -0.859375,0 -0.859375,-0.703125 -0.859375,-0.859375 0,-0.375 0.21875,-1.328125 0.4375,-1.6875 0.203125,-0.34375 0.53125,-0.640625 1.296875,-0.640625 0.8125,0 0.90625,0.34375 0.90625,0.703125 0,0.296875 -0.203125,1.296875 -0.515625,1.78125 C 3.171875,-0.375 2.59375,-0.28125 2.3125,-0.28125 Z m 0,0"
           id="id-6cbdf1a2-bc2f-427c-b76b-991fd39140e2" />
      </symbol>
      <symbol
         overflow="visible"
         id="id-6be652fb-b38a-4140-8d47-c444cf077d43">
        <path
           style="stroke:none;stroke-width:0"
           d="m 5.609375,-3.15625 c 0.078125,-0.28125 0.1875,-0.765625 0.1875,-0.828125 0,-0.21875 -0.15625,-0.4375 -0.46875,-0.4375 -0.15625,0 -0.515625,0.078125 -0.65625,0.53125 -0.03125,0.125 -0.484375,1.9375 -0.5625,2.265625 -0.0625,0.234375 -0.125,0.515625 -0.15625,0.703125 C 3.78125,-0.6875 3.390625,-0.28125 2.875,-0.28125 c -0.578125,0 -0.59375,-0.5 -0.59375,-0.71875 0,-0.609375 0.3125,-1.390625 0.59375,-2.109375 C 2.96875,-3.375 3,-3.4375 3,-3.609375 3,-4.1875 2.421875,-4.5 1.875,-4.5 c -1.0625,0 -1.5625,1.34375 -1.5625,1.546875 0,0.140625 0.15625,0.140625 0.25,0.140625 0.109375,0 0.1875,0 0.21875,-0.125 0.328125,-1.109375 0.875,-1.203125 1.03125,-1.203125 0.078125,0 0.171875,0 0.171875,0.203125 0,0.234375 -0.125,0.515625 -0.15625,0.625 -0.421875,1.046875 -0.609375,1.609375 -0.609375,2.09375 0,1.140625 1,1.296875 1.578125,1.296875 0.296875,0 0.734375,-0.03125 1.265625,-0.546875 0.328125,0.484375 0.90625,0.546875 1.140625,0.546875 0.375,0 0.65625,-0.203125 0.875,-0.5625 0.234375,-0.40625 0.375,-0.9375 0.375,-0.984375 0,-0.140625 -0.15625,-0.140625 -0.25,-0.140625 -0.109375,0 -0.140625,0 -0.1875,0.046875 -0.03125,0.015625 -0.03125,0.03125 -0.078125,0.28125 -0.203125,0.78125 -0.421875,1 -0.6875,1 -0.140625,0 -0.21875,-0.09375 -0.21875,-0.359375 0,-0.171875 0.03125,-0.34375 0.125,-0.734375 0.078125,-0.28125 0.171875,-0.671875 0.234375,-0.890625 z m 0,0"
           id="id-22db65b2-dfbd-4c51-8dc0-b63b342e6f5b" />
      </symbol>
      <symbol
         overflow="visible"
         id="id-c9c459ba-6399-4ad2-9ce7-29f4ad560b83">
        <path
           style="stroke:none;stroke-width:0"
           d="M 2.796875,-3.75 C 2.65625,-4.25 2.109375,-4.5 1.5625,-4.5 1.203125,-4.5 0.921875,-4.296875 0.703125,-3.9375 0.453125,-3.53125 0.3125,-3 0.3125,-2.953125 c 0,0.140625 0.15625,0.140625 0.25,0.140625 0.109375,0 0.140625,0 0.1875,-0.046875 C 0.78125,-2.875 0.78125,-2.90625 0.84375,-3.15625 1.03125,-3.921875 1.25,-4.140625 1.515625,-4.140625 c 0.15625,0 0.234375,0.09375 0.234375,0.359375 0,0.171875 -0.046875,0.328125 -0.140625,0.734375 C 1.53125,-2.765625 1.4375,-2.375 1.390625,-2.15625 L 1.03125,-0.75 C 1,-0.625 0.953125,-0.421875 0.953125,-0.359375 c 0,0.203125 0.15625,0.4375 0.46875,0.4375 0.515625,0 0.625,-0.453125 0.703125,-0.75 0.09375,-0.375 0.171875,-0.6875 0.28125,-1.125 0.03125,-0.125 0.28125,-1.15625 0.3125,-1.1875 0,-0.0625 0.28125,-0.5 0.609375,-0.78125 0.28125,-0.21875 0.609375,-0.375 1.03125,-0.375 0.25,0 0.5,0.09375 0.5,0.578125 0,0.578125 -0.4375,1.734375 -0.625,2.234375 -0.125,0.265625 -0.140625,0.34375 -0.140625,0.515625 0,0.578125 0.578125,0.890625 1.125,0.890625 1.046875,0 1.546875,-1.359375 1.546875,-1.546875 0,-0.140625 -0.140625,-0.140625 -0.234375,-0.140625 -0.125,0 -0.1875,0 -0.234375,0.125 C 5.96875,-0.375 5.4375,-0.28125 5.28125,-0.28125 c -0.078125,0 -0.171875,0 -0.171875,-0.203125 0,-0.234375 0.09375,-0.484375 0.1875,-0.734375 0.171875,-0.40625 0.625,-1.578125 0.625,-2.125 C 5.921875,-4.265625 5.15625,-4.5 4.4375,-4.5 4.234375,-4.5 3.5,-4.5 2.796875,-3.75 Z m 0,0"
           id="id-e213251e-1548-4245-b472-9e3292022b6c" />
      </symbol>
      <symbol
         overflow="visible"
         id="id-b9e9d2cd-1f38-4171-a275-1dcb8cf586f7">
        <path
           style="stroke:none;stroke-width:0"
           d=""
           id="id-f98f877d-5eff-4d46-a58b-8f8c7160099f" />
      </symbol>
      <symbol
         overflow="visible"
         id="id-822d4da4-ae16-4c9d-be8c-097042255d54">
        <path
           style="stroke:none;stroke-width:0"
           d="m 5.28125,-1.171875 h -0.25 c 0,0.015625 -0.0625,0.34375 -0.125,0.515625 C 4.875,-0.546875 4.84375,-0.5 4.421875,-0.5 H 3.828125 C 3.9375,-0.890625 4.140625,-1.15625 4.53125,-1.671875 4.875,-2.140625 5.1875,-2.59375 5.1875,-3.15625 c 0,-0.953125 -1.015625,-1.75 -2.34375,-1.75 -1.34375,0 -2.359375,0.796875 -2.359375,1.75 0,0.609375 0.34375,1.0625 0.828125,1.71875 0.203125,0.265625 0.421875,0.578125 0.53125,0.9375 H 1.25 C 0.84375,-0.5 0.8125,-0.546875 0.78125,-0.625 0.71875,-0.765625 0.640625,-1.15625 0.640625,-1.171875 h -0.25 L 0.640625,0 H 1.90625 c 0.140625,0 0.1875,0 0.1875,-0.15625 0,-0.5 -0.25,-1.09375 -0.40625,-1.4375 -0.265625,-0.609375 -0.453125,-1.0625 -0.453125,-1.578125 0,-0.984375 0.78125,-1.53125 1.609375,-1.53125 0.8125,0 1.59375,0.546875 1.59375,1.53125 0,0.53125 -0.203125,1 -0.4375,1.546875 C 3.84375,-1.28125 3.578125,-0.65625 3.578125,-0.15625 3.578125,0 3.609375,0 3.78125,0 h 1.25 z m 0,0"
           id="id-92e9e977-9252-4dff-a9bd-6e77c61c79be" />
      </symbol>
      <symbol
         overflow="visible"
         id="id-383ef0ef-7367-45bf-a76c-261c318d778e">
        <path
           style="stroke:none;stroke-width:0"
           d="m 4.328125,-4.734375 h -3.9375 v 0.25 H 0.5625 c 0.53125,0 0.546875,0.078125 0.546875,0.3125 V -0.5625 c 0,0.234375 -0.015625,0.3125 -0.546875,0.3125 H 0.390625 V 0 c 0,0 0.796875,-0.03125 1.0625,-0.03125 C 1.734375,-0.03125 2.5625,0 2.671875,0 v -0.25 h -0.25 c -0.65625,0 -0.65625,-0.09375 -0.65625,-0.328125 v -3.625 c 0,-0.21875 0.015625,-0.28125 0.34375,-0.28125 h 0.84375 C 4,-4.484375 4.1875,-4.09375 4.296875,-3.125 H 4.53125 Z m 0,0"
           id="id-aefd2a44-859b-4696-9809-f61e91e07f5e" />
      </symbol>
      <symbol
         overflow="visible"
         id="id-3680c2eb-ddb3-479b-9fb9-6175bcdc0b37">
        <path
           style="stroke:none;stroke-width:0"
           d=""
           id="id-d345d7f6-55c0-4d28-85ab-c4203267ffbd" />
      </symbol>
      <symbol
         overflow="visible"
         id="id-38c1ea74-1524-4d5c-b244-fc31c1c8c1e6">
        <path
           style="stroke:none;stroke-width:0"
           d="m 3.296875,2.390625 c 0,-0.03125 0,-0.046875 -0.171875,-0.21875 C 1.890625,0.921875 1.5625,-0.96875 1.5625,-2.5 c 0,-1.734375 0.375,-3.46875 1.609375,-4.703125 0.125,-0.125 0.125,-0.140625 0.125,-0.171875 0,-0.078125 -0.03125,-0.109375 -0.09375,-0.109375 -0.109375,0 -1,0.6875 -1.59375,1.953125 -0.5,1.09375 -0.625,2.203125 -0.625,3.03125 0,0.78125 0.109375,1.984375 0.65625,3.125 C 2.25,1.84375 3.09375,2.5 3.203125,2.5 c 0.0625,0 0.09375,-0.03125 0.09375,-0.109375 z m 0,0"
           id="id-50f47f91-3ff7-40e5-a61e-1dbf4a91d7b1" />
      </symbol>
      <symbol
         overflow="visible"
         id="id-346a77e8-bec9-43d5-892a-ee6636119300">
        <path
           style="stroke:none;stroke-width:0"
           d="m 2.875,-2.5 c 0,-0.765625 -0.109375,-1.96875 -0.65625,-3.109375 -0.59375,-1.21875 -1.453125,-1.875 -1.546875,-1.875 -0.0625,0 -0.109375,0.046875 -0.109375,0.109375 0,0.03125 0,0.046875 0.1875,0.234375 0.984375,0.984375 1.546875,2.5625 1.546875,4.640625 0,1.71875 -0.359375,3.46875 -1.59375,4.71875 C 0.5625,2.34375 0.5625,2.359375 0.5625,2.390625 0.5625,2.453125 0.609375,2.5 0.671875,2.5 0.765625,2.5 1.671875,1.8125 2.25,0.546875 2.765625,-0.546875 2.875,-1.65625 2.875,-2.5 Z m 0,0"
           id="id-06df4389-d581-48bb-af1f-b961a34e438e" />
      </symbol>
    </g>
  </defs>
  <g
     inkscape:label="Layer 1"
     inkscape:groupmode="layer"
     id="layer1"
     transform="translate(-653.16574,-0.44000244)">
    <circle
       style="fill:#ffeeaa;stroke:#d4aa00;stroke-width:30;stroke-linecap:round;stroke-dasharray:none;stroke-dashoffset:6.12283"
       id="path234"
       cx="948.38086"
       cy="295.65512"
       r="280.21512" />
    <g
       transform="matrix(8.5662928,0,0,8.5662928,795.30834,229.53765)"
       ns1:version="1.8.1"
       ns1:texconverter="pdflatex"
       ns1:pdfconverter="inkscape"
       ns1:text="$\\Omega$"
       ns1:preamble="/home/eric-neiva/.config/inkscape/extensions/textext/default_packages.tex"
       ns1:scale="15.275849821981634"
       ns1:alignment="middle center"
       ns1:stroke-to-path="0"
       ns1:jacobian_sqrt="5.38898"
       id="g6098">
      <defs
         id="id-0777e23b-f2cd-4ca7-ab5c-5cb1256fd4dd">
        <g
           id="id-2cf43a94-e5c1-4f4b-8232-5a10a6d9617d">
          <symbol
             overflow="visible"
             id="id-2e3e3e87-c434-47e1-b84f-5f3d43852efd">
            <path
               style="stroke:none;stroke-width:0"
               d=""
               id="id-e12d02e6-eafe-4d0d-8a26-864a257efee4" />
          </symbol>
          <symbol
             overflow="visible"
             id="id-42a3f3a8-897a-4b1f-badb-07152b02ab3d">
            <path
               style="stroke:none;stroke-width:0"
               d="M 6.75,-1.609375 H 6.5 c -0.046875,0.25 -0.09375,0.484375 -0.1875,0.71875 -0.046875,0.15625 -0.078125,0.25 -0.65625,0.25 H 4.859375 C 5,-1.203125 5.296875,-1.6875 5.75,-2.34375 c 0.46875,-0.703125 0.875,-1.390625 0.875,-2.1875 0,-1.375 -1.34375,-2.5 -3.03125,-2.5 -1.703125,0 -3.03125,1.140625 -3.03125,2.5 0,0.796875 0.40625,1.484375 0.875,2.1875 0.4375,0.65625 0.75,1.140625 0.890625,1.703125 H 1.53125 C 0.953125,-0.640625 0.921875,-0.734375 0.875,-0.875 0.78125,-1.109375 0.734375,-1.359375 0.6875,-1.609375 h -0.25 L 0.765625,0 h 1.59375 c 0.21875,0 0.25,0 0.25,-0.203125 0,-0.703125 -0.3125,-1.578125 -0.53125,-2.21875 -0.21875,-0.578125 -0.5,-1.359375 -0.5,-2.109375 0,-1.59375 1.109375,-2.28125 2.015625,-2.28125 0.953125,0 2.015625,0.71875 2.015625,2.28125 0,0.75 -0.28125,1.5 -0.5625,2.3125 -0.15625,0.421875 -0.46875,1.328125 -0.46875,2.015625 C 4.578125,0 4.609375,0 4.828125,0 h 1.59375 z m 0,0"
               id="id-09f7e83e-6333-42a9-8d52-9bb40d9ef871" />
          </symbol>
        </g>
      </defs>
      <g
         id="id-c815870d-43fe-45ca-9144-90a4f90f69fd"
         transform="translate(-149.15,-127.734)">
        <g
           style="fill:#000000;fill-opacity:1"
           id="id-3a68dbb4-f798-4141-bd08-c7fcd0190a8a">
          <g
             transform="translate(148.712,134.765)"
             id="g6094">
            <path
               style="stroke:none;stroke-width:0"
               d="M 6.75,-1.609375 H 6.5 c -0.046875,0.25 -0.09375,0.484375 -0.1875,0.71875 -0.046875,0.15625 -0.078125,0.25 -0.65625,0.25 H 4.859375 C 5,-1.203125 5.296875,-1.6875 5.75,-2.34375 c 0.46875,-0.703125 0.875,-1.390625 0.875,-2.1875 0,-1.375 -1.34375,-2.5 -3.03125,-2.5 -1.703125,0 -3.03125,1.140625 -3.03125,2.5 0,0.796875 0.40625,1.484375 0.875,2.1875 0.4375,0.65625 0.75,1.140625 0.890625,1.703125 H 1.53125 C 0.953125,-0.640625 0.921875,-0.734375 0.875,-0.875 0.78125,-1.109375 0.734375,-1.359375 0.6875,-1.609375 h -0.25 L 0.765625,0 h 1.59375 c 0.21875,0 0.25,0 0.25,-0.203125 0,-0.703125 -0.3125,-1.578125 -0.53125,-2.21875 -0.21875,-0.578125 -0.5,-1.359375 -0.5,-2.109375 0,-1.59375 1.109375,-2.28125 2.015625,-2.28125 0.953125,0 2.015625,0.71875 2.015625,2.28125 0,0.75 -0.28125,1.5 -0.5625,2.3125 -0.15625,0.421875 -0.46875,1.328125 -0.46875,2.015625 C 4.578125,0 4.609375,0 4.828125,0 h 1.59375 z m 0,0"
               id="id-68827e9a-1e16-49cf-b181-15ff8574b839" />
          </g>
        </g>
      </g>
    </g>
    <g
       transform="matrix(8.920667,0,0,8.920667,1095.4314,37.386757)"
       ns1:version="1.8.1"
       ns1:texconverter="pdflatex"
       ns1:pdfconverter="inkscape"
       ns1:text="$\\Gamma$"
       ns1:preamble="/home/eric-neiva/.config/inkscape/extensions/textext/default_packages.tex"
       ns1:scale="15.275849821981634"
       ns1:alignment="middle center"
       ns1:stroke-to-path="0"
       ns1:jacobian_sqrt="5.38898"
       id="g6396">
      <defs
         id="id-c5224ea7-5a6f-4737-bcad-46a1b7ba2d11">
        <g
           id="id-41623fbe-1d4c-4b51-a373-61388808f03a">
          <symbol
             overflow="visible"
             id="id-e7e85908-3373-42ec-ae9d-920d4a82ded5">
            <path
               style="stroke:none;stroke-width:0"
               d=""
               id="id-f87c9096-fb0b-4517-ac99-5317f748dd0f" />
          </symbol>
          <symbol
             overflow="visible"
             id="id-8a061278-a6de-432e-a3cf-fd2a035ff929">
            <path
               style="stroke:none;stroke-width:0"
               d="m 5.515625,-6.78125 h -5.1875 v 0.3125 H 0.5625 c 0.765625,0 0.796875,0.109375 0.796875,0.46875 v 5.21875 c 0,0.359375 -0.03125,0.46875 -0.796875,0.46875 H 0.328125 V 0 c 0.34375,-0.03125 1.125,-0.03125 1.515625,-0.03125 0.40625,0 1.3125,0 1.671875,0.03125 V -0.3125 H 3.1875 C 2.25,-0.3125 2.25,-0.4375 2.25,-0.78125 v -5.296875 c 0,-0.328125 0.015625,-0.390625 0.484375,-0.390625 h 1.03125 c 1.421875,0 1.625,0.59375 1.78125,1.9375 h 0.25 z m 0,0"
               id="id-c23c073f-0b10-4880-9a18-745f920b08fa" />
          </symbol>
        </g>
      </defs>
      <g
         id="id-2c468d06-0ec5-45f4-a4fc-6c41bee8cafa"
         transform="translate(-149.04,-127.984)">
        <g
           style="fill:#000000;fill-opacity:1"
           id="id-ca5b1301-b6eb-49ab-a056-3d47a1a0b700">
          <g
             transform="translate(148.712,134.765)"
             id="g6392">
            <path
               style="stroke:none;stroke-width:0"
               d="m 5.515625,-6.78125 h -5.1875 v 0.3125 H 0.5625 c 0.765625,0 0.796875,0.109375 0.796875,0.46875 v 5.21875 c 0,0.359375 -0.03125,0.46875 -0.796875,0.46875 H 0.328125 V 0 c 0.34375,-0.03125 1.125,-0.03125 1.515625,-0.03125 0.40625,0 1.3125,0 1.671875,0.03125 V -0.3125 H 3.1875 C 2.25,-0.3125 2.25,-0.4375 2.25,-0.78125 v -5.296875 c 0,-0.328125 0.015625,-0.390625 0.484375,-0.390625 h 1.03125 c 1.421875,0 1.625,0.59375 1.78125,1.9375 h 0.25 z m 0,0"
               id="id-f09c3d3f-44af-4c92-831a-fd7b23f89fd8" />
          </g>
        </g>
      </g>
    </g>
    <path
       style="fill:none;stroke:#d4aa00;stroke-width:7.5;stroke-linecap:butt;stroke-linejoin:miter;stroke-dasharray:22.5, 22.5;stroke-dashoffset:0;stroke-opacity:1"
       d="m 1050.1184,569.97462 c 34.2713,-6.35814 68.5424,-12.71624 100.1322,-26.03311 31.5898,-13.31687 60.4973,-33.59173 72.8888,-62.36444 12.3915,-28.77272 8.2667,-66.0418 4.1418,-103.31187"
       id="path6441"
       inkscape:path-effect="#path-effect6443"
       inkscape:original-d="m 1050.1184,569.97462 c 34.2714,-6.35784 68.5425,-12.71593 102.8133,-19.07429 28.9089,-20.27538 57.8164,-40.55022 86.7241,-60.82571 -4.1247,-37.27029 -8.2495,-74.53937 -12.3746,-111.80942" />
    <path
       style="fill:none;stroke:#000000;stroke-width:5;stroke-linecap:butt;stroke-linejoin:miter;stroke-dasharray:none;stroke-opacity:1;marker-end:url(#TriangleStart)"
       d="m 1162.0382,474.19299 c 20.2283,17.9882 40.4562,35.9761 60.6839,53.96379"
       id="path6475"
       inkscape:path-effect="#path-effect6477"
       inkscape:original-d="m 1162.0382,474.19299 c 20.2283,17.98817 40.4562,35.97611 60.6839,53.96379" />
    <g
       transform="matrix(4.76475,0,0,4.76475,1166.1514,544.21166)"
       ns1:version="1.8.1"
       ns1:texconverter="pdflatex"
       ns1:pdfconverter="inkscape"
       ns1:text="$u^{\\boldsymbol{n}}_{\\Gamma}\\boldsymbol{n}_{\\Gamma}$"
       ns1:preamble="/home/eric-neiva/.config/inkscape/extensions/textext/default_packages.tex"
       ns1:scale="13.506317517299232"
       ns1:alignment="middle center"
       ns1:stroke-to-path="0"
       ns1:jacobian_sqrt="4.76475"
       style="fill:#000000;stroke-width:0"
       id="g4957">
      <defs
         id="id-6ec9c639-3303-4d84-ae65-d0d76f4784d9"
         style="fill:#0000ff;stroke-width:0">
        <g
           id="id-3d8721b9-10ef-46b7-9f51-001c4ba379b7"
           style="fill:#0000ff;stroke-width:0">
          <symbol
             overflow="visible"
             id="id-9f365821-c81f-4c61-b072-d012e66564f4"
             style="fill:#0000ff;stroke-width:0">
            <path
               style="fill:#0000ff;stroke:#0000ff;stroke-width:0"
               d=""
               id="id-ded59419-948e-4f06-aacd-15b5525c759c" />
          </symbol>
          <symbol
             overflow="visible"
             id="id-e91ff44c-6d34-4c0a-afef-e35aa0c6b04a"
             style="fill:#0000ff;stroke-width:0">
            <path
               style="fill:#0000ff;stroke:#0000ff;stroke-width:0"
               d="M 3.484375,-0.5625 C 3.59375,-0.15625 3.953125,0.109375 4.375,0.109375 4.71875,0.109375 4.953125,-0.125 5.109375,-0.4375 5.28125,-0.796875 5.40625,-1.40625 5.40625,-1.421875 c 0,-0.109375 -0.078125,-0.109375 -0.109375,-0.109375 -0.109375,0 -0.109375,0.046875 -0.140625,0.1875 -0.140625,0.5625 -0.328125,1.234375 -0.75,1.234375 -0.203125,0 -0.3125,-0.125 -0.3125,-0.453125 0,-0.21875 0.125,-0.6875 0.203125,-1.046875 L 4.578125,-2.6875 C 4.609375,-2.828125 4.703125,-3.203125 4.75,-3.359375 4.796875,-3.59375 4.890625,-3.96875 4.890625,-4.03125 c 0,-0.171875 -0.140625,-0.265625 -0.28125,-0.265625 -0.046875,0 -0.3125,0.015625 -0.390625,0.34375 -0.1875,0.734375 -0.625,2.484375 -0.75,3 -0.015625,0.046875 -0.40625,0.84375 -1.140625,0.84375 -0.515625,0 -0.609375,-0.453125 -0.609375,-0.8125 0,-0.5625 0.28125,-1.34375 0.53125,-2.03125 0.125,-0.3125 0.171875,-0.453125 0.171875,-0.640625 0,-0.4375 -0.3125,-0.8125 -0.8125,-0.8125 -0.953125,0 -1.3125,1.453125 -1.3125,1.53125 0,0.109375 0.09375,0.109375 0.109375,0.109375 0.109375,0 0.109375,-0.03125 0.15625,-0.1875 0.25,-0.859375 0.640625,-1.234375 1.015625,-1.234375 0.09375,0 0.25,0.015625 0.25,0.328125 0,0.234375 -0.109375,0.53125 -0.171875,0.671875 -0.375,1 -0.578125,1.609375 -0.578125,2.09375 0,0.953125 0.6875,1.203125 1.21875,1.203125 0.65625,0 1.015625,-0.453125 1.1875,-0.671875 z m 0,0"
               id="id-7a880b8d-e9bb-4be9-9274-ebf63095f924" />
          </symbol>
          <symbol
             overflow="visible"
             id="id-d6546090-d8db-4d98-b3ea-fe1c18edb6aa"
             style="fill:#0000ff;stroke-width:0">
            <path
               style="fill:#0000ff;stroke:#0000ff;stroke-width:0"
               d=""
               id="id-a9df978d-c3af-421b-864f-fec2c63bd60d" />
          </symbol>
          <symbol
             overflow="visible"
             id="id-3c045d51-ab22-4c3c-99e6-6f7350dfcd2f"
             style="fill:#0000ff;stroke-width:0">
            <path
               style="fill:#0000ff;stroke:#0000ff;stroke-width:0"
               d="m 1.03125,-0.90625 c -0.046875,0.203125 -0.125,0.5625 -0.125,0.609375 0,0.25 0.1875,0.359375 0.359375,0.359375 C 1.65625,0.0625 1.75,-0.296875 1.8125,-0.5 1.90625,-0.90625 1.90625,-0.921875 2,-1.3125 2.109375,-1.71875 2.109375,-1.734375 2.125,-1.796875 2.171875,-2 2.46875,-2.34375 2.65625,-2.515625 c 0.125,-0.109375 0.421875,-0.3125 0.796875,-0.3125 0.328125,0 0.390625,0.1875 0.390625,0.40625 0,0.390625 -0.3125,1.171875 -0.421875,1.453125 C 3.328125,-0.75 3.3125,-0.6875 3.3125,-0.578125 c 0,0.40625 0.453125,0.640625 0.890625,0.640625 0.796875,0 1.21875,-0.890625 1.21875,-1.09375 0,-0.125 -0.125,-0.125 -0.21875,-0.125 -0.171875,0 -0.1875,0.015625 -0.234375,0.15625 -0.125,0.390625 -0.421875,0.734375 -0.71875,0.734375 -0.046875,0 -0.125,0 -0.125,-0.171875 0,-0.125 0.046875,-0.203125 0.171875,-0.53125 0.0625,-0.140625 0.390625,-0.953125 0.390625,-1.328125 0,-0.859375 -0.96875,-0.859375 -1.171875,-0.859375 -0.171875,0 -0.703125,0 -1.265625,0.5625 -0.15625,-0.5625 -0.90625,-0.5625 -0.96875,-0.5625 -0.734375,0 -0.96875,1.03125 -0.96875,1.09375 0,0.125 0.109375,0.125 0.21875,0.125 0.171875,0 0.1875,0 0.21875,-0.15625 0.09375,-0.296875 0.21875,-0.734375 0.484375,-0.734375 0.171875,0 0.1875,0.171875 0.1875,0.28125 0,0.09375 -0.015625,0.171875 -0.0625,0.390625 C 1.28125,-1.890625 1.28125,-1.875 1.21875,-1.609375 Z m 0,0"
               id="id-6e8f8e48-56a0-4e89-9f07-6162caf527df" />
          </symbol>
          <symbol
             overflow="visible"
             id="id-f13c6a64-15cc-4367-823b-4a94768f4a0a"
             style="fill:#0000ff;stroke-width:0">
            <path
               style="fill:#0000ff;stroke:#0000ff;stroke-width:0"
               d=""
               id="id-ea8ca1c2-34a6-4a41-a450-91be7114ccf0" />
          </symbol>
          <symbol
             overflow="visible"
             id="id-32574973-1032-49c5-8655-963a7064b4c1"
             style="fill:#0000ff;stroke-width:0">
            <path
               style="fill:#0000ff;stroke:#0000ff;stroke-width:0"
               d="m 4.328125,-4.734375 h -3.9375 v 0.25 H 0.5625 c 0.53125,0 0.546875,0.078125 0.546875,0.3125 V -0.5625 c 0,0.234375 -0.015625,0.3125 -0.546875,0.3125 H 0.390625 V 0 c 0,0 0.796875,-0.03125 1.0625,-0.03125 C 1.734375,-0.03125 2.5625,0 2.671875,0 v -0.25 h -0.25 c -0.65625,0 -0.65625,-0.09375 -0.65625,-0.328125 v -3.625 c 0,-0.21875 0.015625,-0.28125 0.34375,-0.28125 h 0.84375 C 4,-4.484375 4.1875,-4.09375 4.296875,-3.125 H 4.53125 Z m 0,0"
               id="id-502efd00-ceae-4d6f-b647-98c93b65360c" />
          </symbol>
          <symbol
             overflow="visible"
             id="id-fa973f1e-614a-4813-acdd-66b2691a706a"
             style="fill:#0000ff;stroke-width:0">
            <path
               style="fill:#0000ff;stroke:#0000ff;stroke-width:0"
               d=""
               id="id-9e14e487-ffa2-45ca-8367-055466fa0e5f" />
          </symbol>
          <symbol
             overflow="visible"
             id="id-8812ee0a-562e-4d43-8921-b21c2fe3de0c"
             style="fill:#0000ff;stroke-width:0">
            <path
               style="fill:#0000ff;stroke:#0000ff;stroke-width:0"
               d="M 2.796875,-3.75 C 2.65625,-4.25 2.109375,-4.5 1.5625,-4.5 1.203125,-4.5 0.921875,-4.296875 0.703125,-3.9375 0.453125,-3.53125 0.3125,-3 0.3125,-2.953125 c 0,0.140625 0.15625,0.140625 0.25,0.140625 0.109375,0 0.140625,0 0.1875,-0.046875 C 0.78125,-2.875 0.78125,-2.90625 0.84375,-3.15625 1.03125,-3.921875 1.25,-4.140625 1.515625,-4.140625 c 0.15625,0 0.234375,0.09375 0.234375,0.359375 0,0.171875 -0.046875,0.328125 -0.140625,0.734375 C 1.53125,-2.765625 1.4375,-2.375 1.390625,-2.15625 L 1.03125,-0.75 C 1,-0.625 0.953125,-0.421875 0.953125,-0.359375 c 0,0.203125 0.15625,0.4375 0.46875,0.4375 0.515625,0 0.625,-0.453125 0.703125,-0.75 0.09375,-0.375 0.171875,-0.6875 0.28125,-1.125 0.03125,-0.125 0.28125,-1.15625 0.3125,-1.1875 0,-0.0625 0.28125,-0.5 0.609375,-0.78125 0.28125,-0.21875 0.609375,-0.375 1.03125,-0.375 0.25,0 0.5,0.09375 0.5,0.578125 0,0.578125 -0.4375,1.734375 -0.625,2.234375 -0.125,0.265625 -0.140625,0.34375 -0.140625,0.515625 0,0.578125 0.578125,0.890625 1.125,0.890625 1.046875,0 1.546875,-1.359375 1.546875,-1.546875 0,-0.140625 -0.140625,-0.140625 -0.234375,-0.140625 -0.125,0 -0.1875,0 -0.234375,0.125 C 5.96875,-0.375 5.4375,-0.28125 5.28125,-0.28125 c -0.078125,0 -0.171875,0 -0.171875,-0.203125 0,-0.234375 0.09375,-0.484375 0.1875,-0.734375 0.171875,-0.40625 0.625,-1.578125 0.625,-2.125 C 5.921875,-4.265625 5.15625,-4.5 4.4375,-4.5 4.234375,-4.5 3.5,-4.5 2.796875,-3.75 Z m 0,0"
               id="id-594ae072-4c0a-440c-a44b-5e11baf31524" />
          </symbol>
        </g>
      </defs>
      <g
         id="id-7779386b-ddd2-47c2-b395-d6b7d1cd0318"
         transform="translate(-149.009,-127.993)"
         style="fill:#000000;stroke-width:0">
        <g
           style="fill:#000000;fill-opacity:1;stroke-width:0"
           id="id-2a693aea-f17f-4322-97c6-b7f59ac6bdaf">
          <g
             transform="translate(148.712,134.765)"
             style="fill:#000000;stroke-width:0"
             id="g7853">
            <path
               style="fill:#000000;stroke:#0000ff;stroke-width:0"
               d="M 3.484375,-0.5625 C 3.59375,-0.15625 3.953125,0.109375 4.375,0.109375 4.71875,0.109375 4.953125,-0.125 5.109375,-0.4375 5.28125,-0.796875 5.40625,-1.40625 5.40625,-1.421875 c 0,-0.109375 -0.078125,-0.109375 -0.109375,-0.109375 -0.109375,0 -0.109375,0.046875 -0.140625,0.1875 -0.140625,0.5625 -0.328125,1.234375 -0.75,1.234375 -0.203125,0 -0.3125,-0.125 -0.3125,-0.453125 0,-0.21875 0.125,-0.6875 0.203125,-1.046875 L 4.578125,-2.6875 C 4.609375,-2.828125 4.703125,-3.203125 4.75,-3.359375 4.796875,-3.59375 4.890625,-3.96875 4.890625,-4.03125 c 0,-0.171875 -0.140625,-0.265625 -0.28125,-0.265625 -0.046875,0 -0.3125,0.015625 -0.390625,0.34375 -0.1875,0.734375 -0.625,2.484375 -0.75,3 -0.015625,0.046875 -0.40625,0.84375 -1.140625,0.84375 -0.515625,0 -0.609375,-0.453125 -0.609375,-0.8125 0,-0.5625 0.28125,-1.34375 0.53125,-2.03125 0.125,-0.3125 0.171875,-0.453125 0.171875,-0.640625 0,-0.4375 -0.3125,-0.8125 -0.8125,-0.8125 -0.953125,0 -1.3125,1.453125 -1.3125,1.53125 0,0.109375 0.09375,0.109375 0.109375,0.109375 0.109375,0 0.109375,-0.03125 0.15625,-0.1875 0.25,-0.859375 0.640625,-1.234375 1.015625,-1.234375 0.09375,0 0.25,0.015625 0.25,0.328125 0,0.234375 -0.109375,0.53125 -0.171875,0.671875 -0.375,1 -0.578125,1.609375 -0.578125,2.09375 0,0.953125 0.6875,1.203125 1.21875,1.203125 0.65625,0 1.015625,-0.453125 1.1875,-0.671875 z m 0,0"
               id="id-40cd843b-6a5c-4997-bc7a-1d607d5aeffc" />
          </g>
        </g>
        <g
           style="fill:#000000;fill-opacity:1;stroke-width:0"
           id="id-d1f8b5ff-7b4a-4415-ad6b-6f0bfa1ca3a6">
          <g
             transform="translate(154.415,131.149)"
             style="fill:#000000;stroke-width:0"
             id="g7857">
            <path
               style="fill:#000000;stroke:#0000ff;stroke-width:0"
               d="m 1.03125,-0.90625 c -0.046875,0.203125 -0.125,0.5625 -0.125,0.609375 0,0.25 0.1875,0.359375 0.359375,0.359375 C 1.65625,0.0625 1.75,-0.296875 1.8125,-0.5 1.90625,-0.90625 1.90625,-0.921875 2,-1.3125 2.109375,-1.71875 2.109375,-1.734375 2.125,-1.796875 2.171875,-2 2.46875,-2.34375 2.65625,-2.515625 c 0.125,-0.109375 0.421875,-0.3125 0.796875,-0.3125 0.328125,0 0.390625,0.1875 0.390625,0.40625 0,0.390625 -0.3125,1.171875 -0.421875,1.453125 C 3.328125,-0.75 3.3125,-0.6875 3.3125,-0.578125 c 0,0.40625 0.453125,0.640625 0.890625,0.640625 0.796875,0 1.21875,-0.890625 1.21875,-1.09375 0,-0.125 -0.125,-0.125 -0.21875,-0.125 -0.171875,0 -0.1875,0.015625 -0.234375,0.15625 -0.125,0.390625 -0.421875,0.734375 -0.71875,0.734375 -0.046875,0 -0.125,0 -0.125,-0.171875 0,-0.125 0.046875,-0.203125 0.171875,-0.53125 0.0625,-0.140625 0.390625,-0.953125 0.390625,-1.328125 0,-0.859375 -0.96875,-0.859375 -1.171875,-0.859375 -0.171875,0 -0.703125,0 -1.265625,0.5625 -0.15625,-0.5625 -0.90625,-0.5625 -0.96875,-0.5625 -0.734375,0 -0.96875,1.03125 -0.96875,1.09375 0,0.125 0.109375,0.125 0.21875,0.125 0.171875,0 0.1875,0 0.21875,-0.15625 0.09375,-0.296875 0.21875,-0.734375 0.484375,-0.734375 0.171875,0 0.1875,0.171875 0.1875,0.28125 0,0.09375 -0.015625,0.171875 -0.0625,0.390625 C 1.28125,-1.890625 1.28125,-1.875 1.21875,-1.609375 Z m 0,0"
               id="id-54f3432d-f9e1-4bd5-835b-0c47bfac284d" />
          </g>
        </g>
        <g
           style="fill:#000000;fill-opacity:1;stroke-width:0"
           id="id-db8e64c4-d616-4ac6-b498-2864abca22fc">
          <g
             transform="translate(154.415,137.509)"
             style="fill:#000000;stroke-width:0"
             id="g7861">
            <path
               style="fill:#000000;stroke:#0000ff;stroke-width:0"
               d="m 4.328125,-4.734375 h -3.9375 v 0.25 H 0.5625 c 0.53125,0 0.546875,0.078125 0.546875,0.3125 V -0.5625 c 0,0.234375 -0.015625,0.3125 -0.546875,0.3125 H 0.390625 V 0 c 0,0 0.796875,-0.03125 1.0625,-0.03125 C 1.734375,-0.03125 2.5625,0 2.671875,0 v -0.25 h -0.25 c -0.65625,0 -0.65625,-0.09375 -0.65625,-0.328125 v -3.625 c 0,-0.21875 0.015625,-0.28125 0.34375,-0.28125 h 0.84375 C 4,-4.484375 4.1875,-4.09375 4.296875,-3.125 H 4.53125 Z m 0,0"
               id="id-55d5fb96-229e-4d24-8855-2ce1eb2e1c5a" />
          </g>
        </g>
        <g
           style="fill:#000000;fill-opacity:1;stroke-width:0"
           id="id-a1bde217-9c1f-4b46-b83b-547665922510">
          <g
             transform="translate(160.652,134.765)"
             style="fill:#000000;stroke-width:0"
             id="g7865">
            <path
               style="fill:#000000;stroke:#0000ff;stroke-width:0"
               d="M 2.796875,-3.75 C 2.65625,-4.25 2.109375,-4.5 1.5625,-4.5 1.203125,-4.5 0.921875,-4.296875 0.703125,-3.9375 0.453125,-3.53125 0.3125,-3 0.3125,-2.953125 c 0,0.140625 0.15625,0.140625 0.25,0.140625 0.109375,0 0.140625,0 0.1875,-0.046875 C 0.78125,-2.875 0.78125,-2.90625 0.84375,-3.15625 1.03125,-3.921875 1.25,-4.140625 1.515625,-4.140625 c 0.15625,0 0.234375,0.09375 0.234375,0.359375 0,0.171875 -0.046875,0.328125 -0.140625,0.734375 C 1.53125,-2.765625 1.4375,-2.375 1.390625,-2.15625 L 1.03125,-0.75 C 1,-0.625 0.953125,-0.421875 0.953125,-0.359375 c 0,0.203125 0.15625,0.4375 0.46875,0.4375 0.515625,0 0.625,-0.453125 0.703125,-0.75 0.09375,-0.375 0.171875,-0.6875 0.28125,-1.125 0.03125,-0.125 0.28125,-1.15625 0.3125,-1.1875 0,-0.0625 0.28125,-0.5 0.609375,-0.78125 0.28125,-0.21875 0.609375,-0.375 1.03125,-0.375 0.25,0 0.5,0.09375 0.5,0.578125 0,0.578125 -0.4375,1.734375 -0.625,2.234375 -0.125,0.265625 -0.140625,0.34375 -0.140625,0.515625 0,0.578125 0.578125,0.890625 1.125,0.890625 1.046875,0 1.546875,-1.359375 1.546875,-1.546875 0,-0.140625 -0.140625,-0.140625 -0.234375,-0.140625 -0.125,0 -0.1875,0 -0.234375,0.125 C 5.96875,-0.375 5.4375,-0.28125 5.28125,-0.28125 c -0.078125,0 -0.171875,0 -0.171875,-0.203125 0,-0.234375 0.09375,-0.484375 0.1875,-0.734375 0.171875,-0.40625 0.625,-1.578125 0.625,-2.125 C 5.921875,-4.265625 5.15625,-4.5 4.4375,-4.5 4.234375,-4.5 3.5,-4.5 2.796875,-3.75 Z m 0,0"
               id="id-f23ba569-d6e4-445c-94b6-7ba493dc84d2" />
          </g>
        </g>
        <g
           style="fill:#000000;fill-opacity:1;stroke-width:0"
           id="id-d6f07d62-6c45-407f-a3ab-bdb1ed02ef39">
          <g
             transform="translate(167.755,136.259)"
             style="fill:#000000;stroke-width:0"
             id="g7869">
            <path
               style="fill:#000000;stroke:#0000ff;stroke-width:0"
               d="m 4.328125,-4.734375 h -3.9375 v 0.25 H 0.5625 c 0.53125,0 0.546875,0.078125 0.546875,0.3125 V -0.5625 c 0,0.234375 -0.015625,0.3125 -0.546875,0.3125 H 0.390625 V 0 c 0,0 0.796875,-0.03125 1.0625,-0.03125 C 1.734375,-0.03125 2.5625,0 2.671875,0 v -0.25 h -0.25 c -0.65625,0 -0.65625,-0.09375 -0.65625,-0.328125 v -3.625 c 0,-0.21875 0.015625,-0.28125 0.34375,-0.28125 h 0.84375 C 4,-4.484375 4.1875,-4.09375 4.296875,-3.125 H 4.53125 Z m 0,0"
               id="id-dc64ed02-f99f-4402-8a07-4adf46d35b2c" />
          </g>
        </g>
      </g>
    </g>
    <g
       transform="matrix(8.28701,0,0,8.28701,777.72736,342.89048)"
       ns1:version="1.8.1"
       ns1:texconverter="pdflatex"
       ns1:pdfconverter="inkscape"
       ns1:text="$\\boldsymbol{u}_{\\Omega}$"
       ns1:preamble="/home/eric-neiva/.config/inkscape/extensions/textext/default_packages.tex"
       ns1:scale="23.49064570079057"
       ns1:alignment="middle center"
       ns1:stroke-to-path="0"
       ns1:inkscapeversion="1.2.2"
       ns1:jacobian_sqrt="8.28701"
       style="fill:#0000ff;stroke-width:0"
       id="g6689">
      <defs
         id="id-a42db929-c5e6-43bd-af7f-ac63afc3f49d"
         style="fill:#0000ff;stroke-width:0">
        <g
           id="id-bd597f05-29a3-43e2-b7b9-8042d3c38625"
           style="fill:#0000ff;stroke-width:0">
          <symbol
             overflow="visible"
             id="id-d7861a41-0060-4a23-90f2-7adc3c5c9b42"
             style="fill:#0000ff;stroke-width:0">
            <path
               style="fill:#0000ff;stroke:#0000ff;stroke-width:0"
               d=""
               id="id-8b4d102f-b6e2-4fc2-a59a-c2d0ab6a5832" />
          </symbol>
          <symbol
             overflow="visible"
             id="id-c38a4459-9796-4e11-b768-0015b7db3db9"
             style="fill:#0000ff;stroke-width:0">
            <path
               style="fill:#0000ff;stroke:#0000ff;stroke-width:0"
               d="m 5.609375,-3.15625 c 0.078125,-0.28125 0.1875,-0.765625 0.1875,-0.828125 0,-0.21875 -0.15625,-0.4375 -0.46875,-0.4375 -0.15625,0 -0.515625,0.078125 -0.65625,0.53125 -0.03125,0.125 -0.484375,1.9375 -0.5625,2.265625 -0.0625,0.234375 -0.125,0.515625 -0.15625,0.703125 C 3.78125,-0.6875 3.390625,-0.28125 2.875,-0.28125 c -0.578125,0 -0.59375,-0.5 -0.59375,-0.71875 0,-0.609375 0.3125,-1.390625 0.59375,-2.109375 C 2.96875,-3.375 3,-3.4375 3,-3.609375 3,-4.1875 2.421875,-4.5 1.875,-4.5 c -1.0625,0 -1.5625,1.34375 -1.5625,1.546875 0,0.140625 0.15625,0.140625 0.25,0.140625 0.109375,0 0.1875,0 0.21875,-0.125 0.328125,-1.109375 0.875,-1.203125 1.03125,-1.203125 0.078125,0 0.171875,0 0.171875,0.203125 0,0.234375 -0.125,0.515625 -0.15625,0.625 -0.421875,1.046875 -0.609375,1.609375 -0.609375,2.09375 0,1.140625 1,1.296875 1.578125,1.296875 0.296875,0 0.734375,-0.03125 1.265625,-0.546875 0.328125,0.484375 0.90625,0.546875 1.140625,0.546875 0.375,0 0.65625,-0.203125 0.875,-0.5625 0.234375,-0.40625 0.375,-0.9375 0.375,-0.984375 0,-0.140625 -0.15625,-0.140625 -0.25,-0.140625 -0.109375,0 -0.140625,0 -0.1875,0.046875 -0.03125,0.015625 -0.03125,0.03125 -0.078125,0.28125 -0.203125,0.78125 -0.421875,1 -0.6875,1 -0.140625,0 -0.21875,-0.09375 -0.21875,-0.359375 0,-0.171875 0.03125,-0.34375 0.125,-0.734375 0.078125,-0.28125 0.171875,-0.671875 0.234375,-0.890625 z m 0,0"
               id="id-45da3cb9-6fcf-4903-988b-db23233236b2" />
          </symbol>
          <symbol
             overflow="visible"
             id="id-41f74a8a-c8c4-4906-96e1-8fb01c4321e5"
             style="fill:#0000ff;stroke-width:0">
            <path
               style="fill:#0000ff;stroke:#0000ff;stroke-width:0"
               d=""
               id="id-a445f782-8408-4a2b-8c6c-c9a32c9d79ca" />
          </symbol>
          <symbol
             overflow="visible"
             id="id-48d00b1d-1a4c-4687-8db6-cce681014198"
             style="fill:#0000ff;stroke-width:0">
            <path
               style="fill:#0000ff;stroke:#0000ff;stroke-width:0"
               d="m 5.28125,-1.171875 h -0.25 c 0,0.015625 -0.0625,0.34375 -0.125,0.515625 C 4.875,-0.546875 4.84375,-0.5 4.421875,-0.5 H 3.828125 C 3.9375,-0.890625 4.140625,-1.15625 4.53125,-1.671875 4.875,-2.140625 5.1875,-2.59375 5.1875,-3.15625 c 0,-0.953125 -1.015625,-1.75 -2.34375,-1.75 -1.34375,0 -2.359375,0.796875 -2.359375,1.75 0,0.609375 0.34375,1.0625 0.828125,1.71875 0.203125,0.265625 0.421875,0.578125 0.53125,0.9375 H 1.25 C 0.84375,-0.5 0.8125,-0.546875 0.78125,-0.625 0.71875,-0.765625 0.640625,-1.15625 0.640625,-1.171875 h -0.25 L 0.640625,0 H 1.90625 c 0.140625,0 0.1875,0 0.1875,-0.15625 0,-0.5 -0.25,-1.09375 -0.40625,-1.4375 -0.265625,-0.609375 -0.453125,-1.0625 -0.453125,-1.578125 0,-0.984375 0.78125,-1.53125 1.609375,-1.53125 0.8125,0 1.59375,0.546875 1.59375,1.53125 0,0.53125 -0.203125,1 -0.4375,1.546875 C 3.84375,-1.28125 3.578125,-0.65625 3.578125,-0.15625 3.578125,0 3.609375,0 3.78125,0 h 1.25 z m 0,0"
               id="id-f15586bc-edbf-4775-8443-b8e6d0856642" />
          </symbol>
        </g>
      </defs>
      <g
         id="id-37356923-c855-4113-9891-b2d608f7299f"
         transform="translate(-149.025,-130.265)"
         style="fill:#0000ff;stroke-width:0">
        <g
           style="fill:#0000ff;fill-opacity:1;stroke-width:0"
           id="id-e50518bd-c2e6-4647-91db-f53fe558315f">
          <g
             transform="translate(148.712,134.765)"
             style="fill:#0000ff;stroke-width:0"
             id="g20133">
            <path
               style="fill:#0000ff;stroke:#0000ff;stroke-width:0"
               d="m 5.609375,-3.15625 c 0.078125,-0.28125 0.1875,-0.765625 0.1875,-0.828125 0,-0.21875 -0.15625,-0.4375 -0.46875,-0.4375 -0.15625,0 -0.515625,0.078125 -0.65625,0.53125 -0.03125,0.125 -0.484375,1.9375 -0.5625,2.265625 -0.0625,0.234375 -0.125,0.515625 -0.15625,0.703125 C 3.78125,-0.6875 3.390625,-0.28125 2.875,-0.28125 c -0.578125,0 -0.59375,-0.5 -0.59375,-0.71875 0,-0.609375 0.3125,-1.390625 0.59375,-2.109375 C 2.96875,-3.375 3,-3.4375 3,-3.609375 3,-4.1875 2.421875,-4.5 1.875,-4.5 c -1.0625,0 -1.5625,1.34375 -1.5625,1.546875 0,0.140625 0.15625,0.140625 0.25,0.140625 0.109375,0 0.1875,0 0.21875,-0.125 0.328125,-1.109375 0.875,-1.203125 1.03125,-1.203125 0.078125,0 0.171875,0 0.171875,0.203125 0,0.234375 -0.125,0.515625 -0.15625,0.625 -0.421875,1.046875 -0.609375,1.609375 -0.609375,2.09375 0,1.140625 1,1.296875 1.578125,1.296875 0.296875,0 0.734375,-0.03125 1.265625,-0.546875 0.328125,0.484375 0.90625,0.546875 1.140625,0.546875 0.375,0 0.65625,-0.203125 0.875,-0.5625 0.234375,-0.40625 0.375,-0.9375 0.375,-0.984375 0,-0.140625 -0.15625,-0.140625 -0.25,-0.140625 -0.109375,0 -0.140625,0 -0.1875,0.046875 -0.03125,0.015625 -0.03125,0.03125 -0.078125,0.28125 -0.203125,0.78125 -0.421875,1 -0.6875,1 -0.140625,0 -0.21875,-0.09375 -0.21875,-0.359375 0,-0.171875 0.03125,-0.34375 0.125,-0.734375 0.078125,-0.28125 0.171875,-0.671875 0.234375,-0.890625 z m 0,0"
               id="id-ca7ebe15-e547-4cf4-9260-32ab102c7b9f" />
          </g>
        </g>
        <g
           style="fill:#0000ff;fill-opacity:1;stroke-width:0"
           id="id-2fce8223-5ff0-4751-96c1-0099a2c26365">
          <g
             transform="translate(155.497,136.259)"
             style="fill:#0000ff;stroke-width:0"
             id="g20137">
            <path
               style="fill:#0000ff;stroke:#0000ff;stroke-width:0"
               d="m 5.28125,-1.171875 h -0.25 c 0,0.015625 -0.0625,0.34375 -0.125,0.515625 C 4.875,-0.546875 4.84375,-0.5 4.421875,-0.5 H 3.828125 C 3.9375,-0.890625 4.140625,-1.15625 4.53125,-1.671875 4.875,-2.140625 5.1875,-2.59375 5.1875,-3.15625 c 0,-0.953125 -1.015625,-1.75 -2.34375,-1.75 -1.34375,0 -2.359375,0.796875 -2.359375,1.75 0,0.609375 0.34375,1.0625 0.828125,1.71875 0.203125,0.265625 0.421875,0.578125 0.53125,0.9375 H 1.25 C 0.84375,-0.5 0.8125,-0.546875 0.78125,-0.625 0.71875,-0.765625 0.640625,-1.15625 0.640625,-1.171875 h -0.25 L 0.640625,0 H 1.90625 c 0.140625,0 0.1875,0 0.1875,-0.15625 0,-0.5 -0.25,-1.09375 -0.40625,-1.4375 -0.265625,-0.609375 -0.453125,-1.0625 -0.453125,-1.578125 0,-0.984375 0.78125,-1.53125 1.609375,-1.53125 0.8125,0 1.59375,0.546875 1.59375,1.53125 0,0.53125 -0.203125,1 -0.4375,1.546875 C 3.84375,-1.28125 3.578125,-0.65625 3.578125,-0.15625 3.578125,0 3.609375,0 3.78125,0 h 1.25 z m 0,0"
               id="id-247b42ee-4c58-4c4d-8bf3-145ccb628e91" />
          </g>
        </g>
      </g>
    </g>
    <g
       transform="matrix(8.28701,0,0,8.28701,1074.235,118.3132)"
       ns1:version="1.8.1"
       ns1:texconverter="pdflatex"
       ns1:pdfconverter="inkscape"
       ns1:text="$\\boldsymbol{u}_{\\Gamma}$"
       ns1:preamble="/home/eric-neiva/.config/inkscape/extensions/textext/default_packages.tex"
       ns1:scale="23.49064570079057"
       ns1:alignment="middle center"
       ns1:stroke-to-path="0"
       ns1:inkscapeversion="1.2.2"
       ns1:jacobian_sqrt="8.28701"
       style="fill:#0000ff;stroke-width:0"
       id="g5339">
      <defs
         id="id-f8023013-a03e-41a5-8e36-4eac4f96f621"
         style="fill:#0000ff;stroke-width:0">
        <g
           id="id-65f67d13-6900-47fd-a439-66c5b4081d9a"
           style="fill:#0000ff;stroke-width:0">
          <symbol
             overflow="visible"
             id="id-235c6a0d-cada-4625-83ee-9b606cdb0a21"
             style="fill:#0000ff;stroke-width:0">
            <path
               style="fill:#0000ff;stroke:#0000ff;stroke-width:0"
               d=""
               id="id-ca4c0991-dfec-482a-998b-2760dd4982af" />
          </symbol>
          <symbol
             overflow="visible"
             id="id-56c6ee11-dafe-47d7-8cb9-a3f240e06155"
             style="fill:#0000ff;stroke-width:0">
            <path
               style="fill:#0000ff;stroke:#0000ff;stroke-width:0"
               d="m 5.609375,-3.15625 c 0.078125,-0.28125 0.1875,-0.765625 0.1875,-0.828125 0,-0.21875 -0.15625,-0.4375 -0.46875,-0.4375 -0.15625,0 -0.515625,0.078125 -0.65625,0.53125 -0.03125,0.125 -0.484375,1.9375 -0.5625,2.265625 -0.0625,0.234375 -0.125,0.515625 -0.15625,0.703125 C 3.78125,-0.6875 3.390625,-0.28125 2.875,-0.28125 c -0.578125,0 -0.59375,-0.5 -0.59375,-0.71875 0,-0.609375 0.3125,-1.390625 0.59375,-2.109375 C 2.96875,-3.375 3,-3.4375 3,-3.609375 3,-4.1875 2.421875,-4.5 1.875,-4.5 c -1.0625,0 -1.5625,1.34375 -1.5625,1.546875 0,0.140625 0.15625,0.140625 0.25,0.140625 0.109375,0 0.1875,0 0.21875,-0.125 0.328125,-1.109375 0.875,-1.203125 1.03125,-1.203125 0.078125,0 0.171875,0 0.171875,0.203125 0,0.234375 -0.125,0.515625 -0.15625,0.625 -0.421875,1.046875 -0.609375,1.609375 -0.609375,2.09375 0,1.140625 1,1.296875 1.578125,1.296875 0.296875,0 0.734375,-0.03125 1.265625,-0.546875 0.328125,0.484375 0.90625,0.546875 1.140625,0.546875 0.375,0 0.65625,-0.203125 0.875,-0.5625 0.234375,-0.40625 0.375,-0.9375 0.375,-0.984375 0,-0.140625 -0.15625,-0.140625 -0.25,-0.140625 -0.109375,0 -0.140625,0 -0.1875,0.046875 -0.03125,0.015625 -0.03125,0.03125 -0.078125,0.28125 -0.203125,0.78125 -0.421875,1 -0.6875,1 -0.140625,0 -0.21875,-0.09375 -0.21875,-0.359375 0,-0.171875 0.03125,-0.34375 0.125,-0.734375 0.078125,-0.28125 0.171875,-0.671875 0.234375,-0.890625 z m 0,0"
               id="id-687e9c59-6173-48e6-9a21-94db2fff82ee" />
          </symbol>
          <symbol
             overflow="visible"
             id="id-71e08561-e055-4df5-834e-0e394f7d9f98"
             style="fill:#0000ff;stroke-width:0">
            <path
               style="fill:#0000ff;stroke:#0000ff;stroke-width:0"
               d=""
               id="id-04f59d52-e88d-48e4-bf76-41cd53324112" />
          </symbol>
          <symbol
             overflow="visible"
             id="id-b8d1d041-f22b-40eb-8e52-5319cc96f251"
             style="fill:#0000ff;stroke-width:0">
            <path
               style="fill:#0000ff;stroke:#0000ff;stroke-width:0"
               d="m 4.328125,-4.734375 h -3.9375 v 0.25 H 0.5625 c 0.53125,0 0.546875,0.078125 0.546875,0.3125 V -0.5625 c 0,0.234375 -0.015625,0.3125 -0.546875,0.3125 H 0.390625 V 0 c 0,0 0.796875,-0.03125 1.0625,-0.03125 C 1.734375,-0.03125 2.5625,0 2.671875,0 v -0.25 h -0.25 c -0.65625,0 -0.65625,-0.09375 -0.65625,-0.328125 v -3.625 c 0,-0.21875 0.015625,-0.28125 0.34375,-0.28125 h 0.84375 C 4,-4.484375 4.1875,-4.09375 4.296875,-3.125 H 4.53125 Z m 0,0"
               id="id-ca163c6d-9bbb-4942-b0eb-ec03e793811f" />
          </symbol>
        </g>
      </defs>
      <g
         id="id-8d63c930-ae5d-4460-a77d-2ace9fdfb1dc"
         transform="translate(-149.025,-130.265)"
         style="fill:#0000ff;stroke-width:0">
        <g
           style="fill:#0000ff;fill-opacity:1;stroke-width:0"
           id="id-07ff84ab-b706-4343-8bb3-5f42824acc97">
          <g
             transform="translate(148.712,134.765)"
             style="fill:#0000ff;stroke-width:0"
             id="g20650">
            <path
               style="fill:#0000ff;stroke:#0000ff;stroke-width:0"
               d="m 5.609375,-3.15625 c 0.078125,-0.28125 0.1875,-0.765625 0.1875,-0.828125 0,-0.21875 -0.15625,-0.4375 -0.46875,-0.4375 -0.15625,0 -0.515625,0.078125 -0.65625,0.53125 -0.03125,0.125 -0.484375,1.9375 -0.5625,2.265625 -0.0625,0.234375 -0.125,0.515625 -0.15625,0.703125 C 3.78125,-0.6875 3.390625,-0.28125 2.875,-0.28125 c -0.578125,0 -0.59375,-0.5 -0.59375,-0.71875 0,-0.609375 0.3125,-1.390625 0.59375,-2.109375 C 2.96875,-3.375 3,-3.4375 3,-3.609375 3,-4.1875 2.421875,-4.5 1.875,-4.5 c -1.0625,0 -1.5625,1.34375 -1.5625,1.546875 0,0.140625 0.15625,0.140625 0.25,0.140625 0.109375,0 0.1875,0 0.21875,-0.125 0.328125,-1.109375 0.875,-1.203125 1.03125,-1.203125 0.078125,0 0.171875,0 0.171875,0.203125 0,0.234375 -0.125,0.515625 -0.15625,0.625 -0.421875,1.046875 -0.609375,1.609375 -0.609375,2.09375 0,1.140625 1,1.296875 1.578125,1.296875 0.296875,0 0.734375,-0.03125 1.265625,-0.546875 0.328125,0.484375 0.90625,0.546875 1.140625,0.546875 0.375,0 0.65625,-0.203125 0.875,-0.5625 0.234375,-0.40625 0.375,-0.9375 0.375,-0.984375 0,-0.140625 -0.15625,-0.140625 -0.25,-0.140625 -0.109375,0 -0.140625,0 -0.1875,0.046875 -0.03125,0.015625 -0.03125,0.03125 -0.078125,0.28125 -0.203125,0.78125 -0.421875,1 -0.6875,1 -0.140625,0 -0.21875,-0.09375 -0.21875,-0.359375 0,-0.171875 0.03125,-0.34375 0.125,-0.734375 0.078125,-0.28125 0.171875,-0.671875 0.234375,-0.890625 z m 0,0"
               id="id-0267d95a-2023-480e-8e43-5bfdda32add4" />
          </g>
        </g>
        <g
           style="fill:#0000ff;fill-opacity:1;stroke-width:0"
           id="id-0f386f7b-5842-490a-b271-49c2c8d3a8ec">
          <g
             transform="translate(155.497,136.259)"
             style="fill:#0000ff;stroke-width:0"
             id="g20654">
            <path
               style="fill:#0000ff;stroke:#0000ff;stroke-width:0"
               d="m 4.328125,-4.734375 h -3.9375 v 0.25 H 0.5625 c 0.53125,0 0.546875,0.078125 0.546875,0.3125 V -0.5625 c 0,0.234375 -0.015625,0.3125 -0.546875,0.3125 H 0.390625 V 0 c 0,0 0.796875,-0.03125 1.0625,-0.03125 C 1.734375,-0.03125 2.5625,0 2.671875,0 v -0.25 h -0.25 c -0.65625,0 -0.65625,-0.09375 -0.65625,-0.328125 v -3.625 c 0,-0.21875 0.015625,-0.28125 0.34375,-0.28125 h 0.84375 C 4,-4.484375 4.1875,-4.09375 4.296875,-3.125 H 4.53125 Z m 0,0"
               id="id-6f44b5b5-935f-4035-bb08-161187056a75" />
          </g>
        </g>
      </g>
    </g>
    <path
       style="fill:#000000;fill-opacity:0;stroke:#0000ff;stroke-width:5;stroke-linecap:butt;stroke-linejoin:miter;stroke-dasharray:none;stroke-opacity:1;marker-end:url(#Arrow3)"
       d="m 831.37771,312.17529 c -4.10989,-0.88615 -8.22009,-1.77237 -16.59136,-1.95142 -8.37128,-0.17904 -21.0031,0.34916 -30.18373,5.37418 -9.18063,5.02502 -14.9093,14.54641 -20.63803,24.0679"
       id="path35592"
       inkscape:path-effect="#path-effect35594"
       inkscape:original-d="m 831.37771,312.17529 c -4.10993,-0.88596 -8.22013,-1.77218 -12.33059,-2.65866 -12.63204,0.52848 -25.26386,1.05666 -37.8962,1.58461 -5.72863,9.52201 -11.45728,19.04341 -17.18633,28.56471" />
    <path
       style="fill:#000000;fill-opacity:0;stroke:#0000ff;stroke-width:5;stroke-linecap:butt;stroke-linejoin:miter;stroke-dasharray:none;stroke-opacity:1;marker-end:url(#Arrow3)"
       d="m 763.33864,376.22512 c 3.6508,13.03165 7.30151,26.06299 19.57377,32.48241 12.27227,6.41942 33.16507,6.22722 54.05803,6.03502"
       id="path35644"
       inkscape:path-effect="#path-effect35646"
       inkscape:original-d="m 763.33864,376.22512 c 3.65096,13.0316 7.30168,26.06294 10.95214,39.09404 20.8939,-0.19195 41.7867,-0.38415 62.67966,-0.57661" />
    <path
       style="fill:#000000;fill-opacity:0;stroke:#0000ff;stroke-width:5;stroke-linecap:butt;stroke-linejoin:miter;stroke-dasharray:none;stroke-opacity:1;marker-end:url(#Arrow3)"
       d="m 873.35846,407.83156 c 9.94274,-7.44416 19.88541,-14.88827 25.30375,-24.07111 5.41835,-9.18283 6.31236,-20.10419 0.008,-30.70233 -6.304,-10.59814 -19.80583,-20.8724 -33.30823,-31.14709"
       id="path35696"
       inkscape:path-effect="#path-effect35698"
       inkscape:original-d="m 873.35846,407.83156 c 9.94296,-7.44387 19.88563,-14.88797 29.82806,-22.33237 0.89432,-10.92155 1.78835,-21.84291 2.68211,-32.76476 -13.50211,-10.2744 -27.00393,-20.54867 -40.5063,-30.8234" />
    <path
       style="fill:#71c837;stroke:#0000ff;stroke-width:5;stroke-linecap:butt;stroke-linejoin:miter;stroke-dasharray:none;stroke-opacity:1;marker-end:url(#Arrow3-3)"
       d="m 1175.3193,119.90418 c 0.6112,-6.97102 1.2225,-13.94234 1.5425,-21.089682 0.32,-7.147347 0.3486,-14.470513 0.021,-19.664991 -0.3275,-5.194478 -1.0113,-8.260053 -1.6952,-11.326043"
       id="path35052"
       inkscape:path-effect="#path-effect35054"
       inkscape:original-d="m 1175.3193,119.90418 c 0.6115,-6.971 1.2228,-13.94231 1.8338,-20.913895 0.029,-7.323133 0.058,-14.646297 0.086,-21.969881 -0.6836,-3.065406 -1.3674,-6.130978 -2.0514,-9.19694" />
    <path
       style="fill:#71c837;stroke:#0000ff;stroke-width:5;stroke-linecap:butt;stroke-linejoin:miter;stroke-dasharray:none;stroke-opacity:1;marker-end:url(#Arrow3-3)"
       d="m 1185.8443,141.72173 c 7.0539,1.36994 14.1078,2.73987 21.2556,4.13091 7.1477,1.39105 14.389,2.80314 21.5866,4.61348 7.1976,1.81035 14.3511,4.01885 21.5045,6.22731"
       id="path35104"
       inkscape:path-effect="#path-effect35106"
       inkscape:original-d="m 1185.8443,141.72173 c 7.054,1.36964 14.1079,2.73956 21.1615,4.10976 7.2419,1.41186 14.4832,2.82395 21.7244,4.23637 7.154,2.20827 14.3075,4.41676 21.4608,6.62557" />
    <path
       style="fill:none;stroke:#ff00ff;stroke-width:5.58421;stroke-linecap:butt;stroke-linejoin:miter;stroke-dasharray:none;stroke-opacity:1;marker-end:url(#marker6510)"
       d="m 742.17985,488.84812 c 31.92786,2.40648 63.85551,4.81295 95.78303,7.21941"
       id="path5423"
       inkscape:path-effect="#path-effect5425"
       inkscape:original-d="m 742.17985,488.84812 c 31.92785,2.40665 63.8555,4.8131 95.78303,7.21941" />
    <path
       style="fill:none;stroke:#ff00ff;stroke-width:5.58421;stroke-linecap:butt;stroke-linejoin:miter;stroke-dasharray:none;stroke-opacity:1;marker-end:url(#marker6510)"
       d="m 914.33298,545.17705 c -31.92788,-2.40649 -63.85555,-4.81295 -95.78303,-7.21941"
       id="path6702"
       inkscape:path-effect="#path-effect6706"
       inkscape:original-d="m 914.33298,545.17705 c -31.92787,-2.40665 -63.85554,-4.8131 -95.78303,-7.21941" />
    <g
       transform="matrix(5.0239841,0,0,5.0239841,712.11947,579.083)"
       ns1:version="1.8.1"
       ns1:texconverter="pdflatex"
       ns1:pdfconverter="inkscape"
       ns1:text="$\\boldsymbol{\\sigma}_\\Omega(\\boldsymbol{u}_\\Omega) \\boldsymbol{n}_\\Gamma$"
       ns1:preamble="/home/eric-neiva/.config/inkscape/extensions/textext/default_packages.tex"
       ns1:scale="20.40209637465555"
       ns1:alignment="middle center"
       ns1:stroke-to-path="0"
       ns1:inkscapeversion="1.2.2"
       ns1:jacobian_sqrt="7.19741"
       id="g7289"
       style="fill:#ff00ff">
      <defs
         id="id-75b94449-72c2-4bb6-b069-7b0475d8d876">
        <g
           id="g1397">
          <symbol
             overflow="visible"
             id="symbol1359">
            <path
               style="stroke:none;stroke-width:0"
               d=""
               id="path1357" />
          </symbol>
          <symbol
             overflow="visible"
             id="symbol1363">
            <path
               style="stroke:none;stroke-width:0"
               d="m 3.375,-4.421875 c -2.046875,0 -2.953125,1.875 -2.953125,2.921875 0,1.078125 0.796875,1.578125 1.875,1.578125 1.8125,0 2.875,-1.375 2.875,-2.796875 0,-0.234375 -0.03125,-0.515625 -0.140625,-0.75 h 0.953125 c 0.203125,0 0.359375,0 0.5,-0.15625 C 6.5625,-3.6875 6.6875,-3.8125 6.6875,-4.03125 c 0,-0.390625 -0.34375,-0.390625 -0.53125,-0.390625 z M 2.3125,-0.28125 c -0.859375,0 -0.859375,-0.703125 -0.859375,-0.859375 0,-0.375 0.21875,-1.328125 0.4375,-1.6875 0.203125,-0.34375 0.53125,-0.640625 1.296875,-0.640625 0.8125,0 0.90625,0.34375 0.90625,0.703125 0,0.296875 -0.203125,1.296875 -0.515625,1.78125 C 3.171875,-0.375 2.59375,-0.28125 2.3125,-0.28125 Z m 0,0"
               id="path1361" />
          </symbol>
          <symbol
             overflow="visible"
             id="symbol1367">
            <path
               style="stroke:none;stroke-width:0"
               d="m 5.609375,-3.15625 c 0.078125,-0.28125 0.1875,-0.765625 0.1875,-0.828125 0,-0.21875 -0.15625,-0.4375 -0.46875,-0.4375 -0.15625,0 -0.515625,0.078125 -0.65625,0.53125 -0.03125,0.125 -0.484375,1.9375 -0.5625,2.265625 -0.0625,0.234375 -0.125,0.515625 -0.15625,0.703125 C 3.78125,-0.6875 3.390625,-0.28125 2.875,-0.28125 c -0.578125,0 -0.59375,-0.5 -0.59375,-0.71875 0,-0.609375 0.3125,-1.390625 0.59375,-2.109375 C 2.96875,-3.375 3,-3.4375 3,-3.609375 3,-4.1875 2.421875,-4.5 1.875,-4.5 c -1.0625,0 -1.5625,1.34375 -1.5625,1.546875 0,0.140625 0.15625,0.140625 0.25,0.140625 0.109375,0 0.1875,0 0.21875,-0.125 0.328125,-1.109375 0.875,-1.203125 1.03125,-1.203125 0.078125,0 0.171875,0 0.171875,0.203125 0,0.234375 -0.125,0.515625 -0.15625,0.625 -0.421875,1.046875 -0.609375,1.609375 -0.609375,2.09375 0,1.140625 1,1.296875 1.578125,1.296875 0.296875,0 0.734375,-0.03125 1.265625,-0.546875 0.328125,0.484375 0.90625,0.546875 1.140625,0.546875 0.375,0 0.65625,-0.203125 0.875,-0.5625 0.234375,-0.40625 0.375,-0.9375 0.375,-0.984375 0,-0.140625 -0.15625,-0.140625 -0.25,-0.140625 -0.109375,0 -0.140625,0 -0.1875,0.046875 -0.03125,0.015625 -0.03125,0.03125 -0.078125,0.28125 -0.203125,0.78125 -0.421875,1 -0.6875,1 -0.140625,0 -0.21875,-0.09375 -0.21875,-0.359375 0,-0.171875 0.03125,-0.34375 0.125,-0.734375 0.078125,-0.28125 0.171875,-0.671875 0.234375,-0.890625 z m 0,0"
               id="path1365" />
          </symbol>
          <symbol
             overflow="visible"
             id="symbol1371">
            <path
               style="stroke:none;stroke-width:0"
               d="M 2.796875,-3.75 C 2.65625,-4.25 2.109375,-4.5 1.5625,-4.5 1.203125,-4.5 0.921875,-4.296875 0.703125,-3.9375 0.453125,-3.53125 0.3125,-3 0.3125,-2.953125 c 0,0.140625 0.15625,0.140625 0.25,0.140625 0.109375,0 0.140625,0 0.1875,-0.046875 C 0.78125,-2.875 0.78125,-2.90625 0.84375,-3.15625 1.03125,-3.921875 1.25,-4.140625 1.515625,-4.140625 c 0.15625,0 0.234375,0.09375 0.234375,0.359375 0,0.171875 -0.046875,0.328125 -0.140625,0.734375 C 1.53125,-2.765625 1.4375,-2.375 1.390625,-2.15625 L 1.03125,-0.75 C 1,-0.625 0.953125,-0.421875 0.953125,-0.359375 c 0,0.203125 0.15625,0.4375 0.46875,0.4375 0.515625,0 0.625,-0.453125 0.703125,-0.75 0.09375,-0.375 0.171875,-0.6875 0.28125,-1.125 0.03125,-0.125 0.28125,-1.15625 0.3125,-1.1875 0,-0.0625 0.28125,-0.5 0.609375,-0.78125 0.28125,-0.21875 0.609375,-0.375 1.03125,-0.375 0.25,0 0.5,0.09375 0.5,0.578125 0,0.578125 -0.4375,1.734375 -0.625,2.234375 -0.125,0.265625 -0.140625,0.34375 -0.140625,0.515625 0,0.578125 0.578125,0.890625 1.125,0.890625 1.046875,0 1.546875,-1.359375 1.546875,-1.546875 0,-0.140625 -0.140625,-0.140625 -0.234375,-0.140625 -0.125,0 -0.1875,0 -0.234375,0.125 C 5.96875,-0.375 5.4375,-0.28125 5.28125,-0.28125 c -0.078125,0 -0.171875,0 -0.171875,-0.203125 0,-0.234375 0.09375,-0.484375 0.1875,-0.734375 0.171875,-0.40625 0.625,-1.578125 0.625,-2.125 C 5.921875,-4.265625 5.15625,-4.5 4.4375,-4.5 4.234375,-4.5 3.5,-4.5 2.796875,-3.75 Z m 0,0"
               id="path1369" />
          </symbol>
          <symbol
             overflow="visible"
             id="symbol1375">
            <path
               style="stroke:none;stroke-width:0"
               d=""
               id="path1373" />
          </symbol>
          <symbol
             overflow="visible"
             id="symbol1379">
            <path
               style="stroke:none;stroke-width:0"
               d="m 5.28125,-1.171875 h -0.25 c 0,0.015625 -0.0625,0.34375 -0.125,0.515625 C 4.875,-0.546875 4.84375,-0.5 4.421875,-0.5 H 3.828125 C 3.9375,-0.890625 4.140625,-1.15625 4.53125,-1.671875 4.875,-2.140625 5.1875,-2.59375 5.1875,-3.15625 c 0,-0.953125 -1.015625,-1.75 -2.34375,-1.75 -1.34375,0 -2.359375,0.796875 -2.359375,1.75 0,0.609375 0.34375,1.0625 0.828125,1.71875 0.203125,0.265625 0.421875,0.578125 0.53125,0.9375 H 1.25 C 0.84375,-0.5 0.8125,-0.546875 0.78125,-0.625 0.71875,-0.765625 0.640625,-1.15625 0.640625,-1.171875 h -0.25 L 0.640625,0 H 1.90625 c 0.140625,0 0.1875,0 0.1875,-0.15625 0,-0.5 -0.25,-1.09375 -0.40625,-1.4375 -0.265625,-0.609375 -0.453125,-1.0625 -0.453125,-1.578125 0,-0.984375 0.78125,-1.53125 1.609375,-1.53125 0.8125,0 1.59375,0.546875 1.59375,1.53125 0,0.53125 -0.203125,1 -0.4375,1.546875 C 3.84375,-1.28125 3.578125,-0.65625 3.578125,-0.15625 3.578125,0 3.609375,0 3.78125,0 h 1.25 z m 0,0"
               id="path1377" />
          </symbol>
          <symbol
             overflow="visible"
             id="symbol1383">
            <path
               style="stroke:none;stroke-width:0"
               d="m 4.328125,-4.734375 h -3.9375 v 0.25 H 0.5625 c 0.53125,0 0.546875,0.078125 0.546875,0.3125 V -0.5625 c 0,0.234375 -0.015625,0.3125 -0.546875,0.3125 H 0.390625 V 0 c 0,0 0.796875,-0.03125 1.0625,-0.03125 C 1.734375,-0.03125 2.5625,0 2.671875,0 v -0.25 h -0.25 c -0.65625,0 -0.65625,-0.09375 -0.65625,-0.328125 v -3.625 c 0,-0.21875 0.015625,-0.28125 0.34375,-0.28125 h 0.84375 C 4,-4.484375 4.1875,-4.09375 4.296875,-3.125 H 4.53125 Z m 0,0"
               id="path1381" />
          </symbol>
          <symbol
             overflow="visible"
             id="symbol1387">
            <path
               style="stroke:none;stroke-width:0"
               d=""
               id="path1385" />
          </symbol>
          <symbol
             overflow="visible"
             id="symbol1391">
            <path
               style="stroke:none;stroke-width:0"
               d="m 3.296875,2.390625 c 0,-0.03125 0,-0.046875 -0.171875,-0.21875 C 1.890625,0.921875 1.5625,-0.96875 1.5625,-2.5 c 0,-1.734375 0.375,-3.46875 1.609375,-4.703125 0.125,-0.125 0.125,-0.140625 0.125,-0.171875 0,-0.078125 -0.03125,-0.109375 -0.09375,-0.109375 -0.109375,0 -1,0.6875 -1.59375,1.953125 -0.5,1.09375 -0.625,2.203125 -0.625,3.03125 0,0.78125 0.109375,1.984375 0.65625,3.125 C 2.25,1.84375 3.09375,2.5 3.203125,2.5 c 0.0625,0 0.09375,-0.03125 0.09375,-0.109375 z m 0,0"
               id="path1389" />
          </symbol>
          <symbol
             overflow="visible"
             id="symbol1395">
            <path
               style="stroke:none;stroke-width:0"
               d="m 2.875,-2.5 c 0,-0.765625 -0.109375,-1.96875 -0.65625,-3.109375 -0.59375,-1.21875 -1.453125,-1.875 -1.546875,-1.875 -0.0625,0 -0.109375,0.046875 -0.109375,0.109375 0,0.03125 0,0.046875 0.1875,0.234375 0.984375,0.984375 1.546875,2.5625 1.546875,4.640625 0,1.71875 -0.359375,3.46875 -1.59375,4.71875 C 0.5625,2.34375 0.5625,2.359375 0.5625,2.390625 0.5625,2.453125 0.609375,2.5 0.671875,2.5 0.765625,2.5 1.671875,1.8125 2.25,0.546875 2.765625,-0.546875 2.875,-1.65625 2.875,-2.5 Z m 0,0"
               id="path1393" />
          </symbol>
        </g>
      </defs>
      <g
         id="id-0f73dc30-9d6f-4714-af70-46b0355815fb"
         transform="translate(-149.134,-127.281)"
         style="fill:#ff00ff">
        <g
           style="fill:#ff00ff;fill-opacity:1"
           id="id-f1d815a0-46dd-42a7-8ec0-48b5cc040d8c">
          <g
             transform="translate(148.712,134.765)"
             id="g7257"
             style="fill:#ff00ff">
            <path
               style="fill:#ff00ff;stroke:none;stroke-width:0"
               d="m 3.375,-4.421875 c -2.046875,0 -2.953125,1.875 -2.953125,2.921875 0,1.078125 0.796875,1.578125 1.875,1.578125 1.8125,0 2.875,-1.375 2.875,-2.796875 0,-0.234375 -0.03125,-0.515625 -0.140625,-0.75 h 0.953125 c 0.203125,0 0.359375,0 0.5,-0.15625 C 6.5625,-3.6875 6.6875,-3.8125 6.6875,-4.03125 c 0,-0.390625 -0.34375,-0.390625 -0.53125,-0.390625 z M 2.3125,-0.28125 c -0.859375,0 -0.859375,-0.703125 -0.859375,-0.859375 0,-0.375 0.21875,-1.328125 0.4375,-1.6875 0.203125,-0.34375 0.53125,-0.640625 1.296875,-0.640625 0.8125,0 0.90625,0.34375 0.90625,0.703125 0,0.296875 -0.203125,1.296875 -0.515625,1.78125 C 3.171875,-0.375 2.59375,-0.28125 2.3125,-0.28125 Z m 0,0"
               id="id-a3b34a89-156c-42a9-a48f-fa88bdca28ad" />
          </g>
        </g>
        <g
           style="fill:#ff00ff;fill-opacity:1"
           id="id-e1e18900-b28e-4619-b205-37611042f6c1">
          <g
             transform="translate(155.914,136.259)"
             id="g7261"
             style="fill:#ff00ff">
            <path
               style="fill:#ff00ff;stroke:none;stroke-width:0"
               d="m 5.28125,-1.171875 h -0.25 c 0,0.015625 -0.0625,0.34375 -0.125,0.515625 C 4.875,-0.546875 4.84375,-0.5 4.421875,-0.5 H 3.828125 C 3.9375,-0.890625 4.140625,-1.15625 4.53125,-1.671875 4.875,-2.140625 5.1875,-2.59375 5.1875,-3.15625 c 0,-0.953125 -1.015625,-1.75 -2.34375,-1.75 -1.34375,0 -2.359375,0.796875 -2.359375,1.75 0,0.609375 0.34375,1.0625 0.828125,1.71875 0.203125,0.265625 0.421875,0.578125 0.53125,0.9375 H 1.25 C 0.84375,-0.5 0.8125,-0.546875 0.78125,-0.625 0.71875,-0.765625 0.640625,-1.15625 0.640625,-1.171875 h -0.25 L 0.640625,0 H 1.90625 c 0.140625,0 0.1875,0 0.1875,-0.15625 0,-0.5 -0.25,-1.09375 -0.40625,-1.4375 -0.265625,-0.609375 -0.453125,-1.0625 -0.453125,-1.578125 0,-0.984375 0.78125,-1.53125 1.609375,-1.53125 0.8125,0 1.59375,0.546875 1.59375,1.53125 0,0.53125 -0.203125,1 -0.4375,1.546875 C 3.84375,-1.28125 3.578125,-0.65625 3.578125,-0.15625 3.578125,0 3.609375,0 3.78125,0 h 1.25 z m 0,0"
               id="id-f29f8634-8f92-449d-abb9-b87545608879" />
          </g>
        </g>
        <g
           style="fill:#ff00ff;fill-opacity:1"
           id="id-9572179c-49a5-482d-9e58-ca4f8fa0a286">
          <g
             transform="translate(162.1,134.765)"
             id="g7265"
             style="fill:#ff00ff">
            <path
               style="fill:#ff00ff;stroke:none;stroke-width:0"
               d="m 3.296875,2.390625 c 0,-0.03125 0,-0.046875 -0.171875,-0.21875 C 1.890625,0.921875 1.5625,-0.96875 1.5625,-2.5 c 0,-1.734375 0.375,-3.46875 1.609375,-4.703125 0.125,-0.125 0.125,-0.140625 0.125,-0.171875 0,-0.078125 -0.03125,-0.109375 -0.09375,-0.109375 -0.109375,0 -1,0.6875 -1.59375,1.953125 -0.5,1.09375 -0.625,2.203125 -0.625,3.03125 0,0.78125 0.109375,1.984375 0.65625,3.125 C 2.25,1.84375 3.09375,2.5 3.203125,2.5 c 0.0625,0 0.09375,-0.03125 0.09375,-0.109375 z m 0,0"
               id="id-8357dd23-3fa8-4769-b69f-73e8c2111de9" />
          </g>
        </g>
        <g
           style="fill:#ff00ff;fill-opacity:1"
           id="id-492767dc-2cf5-4f54-b643-6e74b23d6e3e">
          <g
             transform="translate(165.974,134.765)"
             id="g7269"
             style="fill:#ff00ff">
            <path
               style="fill:#ff00ff;stroke:none;stroke-width:0"
               d="m 5.609375,-3.15625 c 0.078125,-0.28125 0.1875,-0.765625 0.1875,-0.828125 0,-0.21875 -0.15625,-0.4375 -0.46875,-0.4375 -0.15625,0 -0.515625,0.078125 -0.65625,0.53125 -0.03125,0.125 -0.484375,1.9375 -0.5625,2.265625 -0.0625,0.234375 -0.125,0.515625 -0.15625,0.703125 C 3.78125,-0.6875 3.390625,-0.28125 2.875,-0.28125 c -0.578125,0 -0.59375,-0.5 -0.59375,-0.71875 0,-0.609375 0.3125,-1.390625 0.59375,-2.109375 C 2.96875,-3.375 3,-3.4375 3,-3.609375 3,-4.1875 2.421875,-4.5 1.875,-4.5 c -1.0625,0 -1.5625,1.34375 -1.5625,1.546875 0,0.140625 0.15625,0.140625 0.25,0.140625 0.109375,0 0.1875,0 0.21875,-0.125 0.328125,-1.109375 0.875,-1.203125 1.03125,-1.203125 0.078125,0 0.171875,0 0.171875,0.203125 0,0.234375 -0.125,0.515625 -0.15625,0.625 -0.421875,1.046875 -0.609375,1.609375 -0.609375,2.09375 0,1.140625 1,1.296875 1.578125,1.296875 0.296875,0 0.734375,-0.03125 1.265625,-0.546875 0.328125,0.484375 0.90625,0.546875 1.140625,0.546875 0.375,0 0.65625,-0.203125 0.875,-0.5625 0.234375,-0.40625 0.375,-0.9375 0.375,-0.984375 0,-0.140625 -0.15625,-0.140625 -0.25,-0.140625 -0.109375,0 -0.140625,0 -0.1875,0.046875 -0.03125,0.015625 -0.03125,0.03125 -0.078125,0.28125 -0.203125,0.78125 -0.421875,1 -0.6875,1 -0.140625,0 -0.21875,-0.09375 -0.21875,-0.359375 0,-0.171875 0.03125,-0.34375 0.125,-0.734375 0.078125,-0.28125 0.171875,-0.671875 0.234375,-0.890625 z m 0,0"
               id="id-d075ecd4-67a5-49e1-b159-e5a8f6d3a22c" />
          </g>
        </g>
        <g
           style="fill:#ff00ff;fill-opacity:1"
           id="id-6b816653-9418-4246-9b46-8234ce8c49ab">
          <g
             transform="translate(172.759,136.259)"
             id="g7273"
             style="fill:#ff00ff">
            <path
               style="fill:#ff00ff;stroke:none;stroke-width:0"
               d="m 5.28125,-1.171875 h -0.25 c 0,0.015625 -0.0625,0.34375 -0.125,0.515625 C 4.875,-0.546875 4.84375,-0.5 4.421875,-0.5 H 3.828125 C 3.9375,-0.890625 4.140625,-1.15625 4.53125,-1.671875 4.875,-2.140625 5.1875,-2.59375 5.1875,-3.15625 c 0,-0.953125 -1.015625,-1.75 -2.34375,-1.75 -1.34375,0 -2.359375,0.796875 -2.359375,1.75 0,0.609375 0.34375,1.0625 0.828125,1.71875 0.203125,0.265625 0.421875,0.578125 0.53125,0.9375 H 1.25 C 0.84375,-0.5 0.8125,-0.546875 0.78125,-0.625 0.71875,-0.765625 0.640625,-1.15625 0.640625,-1.171875 h -0.25 L 0.640625,0 H 1.90625 c 0.140625,0 0.1875,0 0.1875,-0.15625 0,-0.5 -0.25,-1.09375 -0.40625,-1.4375 -0.265625,-0.609375 -0.453125,-1.0625 -0.453125,-1.578125 0,-0.984375 0.78125,-1.53125 1.609375,-1.53125 0.8125,0 1.59375,0.546875 1.59375,1.53125 0,0.53125 -0.203125,1 -0.4375,1.546875 C 3.84375,-1.28125 3.578125,-0.65625 3.578125,-0.15625 3.578125,0 3.609375,0 3.78125,0 h 1.25 z m 0,0"
               id="id-4bad3cfa-c70f-469f-b25c-8857dcccd138" />
          </g>
        </g>
        <g
           style="fill:#ff00ff;fill-opacity:1"
           id="id-7ef19ef7-9fa3-48c9-8de5-deda6d8e7cd4">
          <g
             transform="translate(178.944,134.765)"
             id="g7277"
             style="fill:#ff00ff">
            <path
               style="fill:#ff00ff;stroke:none;stroke-width:0"
               d="m 2.875,-2.5 c 0,-0.765625 -0.109375,-1.96875 -0.65625,-3.109375 -0.59375,-1.21875 -1.453125,-1.875 -1.546875,-1.875 -0.0625,0 -0.109375,0.046875 -0.109375,0.109375 0,0.03125 0,0.046875 0.1875,0.234375 0.984375,0.984375 1.546875,2.5625 1.546875,4.640625 0,1.71875 -0.359375,3.46875 -1.59375,4.71875 C 0.5625,2.34375 0.5625,2.359375 0.5625,2.390625 0.5625,2.453125 0.609375,2.5 0.671875,2.5 0.765625,2.5 1.671875,1.8125 2.25,0.546875 2.765625,-0.546875 2.875,-1.65625 2.875,-2.5 Z m 0,0"
               id="id-b149529e-845b-4665-bd66-d341ea5d86cd" />
          </g>
        </g>
        <g
           style="fill:#ff00ff;fill-opacity:1"
           id="id-7c9a1c11-c5c0-4f6a-8e17-6a6284437572">
          <g
             transform="translate(182.818,134.765)"
             id="g7281"
             style="fill:#ff00ff">
            <path
               style="fill:#ff00ff;stroke:none;stroke-width:0"
               d="M 2.796875,-3.75 C 2.65625,-4.25 2.109375,-4.5 1.5625,-4.5 1.203125,-4.5 0.921875,-4.296875 0.703125,-3.9375 0.453125,-3.53125 0.3125,-3 0.3125,-2.953125 c 0,0.140625 0.15625,0.140625 0.25,0.140625 0.109375,0 0.140625,0 0.1875,-0.046875 C 0.78125,-2.875 0.78125,-2.90625 0.84375,-3.15625 1.03125,-3.921875 1.25,-4.140625 1.515625,-4.140625 c 0.15625,0 0.234375,0.09375 0.234375,0.359375 0,0.171875 -0.046875,0.328125 -0.140625,0.734375 C 1.53125,-2.765625 1.4375,-2.375 1.390625,-2.15625 L 1.03125,-0.75 C 1,-0.625 0.953125,-0.421875 0.953125,-0.359375 c 0,0.203125 0.15625,0.4375 0.46875,0.4375 0.515625,0 0.625,-0.453125 0.703125,-0.75 0.09375,-0.375 0.171875,-0.6875 0.28125,-1.125 0.03125,-0.125 0.28125,-1.15625 0.3125,-1.1875 0,-0.0625 0.28125,-0.5 0.609375,-0.78125 0.28125,-0.21875 0.609375,-0.375 1.03125,-0.375 0.25,0 0.5,0.09375 0.5,0.578125 0,0.578125 -0.4375,1.734375 -0.625,2.234375 -0.125,0.265625 -0.140625,0.34375 -0.140625,0.515625 0,0.578125 0.578125,0.890625 1.125,0.890625 1.046875,0 1.546875,-1.359375 1.546875,-1.546875 0,-0.140625 -0.140625,-0.140625 -0.234375,-0.140625 -0.125,0 -0.1875,0 -0.234375,0.125 C 5.96875,-0.375 5.4375,-0.28125 5.28125,-0.28125 c -0.078125,0 -0.171875,0 -0.171875,-0.203125 0,-0.234375 0.09375,-0.484375 0.1875,-0.734375 0.171875,-0.40625 0.625,-1.578125 0.625,-2.125 C 5.921875,-4.265625 5.15625,-4.5 4.4375,-4.5 4.234375,-4.5 3.5,-4.5 2.796875,-3.75 Z m 0,0"
               id="id-2953152f-a9f4-4ab8-8975-407e3199e8e7" />
          </g>
        </g>
        <g
           style="fill:#ff00ff;fill-opacity:1"
           id="id-e6c2a30b-26a3-45c9-8122-0b06d368a1f9">
          <g
             transform="translate(189.921,136.259)"
             id="g7285"
             style="fill:#ff00ff">
            <path
               style="fill:#ff00ff;stroke:none;stroke-width:0"
               d="m 4.328125,-4.734375 h -3.9375 v 0.25 H 0.5625 c 0.53125,0 0.546875,0.078125 0.546875,0.3125 V -0.5625 c 0,0.234375 -0.015625,0.3125 -0.546875,0.3125 H 0.390625 V 0 c 0,0 0.796875,-0.03125 1.0625,-0.03125 C 1.734375,-0.03125 2.5625,0 2.671875,0 v -0.25 h -0.25 c -0.65625,0 -0.65625,-0.09375 -0.65625,-0.328125 v -3.625 c 0,-0.21875 0.015625,-0.28125 0.34375,-0.28125 h 0.84375 C 4,-4.484375 4.1875,-4.09375 4.296875,-3.125 H 4.53125 Z m 0,0"
               id="id-a38094e4-3489-48cf-b504-e8caf21a100e" />
          </g>
        </g>
      </g>
    </g>
  </g>
</svg>
